<?xml version="1.0" encoding="UTF-8" standalone="no"?>
<!-- Created with Inkscape (http://www.inkscape.org/) -->

<svg
   width="210mm"
   height="297mm"
   viewBox="0 0 210 297"
   version="1.1"
   id="svg2981"
   inkscape:version="1.2 (dc2aedaf03, 2022-05-15)"
   sodipodi:docname="basti_spe.svg"
   xmlns:inkscape="http://www.inkscape.org/namespaces/inkscape"
   xmlns:sodipodi="http://sodipodi.sourceforge.net/DTD/sodipodi-0.dtd"
   xmlns="http://www.w3.org/2000/svg"
   xmlns:svg="http://www.w3.org/2000/svg">
  <sodipodi:namedview
     id="namedview2983"
     pagecolor="#ffffff"
     bordercolor="#666666"
     borderopacity="1.0"
     inkscape:showpageshadow="2"
     inkscape:pageopacity="0.0"
     inkscape:pagecheckerboard="0"
     inkscape:deskcolor="#d1d1d1"
     inkscape:document-units="mm"
     showgrid="false"
     inkscape:zoom="2.993266"
     inkscape:cx="312.86895"
     inkscape:cy="403.07143"
     inkscape:window-width="2400"
     inkscape:window-height="1271"
     inkscape:window-x="2391"
     inkscape:window-y="-9"
     inkscape:window-maximized="1"
     inkscape:current-layer="layer1" />
  <defs
     id="defs2978" />
  <g
     inkscape:label="Calque 1"
     inkscape:groupmode="layer"
     id="layer1">
    <rect
       style="opacity:0.99;fill:#000000;fill-opacity:1;stroke-width:0.2"
       id="rect6952"
       width="45.002296"
       height="62.503189"
       x="92.881119"
       y="138.21738" />
    <path
       id="rect6897-4"
       style="opacity:0.99;fill:#ececec;stroke-width:0.2"
       d="m 112.87494,133.69763 0.76609,-0.0239 2.69795,0.90973 c 0.11965,0.28077 0.25137,0.5638 0.0469,0.78474 l -3.52134,-0.0231 c -0.30747,-0.51381 -0.22106,-1.0724 0.0104,-1.64745 z"
       sodipodi:nodetypes="ccccccc"
       inkscape:export-filename="..\bank\perso\basti\basti_spe_4.png"
       inkscape:export-xdpi="74.481323"
       inkscape:export-ydpi="74.481323" />
    <ellipse
       style="opacity:0.99;fill:#ffd7bc;fill-opacity:1;stroke-width:0.2"
       id="path5815-7"
       cx="75.775703"
       cy="149.26448"
       rx="1.2522453"
       ry="1.2964443"
       transform="rotate(-18.225519)" />
    <path
       id="rect5812-1"
       style="opacity:0.99;fill:#000000;stroke-width:0.2"
       d="m 110.49905,119.20089 c 1.15553,0.98111 -1.60896,-0.002 5.58449,0.99272 l 1.6186,-1.40674 0.63994,0.50158 -2.27464,1.529 -5.94654,-0.72078 z"
       sodipodi:nodetypes="ccccccc" />
    <path
       id="rect4625"
       style="opacity:0.99;fill:#0a0a0a;fill-opacity:1;stroke-width:0.2"
       d="m 113.59394,118.55476 -0.45511,7.19434 -3.71489,-0.0345 c -0.27568,-2.40485 -1.02453,-4.42256 -0.82705,-7.21454 -0.0947,-0.0605 -0.76455,-0.015 -1.14826,-0.67917 -0.25032,-3.05849 1.74188,-1.07098 2.03608,-0.89144 2.41164,0.32117 3.40381,1.64429 4.10923,1.62531 z"
       sodipodi:nodetypes="ccccccc" />
    <path
       id="path31-9-9-4-8-9"
       style="fill:#ffe6d6;fill-opacity:0.992157;fill-rule:evenodd;stroke-width:0.398878"
       d="m 117.20023,114.36437 c 0,0 0.97859,-5.12319 -4.69149,-5.54619 -4.68768,-0.3497 -4.27504,4.05847 -4.2201,4.44772 1.27984,3.84271 4.06337,5.66929 6.19139,6.01453 1.26179,0.20475 2.68566,-3.56771 2.7202,-4.91606 z"
       sodipodi:nodetypes="csccc" />
    <path
       id="rect3522"
       style="opacity:0.99;fill:#502d16;fill-opacity:0.992157;stroke-width:0.2"
       d="m 109.80454,108.94487 c 2.23132,-0.89662 4.3691,-0.40872 6.46581,0.68695 0.0766,0.99774 0.23714,0.55582 0.0937,0.96008 -1.60334,0.0493 -3.78262,-2.39133 -5.06502,3.39616 l -0.36173,0.21896 c -0.0581,-0.58327 0.24221,-1.30849 -0.54608,-1.60246 -0.71688,0.6566 -0.7032,1.55145 -0.80373,2.40905 l -0.696,-0.0804 c -2.14951,-3.08696 -0.42281,-4.45075 0.91306,-5.98828 z"
       sodipodi:nodetypes="ccccccccc" />
    <path
       id="rect1430-1-8-6-7-2"
       style="fill:#532f18;fill-opacity:1;stroke-width:0.210089"
       d="m 116.02057,113.35039 0.45966,0.32903 0.28634,0.41369 c -0.37475,-0.32712 -0.73935,-0.66438 -1.24728,-0.85921 0.0465,-0.0691 0.4544,0.15603 0.50133,0.1164 z"
       sodipodi:nodetypes="ccccc"
       inkscape:transform-center-x="0.24446302"
       inkscape:transform-center-y="-0.054408196" />
    <path
       id="path2169-5-4-0-9-4-9-5"
       style="fill:#f2f2f2;stroke-width:0.551594"
       d="m 116.88876,114.88627 c 0.0532,0.19804 -0.40159,0.16526 -0.82824,0.10954 -0.42666,-0.0557 -0.79021,-0.20852 -0.7533,-0.33926 0.0454,-0.16094 0.37919,-0.31227 0.81975,-0.2605 0.42724,0.0508 0.69879,0.25584 0.76179,0.49022 z"
       sodipodi:nodetypes="sssss" />
    <ellipse
       style="fill:#445500;stroke-width:0.314342"
       id="path2169-5-48-7-0-5"
       cx="-130.02077"
       cy="98.695221"
       rx="0.32983312"
       ry="0.30020577"
       transform="matrix(-0.99157721,-0.12951692,-0.12951692,0.99157721,0,0)" />
    <ellipse
       style="fill:#28170b;stroke-width:0.344828"
       id="path2169-0-2-9-0-5-8"
       ry="0.22500119"
       rx="0.25608161"
       cy="98.695221"
       cx="-130.03542"
       transform="matrix(-0.99157721,-0.12951692,-0.12951692,0.99157721,0,0)" />
    <path
       id="rect12747-2-4-7-8-0"
       style="fill:#1c1f24;fill-opacity:0.50639;stroke-width:0.398878"
       d="m 116.03606,117.82351 c -0.25696,-0.13169 -0.51644,-0.20107 -0.76593,-0.26993 -0.0762,-0.021 -0.11254,0.0661 -0.162,0.13168 0.25228,0.8817 1.08739,0.62057 0.8844,0.34546 0.0297,-0.13812 0.0212,-0.10062 0.0435,-0.20722 z"
       sodipodi:nodetypes="cscccc" />
    <rect
       style="fill:#000000;fill-opacity:1;stroke-width:0.264582"
       id="rect17694-7-5"
       width="0.45039588"
       height="0.12350398"
       x="-130.76924"
       y="100.5209"
       transform="matrix(-0.99157721,-0.12951692,-0.12951692,0.99157721,0,0)" />
    <path
       id="rect3577"
       style="opacity:0.99;fill:#502d16;fill-opacity:0.643875;stroke-width:0.2"
       d="m 110.93728,114.20702 c 0.18087,-0.10948 0.26773,-0.55479 0.36173,-0.21896 0.6716,2.39937 1.67361,4.19724 3.02919,4.51374 0.23582,0.0551 0.6572,0.43978 0.73969,0.026 0.0472,-0.23664 0.48641,-0.11523 0.74366,-0.24028 -0.21147,0.58051 -0.52378,0.80905 -1.09974,0.9875 -0.58927,6.9e-4 -1.17282,-0.0424 -1.70957,-0.44378 -2.06946,-0.75659 -2.28986,-2.56391 -2.06496,-4.62428 z"
       sodipodi:nodetypes="cssscccc" />
    <path
       id="rect3580"
       style="opacity:0.99;fill:#502d16;fill-opacity:0.703704;stroke-width:0.2"
       d="m 114.67029,117.73548 c 0.21305,-0.22276 0.42634,-0.35282 0.63969,-0.46536 0.96848,0.0298 0.75007,0.0929 1.00682,0.14281 l -0.15641,0.27314 c -0.1937,-0.17941 -0.54486,-0.17954 -0.83933,-0.2442 l -0.25212,0.16345 c -0.20262,0.1025 -0.27009,0.0905 -0.39866,0.13018 z"
       sodipodi:nodetypes="ccccccc" />
    <path
       id="rect4190"
       style="opacity:0.99;fill:#502d16;fill-opacity:1;stroke-width:0.2"
       d="m 114.5176,118.58021 c 0.22926,0.15065 0.49202,0.26635 0.58435,-0.12451 0.0138,-0.0593 0.0606,0.0378 0.0905,-0.0577 l 0.61906,-0.11048 c -0.11035,0.41859 -0.37995,0.60181 -0.63923,0.80031 -0.26361,0.22544 -0.66367,0.23072 -1.11489,0.15343 -0.016,-0.31903 -0.003,-0.62116 0.46017,-0.66107 z"
       sodipodi:nodetypes="csccccc" />
    <path
       id="rect6820-1"
       style="opacity:0.99;fill:#999999;stroke-width:0.2"
       d="m 109.42394,125.7146 3.71489,0.0345 0.5022,7.9246 -0.76609,0.0162 -1.0299,-3.35596 c -0.82437,-1.86077 -1.23103,-3.09103 -2.4211,-4.61934 z"
       sodipodi:nodetypes="ccccccc" />
    <path
       id="rect5812"
       style="opacity:0.99;fill:#0a0a0a;fill-opacity:1;stroke-width:0.2"
       d="m 110.68996,119.39665 c 0.53668,-0.30714 2.07443,1.58317 5.12155,2.07708 l 4.10304,-2.10469 0.64589,0.43312 -4.52438,2.60912 -5.3461,-2.04231 z"
       sodipodi:nodetypes="ccccccc" />
    <ellipse
       style="opacity:0.99;fill:#ffe6d5;fill-opacity:1;stroke-width:0.2"
       id="path5815"
       cx="120.89538"
       cy="118.78687"
       rx="1.3516873"
       ry="1.3457961" />
    <ellipse
       style="opacity:0.99;fill:#ffe6d5;fill-opacity:1;stroke-width:0.2"
       id="path5815-6"
       cx="119.44995"
       cy="118.78687"
       rx="0.50825894"
       ry="0.50826156" />
    <ellipse
       style="opacity:0.99;fill:#ffd8bc;fill-opacity:0.992157;stroke-width:0.2"
       id="path5815-6-4"
       cx="74.88147"
       cy="147.96231"
       rx="0.50825894"
       ry="0.50826156"
       transform="rotate(-18.225519)" />
    <path
       id="rect6820"
       style="opacity:0.99;fill:#b3b3b3;stroke-width:0.2"
       d="m 113.13883,125.7491 -3.90242,7.94852 -0.95317,-0.0239 1.42266,-3.27217 c -0.11352,-2.11626 0.34137,-3.36373 -0.28196,-4.68695 1.55432,-0.0521 3.18503,0.0345 3.71489,0.0345 z"
       sodipodi:nodetypes="cccccc" />
    <path
       id="rect6897"
       style="opacity:0.99;fill:#ffffff;stroke-width:0.2"
       d="m 108.26761,133.69771 0.76609,-0.0239 2.69795,0.90969 c 0.11965,0.28076 0.25137,0.56377 0.0469,0.7847 l -3.52134,-0.023 c -0.30747,-0.51379 -0.22106,-1.07234 0.0104,-1.64738 z"
       sodipodi:nodetypes="ccccccc" />
    <path
       id="rect6954"
       style="opacity:0.99;fill:#ff0000;stroke-width:0.2"
       d="m 109.60994,134.40996 c 0.59627,0.0279 0.49597,0.42166 1.01804,-0.16258 l 0.32665,0.0746 c -0.6317,0.71711 -1.38839,0.22598 -2.10645,0.1082 z"
       sodipodi:nodetypes="ccccc" />
    <path
       id="rect6954-1"
       style="opacity:0.99;fill:#0000ff;stroke-width:0.2"
       d="m 114.28778,134.40987 c 0.59627,0.0279 0.49597,0.42166 1.01804,-0.16258 l 0.32665,0.0746 c -0.6317,0.71711 -1.38839,0.22598 -2.10645,0.1082 z"
       sodipodi:nodetypes="ccccc" />
  </g>
</svg>
