<?xml version="1.0" encoding="UTF-8" standalone="no"?>
<!-- Created with Inkscape (http://www.inkscape.org/) -->

<svg
   width="210mm"
   height="297mm"
   viewBox="0 0 210 297"
   version="1.1"
   id="svg2981"
   inkscape:version="1.2 (dc2aedaf03, 2022-05-15)"
   sodipodi:docname="basti_jump.svg"
   xmlns:inkscape="http://www.inkscape.org/namespaces/inkscape"
   xmlns:sodipodi="http://sodipodi.sourceforge.net/DTD/sodipodi-0.dtd"
   xmlns="http://www.w3.org/2000/svg"
   xmlns:svg="http://www.w3.org/2000/svg">
  <sodipodi:namedview
     id="namedview2983"
     pagecolor="#ffffff"
     bordercolor="#666666"
     borderopacity="1.0"
     inkscape:showpageshadow="2"
     inkscape:pageopacity="0.0"
     inkscape:pagecheckerboard="0"
     inkscape:deskcolor="#d1d1d1"
     inkscape:document-units="mm"
     showgrid="false"
     inkscape:zoom="2.993266"
     inkscape:cx="274.1153"
     inkscape:cy="513.98706"
     inkscape:window-width="2400"
     inkscape:window-height="1271"
     inkscape:window-x="2391"
     inkscape:window-y="-9"
     inkscape:window-maximized="1"
     inkscape:current-layer="layer1" />
  <defs
     id="defs2978" />
  <g
     inkscape:label="Calque 1"
     inkscape:groupmode="layer"
     id="layer1">
    <rect
       style="opacity:0.99;fill:#000000;fill-opacity:1;stroke-width:0.2"
       id="rect6952"
       width="45.002296"
       height="62.503189"
       x="95.04406"
       y="141.6778" />
    <path
       id="rect6897-4"
       style="opacity:0.99;fill:#ececec;stroke-width:0.2"
       d="m 112.87494,133.69763 0.76609,-0.0239 2.69795,0.90973 c 0.11965,0.28077 0.25137,0.5638 0.0469,0.78474 l -3.52134,-0.0231 c -0.30747,-0.51381 -0.22106,-1.0724 0.0104,-1.64745 z"
       sodipodi:nodetypes="ccccccc"
       inkscape:export-filename="..\bank\perso\basti\basti_1.png"
       inkscape:export-xdpi="74.481323"
       inkscape:export-ydpi="74.481323" />
    <path
       id="path31-9-9-4-8-9"
       style="fill:#ffe6d6;fill-opacity:0.99215686;fill-rule:evenodd;stroke-width:0.398878"
       d="m 115.65452,113.32779 c 0,0 0.30681,-5.20678 -5.3703,-4.89185 -4.69349,0.26038 -3.71339,4.57798 -3.6085,4.95683 1.76676,3.64459 4.76341,5.09527 6.91822,5.16199 1.27769,0.0396 2.20096,-3.8855 2.06058,-5.22697 z"
       sodipodi:nodetypes="csccc" />
    <path
       id="rect3522"
       style="opacity:0.99;fill:#502d16;fill-opacity:0.992157;stroke-width:0.2"
       d="m 107.6192,108.9118 c 2.0964,-1.17806 4.27937,-0.97115 6.50033,-0.15626 0.20517,0.97941 0.30713,0.52042 0.21723,0.93986 -1.58345,0.25655 -4.06047,-1.88128 -4.58249,4.02356 l -0.33033,0.26396 c -0.13312,-0.57083 0.0707,-1.32884 -0.74902,-1.51823 -0.62581,0.74392 -0.49634,1.62946 -0.48495,2.49285 l -0.70056,0.0104 c -2.53122,-2.78256 -0.99569,-4.3585 0.12979,-6.0561 z"
       sodipodi:nodetypes="ccccccccc" />
    <path
       id="rect1430-1-8-6-7-2"
       style="fill:#532f18;stroke-width:0.210089;fill-opacity:1"
       d="m 114.54341,112.83316 0.5552,0.10629 0.43327,0.25575 c -0.4773,-0.14012 -0.94963,-0.29368 -1.49246,-0.25789 0.0133,-0.0822 0.47797,-0.0486 0.504,-0.10424 z"
       sodipodi:nodetypes="ccccc"
       inkscape:transform-center-x="0.24199777"
       inkscape:transform-center-y="0.006878411" />
    <path
       id="path2169-5-4-0-9-4-9-5"
       style="fill:#f2f2f2;stroke-width:0.551594"
       d="m 115.41327,113.88563 c 0.0784,0.18949 -0.37681,0.21589 -0.80708,0.21589 -0.43028,0 -0.81056,-0.10442 -0.79089,-0.23884 0.0242,-0.16546 0.33555,-0.35875 0.7791,-0.36447 0.43022,-0.005 0.72604,0.16318 0.81887,0.38742 z"
       sodipodi:nodetypes="sssss" />
    <ellipse
       style="fill:#445500;stroke-width:0.314342"
       id="path2169-5-48-7-0-5"
       cx="-114.65009"
       cy="113.80132"
       rx="0.32983312"
       ry="0.30020577"
       transform="scale(-1,1)" />
    <ellipse
       style="fill:#28170b;stroke-width:0.344828"
       id="path2169-0-2-9-0-5-8"
       ry="0.22500119"
       rx="0.25608161"
       cy="113.80132"
       cx="-114.66474"
       transform="scale(-1,1)" />
    <path
       id="rect12747-2-4-7-8-0"
       style="fill:#1c1f24;fill-opacity:0.50639;stroke-width:0.398878"
       d="m 114.94817,116.90857 c -0.27185,-0.0973 -0.53813,-0.13248 -0.79444,-0.16845 -0.0783,-0.011 -0.10303,0.0801 -0.14358,0.15155 l 0.9217,0.22801 c 0.0116,-0.14081 0.008,-0.10252 0.0163,-0.21111 z"
       sodipodi:nodetypes="csccc" />
    <rect
       style="fill:#000000;fill-opacity:1;stroke-width:0.264582"
       id="rect17694-7-5"
       width="0.45039588"
       height="0.12350398"
       x="-115.39857"
       y="115.62701"
       transform="scale(-1,1)" />
    <path
       id="rect3577"
       style="opacity:0.99;fill:#502d16;fill-opacity:0.64387465;stroke-width:0.2"
       d="m 109.42394,113.98292 c 0.16517,-0.13198 0.19362,-0.58479 0.33033,-0.26396 0.9767,2.29217 2.20312,3.94512 3.58828,4.08339 0.24097,0.0241 0.70862,0.35095 0.73683,-0.07 0.0161,-0.24076 0.46739,-0.17726 0.70627,-0.33458 -0.1345,0.60301 -0.41458,0.87008 -0.96258,1.12162 -0.58421,0.077 -1.16843,0.10985 -1.75264,-0.21862 -2.15002,-0.48219 -2.60265,-2.24574 -2.64649,-4.31789 z"
       sodipodi:nodetypes="cssscccc" />
    <path
       id="rect3580"
       style="opacity:0.99;fill:#502d16;fill-opacity:0.7037037;stroke-width:0.2"
       d="m 113.5825,116.99818 c 0.18241,-0.24848 0.37706,-0.40507 0.57403,-0.54429 0.96419,-0.0959 0.75579,-0.005 1.01684,0.0112 l -0.11972,0.2911 c -0.2153,-0.15281 -0.56352,-0.10746 -0.86388,-0.13344 l -0.22883,0.19473 c -0.18764,0.12788 -0.2561,0.12468 -0.37844,0.18072 z"
       sodipodi:nodetypes="ccccccc" />
    <path
       id="rect4190"
       style="opacity:0.99;fill:#502d16;fill-opacity:1;stroke-width:0.2"
       d="m 113.54051,117.85557 c 0.24684,0.11968 0.52237,0.20038 0.5633,-0.19915 0.006,-0.0606 0.065,0.0296 0.0823,-0.0689 l 0.59953,-0.18973 c -0.0552,0.42936 -0.2988,0.64596 -0.53019,0.87637 -0.23219,0.25768 -0.62819,0.31473 -1.08562,0.29653 -0.0572,-0.31427 -0.0834,-0.61554 0.37067,-0.7151 z"
       sodipodi:nodetypes="csccccc" />
    <path
       id="rect5812-1"
       style="opacity:0.99;stroke-width:0.2;fill:#000000"
       d="m 109.92875,121.15673 c 1.53025,-0.0362 2.0717,-0.15236 4.687,-0.10087 l 3.07988,-2.08247 0.6528,0.34308 -3.72541,2.48149 -4.39017,0.28231 z"
       sodipodi:nodetypes="ccccccc" />
    <path
       id="rect6820-1"
       style="opacity:0.99;fill:#999999;stroke-width:0.2"
       d="m 109.42394,125.7146 3.71489,0.0345 0.5022,7.9246 -0.76609,0.0162 -1.0299,-3.35596 c -0.82437,-1.86077 -1.23103,-3.09103 -2.4211,-4.61934 z"
       sodipodi:nodetypes="ccccccc" />
    <path
       id="rect4625"
       style="opacity:0.99;stroke-width:0.2;fill:#0a0a0a;fill-opacity:1"
       d="m 113.59394,118.55476 -0.45511,7.19434 -3.71489,-0.0345 c -0.27568,-2.40485 -1.02453,-4.42256 -0.82705,-7.21454 -0.0947,-0.0605 -0.76455,-0.015 -1.14826,-0.67917 -0.25032,-3.05849 1.74188,-1.07098 2.03608,-0.89144 1.68714,1.29198 3.40377,1.64435 4.10923,1.62531 z"
       sodipodi:nodetypes="ccccccc" />
    <path
       id="rect5812"
       style="opacity:0.99;stroke-width:0.2;fill:#0a0a0a;fill-opacity:1"
       d="m 110.68996,119.39665 c 1.46481,0.4442 2.01542,0.50323 4.48341,1.37009 l 3.57668,-1.01474 0.51275,0.53003 -4.31463,1.19185 -4.25821,-1.10491 z"
       sodipodi:nodetypes="ccccccc" />
    <ellipse
       style="opacity:0.99;fill:#ffd7bc;fill-opacity:1;stroke-width:0.2"
       id="path5815-7"
       cx="75.69384"
       cy="149.33153"
       rx="1.2522453"
       ry="1.2964443"
       transform="rotate(-18.225519)" />
    <ellipse
       style="opacity:0.99;fill:#ffe6d5;fill-opacity:1;stroke-width:0.2"
       id="path5815"
       cx="119.85337"
       cy="119.13882"
       rx="1.2522453"
       ry="1.2964443" />
    <ellipse
       style="opacity:0.99;fill:#ffe6d5;fill-opacity:1;stroke-width:0.2"
       id="path5815-6"
       cx="118.60112"
       cy="118.8884"
       rx="0.50825894"
       ry="0.50826156" />
    <ellipse
       style="opacity:0.99;fill:#ffd8bc;fill-opacity:0.992157;stroke-width:0.2"
       id="path5815-6-4"
       cx="74.441589"
       cy="149.0811"
       rx="0.50825894"
       ry="0.50826156"
       transform="rotate(-18.225519)" />
    <path
       id="rect6820"
       style="opacity:0.99;fill:#b3b3b3;stroke-width:0.2"
       d="m 108.27483,125.7491 h 4.864 l -3.13633,7.9246 -0.76609,0.0162 0.46949,-3.28835 c -0.11352,-2.11626 0.34137,-3.36373 -0.28196,-4.68695 z"
       sodipodi:nodetypes="ccccccc" />
    <path
       id="rect6897"
       style="opacity:0.99;fill:#ffffff;stroke-width:0.2"
       d="m 109.23641,133.69762 0.76609,-0.0239 2.69795,0.90969 c 0.11965,0.28076 0.25137,0.56377 0.0469,0.7847 l -3.52134,-0.023 c -0.30747,-0.51379 -0.22106,-1.07234 0.0104,-1.64738 z"
       sodipodi:nodetypes="ccccccc" />
    <path
       id="rect6954"
       style="opacity:0.99;fill:#ff0000;stroke-width:0.2"
       d="m 110.57874,134.40987 c 0.59627,0.0279 0.49597,0.42166 1.01804,-0.16258 l 0.32665,0.0746 c -0.6317,0.71711 -1.38839,0.22598 -2.10645,0.1082 z"
       sodipodi:nodetypes="ccccc" />
    <path
       id="rect6954-1"
       style="opacity:0.99;fill:#0000ff;stroke-width:0.2"
       d="m 114.28778,134.40987 c 0.59627,0.0279 0.49597,0.42166 1.01804,-0.16258 l 0.32665,0.0746 c -0.6317,0.71711 -1.38839,0.22598 -2.10645,0.1082 z"
       sodipodi:nodetypes="ccccc" />
  </g>
</svg>
