<?xml version="1.0" encoding="UTF-8" standalone="no"?>
<!-- Created with Inkscape (http://www.inkscape.org/) -->

<svg
   width="210mm"
   height="297mm"
   viewBox="0 0 210 297"
   version="1.1"
   id="svg2981"
   inkscape:version="1.2 (dc2aedaf03, 2022-05-15)"
   sodipodi:docname="basti_ko.svg"
   xmlns:inkscape="http://www.inkscape.org/namespaces/inkscape"
   xmlns:sodipodi="http://sodipodi.sourceforge.net/DTD/sodipodi-0.dtd"
   xmlns="http://www.w3.org/2000/svg"
   xmlns:svg="http://www.w3.org/2000/svg">
  <sodipodi:namedview
     id="namedview2983"
     pagecolor="#ffffff"
     bordercolor="#666666"
     borderopacity="1.0"
     inkscape:showpageshadow="2"
     inkscape:pageopacity="0.0"
     inkscape:pagecheckerboard="0"
     inkscape:deskcolor="#d1d1d1"
     inkscape:document-units="mm"
     showgrid="false"
     inkscape:zoom="5.986532"
     inkscape:cx="467.80006"
     inkscape:cy="503.04584"
     inkscape:window-width="2400"
     inkscape:window-height="1271"
     inkscape:window-x="2391"
     inkscape:window-y="-9"
     inkscape:window-maximized="1"
     inkscape:current-layer="layer1" />
  <defs
     id="defs2978" />
  <g
     inkscape:label="Calque 1"
     inkscape:groupmode="layer"
     id="layer1">
    <rect
       style="opacity:0.99;fill:#000000;fill-opacity:1;stroke-width:0.2"
       id="rect6952"
       width="45.002296"
       height="62.503189"
       x="95.04406"
       y="141.6778" />
    <path
       id="rect6897-4"
       style="opacity:0.99;fill:#ececec;stroke-width:0.2"
       d="m 124.28541,126.53127 0.32442,-0.69442 2.02933,-1.99708 c 0.30456,0.0199 0.61657,0.0301 0.72145,0.31231 l -1.60969,3.13198 c -0.59727,0.0425 -1.05676,-0.28667 -1.46547,-0.75273 z"
       sodipodi:nodetypes="ccccccc"
       inkscape:export-filename="..\bank\perso\basti\basti_ko_2.png"
       inkscape:export-xdpi="73.541382"
       inkscape:export-ydpi="73.541382" />
    <path
       id="path31-9-9-4-8-9"
       style="fill:#ffe6d6;fill-opacity:0.992157;fill-rule:evenodd;stroke-width:0.398878"
       d="m 105.44745,118.88617 c 0,0 -5.15317,-0.80596 -5.38549,4.87513 -0.192048,4.69678 4.19978,4.13631 4.58696,4.06833 3.79756,-1.40819 5.52961,-4.2515 5.80318,-6.38991 0.16226,-1.26797 -3.6559,-2.56431 -5.00465,-2.55355 z"
       sodipodi:nodetypes="csccc" />
    <path
       id="rect3522"
       style="opacity:0.99;fill:#502d16;fill-opacity:0.992157;stroke-width:0.2"
       d="m 100.27941,126.45972 c -0.97106,-2.19994 -0.555241,-4.35291 0.46939,-6.48524 0.9946,-0.11006 0.54754,-0.25567 0.95639,-0.12587 0.10314,1.60078 -2.262929,3.8608 3.56437,4.94809 l 0.23098,0.35417 c -0.58098,0.0776 -1.31588,-0.19812 -1.5832,0.59959 0.68031,0.69443 1.57419,0.6507 2.43468,0.72237 l -0.057,0.69831 c -3.01302,2.25199 -4.43404,0.57206 -6.01557,-0.71141 z"
       sodipodi:nodetypes="ccccccccc" />
    <path
       id="rect1430-1-8-6-7-2"
       style="fill:#532f18;fill-opacity:1;stroke-width:0.210089"
       d="m 104.84829,119.94458 0.15917,-0.54241 0.29622,-0.40667 c -0.18536,0.46161 -0.38362,0.91699 -0.40018,1.46075 -0.0805,-0.0211 -0.002,-0.48043 -0.0553,-0.51169 z"
       sodipodi:nodetypes="ccccc"
       inkscape:transform-center-x="-0.0078086062"
       inkscape:transform-center-y="0.246551" />
    <path
       id="path2169-5-4-0-9-4-9-5"
       style="fill:#f2f2f2;stroke-width:0.551594"
       d="m 106.18737,119.14097 c 0.0593,-0.0598 0.054,0.39582 0.0415,0.8241 -0.0125,0.42829 -0.055,0.79677 -0.0949,0.76427 -0.0491,-0.04 -0.0982,-0.36849 -0.087,-0.81054 0.011,-0.4287 0.0702,-0.70698 0.14039,-0.77783 z"
       sodipodi:nodetypes="sssss" />
    <ellipse
       style="fill:#445500;stroke-width:0.314342"
       id="path2169-5-48-7-0-5"
       cx="102.62346"
       cy="124.70573"
       rx="0.32983312"
       ry="0.30020577"
       transform="matrix(-0.09613851,0.99536797,0.99536797,0.09613851,0,0)" />
    <ellipse
       style="fill:#28170b;stroke-width:0.344828"
       id="path2169-0-2-9-0-5-8"
       ry="0.22500119"
       rx="0.25608161"
       cy="124.70573"
       cx="102.60883"
       transform="matrix(-0.09613851,0.99536797,0.99536797,0.09613851,0,0)" />
    <path
       id="rect12747-2-4-7-8-0"
       style="fill:#1c1f24;fill-opacity:0.50639;stroke-width:0.398878"
       d="m 108.94373,119.9335 c -0.12298,0.26124 -0.1836,0.5229 -0.24404,0.77457 -0.0185,0.0769 0.0698,0.11025 0.13704,0.15748 l 0.31557,-0.89551 c -0.13905,-0.0251 -0.10128,-0.0178 -0.20857,-0.0365 z"
       sodipodi:nodetypes="csccc" />
    <path
       id="rect3577"
       style="opacity:0.99;fill:#502d16;fill-opacity:0.643875;stroke-width:0.2"
       d="m 105.50054,125.15087 c -0.11549,-0.17709 -0.56346,-0.24894 -0.23098,-0.35417 2.37545,-0.75181 4.13865,-1.81364 4.40945,-3.17909 0.0472,-0.23754 0.41745,-0.6716 0.001,-0.74015 -0.23809,-0.0392 -0.1315,-0.48226 -0.26513,-0.73516 0.58729,0.19185 0.8262,0.49631 1.02389,1.06595 0.0205,0.58891 -0.003,1.17358 -0.38611,1.7235 -0.68665,2.09371 -2.48555,2.3747 -4.55232,2.21912 z"
       sodipodi:nodetypes="cssscccc" />
    <path
       id="rect3580"
       style="opacity:0.99;fill:#502d16;fill-opacity:0.703704;stroke-width:0.2"
       d="m 108.90163,121.30146 c -0.22979,-0.20545 -0.36694,-0.41426 -0.48658,-0.6237 -0.003,-0.96894 0.0677,-0.75277 0.10891,-1.01105 l 0.27824,0.14715 c -0.1728,0.19961 -0.16114,0.55058 -0.21587,0.84705 l 0.17182,0.24649 c 0.10925,0.19906 0.0995,0.2669 0.1435,0.39406 z"
       sodipodi:nodetypes="ccccccc" />
    <path
       id="rect4190"
       style="opacity:0.99;fill:#502d16;fill-opacity:1;stroke-width:0.2"
       d="m 109.75102,121.42568 c 0.14285,-0.23419 0.24967,-0.50068 -0.14408,-0.57983 -0.0597,-0.0118 0.0357,-0.0619 -0.0607,-0.0885 l -0.13121,-0.61499 c 0.42207,0.0962 0.61424,0.35952 0.82134,0.61199 0.23416,0.25588 0.25288,0.65554 0.19079,1.1091 -0.31832,0.0267 -0.62071,0.0238 -0.67616,-0.43771 z"
       sodipodi:nodetypes="csccccc" />
    <path
       id="rect6820-1"
       style="opacity:0.99;fill:#999999;stroke-width:0.2"
       d="m 115.60412,126.00841 1.70721,-3.29956 7.29844,3.12797 -0.33124,0.69098 -3.45957,-0.59538 c -2.03254,-0.10405 -3.31393,-0.29633 -5.21481,0.076 z"
       sodipodi:nodetypes="ccccccc" />
    <path
       id="rect4625"
       style="opacity:0.99;fill:#0a0a0a;fill-opacity:1;stroke-width:0.2"
       d="m 110.4521,121.43972 7.11727,1.14465 -0.39149,3.69437 c -2.42021,0.0432 -4.50057,0.59461 -7.26063,0.12962 -0.0693,0.0884 -0.0884,0.75957 -0.78642,1.07765 -3.06839,-0.0449 -0.89855,-1.83677 -0.69156,-2.11235 1.44819,-1.55512 1.96396,-3.22992 2.01283,-3.93394 z"
       sodipodi:nodetypes="ccccccc" />
    <path
       id="rect6820"
       style="opacity:0.99;fill:#b3b3b3;stroke-width:0.2"
       d="m 117.10175,127.42584 0.46762,-4.84147 7.58637,3.88367 -0.0575,0.76409 -3.22798,-0.78345 c -2.11737,-0.0905 -3.31533,-0.66317 -4.69235,-0.16994 z"
       sodipodi:nodetypes="ccccccc" />
    <ellipse
       style="opacity:0.99;fill:#ffe6d5;fill-opacity:1;stroke-width:0.2"
       id="path5815"
       cx="-112.94302"
       cy="130.90738"
       rx="1.2522453"
       ry="1.2964443"
       transform="rotate(-84.483149)" />
    <ellipse
       style="opacity:0.99;fill:#ffd8bc;fill-opacity:0.992157;stroke-width:0.2"
       id="path5815-6-4"
       cx="-147.30559"
       cy="87.784882"
       rx="0.50825894"
       ry="0.50826156"
       transform="rotate(-102.70867)" />
    <path
       id="rect5812"
       style="opacity:0.99;fill:#0a0a0a;fill-opacity:1;stroke-width:0.2"
       d="m 111.23903,120.72154 c 1.07523,1.08943 1.53092,1.40408 3.28601,3.34369 l 3.62736,0.81524 0.19763,0.71049 -4.36037,-1.01179 -3.21467,-3.00318 z"
       sodipodi:nodetypes="ccccccc" />
    <path
       id="rect6954-1"
       style="opacity:0.99;fill:#0000ff;stroke-width:0.2"
       d="m 125.55858,125.59188 c 0.29398,-0.51952 0.6001,-0.2523 0.31428,-0.98186 l 0.21398,-0.25784 c 0.35487,0.88734 -0.42484,1.34097 -0.85401,1.92861 z"
       sodipodi:nodetypes="ccccc" />
    <path
       id="rect6897"
       style="opacity:0.99;fill:#ffffff;stroke-width:0.2"
       d="m 125.1059,127.23288 0.0499,-0.76484 1.16485,-2.598 c 0.29096,-0.0921 0.58532,-0.196 0.78557,0.0288 l -0.36143,3.50282 c -0.54097,0.25665 -1.08862,0.11694 -1.63875,-0.16873 z"
       sodipodi:nodetypes="ccccccc" />
    <path
       id="rect6954"
       style="opacity:0.99;fill:#ff0000;stroke-width:0.2"
       d="m 125.9439,125.96524 c 0.0851,-0.59083 0.46738,-0.45314 -0.064,-1.02896 l 0.10566,-0.31796 c 0.65306,0.69772 0.0915,1.40368 -0.0948,2.10709 z"
       sodipodi:nodetypes="ccccc" />
  </g>
</svg>
