<?xml version="1.0" encoding="UTF-8" standalone="no"?>
<!-- Created with Inkscape (http://www.inkscape.org/) -->

<svg
   width="210mm"
   height="297mm"
   viewBox="0 0 210 297"
   version="1.1"
   id="svg2981"
   inkscape:version="1.2 (dc2aedaf03, 2022-05-15)"
   sodipodi:docname="basti_down.svg"
   xmlns:inkscape="http://www.inkscape.org/namespaces/inkscape"
   xmlns:sodipodi="http://sodipodi.sourceforge.net/DTD/sodipodi-0.dtd"
   xmlns="http://www.w3.org/2000/svg"
   xmlns:svg="http://www.w3.org/2000/svg">
  <sodipodi:namedview
     id="namedview2983"
     pagecolor="#ffffff"
     bordercolor="#666666"
     borderopacity="1.0"
     inkscape:showpageshadow="2"
     inkscape:pageopacity="0.0"
     inkscape:pagecheckerboard="0"
     inkscape:deskcolor="#d1d1d1"
     inkscape:document-units="mm"
     showgrid="false"
     inkscape:zoom="2.1165587"
     inkscape:cx="369.7039"
     inkscape:cy="536.01159"
     inkscape:window-width="1920"
     inkscape:window-height="1001"
     inkscape:window-x="-9"
     inkscape:window-y="-9"
     inkscape:window-maximized="1"
     inkscape:current-layer="layer1" />
  <defs
     id="defs2978" />
  <g
     inkscape:label="Calque 1"
     inkscape:groupmode="layer"
     id="layer1">
    <rect
       style="opacity:0.99;fill:#000000;fill-opacity:1;stroke-width:0.2"
       id="rect6952"
       width="45.002296"
       height="62.503189"
       x="40.772457"
       y="131.28181" />
    <path
       id="rect6820-1"
       style="opacity:0.99;fill:#999999;stroke-width:0.2"
       d="m 115.06653,127.6351 0.60231,-2.08743 c 2.65683,0.0759 3.14976,0.49649 6.49833,5.54002 l -0.74147,0.19413 -3.26192,-2.18138 c -1.05408,1.74097 -2.52503,-3.31594 -3.09719,-1.46535 z"
       sodipodi:nodetypes="ccccccc"
       inkscape:export-filename="..\_bank\perso\basti\basti_down4.png"
       inkscape:export-xdpi="74.481216"
       inkscape:export-ydpi="74.481216" />
    <path
       id="rect5812-1"
       style="opacity:0.99;fill:#000000;stroke-width:0.2"
       d="m 114.1148,122.37881 c 1.16136,-0.99713 1.50682,-1.42993 3.56342,-3.04635 l 1.06469,-3.56213 0.72248,-0.1479 -1.31162,4.27974 -3.21881,2.99876 z"
       sodipodi:nodetypes="ccccccc" />
    <path
       id="rect4625"
       style="opacity:0.99;fill:#0a0a0a;fill-opacity:1;stroke-width:0.2"
       d="m 114.33364,119.12561 2.86619,6.14173 -3.42619,1.43624 c -1.20352,-2.10019 -2.68872,-3.6578 -3.61055,-6.30058 -0.11091,-0.0181 -0.70826,0.28832 -1.3232,-0.17017 -1.4385,-2.71067 1.90021,-1.91103 2.24141,-1.86235 2.06036,0.52016 2.61182,1.05139 3.25234,0.75513 z"
       sodipodi:nodetypes="ccccccc" />
    <ellipse
       style="opacity:0.99;fill:#ffd7bc;fill-opacity:1;stroke-width:0.2"
       id="path5815-7"
       cx="-48.7658"
       cy="157.79335"
       rx="1.2522453"
       ry="1.2964443"
       transform="rotate(-63.19374)" />
    <g
       id="g7039"
       transform="rotate(-12.88384,106.45223,94.623994)">
      <path
         id="rect6897-4"
         style="opacity:0.99;fill:#ececec;stroke-width:0.2"
         d="m 112.87494,133.69763 0.76609,-0.0239 2.69795,0.90973 c 0.11965,0.28077 0.25137,0.5638 0.0469,0.78474 l -3.52134,-0.0231 c -0.30747,-0.51381 -0.22106,-1.0724 0.0104,-1.64745 z"
         sodipodi:nodetypes="ccccccc"
         inkscape:export-filename="..\bank\perso\basti\basti_1.png"
         inkscape:export-xdpi="74.481323"
         inkscape:export-ydpi="74.481323" />
      <path
         id="rect6954-1"
         style="opacity:0.99;fill:#0000ff;stroke-width:0.2"
         d="m 114.28778,134.40987 c 0.59627,0.0279 0.49597,0.42166 1.01804,-0.16258 l 0.32665,0.0746 c -0.6317,0.71711 -1.38839,0.22598 -2.10645,0.1082 z"
         sodipodi:nodetypes="ccccc" />
    </g>
    <ellipse
       style="opacity:0.99;fill:#ffe6d5;fill-opacity:1;stroke-width:0.2"
       id="path5815"
       cx="1.3619052"
       cy="168.63481"
       rx="1.2522453"
       ry="1.2964443"
       transform="rotate(-44.968221)" />
    <path
       id="rect6820"
       style="opacity:0.99;fill:#b3b3b3;stroke-width:0.2"
       d="m 117.19983,125.26734 v 0 c 0.95728,0.31431 1.23479,1.52293 1.67898,2.30248 0.84295,1.47936 1.95196,3.68256 1.80273,5.02477 l -0.76306,0.0722 -2.8616,-3.19317 c -2.51185,-2.61754 -3.40845,-1.9295 -3.28303,-2.76967 z"
       sodipodi:nodetypes="ccsccccc" />
    <ellipse
       style="opacity:0.99;fill:#ffe6d5;fill-opacity:1;stroke-width:0.2"
       id="path5815-6"
       cx="1.4940463"
       cy="167.10498"
       rx="0.50825894"
       ry="0.50826156"
       transform="rotate(-44.968221)" />
    <ellipse
       style="opacity:0.99;fill:#ffd8bc;fill-opacity:0.992157;stroke-width:0.2"
       id="path5815-6-4"
       cx="-50.018066"
       cy="157.54292"
       rx="0.50825894"
       ry="0.50826156"
       transform="rotate(-63.19374)" />
    <path
       id="path31-9-9-4-8-9"
       style="fill:#ffe6d6;fill-opacity:0.992157;fill-rule:evenodd;stroke-width:0.398878"
       d="m 116.55121,113.78065 c 0,0 -0.51484,-5.19035 -6.07201,-3.9876 -4.59433,0.99437 -2.94821,5.10443 -2.78512,5.4621 2.31729,3.32183 5.50461,4.28382 7.64314,4.01125 1.26806,-0.1616 1.56335,-4.18298 1.21399,-5.48575 z"
       sodipodi:nodetypes="csccc"
       inkscape:export-filename="..\_bank\perso\basti\basti_down1.png"
       inkscape:export-xdpi="74.481216"
       inkscape:export-ydpi="74.481216" />
    <path
       id="rect5812"
       style="opacity:0.99;fill:#0a0a0a;fill-opacity:1;stroke-width:0.2"
       d="m 111.79058,121.65942 c 1.49423,-0.33207 2.00291,-0.5509 4.57863,-1.00707 l 2.61803,-2.63976 0.70677,0.2105 -3.17402,3.15628 -4.25226,1.12757 z"
       sodipodi:nodetypes="ccccccc" />
    <path
       id="rect3522"
       style="opacity:0.99;fill:#502d16;fill-opacity:0.992157;stroke-width:0.2"
       d="m 107.92201,110.68161 c 1.88533,-1.49273 4.0737,-1.63128 6.39509,-1.17536 0.35649,0.93503 0.38506,0.46572 0.36216,0.89408 -1.52349,0.50208 -4.30558,-1.22008 -3.89362,4.69341 l -0.28476,0.31256 c -0.2211,-0.54285 -0.13891,-1.32345 -0.97819,-1.38173 -0.50119,0.83298 -0.23423,1.6872 -0.0874,2.53807 l -0.69022,0.12031 c -2.93687,-2.35043 -1.66794,-4.148 -0.82307,-6.00131 z"
       sodipodi:nodetypes="ccccccccc" />
    <path
       id="rect1430-1-8-6-7-2"
       style="fill:#532f18;fill-opacity:1;stroke-width:0.210089"
       d="m 115.32813,113.40777 0.56478,-0.0236 0.48023,0.15005 c -0.49671,-0.0272 -0.99164,-0.0686 -1.51187,0.0904 -0.006,-0.0829 0.45415,-0.15671 0.46678,-0.21679 z"
       sodipodi:nodetypes="ccccc"
       inkscape:transform-center-x="0.22218104"
       inkscape:transform-center-y="0.037938084" />
    <path
       id="path2169-5-4-0-9-4-9-5"
       style="fill:#f2f2f2;stroke-width:0.551594"
       d="m 116.40059,114.36945 c 0.1072,0.17482 -0.33823,0.27241 -0.76314,0.34003 -0.42493,0.0676 -0.81689,0.0242 -0.81859,-0.11164 -0.002,-0.16718 0.27504,-0.407 0.71219,-0.48233 0.42409,-0.0725 0.74265,0.0471 0.86964,0.25371 z"
       sodipodi:nodetypes="sssss" />
    <ellipse
       style="fill:#445500;stroke-width:0.314342"
       id="path2169-5-48-7-0-5"
       cx="-96.520142"
       cy="131.20778"
       rx="0.32983312"
       ry="0.30020577"
       transform="matrix(-0.98758699,0.15707303,0.15707303,0.98758699,0,0)" />
    <ellipse
       style="fill:#28170b;stroke-width:0.344828"
       id="path2169-0-2-9-0-5-8"
       ry="0.22500119"
       rx="0.25608161"
       cy="131.20778"
       cx="-96.520142"
       transform="matrix(-0.98758699,0.15707303,0.15707303,0.98758699,0,0)" />
    <path
       id="rect12747-2-4-7-8-0"
       style="fill:#1c1f24;fill-opacity:0.50639;stroke-width:0.398878"
       d="m 116.41608,117.42792 c -0.28377,-0.0534 -0.55226,-0.0463 -0.81104,-0.0416 -0.0791,0.001 -0.0892,0.0953 -0.11795,0.17223 0.26906,0.10912 0.58712,0.13842 0.94607,0.0804 -0.0106,-0.1409 -0.008,-0.1025 -0.0171,-0.21105 z"
       sodipodi:nodetypes="cscccc" />
    <rect
       style="fill:#000000;fill-opacity:1;stroke-width:0.264582"
       id="rect17694-7-5"
       width="0.45039588"
       height="0.12350398"
       x="-96.976654"
       y="132.97455"
       transform="matrix(-0.98758699,0.15707303,0.15707303,0.98758699,0,0)" />
    <path
       id="rect3577"
       style="opacity:0.99;fill:#502d16;fill-opacity:0.643875;stroke-width:0.2"
       d="m 110.50088,115.4063 c 0.14237,-0.15629 0.0994,-0.60793 0.28477,-0.31257 1.32461,2.11031 2.79544,3.5501 4.18512,3.46908 0.24176,-0.014 0.75487,0.23557 0.7167,-0.18486 -0.0219,-0.24029 0.43372,-0.24851 0.64494,-0.44137 -0.0381,0.61666 -0.27246,0.92449 -0.77444,1.2589 -0.5649,0.16776 -1.13668,0.29201 -1.76524,0.0594 -2.19906,-0.13849 -2.92309,-1.80906 -3.29186,-3.84861 z"
       sodipodi:nodetypes="cssscccc" />
    <path
       id="rect3580"
       style="opacity:0.99;fill:#502d16;fill-opacity:0.703704;stroke-width:0.2"
       d="m 115.08143,117.73093 c 0.14114,-0.27403 0.30876,-0.45927 0.48141,-0.6277 0.93716,-0.24615 0.74563,-0.12364 1.00599,-0.14865 l -0.0726,0.30628 c -0.23663,-0.11713 -0.57341,-0.0176 -0.87412,0.004 l -0.1954,0.22826 c -0.16523,0.15576 -0.23333,0.16339 -0.34536,0.23792 z"
       sodipodi:nodetypes="ccccccc" />
    <path
       id="rect4190"
       style="opacity:0.99;fill:#502d16;fill-opacity:1;stroke-width:0.2"
       d="m 115.17464,118.58428 c 0.26258,0.0794 0.54735,0.11589 0.52502,-0.28517 -0.004,-0.0608 0.0689,0.0188 0.0705,-0.0809 l 0.56231,-0.28151 c 0.0129,0.43271 -0.19361,0.68489 -0.38592,0.94879 -0.18882,0.29097 -0.57095,0.4095 -1.02557,0.46337 -0.10581,-0.30142 -0.17901,-0.59483 0.25374,-0.76446 z"
       sodipodi:nodetypes="csccccc" />
    <g
       id="g7035"
       transform="rotate(-3.6124561,98.534479,-26.550388)">
      <path
         id="rect6897"
         style="opacity:0.99;fill:#ffffff;stroke-width:0.2"
         d="m 109.84411,133.69771 0.76609,-0.0239 2.69795,0.90969 c 0.11965,0.28076 0.25137,0.56377 0.0469,0.7847 l -3.52134,-0.023 c -0.30747,-0.51379 -0.22106,-1.07234 0.0104,-1.64738 z"
         sodipodi:nodetypes="ccccccc" />
      <path
         id="rect6954"
         style="opacity:0.99;fill:#ff0000;stroke-width:0.2"
         d="m 110.94114,134.29123 c 0.59627,0.0279 0.49597,0.42166 1.01804,-0.16258 l 0.32665,0.0746 c -0.6317,0.7171 -1.38839,0.22597 -2.10645,0.1082 z"
         sodipodi:nodetypes="ccccc" />
    </g>
  </g>
</svg>
