<?xml version="1.0" encoding="UTF-8" standalone="no"?>
<!-- Created with Inkscape (http://www.inkscape.org/) -->

<svg
   width="210mm"
   height="297mm"
   viewBox="0 0 210 297"
   version="1.1"
   id="svg2981"
   inkscape:version="1.2 (dc2aedaf03, 2022-05-15)"
   sodipodi:docname="basti_punch2.svg"
   xmlns:inkscape="http://www.inkscape.org/namespaces/inkscape"
   xmlns:sodipodi="http://sodipodi.sourceforge.net/DTD/sodipodi-0.dtd"
   xmlns="http://www.w3.org/2000/svg"
   xmlns:svg="http://www.w3.org/2000/svg">
  <sodipodi:namedview
     id="namedview2983"
     pagecolor="#ffffff"
     bordercolor="#666666"
     borderopacity="1.0"
     inkscape:showpageshadow="2"
     inkscape:pageopacity="0.0"
     inkscape:pagecheckerboard="0"
     inkscape:deskcolor="#d1d1d1"
     inkscape:document-units="mm"
     showgrid="false"
     inkscape:zoom="2.993266"
     inkscape:cx="534.03205"
     inkscape:cy="485.92407"
     inkscape:window-width="1920"
     inkscape:window-height="1001"
     inkscape:window-x="-9"
     inkscape:window-y="-9"
     inkscape:window-maximized="1"
     inkscape:current-layer="layer1" />
  <defs
     id="defs2978" />
  <g
     inkscape:label="Calque 1"
     inkscape:groupmode="layer"
     id="layer1">
    <rect
       style="opacity:0.99;fill:#000000;fill-opacity:1;stroke-width:0.2"
       id="rect6952"
       width="45.002296"
       height="62.503189"
       x="85.937469"
       y="164.59256" />
    <path
       id="path31-9-9-4-8-9"
       style="fill:#ffe6d6;fill-opacity:0.992157;fill-rule:evenodd;stroke-width:0.398878"
       d="m 116.18773,113.8499 c 0,0 -0.0181,-5.21578 -5.66454,-4.54789 -4.66816,0.55219 -3.42106,4.80036 -3.29278,5.17195 1.99031,3.52748 5.0715,4.78871 7.22628,4.72109 1.27767,-0.04 1.95469,-4.01503 1.73104,-5.34515 z"
       sodipodi:nodetypes="csccc"
       inkscape:export-filename="..\_bank\perso\basti\basti_punch2_4.png"
       inkscape:export-xdpi="74.481216"
       inkscape:export-ydpi="74.481216" />
    <path
       id="rect3522"
       style="opacity:0.99;fill:#502d16;fill-opacity:0.992157;stroke-width:0.2"
       d="m 107.89298,109.94292 c 2.01896,-1.30633 4.21058,-1.23578 6.47798,-0.5608 0.26577,0.96473 0.33894,0.50028 0.27534,0.92451 -1.5644,0.35467 -4.16975,-1.62474 -4.323,4.30115 l -0.31325,0.28402 c -0.16842,-0.56143 -0.0122,-1.33066 -0.84213,-1.46863 -0.57826,0.78145 -0.39389,1.6572 -0.32875,2.51821 l -0.69855,0.054 c -2.69961,-2.61951 -1.26521,-4.28803 -0.24764,-6.05243 z"
       sodipodi:nodetypes="ccccccccc" />
    <path
       id="rect1430-1-8-6-7-2"
       style="fill:#532f18;fill-opacity:1;stroke-width:0.210089"
       d="m 114.98115,113.3824 0.56145,0.0657 0.45065,0.22368 c -0.48619,-0.10516 -0.9684,-0.22409 -1.50721,-0.14905 0.007,-0.0829 0.47319,-0.0831 0.49512,-0.1405 z"
       sodipodi:nodetypes="ccccc"
       inkscape:transform-center-x="0.23708915"
       inkscape:transform-center-y="0.0060531003" />
    <path
       id="path2169-5-4-0-9-4-9-5"
       style="fill:#f2f2f2;stroke-width:0.551594"
       d="m 115.98169,114.42168 c 0.0901,0.18424 -0.36263,0.23894 -0.79207,0.26574 -0.42944,0.0268 -0.81549,-0.0537 -0.80423,-0.18912 0.0139,-0.16665 0.31256,-0.37896 0.75489,-0.41229 0.42907,-0.0318 0.73479,0.11765 0.84141,0.33567 z"
       sodipodi:nodetypes="sssss" />
    <ellipse
       style="fill:#445500;stroke-width:0.314342"
       id="path2169-5-48-7-0-5"
       cx="-108.19694"
       cy="121.39943"
       rx="0.32983312"
       ry="0.30020577"
       transform="matrix(-0.99805868,0.06228057,0.06228057,0.99805868,0,0)" />
    <ellipse
       style="fill:#28170b;stroke-width:0.344828"
       id="path2169-0-2-9-0-5-8"
       ry="0.22500119"
       rx="0.25608161"
       cy="121.39943"
       cx="-108.19694"
       transform="matrix(-0.99805868,0.06228057,0.06228057,0.99805868,0,0)" />
    <path
       id="rect12747-2-4-7-8-0"
       style="fill:#1c1f24;fill-opacity:0.50639;stroke-width:0.398878"
       d="m 115.70576,117.46772 c -0.27738,-0.0802 -0.54533,-0.0987 -0.80339,-0.11865 -0.0788,-0.006 -0.0978,0.0864 -0.13386,0.1602 0.25747,0.13422 0.57127,0.1937 0.93411,0.17016 0.003,-0.14126 0.002,-0.10282 0.003,-0.21171 z"
       sodipodi:nodetypes="cscccc" />
    <rect
       style="fill:#000000;fill-opacity:1;stroke-width:0.264582"
       id="rect17694-7-5"
       width="0.45039588"
       height="0.12350398"
       x="-108.61556"
       y="123.16433"
       transform="matrix(-0.99805868,0.06228057,0.06228057,0.99805868,0,0)" />
    <path
       id="rect3577"
       style="opacity:0.99;fill:#502d16;fill-opacity:0.643875;stroke-width:0.2"
       d="m 110.01005,114.8918 c 0.15663,-0.14201 0.15682,-0.59571 0.31325,-0.28402 1.11756,2.22689 2.44454,3.80025 3.83563,3.85198 0.242,0.009 0.7291,0.30614 0.73104,-0.11575 10e-4,-0.2413 0.45544,-0.20603 0.68406,-0.37792 -0.0967,0.61022 -0.35959,0.89421 -0.89086,1.17939 -0.57828,0.11324 -1.15932,0.18241 -1.76285,-0.10904 -2.17588,-0.34735 -2.73747,-2.07928 -2.91028,-4.14468 z"
       sodipodi:nodetypes="cssscccc" />
    <path
       id="rect3580"
       style="opacity:0.99;fill:#502d16;fill-opacity:0.703704;stroke-width:0.2"
       d="m 114.34833,117.64221 c 0.16658,-0.25936 0.3511,-0.42777 0.53901,-0.57899 0.95635,-0.15576 0.75401,-0.0521 1.01557,-0.0521 l -0.10136,0.29799 c -0.2244,-0.1391 -0.56912,-0.0722 -0.87052,-0.0794 l -0.21625,0.2086 c -0.17931,0.13932 -0.24784,0.14039 -0.36645,0.20394 z"
       sodipodi:nodetypes="ccccccc" />
    <path
       id="rect4190"
       style="opacity:0.99;fill:#502d16;fill-opacity:1;stroke-width:0.2"
       d="m 114.35982,118.50055 c 0.25381,0.10407 0.53383,0.16746 0.5498,-0.23385 0.002,-0.0609 0.0667,0.0255 0.0778,-0.0739 l 0.58655,-0.2267 c -0.0284,0.43196 -0.25799,0.66332 -0.47458,0.90769 -0.21569,0.27164 -0.60737,0.35324 -1.06505,0.36357 -0.0767,-0.3101 -0.12157,-0.60915 0.32542,-0.7368 z"
       sodipodi:nodetypes="csccccc" />
    <path
       id="rect5812-1"
       style="opacity:0.99;fill:#000000;stroke-width:0.2"
       d="m 108.7196,120.23201 c 1.27081,0.51603 1.7532,0.60217 3.88916,1.58988 l 3.19443,-0.83683 0.42852,0.55472 -3.85209,0.97727 -3.70237,-1.31391 z"
       sodipodi:nodetypes="ccccccc" />
    <path
       id="rect6820-1"
       style="opacity:0.99;fill:#999999;stroke-width:0.2"
       d="m 109.42394,125.7146 3.71489,0.0345 0.70492,3.88173 -0.56883,3.89219 -0.76609,0.0239 -0.20891,-3.26609 c -0.82437,-1.86077 -1.68589,-3.03787 -2.87596,-4.56618 z"
       sodipodi:nodetypes="cccccccc" />
    <path
       id="rect4625"
       style="opacity:0.99;fill:#0a0a0a;fill-opacity:1;stroke-width:0.2"
       d="m 113.12877,119.35911 0.0101,6.38999 -3.71489,-0.0345 c -0.27568,-2.40485 -1.02453,-4.42256 -0.82705,-7.21454 -0.0947,-0.0605 -0.76455,-0.015 -1.14826,-0.67917 -0.25032,-3.05849 1.74188,-1.07098 2.03608,-0.89144 1.68714,1.29198 2.73011,2.12603 3.43557,2.10699 z"
       sodipodi:nodetypes="cccccccc" />
    <ellipse
       style="opacity:0.99;fill:#ffd7bc;fill-opacity:1;stroke-width:0.2"
       id="path5815-7"
       cx="110.67824"
       cy="126.35892"
       rx="1.2522453"
       ry="1.2964443"
       transform="rotate(-2.8430353)" />
    <ellipse
       style="opacity:0.99;fill:#ffe6d5;fill-opacity:1;stroke-width:0.2"
       id="path5815"
       cx="147.21931"
       cy="84.210945"
       rx="1.2522453"
       ry="1.2964443"
       transform="rotate(15.382484)" />
    <path
       id="rect5812"
       style="opacity:0.99;fill:#0a0a0a;fill-opacity:1;stroke-width:0.2"
       d="m 110.28292,120.71375 c 1.64304,0.64823 2.55021,1.01426 4.64802,1.15603 l 3.46143,-1.27683 0.70716,0.78158 -3.97391,1.47219 -4.8427,-0.45762 z"
       sodipodi:nodetypes="ccccccc" />
    <ellipse
       style="opacity:0.99;fill:#ffe6d5;fill-opacity:1;stroke-width:0.2"
       id="path5815-6"
       cx="145.87405"
       cy="84.053902"
       rx="0.50825894"
       ry="0.50826156"
       transform="rotate(15.382484)" />
    <ellipse
       style="opacity:0.99;fill:#ffd8bc;fill-opacity:0.992157;stroke-width:0.2"
       id="path5815-6-4"
       cx="109.99477"
       cy="125.34757"
       rx="0.50825894"
       ry="0.50826156"
       transform="rotate(-2.8430353)" />
    <g
       id="g7039"
       transform="translate(-0.36611288,-0.15070612)">
      <path
         id="rect6897-4"
         style="opacity:0.99;fill:#ececec;stroke-width:0.2"
         d="m 112.87494,133.69763 0.76609,-0.0239 2.69795,0.90973 c 0.11965,0.28077 0.25137,0.5638 0.0469,0.78474 l -3.52134,-0.0231 c -0.30747,-0.51381 -0.22106,-1.0724 0.0104,-1.64745 z"
         sodipodi:nodetypes="ccccccc"
         inkscape:export-filename="..\bank\perso\basti\basti_1.png"
         inkscape:export-xdpi="74.481323"
         inkscape:export-ydpi="74.481323" />
      <path
         id="rect6954-1"
         style="opacity:0.99;fill:#0000ff;stroke-width:0.2"
         d="m 114.28778,134.40987 c 0.59627,0.0279 0.49597,0.42166 1.01804,-0.16258 l 0.32665,0.0746 c -0.6317,0.71711 -1.38839,0.22598 -2.10645,0.1082 z"
         sodipodi:nodetypes="ccccc" />
    </g>
    <path
       id="rect6820"
       style="opacity:0.99;fill:#b3b3b3;stroke-width:0.2"
       d="m 109.55224,125.7491 h 3.58659 l -1.75653,4.81535 -1.96869,2.95865 -0.76609,0.0239 0.95894,-3.057 c -0.11352,-2.11626 0.44096,-3.45212 -0.18252,-4.77534 z"
       sodipodi:nodetypes="cccccccc" />
    <g
       id="g7035"
       transform="translate(-1.1965874,-0.15070612)">
      <path
         id="rect6897"
         style="opacity:0.99;fill:#ffffff;stroke-width:0.2"
         d="m 109.84411,133.69771 0.76609,-0.0239 2.69795,0.90969 c 0.11965,0.28076 0.25137,0.56377 0.0469,0.7847 l -3.52134,-0.023 c -0.30747,-0.51379 -0.22106,-1.07234 0.0104,-1.64738 z"
         sodipodi:nodetypes="ccccccc" />
      <path
         id="rect6954"
         style="opacity:0.99;fill:#ff0000;stroke-width:0.2"
         d="m 110.94114,134.29123 c 0.59627,0.0279 0.49597,0.42166 1.01804,-0.16258 l 0.32665,0.0746 c -0.6317,0.7171 -1.38839,0.22597 -2.10645,0.1082 z"
         sodipodi:nodetypes="ccccc" />
    </g>
  </g>
</svg>
