<?xml version="1.0" encoding="UTF-8" standalone="no"?>
<!-- Created with Inkscape (http://www.inkscape.org/) -->

<svg
   width="210mm"
   height="297mm"
   viewBox="0 0 210 297"
   version="1.1"
   id="svg2981"
   inkscape:version="1.2 (dc2aedaf03, 2022-05-15)"
   sodipodi:docname="basti_hit.svg"
   xmlns:inkscape="http://www.inkscape.org/namespaces/inkscape"
   xmlns:sodipodi="http://sodipodi.sourceforge.net/DTD/sodipodi-0.dtd"
   xmlns="http://www.w3.org/2000/svg"
   xmlns:svg="http://www.w3.org/2000/svg">
  <sodipodi:namedview
     id="namedview2983"
     pagecolor="#ffffff"
     bordercolor="#666666"
     borderopacity="1.0"
     inkscape:showpageshadow="2"
     inkscape:pageopacity="0.0"
     inkscape:pagecheckerboard="0"
     inkscape:deskcolor="#d1d1d1"
     inkscape:document-units="mm"
     showgrid="false"
     inkscape:zoom="4.2331174"
     inkscape:cx="374.54667"
     inkscape:cy="455.33819"
     inkscape:window-width="2400"
     inkscape:window-height="1271"
     inkscape:window-x="2391"
     inkscape:window-y="-9"
     inkscape:window-maximized="1"
     inkscape:current-layer="layer1" />
  <defs
     id="defs2978" />
  <g
     inkscape:label="Calque 1"
     inkscape:groupmode="layer"
     id="layer1">
    <rect
       style="opacity:0.99;fill:#000000;fill-opacity:1;stroke-width:0.2"
       id="rect6952"
       width="45.002296"
       height="62.503189"
       x="95.04406"
       y="141.6778" />
    <path
       id="rect6897-4"
       style="opacity:0.99;fill:#ececec;stroke-width:0.2"
       d="m 112.87494,133.69763 0.76609,-0.0239 2.69795,0.90973 c 0.11965,0.28077 0.25137,0.5638 0.0469,0.78474 l -3.52134,-0.0231 c -0.30747,-0.51381 -0.22106,-1.0724 0.0104,-1.64745 z"
       sodipodi:nodetypes="ccccccc"
       inkscape:export-filename="..\bank\perso\basti\basti_1.png"
       inkscape:export-xdpi="74.481323"
       inkscape:export-ydpi="74.481323" />
    <path
       id="path31-9-9-4-8-9"
       style="fill:#ffe6d6;fill-opacity:0.992157;fill-rule:evenodd;stroke-width:0.398878"
       d="m 118.1029,114.53293 c 0,0 1.66505,-4.94291 -3.89512,-6.13175 -4.59681,-0.98285 -4.78642,3.44053 -4.78484,3.83363 0.74632,3.98089 3.2561,6.16845 5.31755,6.79939 1.22232,0.37415 3.14514,-3.17009 3.36241,-4.50127 z"
       sodipodi:nodetypes="csccc" />
    <path
       id="rect3522"
       style="opacity:0.99;fill:#502d16;fill-opacity:0.992157;stroke-width:0.2"
       d="m 111.51142,108.15958 c 2.33238,-0.5854 4.38414,0.1882 6.31269,1.55838 -0.0596,0.99889 0.15949,0.58286 -0.0375,0.96391 -1.59519,-0.16882 -3.42295,-2.88271 -5.47917,2.6771 l -0.38811,0.16782 c 0.0217,-0.58574 0.4176,-1.26349 -0.32348,-1.66175 -0.79939,0.5532 -0.90731,1.44162 -1.12333,2.27763 l -0.67865,-0.17416 c -1.71053,-3.3502 0.18533,-4.46695 1.71756,-5.80889 z"
       sodipodi:nodetypes="ccccccccc" />
    <path
       id="rect1430-1-8-6-7-2"
       style="fill:#532f18;fill-opacity:1;stroke-width:0.210089"
       d="m 117.16094,113.76356 0.50772,0.24853 0.35078,0.36067 c -0.42366,-0.26069 -0.839,-0.53303 -1.37214,-0.64123 0.0344,-0.0758 0.47393,0.0788 0.51368,0.0319 z"
       sodipodi:nodetypes="ccccc"
       inkscape:transform-center-x="0.24899773"
       inkscape:transform-center-y="-0.017351669" />
    <path
       id="path2169-5-4-0-9-4-9-5"
       style="fill:#f2f2f2;stroke-width:0.551595"
       d="m 117.72347,115.09834 c 0.0258,0.0491 -0.42032,0.0264 -0.83545,-9.7e-4 -0.41514,-0.0273 -0.75458,-0.0758 -0.70026,-0.10588 0.0669,-0.037 0.41807,-0.0623 0.84752,-0.0354 0.41639,0.0262 0.65759,0.0841 0.68819,0.14227 z"
       sodipodi:nodetypes="sssss" />
    <ellipse
       style="fill:#445500;stroke-width:0.314342"
       id="path2169-5-48-7-0-5"
       cx="-154.9247"
       cy="73.195518"
       rx="0.32983312"
       ry="0.30020577"
       transform="matrix(-0.96481446,-0.26293166,-0.26293166,0.96481446,0,0)" />
    <ellipse
       style="fill:#28170b;stroke-width:0.344828"
       id="path2169-0-2-9-0-5-8"
       ry="0.22500119"
       rx="0.25608161"
       cy="73.195518"
       cx="-154.93933"
       transform="matrix(-0.96481446,-0.26293166,-0.26293166,0.96481446,0,0)" />
    <path
       id="rect12747-2-4-7-8-0"
       style="fill:#1c1f24;fill-opacity:0.50639;stroke-width:0.398878"
       d="m 116.47991,117.802 c 0.29222,-0.24425 -0.16239,-0.31734 -0.7222,-0.37141 -0.0787,-0.008 -0.12046,0.0502 -0.17837,0.10847 -0.2719,0.59422 -0.0183,0.76669 0.82931,0.46233 0.0482,-0.13281 0.0348,-0.0968 0.0713,-0.19939 z"
       sodipodi:nodetypes="cscccc" />
    <rect
       style="fill:#000000;fill-opacity:1;stroke-width:0.264582"
       id="rect17694-7-5"
       width="0.45039588"
       height="0.12350398"
       x="-143.80579"
       y="81.749252"
       transform="matrix(-0.96481446,-0.26293166,-0.26293166,0.96481446,0,0)" />
    <path
       id="rect3577"
       style="opacity:0.99;fill:#502d16;fill-opacity:0.643875;stroke-width:0.2"
       d="m 111.9193,113.52679 c 0.19406,-0.0839 0.34056,-0.5133 0.38811,-0.16782 0.33965,2.46833 1.0883,4.38558 2.38837,4.88319 0.22615,0.0866 0.59141,0.52492 0.72931,0.1262 0.0788,-0.22806 0.49755,-0.0481 0.76939,-0.13711 -0.28832,0.54643 -0.62876,0.73046 -1.22362,0.82907 -0.5839,-0.0793 -1.1562,-0.20124 -1.63349,-0.67176 -1.94759,-1.03053 -1.9206,-2.85104 -1.41806,-4.86181 z"
       sodipodi:nodetypes="cssscccc" />
    <path
       id="rect3580"
       style="opacity:0.99;fill:#502d16;fill-opacity:0.703704;stroke-width:0.2"
       d="m 115.13873,117.52938 c 0.24132,-0.19178 0.4703,-0.29168 0.69694,-0.37421 0.95548,0.16099 0.73051,0.1939 0.97812,0.27816 l -0.19205,0.24938 c -0.16754,-0.20404 -0.51544,-0.25184 -0.7984,-0.35588 l -0.27198,0.12771 c -0.21466,0.074 -0.27987,0.053 -0.41264,0.0749 z"
       sodipodi:nodetypes="ccccccc" />
    <path
       id="rect4190"
       style="opacity:0.99;fill:#502d16;fill-opacity:1;stroke-width:0.2"
       d="m 114.87278,118.34556 c 0.20669,0.18037 0.4513,0.33068 0.59584,-0.044 0.0217,-0.0569 0.0549,0.0456 0.0975,-0.0448 l 0.62832,-0.0254 c -0.16615,0.39974 -0.45813,0.54467 -0.74196,0.70613 -0.29177,0.18756 -0.68883,0.13849 -1.12538,6.5e-4 0.0274,-0.31825 0.0814,-0.61581 0.54565,-0.59248 z"
       sodipodi:nodetypes="csccccc" />
    <path
       id="rect5812-1"
       style="opacity:0.99;fill:#000000;stroke-width:0.2"
       d="m 109.92875,121.15673 c 1.53025,-0.0362 2.0717,-0.15236 4.687,-0.10087 l 4.91738,-2.01828 0.44105,0.56617 -5.35116,2.19421 -4.39017,0.28231 z"
       sodipodi:nodetypes="ccccccc" />
    <path
       id="rect6820-1"
       style="opacity:0.99;fill:#999999;stroke-width:0.2"
       d="m 109.42394,125.7146 3.71489,0.0345 0.5022,7.9246 -0.76609,0.0162 -1.0299,-3.35596 c -0.82437,-1.86077 -1.23103,-3.09103 -2.4211,-4.61934 z"
       sodipodi:nodetypes="ccccccc" />
    <path
       id="rect4625"
       style="opacity:0.99;fill:#0a0a0a;fill-opacity:1;stroke-width:0.2"
       d="m 113.59394,118.55476 c -1.08234,1.90768 -1.80056,4.00725 -0.45511,7.19434 l -3.71489,-0.0345 c -0.27568,-2.40485 -1.02453,-4.42256 -0.82705,-7.21454 -0.0947,-0.0605 -0.76455,-0.015 -1.14826,-0.67917 -0.25032,-3.05849 2.94713,-2.24219 3.24133,-2.06265 1.68714,1.29198 2.19852,2.81556 2.90398,2.79652 z"
       sodipodi:nodetypes="ccccccc" />
    <path
       id="rect5812"
       style="opacity:0.99;fill:#0a0a0a;fill-opacity:1;stroke-width:0.2"
       d="m 110.68996,119.39665 c 1.46481,0.4442 2.01542,0.50323 4.48341,1.37009 l 5.54918,-0.64211 0.48107,1.02143 -6.25545,0.32782 -4.25821,-1.10491 z"
       sodipodi:nodetypes="ccccccc" />
    <ellipse
       style="opacity:0.99;fill:#ffd7bc;fill-opacity:1;stroke-width:0.2"
       id="path5815-7"
       cx="77.558784"
       cy="150.45074"
       rx="1.2522453"
       ry="1.2964443"
       transform="rotate(-18.225519)" />
    <ellipse
       style="opacity:0.99;fill:#ffe6d5;fill-opacity:1;stroke-width:0.2"
       id="path5815"
       cx="121.9748"
       cy="120.12463"
       rx="1.2522453"
       ry="1.2964443" />
    <ellipse
       style="opacity:0.99;fill:#ffe6d5;fill-opacity:1;stroke-width:0.2"
       id="path5815-6"
       cx="120.72256"
       cy="119.21987"
       rx="0.50825894"
       ry="0.50826156" />
    <ellipse
       style="opacity:0.99;fill:#ffd8bc;fill-opacity:0.992157;stroke-width:0.2"
       id="path5815-6-4"
       cx="76.63308"
       cy="149.24416"
       rx="0.50825894"
       ry="0.50826156"
       transform="rotate(-18.225519)" />
    <path
       id="rect6820"
       style="opacity:0.99;fill:#b3b3b3;stroke-width:0.2"
       d="m 108.27483,125.7491 h 4.864 l -3.13633,7.9246 -0.76609,0.0162 0.46949,-3.28835 c -0.11352,-2.11626 0.34137,-3.36373 -0.28196,-4.68695 z"
       sodipodi:nodetypes="ccccccc" />
    <path
       id="rect6897"
       style="opacity:0.99;fill:#ffffff;stroke-width:0.2"
       d="m 109.23641,133.69762 0.76609,-0.0239 2.69795,0.90969 c 0.11965,0.28076 0.25137,0.56377 0.0469,0.7847 l -3.52134,-0.023 c -0.30747,-0.51379 -0.22106,-1.07234 0.0104,-1.64738 z"
       sodipodi:nodetypes="ccccccc" />
    <path
       id="rect6954"
       style="opacity:0.99;fill:#ff0000;stroke-width:0.2"
       d="m 110.57874,134.40987 c 0.59627,0.0279 0.49597,0.42166 1.01804,-0.16258 l 0.32665,0.0746 c -0.6317,0.71711 -1.38839,0.22598 -2.10645,0.1082 z"
       sodipodi:nodetypes="ccccc" />
    <path
       id="rect6954-1"
       style="opacity:0.99;fill:#0000ff;stroke-width:0.2"
       d="m 114.28778,134.40987 c 0.59627,0.0279 0.49597,0.42166 1.01804,-0.16258 l 0.32665,0.0746 c -0.6317,0.71711 -1.38839,0.22598 -2.10645,0.1082 z"
       sodipodi:nodetypes="ccccc" />
  </g>
</svg>
