<?xml version="1.0" encoding="UTF-8" standalone="no"?>
<!-- Created with Inkscape (http://www.inkscape.org/) -->

<svg
   width="210mm"
   height="297mm"
   viewBox="0 0 210 297"
   version="1.1"
   id="svg2981"
   inkscape:version="1.2 (dc2aedaf03, 2022-05-15)"
   sodipodi:docname="basti_low.svg"
   xmlns:inkscape="http://www.inkscape.org/namespaces/inkscape"
   xmlns:sodipodi="http://sodipodi.sourceforge.net/DTD/sodipodi-0.dtd"
   xmlns="http://www.w3.org/2000/svg"
   xmlns:svg="http://www.w3.org/2000/svg">
  <sodipodi:namedview
     id="namedview2983"
     pagecolor="#ffffff"
     bordercolor="#666666"
     borderopacity="1.0"
     inkscape:showpageshadow="2"
     inkscape:pageopacity="0.0"
     inkscape:pagecheckerboard="0"
     inkscape:deskcolor="#d1d1d1"
     inkscape:document-units="mm"
     showgrid="false"
     inkscape:zoom="4.2331174"
     inkscape:cx="541.79929"
     inkscape:cy="450.84977"
     inkscape:window-width="2400"
     inkscape:window-height="1271"
     inkscape:window-x="2391"
     inkscape:window-y="-9"
     inkscape:window-maximized="1"
     inkscape:current-layer="layer1" />
  <defs
     id="defs2978" />
  <g
     inkscape:label="Calque 1"
     inkscape:groupmode="layer"
     id="layer1">
    <rect
       style="opacity:0.99;fill:#000000;fill-opacity:1;stroke-width:0.2"
       id="rect6952"
       width="45.002296"
       height="62.503189"
       x="53.511745"
       y="142.91003" />
    <path
       id="path31-9-9-4-8-9"
       style="fill:#ffe6d6;fill-opacity:0.992157;fill-rule:evenodd;stroke-width:0.398878"
       d="m 117.93237,115.83259 c 0,0 1.43816,-5.01362 -4.17038,-5.94796 -4.6368,-0.77245 -4.62475,3.65498 -4.60525,4.0476 0.92687,3.94276 3.53369,6.01372 5.62174,6.55011 1.23809,0.31808 2.99747,-3.31005 3.15389,-4.64975 z"
       sodipodi:nodetypes="csccc"
       inkscape:export-filename="..\_bank\perso\basti\basti_low1.png"
       inkscape:export-xdpi="69.3759"
       inkscape:export-ydpi="69.3759" />
    <path
       id="rect3522"
       style="opacity:0.99;fill:#502d16;fill-opacity:0.992157;stroke-width:0.2"
       d="m 111.05741,109.76609 c 2.3033,-0.69103 4.38817,-0.0117 6.37714,1.26923 -0.014,1.00057 0.18587,0.57499 0.006,0.96462 -1.60123,-0.096 -3.55071,-2.72382 -5.35155,2.92389 l -0.38007,0.18533 c -0.005,-0.58613 0.35963,-1.2812 -0.39882,-1.6453 -0.77337,0.58904 -0.84071,1.48146 -1.01842,2.32644 l -0.68588,-0.14307 c -1.86136,-3.26881 -0.0183,-4.47075 1.45119,-5.8811 z"
       sodipodi:nodetypes="ccccccccc" />
    <path
       id="rect1430-1-8-6-7-2"
       style="fill:#532f18;fill-opacity:1;stroke-width:0.210089"
       d="m 116.93341,115.03443 0.5336,0.18661 0.39101,0.3166 c -0.45156,-0.2087 -0.89621,-0.42994 -1.43842,-0.47424 0.025,-0.0793 0.47993,0.0221 0.51385,-0.0291 z"
       sodipodi:nodetypes="ccccc"
       inkscape:transform-center-x="0.24802848"
       inkscape:transform-center-y="0.0069848134" />
    <path
       id="path2169-5-4-0-9-4-9-5"
       style="fill:#f2f2f2;stroke-width:0.551594"
       d="m 117.57495,116.32417 c 0.035,0.20205 -0.4149,0.12827 -0.83476,0.0341 -0.41986,-0.0941 -0.7681,-0.27917 -0.7195,-0.40603 0.0598,-0.15616 0.40588,-0.27667 0.83995,-0.18525 0.4209,0.0892 0.67277,0.31803 0.71431,0.55715 z"
       sodipodi:nodetypes="sssss" />
    <ellipse
       style="fill:#445500;stroke-width:0.314342"
       id="path2169-5-48-7-0-5"
       cx="-139.70477"
       cy="87.833549"
       rx="0.32983312"
       ry="0.30020577"
       transform="matrix(-0.97578946,-0.21871198,-0.21871198,0.97578946,0,0)" />
    <ellipse
       style="fill:#28170b;stroke-width:0.344828"
       id="path2169-0-2-9-0-5-8"
       ry="0.22500119"
       rx="0.25608161"
       cy="87.908752"
       cx="-139.77853"
       transform="matrix(-0.97578946,-0.21871198,-0.21871198,0.97578946,0,0)" />
    <path
       id="rect12747-2-4-7-8-0"
       style="fill:#1c1f24;fill-opacity:0.50639;stroke-width:0.398878"
       d="m 116.45996,119.17219 c -0.24399,-0.1544 -0.49613,-0.24697 -0.73837,-0.33813 -0.074,-0.0279 -0.11805,0.0556 -0.17324,0.1165 0.20979,0.20073 0.49452,0.34542 0.84951,0.42408 0.0421,-0.13486 0.0302,-0.0983 0.0621,-0.20243 z"
       sodipodi:nodetypes="cscccc" />
    <rect
       style="fill:#000000;fill-opacity:1;stroke-width:0.264582"
       id="rect17694-7-5"
       width="0.45039588"
       height="0.12350398"
       x="-140.15517"
       y="89.534225"
       transform="matrix(-0.97578946,-0.21871198,-0.21871198,0.97578946,0,0)" />
    <path
       id="rect3577"
       style="opacity:0.99;fill:#502d16;fill-opacity:0.643875;stroke-width:0.2"
       d="m 111.70934,115.10916 c 0.19005,-0.0926 0.31684,-0.52828 0.38007,-0.18533 0.45173,2.45029 1.28694,4.33146 2.60832,4.76933 0.22986,0.0762 0.6147,0.49744 0.73431,0.0929 0.0683,-0.23141 0.49484,-0.0707 0.76234,-0.17202 -0.26313,0.55899 -0.59484,0.75834 -1.18458,0.88394 -0.58692,-0.0526 -1.16417,-0.14836 -1.6624,-0.59665 -1.9925,-0.94075 -2.04847,-2.7606 -1.63804,-4.79217 z"
       sodipodi:nodetypes="cssscccc" />
    <path
       id="rect3580"
       style="opacity:0.99;fill:#502d16;fill-opacity:0.703704;stroke-width:0.2"
       d="m 115.10775,118.96094 c 0.23234,-0.20256 0.45653,-0.31279 0.67918,-0.40556 0.96182,0.1173 0.73858,0.16042 0.98977,0.23332 l -0.18048,0.25787 c -0.17667,-0.1962 -0.52638,-0.22811 -0.81379,-0.31915 l -0.26588,0.13996 c -0.21107,0.0838 -0.27717,0.0657 -0.40881,0.0936 z"
       sodipodi:nodetypes="ccccccc" />
    <path
       id="rect4190"
       style="opacity:0.99;fill:#502d16;fill-opacity:1;stroke-width:0.2"
       d="m 114.87926,119.78839 c 0.21468,0.17077 0.4659,0.30978 0.59322,-0.0711 0.0191,-0.0578 0.0569,0.0431 0.0954,-0.0492 l 0.62652,-0.0541 c -0.14778,0.40689 -0.43285,0.56498 -0.70903,0.7392 -0.28293,0.20066 -0.68182,0.16971 -1.12419,0.0519 0.0129,-0.31916 0.0532,-0.61887 0.5181,-0.61671 z"
       sodipodi:nodetypes="csccccc" />
    <path
       id="rect5812-1"
       style="opacity:0.99;fill:#000000;stroke-width:0.2"
       d="m 109.36097,119.23717 c 1.1601,0.99858 1.63984,1.27519 3.54656,3.06595 l 3.68157,0.51813 0.25464,0.69211 -4.4281,-0.65454 -3.44782,-2.73236 z"
       sodipodi:nodetypes="ccccccc" />
    <path
       id="rect6820-1"
       style="opacity:0.99;fill:#999999;stroke-width:0.2"
       d="m 109.42394,125.7146 3.71489,0.0345 -3.04847,7.92467 -0.76609,0.0239 0.65108,-3.36368 c -0.0844,-1.79448 0.1304,-2.56067 -0.55141,-4.61934 z"
       sodipodi:nodetypes="ccccccc" />
    <path
       id="rect4625"
       style="opacity:0.99;fill:#0a0a0a;fill-opacity:1;stroke-width:0.2"
       d="m 113.3474,119.90133 -0.20857,5.84777 -3.71489,-0.0345 c -0.27568,-2.40485 -1.02453,-4.42256 -0.82705,-7.21454 -0.0947,-0.0605 -0.76455,-0.015 -1.14826,-0.67917 -0.25032,-3.05849 1.74188,-1.07098 2.03608,-0.89144 1.54387,0.22943 3.15723,2.99092 3.86269,2.97188 z"
       sodipodi:nodetypes="ccccccc" />
    <path
       id="rect5812"
       style="opacity:0.99;fill:#0a0a0a;fill-opacity:1;stroke-width:0.2"
       d="m 111.10544,118.44083 c 0.7896,1.31131 1.15874,1.72409 2.40973,4.02136 l 3.33482,1.64358 0.0254,0.73701 -4.00124,-2.00663 -2.42029,-3.67361 z"
       sodipodi:nodetypes="ccccccc" />
    <ellipse
       style="opacity:0.99;fill:#ffd7bc;fill-opacity:1;stroke-width:0.2"
       id="path5815-7"
       cx="150.09724"
       cy="79.926155"
       rx="1.2522453"
       ry="1.2964443"
       transform="rotate(18.175847)" />
    <ellipse
       style="opacity:0.99;fill:#ffe6d5;fill-opacity:1;stroke-width:0.2"
       id="path5815"
       cx="168.81709"
       cy="29.945051"
       rx="1.2522453"
       ry="1.2964443"
       transform="rotate(36.401366)" />
    <ellipse
       style="opacity:0.99;fill:#ffe6d5;fill-opacity:1;stroke-width:0.2"
       id="path5815-6"
       cx="167.56485"
       cy="29.694639"
       rx="0.50825894"
       ry="0.50826156"
       transform="rotate(36.401366)" />
    <ellipse
       style="opacity:0.99;fill:#ffd8bc;fill-opacity:0.992157;stroke-width:0.2"
       id="path5815-6-4"
       cx="148.84499"
       cy="79.67572"
       rx="0.50825894"
       ry="0.50826156"
       transform="rotate(18.175847)" />
    <g
       id="g7039"
       transform="translate(-3.5506698,4e-5)">
      <path
         id="rect6897-4"
         style="opacity:0.99;fill:#ececec;stroke-width:0.2"
         d="m 112.87494,133.69763 0.76609,-0.0239 2.69795,0.90973 c 0.11965,0.28077 0.25137,0.5638 0.0469,0.78474 l -3.52134,-0.0231 c -0.30747,-0.51381 -0.22106,-1.0724 0.0104,-1.64745 z"
         sodipodi:nodetypes="ccccccc"
         inkscape:export-filename="..\bank\perso\basti\basti_1.png"
         inkscape:export-xdpi="74.481323"
         inkscape:export-ydpi="74.481323" />
      <path
         id="rect6954-1"
         style="opacity:0.99;fill:#0000ff;stroke-width:0.2"
         d="m 114.28778,134.40987 c 0.59627,0.0279 0.49597,0.42166 1.01804,-0.16258 l 0.32665,0.0746 c -0.6317,0.71711 -1.38839,0.22598 -2.10645,0.1082 z"
         sodipodi:nodetypes="ccccc" />
    </g>
    <path
       id="rect6820"
       style="opacity:0.99;fill:#b3b3b3;stroke-width:0.2"
       d="m 113.11341,125.83751 5.51457,7.95797 -0.66295,0.38468 -3.48447,-2.83196 c -1.62303,-1.36281 -3.66437,-5.18496 -5.05662,-5.6336 -0.26724,-0.006 2.73096,-0.0149 3.68945,0.12289 z"
       sodipodi:nodetypes="ccccccc"
       inkscape:transform-center-x="-2.0551339"
       inkscape:transform-center-y="2.8285714" />
    <g
       id="g7035"
       transform="rotate(-28.32998,114.86013,117.85087)">
      <path
         id="rect6897"
         style="opacity:0.99;fill:#ffffff;stroke-width:0.2"
         d="m 109.84411,133.69771 0.76609,-0.0239 2.69795,0.90969 c 0.11965,0.28076 0.25137,0.56377 0.0469,0.7847 l -3.52134,-0.023 c -0.30747,-0.51379 -0.22106,-1.07234 0.0104,-1.64738 z"
         sodipodi:nodetypes="ccccccc" />
      <path
         id="rect6954"
         style="opacity:0.99;fill:#ff0000;stroke-width:0.2"
         d="m 110.94114,134.29123 c 0.59627,0.0279 0.49597,0.42166 1.01804,-0.16258 l 0.32665,0.0746 c -0.6317,0.7171 -1.38839,0.22597 -2.10645,0.1082 z"
         sodipodi:nodetypes="ccccc" />
    </g>
    <path
       sodipodi:type="star"
       style="opacity:0.99;fill:#ffff00;stroke-width:0.345263;stop-color:#000000"
       id="path562"
       inkscape:flatsided="false"
       sodipodi:sides="5"
       sodipodi:cx="122.38124"
       sodipodi:cy="127.78777"
       sodipodi:r1="3.9766738"
       sodipodi:r2="1.5324757"
       sodipodi:arg1="0.76265711"
       sodipodi:arg2="1.3909756"
       inkscape:rounded="0"
       inkscape:randomized="0"
       d="m 125.25639,130.53504 -2.60106,-1.2395 -1.99842,2.07561 0.37506,-2.85678 -2.59157,-1.25921 2.83286,-0.52609 0.39674,-2.85385 1.37574,2.53164 2.83677,-0.50456 -1.9826,2.09073 z"
       inkscape:transform-center-x="0.12841524"
       inkscape:transform-center-y="-0.094524838"
       transform="matrix(0.58427053,0,0,0.57431057,50.71907,59.508747)" />
    <path
       sodipodi:type="star"
       style="opacity:0.99;fill:#d4aa00;stroke-width:0.550054;stop-color:#000000"
       id="path562-4"
       inkscape:flatsided="false"
       sodipodi:sides="5"
       sodipodi:cx="122.38124"
       sodipodi:cy="127.78777"
       sodipodi:r1="3.9766738"
       sodipodi:r2="1.5324757"
       sodipodi:arg1="0.76265711"
       sodipodi:arg2="1.3909756"
       inkscape:rounded="0"
       inkscape:randomized="0"
       d="m 125.25639,130.53504 -2.60106,-1.2395 -1.99842,2.07561 0.37506,-2.85678 -2.59157,-1.25921 2.83286,-0.52609 0.39674,-2.85385 1.37574,2.53164 2.83677,-0.50456 -1.9826,2.09073 z"
       inkscape:transform-center-x="0.077653054"
       inkscape:transform-center-y="-0.061587325"
       transform="matrix(0.35330971,0,0,0.37419182,78.93358,85.048539)" />
  </g>
</svg>
