<?xml version="1.0" encoding="UTF-8" standalone="no"?>
<!-- Created with Inkscape (http://www.inkscape.org/) -->

<svg
   width="210mm"
   height="297mm"
   viewBox="0 0 210 297"
   version="1.1"
   id="svg2773"
   sodipodi:docname="bucheron_ko.svg"
   inkscape:version="1.2 (dc2aedaf03, 2022-05-15)"
   xmlns:inkscape="http://www.inkscape.org/namespaces/inkscape"
   xmlns:sodipodi="http://sodipodi.sourceforge.net/DTD/sodipodi-0.dtd"
   xmlns="http://www.w3.org/2000/svg"
   xmlns:svg="http://www.w3.org/2000/svg">
  <sodipodi:namedview
     id="namedview2775"
     pagecolor="#ffffff"
     bordercolor="#666666"
     borderopacity="1.0"
     inkscape:showpageshadow="2"
     inkscape:pageopacity="0.0"
     inkscape:pagecheckerboard="0"
     inkscape:deskcolor="#d1d1d1"
     inkscape:document-units="mm"
     showgrid="false"
     inkscape:zoom="2.993266"
     inkscape:cx="284.47188"
     inkscape:cy="537.70697"
     inkscape:window-width="1920"
     inkscape:window-height="1001"
     inkscape:window-x="-9"
     inkscape:window-y="-9"
     inkscape:window-maximized="1"
     inkscape:current-layer="layer1" />
  <defs
     id="defs2770" />
  <g
     inkscape:label="Calque 1"
     inkscape:groupmode="layer"
     id="layer1">
    <rect
       style="opacity:0.99;fill:#673c1f;fill-opacity:1;stroke-width:0.2;stop-color:#000000"
       id="rect1697"
       width="2.7657659"
       height="5.7659192"
       x="-131.51265"
       y="106.45122"
       inkscape:export-filename="..\_bank\perso\bucheron\bucheron_ko_2.png"
       inkscape:export-xdpi="73.362228"
       inkscape:export-ydpi="73.362228"
       transform="rotate(-84.304413)" />
    <path
       id="rect6822-2"
       style="opacity:0.99;fill:#6c5600;fill-opacity:1;stroke-width:0.2"
       d="m 105.82462,139.23811 c -0.0137,-0.60604 0.29582,-0.91575 0.47805,-1.32868 0.0792,-0.17928 -0.13141,-1.64949 0.57176,-1.6558 0.84461,0.28205 0.9082,0.95561 0.88135,1.43637 l -0.049,1.63649 -0.14874,0.22496 0.16808,0.1773 -0.0285,0.59193 c 0.0909,0.40933 -0.77347,0.57692 -1.70139,0.27513 -0.28023,-0.42826 -0.15196,-0.72161 -0.17155,-1.35774 z"
       sodipodi:nodetypes="csccccccccc" />
    <path
       id="rect6822"
       style="opacity:0.99;fill:#806600;stroke-width:0.2"
       d="m 106.22646,141.62884 c -0.0137,-0.60604 0.29581,-0.91575 0.47805,-1.32868 0.0792,-0.17928 -0.13142,-1.64949 0.57175,-1.65581 0.84461,0.28206 0.90821,0.95561 0.88135,1.43638 l -0.049,1.63648 -0.14874,0.22498 0.16804,0.17733 -0.0285,0.59192 c 0.0909,0.40934 -0.77347,0.57693 -1.7014,0.27514 -0.28023,-0.42825 -0.15195,-0.72161 -0.17155,-1.35773 z"
       sodipodi:nodetypes="csccccccccc" />
    <path
       id="rect6466"
       style="opacity:0.99;fill:#000055;stroke-width:0.2"
       d="m 99.29062,139.08208 c 1.13807,-0.3661 5.65082,-0.49965 6.6027,-0.33937 0.3313,0.56448 0.47383,1.30742 0.18031,1.86178 -0.56387,0.44582 -4.71846,0.36527 -5.42157,0.37751 0.69729,-0.08 5.15229,-0.30621 5.80283,-0.0889 0.21578,0.66243 0.29446,1.50611 -0.0569,2.09346 -1.03678,0.36583 -6.19259,0.7223 -7.51139,0.33116 -0.02457,-1.34735 0.611887,-2.88385 0.40403,-4.23566 z"
       sodipodi:nodetypes="cccccccc" />
    <g
       id="g4328"
       transform="rotate(-84.304413,106.59259,148.468)"
       style="fill:#782121">
      <path
         id="rect8523-7-3-4-8"
         style="fill:#782121;fill-opacity:1;stroke-width:0.376887"
         d="m 114.47123,133.8675 c -0.84255,0.0427 -0.67235,6.04057 -0.67235,6.69891 0,0.25987 0.0684,-2.29224 -0.42017,-4.26415 -0.22912,-0.9247 -0.90325,-1.734 -1.17473,-2.04363 -0.92853,-1.05901 -2.24619,-0.27408 -2.71334,-0.13028 -0.99887,0.82735 3.81182,8.26489 0.22378,1.09387 0.0981,2.88901 0.32451,6.31331 0.77028,8.02017 l 5.75988,-1.18488 c 0.0741,-1.65332 0.93735,-6.37083 -1.77341,-8.18998 z"
         sodipodi:nodetypes="cssscccccc" />
    </g>
    <path
       id="path31-9-9-4-8-9"
       style="fill:#673c1f;fill-opacity:1;fill-rule:evenodd;stroke-width:0.398877"
       d="m 88.885798,135.62962 c -1.092331,-0.14191 -6.044174,-1.33266 -6.342838,4.83524 -0.246911,5.09924 4.550972,4.66171 4.901226,4.48199 2.307127,-1.1838 6.178276,-1.47277 6.865186,-5.90068 0.189978,-1.22472 -3.252282,-3.13447 -5.423574,-3.41655 z"
       sodipodi:nodetypes="sssss" />
    <path
       id="rect1430-1-8-6-7-2"
       style="fill:#2b1100;fill-opacity:1;stroke-width:0.210089"
       d="m 87.525937,139.49546 -0.287741,-1.03674 0.483119,-1.01997 c 0.0476,0.9508 0.03387,1.90986 0.887587,2.75291 -0.353693,0.079 -0.821355,-0.72157 -1.083048,-0.69619 z"
       sodipodi:nodetypes="ccccc"
       inkscape:transform-center-x="-0.31517252"
       inkscape:transform-center-y="0.32607827" />
    <path
       id="path2169-5-4-0-9-4-9-5"
       style="fill:#ffe6d5;stroke-width:0.551594"
       d="m 88.756433,137.83245 c -0.009,-0.0588 -0.0082,0.39427 -0.0062,0.82001 0.002,0.42576 0.0085,0.79168 0.01455,0.75887 0.0075,-0.0404 0.01493,-0.36762 0.01317,-0.80706 -0.0017,-0.4262 -0.01078,-0.70221 -0.02149,-0.77181 z"
       sodipodi:nodetypes="sssss" />
    <path
       id="rect1430-1-8-6-7-2-5"
       style="fill:#2b1100;fill-opacity:1;stroke-width:0.210089"
       d="m 87.659462,135.40715 -0.345764,0.58451 0.480495,1.02121 c 0.04999,-0.9507 -0.40721,-0.68919 0.448588,-1.53008 -0.353506,-0.0799 -0.321791,-0.0496 -0.5834,-0.0757 z"
       sodipodi:nodetypes="cccccc"
       inkscape:transform-center-x="-0.31734686"
       inkscape:transform-center-y="-0.35974985" />
    <path
       id="path2169-5-4-0-9-4-9-5-5"
       style="fill:#ffe6d5;stroke-width:0.551594"
       d="m 88.992801,136.80389 c 0.0043,0.0915 0.006,-0.32784 0.0069,-0.72667 9.53e-4,-0.39883 0.0011,-0.47856 -0.0021,-0.47365 -0.004,0.006 -0.01109,-0.008 -0.01221,0.40287 -0.0011,0.39828 0.0023,0.68916 0.0074,0.79747 z"
       sodipodi:nodetypes="sssss" />
    <path
       id="rect12747-2-4-7-8"
       style="fill:#1c1f24;stroke-width:0.398876"
       d="m 92.180215,137.08333 c -0.218797,0.52033 -0.189061,1.24673 -0.193914,1.94434 l 0.188842,0.22634 c 0.06125,-0.70471 0.296633,-1.69344 0.212039,-2.17633 z"
       sodipodi:nodetypes="ccccc" />
    <path
       id="rect5880-2-8"
       style="fill:#2b1100;fill-opacity:1;stroke-width:0.264583"
       d="m 84.794606,135.92044 c -1.605823,-0.53825 -2.20634,0.14339 -2.786386,4.25329 -0.131166,3.56888 1.223454,4.77406 3.202953,5.01219 1.161316,0.33732 3.483833,-0.13504 4.207745,-1.04732 -0.0048,-0.94807 -1.051863,0.92101 -2.311421,0.27532 -0.202432,-0.20509 0.02163,-0.4727 1.342095,-0.90105 -0.957319,-1.2726 -4.049163,1.18391 -4.294976,-2.74047 -0.768878,-2.89632 0.150691,-3.15579 0.640005,-4.85192 z"
       sodipodi:nodetypes="cccccccc" />
    <path
       id="rect1098"
       style="opacity:0.99;fill:#2b1100;stroke-width:0.2;stop-color:#000000"
       d="m 87.865047,143.60669 2.157401,-3.05219 c 0.620527,-1.14504 1.226904,-2.03104 1.274547,-2.35667 0.03542,-0.24232 -0.183753,-2.12634 -0.02048,-1.83936 0.107969,0.18979 0.803637,-0.0712 0.728598,0.43509 -0.07596,0.51272 -0.368366,1.80542 -0.217717,2.45098 0.07587,0.32505 0.225332,0.54411 0.386872,0.6935 0.250602,0.23175 0.408282,-2.87551 0.487324,-2.8437 1.990623,0.22787 2.664112,0.0477 2.402844,1.60935 -0.127963,2.34091 0.361073,3.17798 -2.840894,4.39387 -2.210188,1.29033 -3.184243,0.75162 -4.358497,0.50913 z"
       sodipodi:nodetypes="ccssssscccc" />
    <ellipse
       style="opacity:0.99;fill:#000000;fill-opacity:1;stroke-width:0.2;stop-color:#000000"
       id="path1820-0"
       cx="-130.30911"
       cy="110.59464"
       rx="0.18750957"
       ry="0.17684351"
       transform="rotate(-84.304413)" />
    <g
       id="g4324"
       transform="rotate(-84.304413,111.67087,153.57567)">
      <path
         id="rect4264-7"
         style="opacity:0.99;fill:#501616;fill-opacity:1;stroke-width:0.2"
         d="m 118.58195,134.43297 c 0.33196,-0.93122 0.6184,0.67309 1.80774,0.0281 0.57773,1.89726 0.1989,2.61901 -0.64079,3.43533 l 2.1169,2.55524 -0.30622,0.0691 c -0.36366,-0.96591 -3.3496,-1.58266 -3.03546,-2.82638 -0.3153,-1.04398 -0.39965,-2.11777 0.0578,-3.26145 z"
         sodipodi:nodetypes="cccccccc" />
      <path
         id="rect4264"
         style="opacity:0.99;fill:#782121;stroke-width:0.2"
         d="m 120.38969,134.46107 c -0.43359,1.93554 -0.36209,2.79069 -1.00998,3.59975 l 2.17987,2.45993 -1.30868,0.89987 c -0.0898,-0.297 -1.76516,-0.81305 -2.17042,-2.32282 -0.0825,-0.30732 -0.2367,-0.71652 -0.0632,-1.40343 -0.23601,-0.99112 0.27137,-2.00832 0.56464,-3.26145 0.0487,-0.85624 1.77638,-1.4878 1.80777,0.0282 z"
         sodipodi:nodetypes="ccccscccc" />
    </g>
    <rect
       style="fill:#000000;fill-opacity:1;stroke-width:0.264582"
       id="rect17694-1"
       width="0.44874489"
       height="0.14258994"
       x="126.80798"
       y="103.76616"
       transform="matrix(-0.09924311,0.99506322,0.99506322,0.09924311,0,0)" />
    <rect
       style="fill:#000000;fill-opacity:1;stroke-width:0.264582"
       id="rect17694-7-5"
       width="0.44874489"
       height="0.14258994"
       x="127.70515"
       y="103.76802"
       transform="matrix(-0.09924311,0.99506322,0.99506322,0.09924311,0,0)" />
    <ellipse
       style="opacity:0.99;fill:#000000;fill-opacity:1;stroke-width:0.2;stop-color:#000000"
       id="path1820"
       cx="-130.56285"
       cy="109.15733"
       rx="0.18750957"
       ry="0.17684351"
       transform="rotate(-84.304413)" />
    <ellipse
       style="fill:#673c1f;fill-opacity:1;stroke-width:0.398948"
       id="path9819-8-8-8-2-5-7"
       cx="130.54303"
       cy="-112.59505"
       rx="1.0622345"
       ry="1.1526802"
       transform="matrix(0.96739608,0.2532683,0.22734049,-0.97381533,0,0)" />
    <ellipse
       style="fill:#673c1f;fill-opacity:1;stroke-width:0.148616"
       id="path9819-9-7-8-1-9-9-2"
       cx="120.71997"
       cy="136.57794"
       rx="0.31134629"
       ry="0.28175676"
       transform="matrix(-0.28453367,0.95866605,0.98157068,0.19109945,0,0)" />
    <ellipse
       style="opacity:0.99;fill:#000000;fill-opacity:1;stroke-width:0.2;stop-color:#000000"
       id="path1820-2"
       cx="-130.18285"
       cy="112.29004"
       rx="0.18750957"
       ry="0.17684351"
       transform="rotate(-84.304413)" />
    <ellipse
       style="opacity:0.99;fill:#000000;fill-opacity:1;stroke-width:0.2;stop-color:#000000"
       id="path1820-9"
       cx="-129.99533"
       cy="113.46979"
       rx="0.18750957"
       ry="0.17684351"
       transform="rotate(-84.304413)" />
  </g>
</svg>
