<?xml version="1.0" encoding="UTF-8" standalone="no"?>
<!-- Created with Inkscape (http://www.inkscape.org/) -->

<svg
   width="210mm"
   height="297mm"
   viewBox="0 0 210 297"
   version="1.1"
   id="svg2602"
   inkscape:version="1.2 (dc2aedaf03, 2022-05-15)"
   sodipodi:docname="controleuz_down.svg"
   xmlns:inkscape="http://www.inkscape.org/namespaces/inkscape"
   xmlns:sodipodi="http://sodipodi.sourceforge.net/DTD/sodipodi-0.dtd"
   xmlns="http://www.w3.org/2000/svg"
   xmlns:svg="http://www.w3.org/2000/svg">
  <sodipodi:namedview
     id="namedview2604"
     pagecolor="#ffffff"
     bordercolor="#666666"
     borderopacity="1.0"
     inkscape:showpageshadow="2"
     inkscape:pageopacity="0.0"
     inkscape:pagecheckerboard="0"
     inkscape:deskcolor="#d1d1d1"
     inkscape:document-units="mm"
     showgrid="false"
     inkscape:zoom="5.986532"
     inkscape:cx="255.6572"
     inkscape:cy="384.94741"
     inkscape:window-width="1920"
     inkscape:window-height="1001"
     inkscape:window-x="-9"
     inkscape:window-y="-9"
     inkscape:window-maximized="1"
     inkscape:current-layer="layer1" />
  <defs
     id="defs2599" />
  <g
     inkscape:label="Calque 1"
     inkscape:groupmode="layer"
     id="layer1">
    <path
       id="path11385-4-04-45-3-8-4"
       style="fill:#1a1a1a;stroke-width:0.548397"
       d="m 80.85294,104.17384 c 0.919707,0.13064 1.891973,-0.60343 1.159909,-1.86629 -0.19914,-0.34352 -1.594996,-2.30963 -2.028505,-2.486831 -0.382765,-0.15647 -0.734943,-0.239574 -0.762513,0.306601 -0.05814,1.15204 0.269704,1.84373 0.663911,2.81363 0.744795,1.83254 0.768737,1.20471 0.967168,1.23292 z"
       sodipodi:nodetypes="ssssss"
       inkscape:export-filename="..\_bank\perso\controleuz\controleuz_down4.png"
       inkscape:export-xdpi="62.474968"
       inkscape:export-ydpi="62.474968" />
    <path
       id="path11385-4-04-45-3-8"
       style="fill:#333333;stroke-width:0.548397"
       d="m 82.549972,105.92833 c 0.919701,0.13061 1.891983,-0.60343 1.159918,-1.86628 -0.199159,-0.34353 -1.595007,-2.30963 -2.028525,-2.48684 -0.382754,-0.15647 -0.734932,-0.23956 -0.762493,0.30661 -0.05814,1.15204 0.269694,1.84373 0.663901,2.81362 0.744795,1.83254 0.768746,1.20472 0.967158,1.23293 z"
       sodipodi:nodetypes="ssssss" />
    <path
       id="rect10620-1-8-9-9-5-6"
       style="fill:#00001c;fill-opacity:1;stroke-width:0.398877"
       d="m 76.171747,105.883 c -0.223087,0.72854 1.621925,3.09578 2.005263,3.09664 l 2.981208,-4.90784 c 0.176008,-0.91043 -0.425015,-1.27223 -1.094595,-1.54342 z"
       sodipodi:nodetypes="ccccc" />
    <path
       id="rect10620-1-8-9-9-5"
       style="fill:#00003c;fill-opacity:1;stroke-width:0.398877"
       d="m 76.434201,106.12954 c -0.223087,0.72854 0.89954,2.93263 1.282879,2.93351 l 4.832892,-3.13472 c 0.176017,-0.91043 -0.06663,-0.96025 -0.736168,-1.23147 z"
       sodipodi:nodetypes="ccccc" />
    <path
       id="path6217-9-9-3-7-8-9"
       style="fill:#000080;stroke-width:0.398877"
       d="m 73.271168,100.598 c 0.246961,-0.22527 0.106396,-0.821011 -0.101123,-2.526622 0,0 0.9141,-1.202171 1.162885,-0.454009 0.46068,1.385345 1.745263,4.596461 -0.150836,5.032051 -1.813444,0.41661 -3.406385,0.98329 -3.671789,-0.26339 -0.265395,-1.2467 1.279898,-0.43864 2.760873,-1.78802 z"
       sodipodi:nodetypes="ssssss" />
    <path
       id="rect21874-0-5-4-2"
       style="fill:#000080;stroke-width:0.264583"
       d="m 71.618195,101.02289 c -0.811096,1.40062 -2.598439,1.61101 -2.50783,3.85677 0.510769,1.84365 8.638218,4.73215 9.066645,4.09998 1.466773,-1.58701 -0.184718,-3.43649 0.465131,-5.259 0.246841,-0.69231 -2.015647,-1.18172 -2.338983,-1.81662 -0.296403,-0.44286 -0.999927,-0.56085 -0.999927,-0.56085 -0.59932,0.04 -2.812387,-0.21021 -3.670215,0.1029 z"
       sodipodi:nodetypes="cccscscc" />
    <rect
       style="fill:#000055;fill-opacity:1;stroke-width:0.264583"
       id="rect9477-8"
       width="0.56597674"
       height="0.51449186"
       x="-116.19147"
       y="49.391479"
       transform="rotate(-102.5465)" />
    <ellipse
       style="fill:#d08553;fill-opacity:1;stroke-width:0.398877"
       id="path9819-8-8-8-5"
       cx="74.469955"
       cy="-96.404991"
       rx="0.90396488"
       ry="0.92643011"
       transform="matrix(0.99992576,0.01218528,0.01218528,-0.99992576,0,0)" />
    <ellipse
       style="fill:#d08553;fill-opacity:1;stroke-width:0.148272"
       id="path9819-9-7-8-1-0"
       cx="97.129585"
       cy="73.87291"
       rx="0.32108271"
       ry="0.28087336"
       transform="matrix(-0.01218528,0.99992576,0.99992576,0.01218528,0,0)" />
    <rect
       style="fill:#1a1a1a;fill-opacity:1;stroke-width:0.264583"
       id="rect14273-1"
       width="5.238483"
       height="0.32740518"
       x="129.06371"
       y="25.766462"
       transform="matrix(0.43002688,0.90281608,0.90281608,-0.43002688,0,0)" />
    <path
       id="path6217-9-9-3-7-8-3"
       style="fill:#000051;fill-opacity:1;stroke-width:0.398877"
       d="m 74.768771,103.97856 c 0.280973,-0.18107 0.130693,-0.4619 0.20967,-2.17828 0,0 1.144017,-0.14935 1.264955,0.62977 0.223937,1.44266 0.376681,3.55178 -0.917444,3.72284 -1.844639,0.24382 -3.522464,0.40326 -3.576905,-0.8702 -0.05444,-1.27346 1.335012,-0.21974 3.019725,-1.30412 z"
       sodipodi:nodetypes="ssssss" />
    <rect
       style="fill:#ececec;fill-opacity:1;stroke-width:0.264583"
       id="rect9477-6-3"
       width="0.49847209"
       height="0.43527719"
       x="-116.16793"
       y="49.434479"
       transform="rotate(-102.5465)" />
    <path
       id="path6217-9-9-3-7-8"
       style="fill:#000080;stroke-width:0.398877"
       d="m 74.227308,104.64607 c 0.280978,-0.18108 0.241375,-0.79191 0.320364,-2.50828 0,0 1.101237,-1.03346 1.222185,-0.25434 0.223937,1.44265 0.956771,4.82264 -0.985365,4.93694 -1.857464,0.1093 -3.522457,0.40326 -3.576897,-0.8702 -0.05444,-1.27346 1.335011,-0.21974 3.019723,-1.30412 z"
       sodipodi:nodetypes="ssssss" />
    <text
       xml:space="preserve"
       style="font-style:normal;font-weight:normal;font-size:0.216711px;line-height:1.25;font-family:sans-serif;fill:#000000;fill-opacity:1;stroke:none;stroke-width:0.264583"
       x="-226.26656"
       y="25.551119"
       id="text10217-0"
       transform="matrix(-0.11154086,-0.50120274,1.9010476,-0.42307134,0,0)"><tspan
         sodipodi:role="line"
         id="tspan10215-9"
         style="stroke-width:0.264583"
         x="-226.26656"
         y="25.551119">Contrôle</tspan></text>
    <rect
       style="fill:#1a1a1a;fill-opacity:1;stroke-width:0.264583"
       id="rect14169-9"
       width="0.56597751"
       height="0.81626797"
       x="115.62552"
       y="49.905994"
       transform="matrix(0.21723197,0.97612001,0.97612001,-0.21723197,0,0)" />
    <ellipse
       style="fill:#d08553;fill-opacity:1;stroke-width:0.398877"
       id="path9819-8-8-8-5-1"
       cx="101.53429"
       cy="-74.745117"
       rx="0.90396488"
       ry="0.92643011"
       transform="matrix(0.95613653,0.29292137,0.29292137,-0.95613653,0,0)"
       inkscape:transform-center-x="0.72020935"
       inkscape:transform-center-y="-0.11980928" />
    <ellipse
       style="fill:#d08553;fill-opacity:1;stroke-width:0.148272"
       id="path9819-9-7-8-1-0-8"
       cx="75.469711"
       cy="100.93723"
       rx="0.32108271"
       ry="0.28087336"
       transform="matrix(-0.29292137,0.95613653,0.95613653,0.29292137,0,0)"
       inkscape:transform-center-x="1.5033231"
       inkscape:transform-center-y="0.39811185" />
    <rect
       style="fill:#1a1a1a;fill-opacity:1;stroke-width:0.264583"
       id="rect14275-5"
       width="0.44433558"
       height="1.2160764"
       x="129.70001"
       y="24.835836"
       transform="matrix(0.43002688,0.90281608,0.90281608,-0.43002688,0,0)" />
    <path
       id="path31-9-9-4-8-2"
       style="fill:#d08553;fill-opacity:1;fill-rule:evenodd;stroke-width:0.398877"
       d="m 70.522424,96.154028 c -0.881314,-0.608705 -3.945315,-2.8921 -6.992536,0.01372 -2.895877,2.761502 0.701197,5.885461 0.994692,6.145621 2.426959,2.15129 8.109816,1.92883 8.505104,-0.54568 0.424723,-2.658794 -0.813352,-4.443714 -2.50726,-5.613662 z"
       sodipodi:nodetypes="sssss" />
    <path
       id="path2169-5-4-0-9-4-9-2-3-5"
       style="fill:#37abc8;fill-opacity:1;stroke-width:0.551594"
       d="m 70.009998,97.795267 c 0.159331,0.272751 0.510811,-0.01316 0.814745,-0.312193 0.303955,-0.299018 0.454243,-0.683557 0.288027,-0.82472 -0.204592,-0.173742 -0.643528,-0.180028 -0.963346,0.121604 -0.309591,0.293202 -0.327963,0.692503 -0.139416,1.015309 z"
       sodipodi:nodetypes="sssss" />
    <path
       id="path2169-5-4-0-9-4-9-2-3-5-6"
       style="fill:#37abc8;fill-opacity:1;stroke-width:0.551594"
       d="m 69.249909,98.543041 c 0.270105,0.163768 -0.02155,0.510524 -0.325474,0.809534 -0.303944,0.299027 -0.690884,0.443013 -0.829324,0.27451 -0.170371,-0.207408 -0.169482,-0.646387 0.137343,-0.961229 0.298226,-0.304762 0.697783,-0.316599 1.017455,-0.122817 z"
       sodipodi:nodetypes="sssss" />
    <path
       id="rect1430-1-8-6-7-8"
       style="fill:#502d16;stroke-width:0.210089"
       d="m 67.113279,98.090197 0.909418,-0.368659 0.941391,0.23373 c -0.847218,0.169754 -1.705523,0.292929 -2.407295,1.075198 -0.09254,-0.264188 0.595102,-0.740124 0.556474,-0.940291 z"
       sodipodi:nodetypes="ccccc"
       inkscape:transform-center-x="0.25944516"
       inkscape:transform-center-y="0.36170641" />
    <path
       id="rect1430-1-8-6-7-4"
       style="fill:#502d16;stroke-width:0.210089"
       d="m 69.518122,95.916549 -0.183654,0.360179 0.134377,0.815665 c 0.121996,-0.509244 0.200668,-1.03825 0.892571,-1.287648 -0.247168,-0.131328 -0.406482,-0.07103 -0.592371,-0.150088 z"
       sodipodi:nodetypes="cccccc"
       inkscape:transform-center-x="-0.3516395"
       inkscape:transform-center-y="-0.11989486" />
    <path
       id="path2169-5-4-0-9-4-9-2"
       style="fill:#ffccaa;stroke-width:0.551594"
       d="m 69.314512,98.608712 c 0.221493,0.11438 -0.0769,0.454245 -0.380838,0.753254 -0.303946,0.299018 -0.664115,0.470238 -0.76807,0.336773 -0.127934,-0.164272 -0.07749,-0.552867 0.230806,-0.866222 0.299493,-0.303469 0.655931,-0.359133 0.918102,-0.223805 z"
       sodipodi:nodetypes="sssss" />
    <path
       id="path2169-5-4-0-9-4-9-2-3"
       style="fill:#ffccaa;stroke-width:0.551594"
       d="m 70.065373,97.851544 c 0.110768,0.223353 0.455434,-0.06946 0.75937,-0.36847 0.303955,-0.299018 0.481023,-0.656333 0.349282,-0.762458 -0.162146,-0.130615 -0.551537,-0.08648 -0.869872,0.216623 -0.308325,0.294486 -0.369796,0.64997 -0.23878,0.914305 z"
       sodipodi:nodetypes="sssss" />
    <ellipse
       style="fill:#502d16;stroke-width:0.314342"
       id="path2169-5-48-7-0-2-5"
       cx="-17.420284"
       cy="118.88022"
       rx="0.32813457"
       ry="0.31256434"
       transform="rotate(-44.531772)" />
    <ellipse
       style="fill:#28170b;stroke-width:0.344828"
       id="path2169-0-2-9-0-5-7-8"
       ry="0.22066765"
       rx="0.26542562"
       cy="118.88022"
       cx="-17.420284"
       transform="rotate(-44.531772)" />
    <ellipse
       style="fill:#502d16;stroke-width:0.314342"
       id="path2169-5-48-7-0-2-5-5"
       cx="-20.06477"
       cy="119.00806"
       rx="0.32813457"
       ry="0.31256434"
       transform="rotate(-44.531772)" />
    <ellipse
       style="fill:#28170b;stroke-width:0.344828"
       id="path2169-0-2-9-0-5-7-8-3"
       ry="0.22066765"
       rx="0.26542562"
       cy="119.00806"
       cx="-20.06477"
       transform="rotate(-44.531772)" />
    <path
       id="rect12747-2-4-7-5"
       style="fill:#aa0000;stroke-width:0.398877"
       d="m 72.97472,100.0585 c -0.317554,0.18363 -0.585652,0.44206 -0.886687,0.78815 l 0.120884,0.18859 c 0.600182,0.25178 0.765727,-0.29041 0.879108,-0.83398 z"
       sodipodi:nodetypes="ccccc" />
    <rect
       style="fill:#000000;fill-opacity:1;stroke-width:0.264583"
       id="rect17694"
       width="0.36950096"
       height="0.12635346"
       x="17.787453"
       y="121.05354"
       transform="matrix(-0.71286173,0.70130461,0.70130461,0.71286173,0,0)" />
    <rect
       style="fill:#000000;fill-opacity:1;stroke-width:0.264583"
       id="rect17694-7"
       width="0.36950096"
       height="0.12635346"
       x="18.695015"
       y="121.05354"
       transform="matrix(-0.71286173,0.70130461,0.70130461,0.71286173,0,0)" />
    <path
       id="rect3820"
       style="opacity:0.99;fill:#552200;stroke-width:0.2;stop-color:#000000"
       d="m 62.262251,99.185784 c -0.788316,-0.803319 0.154835,-2.183883 2.096657,-3.686492 2.060492,-1.91438 2.55949,-1.254643 3.771994,-0.581366 -0.216619,0.137293 -0.199903,0.264293 -0.273713,0.502483 -0.268244,0.865793 -1.607435,1.784567 -2.261468,2.326415 -0.274751,0.227626 -0.36155,0.617823 -0.11647,0.717633 3.271263,2.850353 3.968668,5.115893 4.111369,5.536413 -0.65567,1.87513 -1.369165,0.9827 -2.447762,1.23176 -2.498125,-1.97733 -3.998701,-1.23015 -4.880619,-6.046858 z"
       sodipodi:nodetypes="cccssccccc" />
    <g
       id="g3825"
       transform="rotate(-44.531772,73.99221,101.0026)">
      <path
         id="rect4004-0"
         style="fill:#000080;stroke-width:0.264583"
         d="m 72.467762,89.165418 c -1.66075,-0.716817 -3.414531,-0.699723 -5.262791,0.0627 -1.104663,1.29431 -1.110027,2.58862 -1.275184,3.88293 3.080481,0.0644 6.69909,1.665968 8.981415,0.314781 l -0.59911,-1.04947 c -0.247534,-1.647409 -1.02335,-2.464661 -1.84433,-3.210941 z"
         sodipodi:nodetypes="cccccc" />
      <path
         id="rect4603-4"
         style="fill:#000066;stroke-width:0.264583"
         d="m 74.312092,92.376359 -8.044242,0.83368 3.787802,1.03023 c 1.799648,-0.01656 3.44538,-0.237453 4.85555,-0.81444 z"
         sodipodi:nodetypes="ccccc" />
    </g>
  </g>
</svg>
