<?xml version="1.0" encoding="UTF-8" standalone="no"?>
<!-- Created with Inkscape (http://www.inkscape.org/) -->

<svg
   width="210mm"
   height="297mm"
   viewBox="0 0 210 297"
   version="1.1"
   id="svg2602"
   inkscape:version="1.2 (dc2aedaf03, 2022-05-15)"
   sodipodi:docname="controleuz.svg"
   xmlns:inkscape="http://www.inkscape.org/namespaces/inkscape"
   xmlns:sodipodi="http://sodipodi.sourceforge.net/DTD/sodipodi-0.dtd"
   xmlns="http://www.w3.org/2000/svg"
   xmlns:svg="http://www.w3.org/2000/svg">
  <sodipodi:namedview
     id="namedview2604"
     pagecolor="#ffffff"
     bordercolor="#666666"
     borderopacity="1.0"
     inkscape:showpageshadow="2"
     inkscape:pageopacity="0.0"
     inkscape:pagecheckerboard="0"
     inkscape:deskcolor="#d1d1d1"
     inkscape:document-units="mm"
     showgrid="false"
     inkscape:zoom="4.2331174"
     inkscape:cx="268.24203"
     inkscape:cy="416.12359"
     inkscape:window-width="1920"
     inkscape:window-height="1001"
     inkscape:window-x="-9"
     inkscape:window-y="-9"
     inkscape:window-maximized="1"
     inkscape:current-layer="layer1" />
  <defs
     id="defs2599" />
  <g
     inkscape:label="Calque 1"
     inkscape:groupmode="layer"
     id="layer1">
    <path
       id="path11385-4-04-45-3-8-4"
       style="fill:#1a1a1a;stroke-width:0.548397"
       d="m 71.836086,115.29962 c -0.658807,0.65489 -0.659591,1.87314 0.789266,2.05073 0.394128,0.0483 2.804265,0.12048 3.20705,-0.11847 0.355634,-0.21097 0.63431,-0.44179 0.215245,-0.79315 -0.883929,-0.74111 -1.633392,-0.89672 -2.644808,-1.16716 -1.910972,-0.51098 -1.424591,-0.11327 -1.566753,0.028 z"
       sodipodi:nodetypes="ssssss"
       inkscape:export-filename="..\_bank\perso\controleuz\controleuz_1.png"
       inkscape:export-xdpi="62.474968"
       inkscape:export-ydpi="62.474968" />
    <path
       id="path11385-4-04-45-3-8"
       style="fill:#333333;stroke-width:0.548397"
       d="m 69.413124,115.5953 c -0.658807,0.65489 -0.659591,1.87314 0.789266,2.05073 0.394128,0.0483 2.804265,0.12048 3.20705,-0.11847 0.355634,-0.21097 0.63431,-0.44179 0.215245,-0.79315 -0.883929,-0.74111 -1.633392,-0.89672 -2.644808,-1.16716 -1.910972,-0.51098 -1.424591,-0.11327 -1.566753,0.028 z"
       sodipodi:nodetypes="ssssss" />
    <path
       id="rect10620-1-8-9-9-5-6"
       style="fill:#00001c;fill-opacity:1;stroke-width:0.398877"
       d="m 73.295677,110.53471 c -0.446626,-0.61731 -4.044785,-0.31898 -4.276655,-0.0137 l 2.714369,5.08366 c 0.620119,0.68944 1.271174,0.42819 1.891294,0.0576 z"
       sodipodi:nodetypes="ccccc" />
    <path
       id="rect10620-1-8-9-9-5"
       style="fill:#00003c;fill-opacity:1;stroke-width:0.398877"
       d="m 72.940733,110.59539 c -0.446626,-0.61731 -3.689841,-0.37966 -3.921711,-0.0744 l 0.394102,5.07431 c 0.620119,0.68944 0.806182,0.52593 1.426302,0.15539 z"
       sodipodi:nodetypes="ccccc" />
    <path
       id="path6217-9-9-3-7-8-9"
       style="fill:#000080;stroke-width:0.398877"
       d="m 73.95557,102.15742 c 0.316958,0.10618 0.769064,-0.30647 2.15833,-1.31746 0,0 1.495008,0.21384 0.962361,0.79516 -0.986277,1.07641 -3.166927,3.76084 -4.469895,2.31611 -1.24616,-1.38175 -2.516176,-2.49784 -1.556051,-3.33619 0.960128,-0.838335 1.005855,0.90487 2.905255,1.54238 z"
       sodipodi:nodetypes="ssssss" />
    <path
       id="rect21874-0-5-4-2"
       style="fill:#000080;stroke-width:0.264583"
       d="m 72.780244,100.9199 c -1.618299,-0.0273 -2.671589,-1.486565 -4.589636,-0.31492 -1.36233,1.34312 0.06767,9.84923 0.828414,9.91603 2.100099,0.5095 2.368206,0.33251 4.276655,0.0137 0.72496,-0.12112 0.596345,-4.50155 0.993762,-5.09291 0.242741,-0.4744 0.0036,-1.14647 0.0036,-1.14647 -0.32654,-0.50414 -1.184462,-2.55945 -1.875317,-3.15662 z"
       sodipodi:nodetypes="cccscscc" />
    <rect
       style="fill:#000055;fill-opacity:1;stroke-width:0.264583"
       id="rect9477-8"
       width="0.56597674"
       height="0.51449186"
       x="-14.720057"
       y="125.20528"
       transform="rotate(-41.654779)" />
    <ellipse
       style="fill:#d08553;fill-opacity:1;stroke-width:0.398877"
       id="path9819-8-8-8-5"
       cx="125.01901"
       cy="19.737057"
       rx="0.90396488"
       ry="0.92643011"
       transform="matrix(0.47577912,0.87956479,0.87956479,-0.47577912,0,0)" />
    <ellipse
       style="fill:#d08553;fill-opacity:1;stroke-width:0.148272"
       id="path9819-9-7-8-1-0"
       cx="-19.012463"
       cy="124.42196"
       rx="0.32108271"
       ry="0.28087336"
       transform="matrix(-0.87956479,0.47577912,0.47577912,0.87956479,0,0)" />
    <rect
       style="fill:#1a1a1a;fill-opacity:1;stroke-width:0.264583"
       id="rect14273-1"
       width="5.238483"
       height="0.32740518"
       x="47.117081"
       y="122.35287"
       transform="matrix(-0.57960066,0.81490065,0.81490065,0.57960066,0,0)" />
    <path
       id="path6217-9-9-3-7-8-3"
       style="fill:#000051;fill-opacity:1;stroke-width:0.398877"
       d="m 71.730492,105.11039 c 0.294893,0.1574 0.467149,-0.11051 2.005165,-0.87646 0,0 0.687007,0.92687 0.06512,1.41155 -1.151511,0.89745 -2.919952,2.05691 -3.698949,1.00944 -1.110375,-1.49305 -2.065872,-2.88141 -0.979728,-3.54846 1.086145,-0.66704 0.841415,1.0595 2.608389,2.00393 z"
       sodipodi:nodetypes="ssssss" />
    <rect
       style="fill:#ececec;fill-opacity:1;stroke-width:0.264583"
       id="rect9477-6-3"
       width="0.49847209"
       height="0.43527719"
       x="-14.696505"
       y="125.24827"
       transform="rotate(-41.654779)" />
    <path
       id="path6217-9-9-3-7-8"
       style="fill:#000080;stroke-width:0.398877"
       d="m 70.883893,104.96203 c 0.294893,0.1574 0.809313,-0.17434 2.347329,-0.94029 0,0 1.438649,0.45942 0.816765,0.9441 -1.151511,0.89745 -3.748119,3.18197 -4.792755,1.54072 -0.999091,-1.5697 -2.065872,-2.88141 -0.979728,-3.54846 1.086145,-0.66704 0.841415,1.0595 2.608389,2.00393 z"
       sodipodi:nodetypes="ssssss" />
    <text
       xml:space="preserve"
       style="font-style:normal;font-weight:normal;font-size:0.216711px;line-height:1.25;font-family:sans-serif;fill:#000000;fill-opacity:1;stroke:none;stroke-width:0.264583"
       x="-28.645351"
       y="64.47879"
       id="text10217-0"
       transform="matrix(0.38364149,-0.34126933,1.2944248,1.4551411,0,0)"><tspan
         sodipodi:role="line"
         id="tspan10215-9"
         style="stroke-width:0.264583"
         x="-28.645351"
         y="64.47879">Contrôle</tspan></text>
    <rect
       style="fill:#1a1a1a;fill-opacity:1;stroke-width:0.264583"
       id="rect14169-9"
       width="0.56597751"
       height="0.81626797"
       x="14.154078"
       y="125.71978"
       transform="matrix(-0.74716298,0.66464086,0.66464086,0.74716298,0,0)" />
    <ellipse
       style="fill:#d08553;fill-opacity:1;stroke-width:0.398877"
       id="path9819-8-8-8-5-1"
       cx="117.37809"
       cy="50.925709"
       rx="0.90396488"
       ry="0.92643011"
       transform="matrix(0.20919767,0.97787337,0.97787337,-0.20919767,0,0)"
       inkscape:transform-center-x="0.24567553"
       inkscape:transform-center-y="-0.68753508" />
    <ellipse
       style="fill:#d08553;fill-opacity:1;stroke-width:0.148272"
       id="path9819-9-7-8-1-0-8"
       cx="-50.201115"
       cy="116.78103"
       rx="0.32108271"
       ry="0.28087336"
       transform="matrix(-0.97787337,0.20919767,0.20919767,0.97787337,0,0)"
       inkscape:transform-center-x="1.0791406"
       inkscape:transform-center-y="-1.1198019" />
    <rect
       style="fill:#1a1a1a;fill-opacity:1;stroke-width:0.264583"
       id="rect14275-5"
       width="0.44433558"
       height="1.2160764"
       x="47.753391"
       y="121.42223"
       transform="matrix(-0.57960066,0.81490065,0.81490065,0.57960066,0,0)" />
    <path
       id="path31-9-9-4-8-2"
       style="fill:#d08553;fill-opacity:1;fill-rule:evenodd;stroke-width:0.398877"
       d="m 74.830163,95.707055 c -0.201365,-1.051989 -0.784228,-4.828534 -4.994342,-4.894112 -4.001007,-0.06232 -3.627639,4.687271 -3.600868,5.078553 0.221379,3.235614 4.428474,7.062444 6.445655,5.575674 2.167392,-1.597475 2.536586,-3.738149 2.149555,-5.760115 z"
       sodipodi:nodetypes="sssss" />
    <path
       id="path2169-5-4-0-9-4-9-2-3-5"
       style="fill:#37abc8;stroke-width:0.551594;fill-opacity:1"
       d="m 73.313863,96.517673 c -0.0777,0.306168 0.37338,0.348833 0.79974,0.348833 0.42638,0 0.8032,-0.168718 0.78371,-0.38592 -0.024,-0.267333 -0.3325,-0.579645 -0.77202,-0.588914 -0.42632,-0.0081 -0.71945,0.263664 -0.81143,0.626001 z"
       sodipodi:nodetypes="sssss" />
    <path
       id="path2169-5-4-0-9-4-9-2-3-5-6"
       style="fill:#37abc8;fill-opacity:1;stroke-width:0.551594"
       d="m 72.247601,96.517673 c 0.0777,0.306168 -0.37338,0.348833 -0.79974,0.348833 -0.42638,0 -0.8032,-0.168718 -0.78371,-0.38592 0.024,-0.267333 0.3325,-0.579645 0.77202,-0.588914 0.42632,-0.0081 0.71945,0.263664 0.81143,0.626001 z"
       sodipodi:nodetypes="sssss" />
    <path
       id="rect1430-1-8-6-7-8"
       style="fill:#502d16;stroke-width:0.210089"
       d="m 70.723807,94.990137 0.975842,-0.103374 0.840327,0.484444 c -0.861164,-0.07064 -1.720133,-0.18911 -2.610525,0.369112 -0.01603,-0.279464 0.776239,-0.547149 0.794354,-0.750203 z"
       sodipodi:nodetypes="ccccc"
       inkscape:transform-center-x="0.3774375"
       inkscape:transform-center-y="0.14734788" />
    <path
       id="rect1430-1-8-6-7-4"
       style="fill:#502d16;stroke-width:0.210089"
       d="m 74.376821,94.970852 -0.40411,0.01237 -0.650305,0.510368 c 0.505093,-0.13816 1.006657,-0.32382 1.558293,0.16264 -0.0038,-0.27986 -0.133411,-0.390483 -0.153558,-0.591483 z"
       sodipodi:nodetypes="cccccc"
       inkscape:transform-center-x="-0.24089308"
       inkscape:transform-center-y="0.08416638" />
    <path
       id="path2169-5-4-0-9-4-9-2"
       style="fill:#ffccaa;stroke-width:0.551594"
       d="m 72.247601,96.609798 c 0.0777,0.236875 -0.37338,0.269884 -0.79974,0.269884 -0.42638,0 -0.8032,-0.130533 -0.78371,-0.298578 0.024,-0.206829 0.3325,-0.448458 0.77202,-0.455629 0.42632,-0.0063 0.71945,0.203991 0.81143,0.484323 z"
       sodipodi:nodetypes="sssss" />
    <path
       id="path2169-5-4-0-9-4-9-2-3"
       style="fill:#ffccaa;stroke-width:0.551594"
       d="m 73.313863,96.596622 c -0.0777,0.236875 0.37338,0.269884 0.79974,0.269884 0.42638,0 0.8032,-0.130533 0.78371,-0.298578 -0.024,-0.206829 -0.3325,-0.448458 -0.77202,-0.455629 -0.42632,-0.0063 -0.71945,0.203991 -0.81143,0.484323 z"
       sodipodi:nodetypes="sssss" />
    <ellipse
       style="fill:#502d16;stroke-width:0.314342"
       id="path2169-5-48-7-0-2-5"
       cx="74.461914"
       cy="96.50251"
       rx="0.32813457"
       ry="0.31256434" />
    <ellipse
       style="fill:#28170b;stroke-width:0.344828"
       id="path2169-0-2-9-0-5-7-8"
       ry="0.22066765"
       rx="0.26542562"
       cy="96.489334"
       cx="74.461716" />
    <ellipse
       style="fill:#502d16;stroke-width:0.314342"
       id="path2169-5-48-7-0-2-5-5"
       cx="71.800537"
       cy="96.515686"
       rx="0.32813457"
       ry="0.31256434" />
    <ellipse
       style="fill:#28170b;stroke-width:0.344828"
       id="path2169-0-2-9-0-5-7-8-3"
       ry="0.22066765"
       rx="0.26542562"
       cy="96.50251"
       cx="71.800339" />
    <path
       id="rect12747-2-4-7-5"
       style="fill:#aa0000;stroke-width:0.398877"
       d="m 73.840083,100.21022 c -0.355156,-0.0918 -0.727509,-0.0956 -1.184817,-0.06 l -0.04609,0.21922 c 0.410042,-0.0379 0.833094,-0.006 1.211554,0.022 z"
       sodipodi:nodetypes="ccccc" />
    <rect
       style="fill:#000000;fill-opacity:1;stroke-width:0.264583"
       id="rect17694"
       width="0.36950096"
       height="0.12635346"
       x="-74.203224"
       y="98.758362"
       transform="scale(-1,1)" />
    <rect
       style="fill:#000000;fill-opacity:1;stroke-width:0.264583"
       id="rect17694-7"
       width="0.36950096"
       height="0.12635346"
       x="-73.295677"
       y="98.758362"
       transform="scale(-1,1)" />
    <path
       id="rect3820"
       style="opacity:0.99;fill:#552200;stroke-width:0.2;stop-color:#000000"
       d="m 66.81562,92.075384 c 0.0014,-1.125504 1.641936,-1.448217 4.079975,-1.157565 2.811412,0.08034 2.704451,0.900592 3.09662,2.230878 -0.250706,-0.05404 -0.327849,0.04822 -0.547511,0.166263 -0.798401,0.429066 -2.397396,0.144842 -3.243634,0.07243 -0.355501,-0.03042 -0.691021,0.186864 -0.586312,0.429893 0.333003,4.326059 -0.758681,6.430177 -0.951874,6.830017 -1.782429,0.87689 -1.665187,-0.25967 -2.608748,-0.838554 -0.394109,-3.161506 -1.987807,-3.68123 0.761481,-7.733365 z"
       sodipodi:nodetypes="cccssccccc" />
    <g
       id="g3825"
       transform="translate(-0.088901,0.594191)">
      <path
         id="rect4004-0"
         style="fill:#000080;stroke-width:0.264583"
         d="m 72.467762,89.165418 c -1.66075,-0.716817 -3.414531,-0.699723 -5.262791,0.0627 -1.104663,1.29431 -1.110027,2.58862 -1.275184,3.88293 3.080481,0.0644 6.69909,1.665968 8.981415,0.314781 l -0.59911,-1.04947 c -0.247534,-1.647409 -1.02335,-2.464661 -1.84433,-3.210941 z"
         sodipodi:nodetypes="cccccc" />
      <path
         id="rect4603-4"
         style="fill:#000066;stroke-width:0.264583"
         d="m 74.312092,92.376359 -8.044242,0.83368 3.787802,1.03023 c 1.799648,-0.01656 3.44538,-0.237453 4.85555,-0.81444 z"
         sodipodi:nodetypes="ccccc" />
    </g>
  </g>
</svg>
