<?xml version="1.0" encoding="UTF-8" standalone="no"?>
<!-- Created with Inkscape (http://www.inkscape.org/) -->

<svg
   width="210mm"
   height="297mm"
   viewBox="0 0 210 297"
   version="1.1"
   id="svg2602"
   inkscape:version="1.2 (dc2aedaf03, 2022-05-15)"
   sodipodi:docname="controleuz_jump.svg"
   xmlns:inkscape="http://www.inkscape.org/namespaces/inkscape"
   xmlns:sodipodi="http://sodipodi.sourceforge.net/DTD/sodipodi-0.dtd"
   xmlns="http://www.w3.org/2000/svg"
   xmlns:svg="http://www.w3.org/2000/svg">
  <sodipodi:namedview
     id="namedview2604"
     pagecolor="#ffffff"
     bordercolor="#666666"
     borderopacity="1.0"
     inkscape:showpageshadow="2"
     inkscape:pageopacity="0.0"
     inkscape:pagecheckerboard="0"
     inkscape:deskcolor="#d1d1d1"
     inkscape:document-units="mm"
     showgrid="false"
     inkscape:zoom="4.2331174"
     inkscape:cx="259.26519"
     inkscape:cy="428.40768"
     inkscape:window-width="1920"
     inkscape:window-height="1001"
     inkscape:window-x="-9"
     inkscape:window-y="-9"
     inkscape:window-maximized="1"
     inkscape:current-layer="layer1" />
  <defs
     id="defs2599" />
  <g
     inkscape:label="Calque 1"
     inkscape:groupmode="layer"
     id="layer1">
    <path
       id="path11385-4-04-45-3-8-4"
       style="fill:#1a1a1a;stroke-width:0.548397"
       d="m 73.419021,113.35978 c -0.410175,0.83347 -0.01494,1.98583 1.412982,1.68283 0.38843,-0.0824 2.69116,-0.79755 2.99441,-1.15445 0.26775,-0.3151 0.456267,-0.62397 -0.05425,-0.82005 -1.07682,-0.41356 -1.836165,-0.31713 -2.880564,-0.24413 -1.973297,0.1379 -1.384059,0.35593 -1.472582,0.53574 z"
       sodipodi:nodetypes="ssssss"
       inkscape:export-filename="..\_bank\perso\controleuz\controleuz_jump_4.png"
       inkscape:export-xdpi="62.474968"
       inkscape:export-ydpi="62.474968" />
    <path
       id="rect10620-1-8-9-9-5-6"
       style="fill:#00001c;fill-opacity:1;stroke-width:0.398877"
       d="m 73.250595,108.37917 c -0.623025,-0.43861 -3.928841,1.01305 -4.048893,1.37711 l 4.219351,3.92537 c 0.810547,0.45043 1.341327,-0.008 1.807324,-0.56027 z"
       sodipodi:nodetypes="ccccc" />
    <path
       id="path11385-4-04-45-3-8"
       style="fill:#333333;stroke-width:0.548397"
       d="m 69.137219,114.07459 c -0.914264,0.16441 -1.607297,1.16634 -0.516115,2.1359 0.296854,0.26371 2.238865,1.6929 2.706081,1.72521 0.412511,0.0285 0.772998,-0.003 0.627875,-0.53027 -0.306108,-1.11214 -0.8343,-1.66614 -1.512792,-2.46348 -1.281924,-1.50651 -1.107924,-0.90266 -1.305032,-0.8674 z"
       sodipodi:nodetypes="sssssss" />
    <path
       id="rect10620-1-8-9-9-5"
       style="fill:#00003c;fill-opacity:1;stroke-width:0.398877"
       d="m 73.409686,108.4374 c -0.753889,-0.11044 -4.884001,-0.90071 -4.826939,-0.52165 l 1.836525,4.25146 -1.956187,2.37716 c 0.926579,0.0364 1.91769,1.14261 2.08461,0.43977 l 2.780913,-2.70984 z"
       sodipodi:nodetypes="ccccccc" />
    <path
       id="path6217-9-9-3-7-8-9"
       style="fill:#000080;stroke-width:0.398877"
       d="m 73.840454,100.93913 c 0.317357,-0.10498 0.431926,-0.70627 0.938039,-2.348223 0,0 1.324882,-0.724889 1.246938,0.0597 -0.14432,1.452783 -0.280905,4.908613 -2.189822,4.533103 -1.825696,-0.35914 -3.511259,-0.49134 -3.245187,-1.73788 0.266084,-1.24654 1.347511,0.12144 3.250032,-0.50669 z"
       sodipodi:nodetypes="ssssss" />
    <ellipse
       style="fill:#d08553;fill-opacity:1;stroke-width:0.398877"
       id="path9819-8-8-8-5"
       cx="109.31135"
       cy="-57.43153"
       rx="0.90396488"
       ry="0.92643011"
       transform="matrix(0.90803239,0.41889996,0.41889996,-0.90803239,0,0)" />
    <path
       id="rect21874-0-5-4-2"
       style="fill:#000080;stroke-width:0.264583"
       d="m 72.780244,100.9199 c -1.618299,-0.0273 -2.671589,-1.486565 -4.589636,-0.31492 -1.36233,1.34312 0.06767,9.84923 0.828414,9.91603 2.100099,0.5095 2.482215,-1.7648 4.390664,-2.08361 0.72496,-0.12112 0.482336,-2.40424 0.879753,-2.9956 0.242741,-0.4744 0.0036,-1.14647 0.0036,-1.14647 -0.32654,-0.50414 -1.184462,-2.55945 -1.875317,-3.15662 z"
       sodipodi:nodetypes="cccscscc" />
    <ellipse
       style="fill:#d08553;fill-opacity:1;stroke-width:0.148272"
       id="path9819-9-7-8-1-0"
       cx="58.156124"
       cy="108.7143"
       rx="0.32108271"
       ry="0.28087336"
       transform="matrix(-0.41889996,0.90803239,0.90803239,0.41889996,0,0)" />
    <rect
       style="fill:#000055;fill-opacity:1;stroke-width:0.264583"
       id="rect9477-8"
       width="0.56597674"
       height="0.51449186"
       x="-14.720057"
       y="125.20528"
       transform="rotate(-41.654779)" />
    <rect
       style="fill:#1a1a1a;fill-opacity:1;stroke-width:0.264583"
       id="rect14273-1"
       width="5.238483"
       height="0.32740518"
       x="47.117081"
       y="122.35287"
       transform="matrix(-0.57960066,0.81490065,0.81490065,0.57960066,0,0)" />
    <rect
       style="fill:#ececec;fill-opacity:1;stroke-width:0.264583"
       id="rect9477-6-3"
       width="0.49847209"
       height="0.43527719"
       x="-14.696505"
       y="125.24827"
       transform="rotate(-41.654779)" />
    <text
       xml:space="preserve"
       style="font-style:normal;font-weight:normal;font-size:0.216711px;line-height:1.25;font-family:sans-serif;fill:#000000;fill-opacity:1;stroke:none;stroke-width:0.264583"
       x="-28.645351"
       y="64.47879"
       id="text10217-0"
       transform="matrix(0.38364149,-0.34126933,1.2944248,1.4551411,0,0)"><tspan
         sodipodi:role="line"
         id="tspan10215-9"
         style="stroke-width:0.264583"
         x="-28.645351"
         y="64.47879">Contrôle</tspan></text>
    <rect
       style="fill:#1a1a1a;fill-opacity:1;stroke-width:0.264583"
       id="rect14169-9"
       width="0.56597751"
       height="0.81626797"
       x="14.154078"
       y="125.71978"
       transform="matrix(-0.74716298,0.66464086,0.66464086,0.74716298,0,0)" />
    <rect
       style="fill:#1a1a1a;fill-opacity:1;stroke-width:0.264583"
       id="rect14275-5"
       width="0.44433558"
       height="1.2160764"
       x="47.753391"
       y="121.42223"
       transform="matrix(-0.57960066,0.81490065,0.81490065,0.57960066,0,0)" />
    <path
       id="path31-9-9-4-8-2"
       style="fill:#d08553;fill-opacity:1;fill-rule:evenodd;stroke-width:0.398877"
       d="m 74.830163,95.707055 c -0.201365,-1.051989 -0.784228,-4.828534 -4.994342,-4.894112 -4.001007,-0.06232 -3.627639,4.687271 -3.600868,5.078553 0.221379,3.235614 4.428474,7.062444 6.445655,5.575674 2.167392,-1.597475 2.536586,-3.738149 2.149555,-5.760115 z"
       sodipodi:nodetypes="sssss" />
    <path
       id="path6217-9-9-3-7-8-3"
       style="fill:#000051;fill-opacity:1;stroke-width:0.398877"
       d="m 72.739957,103.50834 c 0.329241,0.0578 0.409529,-0.25046 1.632653,-1.45716 0,0 0.941422,0.66692 0.501333,1.32113 -0.814887,1.21134 -2.134476,2.86374 -3.200862,2.11084 -1.520016,-1.07316 -2.860258,-2.09506 -2.03576,-3.0671 0.824502,-0.97203 1.129447,0.74489 3.102633,1.09229 z"
       sodipodi:nodetypes="ssssss" />
    <path
       id="path2169-5-4-0-9-4-9-2-3-5"
       style="fill:#37abc8;stroke-width:0.551594;fill-opacity:1"
       d="m 73.313863,96.517673 c -0.0777,0.306168 0.37338,0.348833 0.79974,0.348833 0.42638,0 0.8032,-0.168718 0.78371,-0.38592 -0.024,-0.267333 -0.3325,-0.579645 -0.77202,-0.588914 -0.42632,-0.0081 -0.71945,0.263664 -0.81143,0.626001 z"
       sodipodi:nodetypes="sssss" />
    <path
       id="path2169-5-4-0-9-4-9-2-3-5-6"
       style="fill:#37abc8;fill-opacity:1;stroke-width:0.551594"
       d="m 72.247601,96.517673 c 0.0777,0.306168 -0.37338,0.348833 -0.79974,0.348833 -0.42638,0 -0.8032,-0.168718 -0.78371,-0.38592 0.024,-0.267333 0.3325,-0.579645 0.77202,-0.588914 0.42632,-0.0081 0.71945,0.263664 0.81143,0.626001 z"
       sodipodi:nodetypes="sssss" />
    <path
       id="rect1430-1-8-6-7-8"
       style="fill:#502d16;stroke-width:0.210089"
       d="m 70.778618,94.812131 0.976349,0.09847 0.723433,0.646126 c -0.828494,-0.245339 -1.645053,-0.537048 -2.630821,-0.172808 0.04149,-0.276832 0.871764,-0.376756 0.931041,-0.571809 z"
       sodipodi:nodetypes="ccccc"
       inkscape:transform-center-x="0.4490415"
       inkscape:transform-center-y="0.01822538" />
    <path
       id="rect1430-1-8-6-7-4"
       style="fill:#502d16;stroke-width:0.210089"
       d="m 74.280771,94.833441 -0.383514,0.127965 -0.476233,0.675702 c 0.444094,-0.277466 0.871159,-0.599414 1.539311,-0.291975 -0.08405,-0.266966 -0.239986,-0.335682 -0.317038,-0.522416 z"
       sodipodi:nodetypes="cccccc"
       inkscape:transform-center-x="-0.33002008"
       inkscape:transform-center-y="0.00053788" />
    <path
       id="path2169-5-4-0-9-4-9-2"
       style="fill:#ffccaa;stroke-width:0.551594"
       d="m 72.247601,96.609798 c 0.0777,0.236875 -0.37338,0.269884 -0.79974,0.269884 -0.42638,0 -0.8032,-0.130533 -0.78371,-0.298578 0.024,-0.206829 0.3325,-0.448458 0.77202,-0.455629 0.42632,-0.0063 0.71945,0.203991 0.81143,0.484323 z"
       sodipodi:nodetypes="sssss" />
    <path
       id="path2169-5-4-0-9-4-9-2-3"
       style="fill:#ffccaa;stroke-width:0.551594"
       d="m 73.313863,96.596622 c -0.0777,0.236875 0.37338,0.269884 0.79974,0.269884 0.42638,0 0.8032,-0.130533 0.78371,-0.298578 -0.024,-0.206829 -0.3325,-0.448458 -0.77202,-0.455629 -0.42632,-0.0063 -0.71945,0.203991 -0.81143,0.484323 z"
       sodipodi:nodetypes="sssss" />
    <ellipse
       style="fill:#502d16;stroke-width:0.314342"
       id="path2169-5-48-7-0-2-5"
       cx="74.461914"
       cy="96.594406"
       rx="0.32813457"
       ry="0.31256434" />
    <ellipse
       style="fill:#28170b;stroke-width:0.344828"
       id="path2169-0-2-9-0-5-7-8"
       ry="0.22066765"
       rx="0.26542562"
       cy="96.594406"
       cx="74.461914" />
    <ellipse
       style="fill:#502d16;stroke-width:0.314342"
       id="path2169-5-48-7-0-2-5-5"
       cx="71.800537"
       cy="96.594406"
       rx="0.32813457"
       ry="0.31256434" />
    <ellipse
       style="fill:#28170b;stroke-width:0.344828"
       id="path2169-0-2-9-0-5-7-8-3"
       ry="0.22066765"
       rx="0.26542562"
       cy="96.607582"
       cx="71.800537" />
    <path
       id="rect12747-2-4-7-5"
       style="fill:#aa0000;stroke-width:0.398877"
       d="m 73.840083,100.21022 c -0.355156,-0.0918 -0.727509,-0.0956 -1.184817,-0.06 l -0.04609,0.21922 c 0.410042,-0.0379 0.833094,-0.006 1.211554,0.022 z"
       sodipodi:nodetypes="ccccc" />
    <rect
       style="fill:#000000;fill-opacity:1;stroke-width:0.264583"
       id="rect17694"
       width="0.36950096"
       height="0.12635346"
       x="-74.203224"
       y="98.758362"
       transform="scale(-1,1)" />
    <rect
       style="fill:#000000;fill-opacity:1;stroke-width:0.264583"
       id="rect17694-7"
       width="0.36950096"
       height="0.12635346"
       x="-73.295677"
       y="98.758362"
       transform="scale(-1,1)" />
    <path
       id="rect3820"
       style="opacity:0.99;fill:#552200;stroke-width:0.2;stop-color:#000000"
       d="m 66.81562,92.075384 c 0.0014,-1.125504 1.641936,-1.448217 4.079975,-1.157565 2.811412,0.08034 2.704451,0.900592 3.09662,2.230878 -0.250706,-0.05404 -0.327849,0.04822 -0.547511,0.166263 -0.798401,0.429066 -2.397396,0.144842 -3.243634,0.07243 -0.355501,-0.03042 -0.691021,0.186864 -0.586312,0.429893 0.333003,4.326059 -0.758681,6.430177 -0.951874,6.830017 -1.782429,0.87689 -1.665187,-0.25967 -2.608748,-0.838554 -0.394109,-3.161506 -1.987807,-3.68123 0.761481,-7.733365 z"
       sodipodi:nodetypes="cccssccccc" />
    <path
       id="path6217-9-9-3-7-8"
       style="fill:#000080;stroke-width:0.398877"
       d="m 71.889243,103.63092 c 0.32924,0.0578 0.714817,-0.41764 1.937941,-1.62434 0,0 1.510182,-0.0113 1.070096,0.6429 -0.814888,1.21134 -2.571228,4.19072 -4.074911,2.95625 -1.438125,-1.18065 -2.860258,-2.09506 -2.03576,-3.0671 0.824503,-0.97203 1.129448,0.74489 3.102634,1.09229 z"
       sodipodi:nodetypes="ssssss" />
    <ellipse
       style="fill:#d08553;fill-opacity:1;stroke-width:0.398877"
       id="path9819-8-8-8-5-1"
       cx="125.6396"
       cy="13.540142"
       rx="0.90396488"
       ry="0.92643011"
       transform="matrix(0.50323681,0.86414855,0.86414855,-0.50323681,0,0)"
       inkscape:transform-center-x="0.44750684"
       inkscape:transform-center-y="-0.57687267" />
    <ellipse
       style="fill:#d08553;fill-opacity:1;stroke-width:0.148272"
       id="path9819-9-7-8-1-0-8"
       cx="-12.815548"
       cy="125.04253"
       rx="0.32108271"
       ry="0.28087336"
       transform="matrix(-0.86414855,0.50323681,0.50323681,0.86414855,0,0)"
       inkscape:transform-center-x="1.3741346"
       inkscape:transform-center-y="-0.72819298" />
    <g
       id="g3825"
       transform="translate(-0.088901,0.594191)">
      <path
         id="rect4004-0"
         style="fill:#000080;stroke-width:0.264583"
         d="m 72.467762,89.165418 c -1.66075,-0.716817 -3.414531,-0.699723 -5.262791,0.0627 -1.104663,1.29431 -1.110027,2.58862 -1.275184,3.88293 3.080481,0.0644 6.69909,1.665968 8.981415,0.314781 l -0.59911,-1.04947 c -0.247534,-1.647409 -1.02335,-2.464661 -1.84433,-3.210941 z"
         sodipodi:nodetypes="cccccc" />
      <path
         id="rect4603-4"
         style="fill:#000066;stroke-width:0.264583"
         d="m 74.312092,92.376359 -8.044242,0.83368 3.787802,1.03023 c 1.799648,-0.01656 3.44538,-0.237453 4.85555,-0.81444 z"
         sodipodi:nodetypes="ccccc" />
    </g>
  </g>
</svg>
