<?xml version="1.0" encoding="UTF-8" standalone="no"?>
<!-- Created with Inkscape (http://www.inkscape.org/) -->

<svg
   width="210mm"
   height="297mm"
   viewBox="0 0 210 297"
   version="1.1"
   id="svg2602"
   inkscape:version="1.2 (dc2aedaf03, 2022-05-15)"
   sodipodi:docname="controleuz_punch2.svg"
   xmlns:inkscape="http://www.inkscape.org/namespaces/inkscape"
   xmlns:sodipodi="http://sodipodi.sourceforge.net/DTD/sodipodi-0.dtd"
   xmlns="http://www.w3.org/2000/svg"
   xmlns:svg="http://www.w3.org/2000/svg">
  <sodipodi:namedview
     id="namedview2604"
     pagecolor="#ffffff"
     bordercolor="#666666"
     borderopacity="1.0"
     inkscape:showpageshadow="2"
     inkscape:pageopacity="0.0"
     inkscape:pagecheckerboard="0"
     inkscape:deskcolor="#d1d1d1"
     inkscape:document-units="mm"
     showgrid="false"
     inkscape:zoom="4.2331174"
     inkscape:cx="310.76388"
     inkscape:cy="409.98154"
     inkscape:window-width="1920"
     inkscape:window-height="1001"
     inkscape:window-x="-9"
     inkscape:window-y="-9"
     inkscape:window-maximized="1"
     inkscape:current-layer="layer1" />
  <defs
     id="defs2599" />
  <g
     inkscape:label="Calque 1"
     inkscape:groupmode="layer"
     id="layer1">
    <path
       id="path11385-4-04-45-3-8-4"
       style="fill:#1a1a1a;stroke-width:0.548397"
       d="m 72.89442,115.29962 c -0.658807,0.65489 -0.659591,1.87314 0.789266,2.05073 0.394128,0.0483 2.804265,0.12048 3.20705,-0.11847 0.355634,-0.21097 0.63431,-0.44179 0.215245,-0.79315 -0.883929,-0.74111 -1.633392,-0.89672 -2.644808,-1.16716 -1.910972,-0.51098 -1.424591,-0.11327 -1.566753,0.028 z"
       sodipodi:nodetypes="ssssss"
       inkscape:export-filename="..\_bank\perso\controleuz\controleuz_punch2_4.png"
       inkscape:export-xdpi="62.474968"
       inkscape:export-ydpi="62.474968" />
    <path
       id="path11385-4-04-45-3-8"
       style="fill:#333333;stroke-width:0.548397"
       d="m 69.413124,115.5953 c -0.658807,0.65489 -0.659591,1.87314 0.789266,2.05073 0.394128,0.0483 2.804265,0.12048 3.20705,-0.11847 0.355634,-0.21097 0.63431,-0.44179 0.215245,-0.79315 -0.883929,-0.74111 -1.633392,-0.89672 -2.644808,-1.16716 -1.910972,-0.51098 -1.424591,-0.11327 -1.566753,0.028 z"
       sodipodi:nodetypes="ssssss" />
    <path
       id="rect10620-1-8-9-9-5-6"
       style="fill:#00001c;fill-opacity:1;stroke-width:0.398877"
       d="m 73.295677,110.53471 c -0.446626,-0.61731 -4.044785,-0.31898 -4.276655,-0.0137 l 3.875398,4.77861 c 0.620119,0.68944 0.946633,0.34254 1.566753,-0.0281 z"
       sodipodi:nodetypes="ccccc" />
    <path
       id="rect10620-1-8-9-9-5"
       style="fill:#00003c;fill-opacity:1;stroke-width:0.398877"
       d="m 72.940733,110.59539 c -0.446626,-0.61731 -3.689841,-0.37966 -3.921711,-0.0744 l 0.394102,5.07431 c 0.620119,0.68944 0.946633,0.34249 1.566753,-0.028 z"
       sodipodi:nodetypes="ccccc" />
    <path
       id="path6217-9-9-3-7-8-9"
       style="fill:#000080;stroke-width:0.398877"
       d="m 73.73508,101.30331 c 0.333865,0.0165 0.657449,-0.50314 1.721339,-1.852318 0,0 1.497101,-0.198659 1.141616,0.5051 -0.65823,1.303128 -2.031182,4.477458 -3.67646,3.439178 -1.57355,-0.99302 -3.098184,-1.72383 -2.400717,-2.79071 0.697477,-1.066849 1.213175,0.59896 3.214222,0.69875 z"
       sodipodi:nodetypes="ssssss"
       inkscape:transform-center-x="-2.7522701"
       inkscape:transform-center-y="-1.0172608" />
    <path
       id="rect21874-0-5-4-2"
       style="fill:#000080;stroke-width:0.264583"
       d="m 72.780244,100.9199 c -1.618299,-0.0273 -2.671589,-1.486565 -4.589636,-0.31492 -1.36233,1.34312 0.06767,9.84923 0.828414,9.91603 2.100099,0.5095 2.368206,0.33251 4.276655,0.0137 0.72496,-0.12112 0.596345,-4.50155 0.993762,-5.09291 0.242741,-0.4744 0.0036,-1.14647 0.0036,-1.14647 -0.32654,-0.50414 -1.184462,-2.55945 -1.875317,-3.15662 z"
       sodipodi:nodetypes="cccscscc" />
    <rect
       style="fill:#000055;fill-opacity:1;stroke-width:0.264583"
       id="rect9477-8"
       width="0.56597674"
       height="0.51449186"
       x="-14.720057"
       y="125.20528"
       transform="rotate(-41.654779)" />
    <ellipse
       style="fill:#d08553;fill-opacity:1;stroke-width:0.398877"
       id="path9819-8-8-8-5"
       cx="124.03745"
       cy="-14.27374"
       rx="0.90396488"
       ry="0.92643011"
       transform="matrix(0.6960244,0.71801813,0.71801813,-0.6960244,0,0)"
       inkscape:transform-center-x="-5.3366888"
       inkscape:transform-center-y="-3.5340362" />
    <ellipse
       style="fill:#d08553;fill-opacity:1;stroke-width:0.148272"
       id="path9819-9-7-8-1-0"
       cx="14.998334"
       cy="123.44041"
       rx="0.32108271"
       ry="0.28087336"
       transform="matrix(-0.71801813,0.6960244,0.6960244,0.71801813,0,0)"
       inkscape:transform-center-x="-4.4008586"
       inkscape:transform-center-y="-3.4583908" />
    <rect
       style="fill:#1a1a1a;fill-opacity:1;stroke-width:0.264583"
       id="rect14273-1"
       width="5.238483"
       height="0.32740518"
       x="47.117081"
       y="122.35287"
       transform="matrix(-0.57960066,0.81490065,0.81490065,0.57960066,0,0)" />
    <rect
       style="fill:#ececec;fill-opacity:1;stroke-width:0.264583"
       id="rect9477-6-3"
       width="0.49847209"
       height="0.43527719"
       x="-14.696505"
       y="125.24827"
       transform="rotate(-41.654779)" />
    <text
       xml:space="preserve"
       style="font-style:normal;font-weight:normal;font-size:0.216711px;line-height:1.25;font-family:sans-serif;fill:#000000;fill-opacity:1;stroke:none;stroke-width:0.264583"
       x="-28.645351"
       y="64.47879"
       id="text10217-0"
       transform="matrix(0.38364149,-0.34126933,1.2944248,1.4551411,0,0)"><tspan
         sodipodi:role="line"
         id="tspan10215-9"
         style="stroke-width:0.264583"
         x="-28.645351"
         y="64.47879">Contrôle</tspan></text>
    <rect
       style="fill:#1a1a1a;fill-opacity:1;stroke-width:0.264583"
       id="rect14169-9"
       width="0.56597751"
       height="0.81626797"
       x="14.154078"
       y="125.71978"
       transform="matrix(-0.74716298,0.66464086,0.66464086,0.74716298,0,0)" />
    <path
       id="path6217-9-9-3-7-8-3"
       style="fill:#000051;fill-opacity:1;stroke-width:0.398877"
       d="m 72.302733,104.47668 c 0,0 1.463047,-0.8223 2.618162,-1.70089 0,0 -0.421845,1.38165 -0.866976,1.89017 -0.824222,0.94162 -2.580663,1.20088 -3.345654,0.38845 -1.090409,-1.15804 -1.764306,-1.59439 -0.778569,-1.98108 0.750419,-0.29438 2.685203,1.26522 2.956204,1.14529 z"
       sodipodi:nodetypes="sssssss"
       inkscape:transform-center-x="-1.7966049"
       inkscape:transform-center-y="0.37197747" />
    <path
       id="path6217-9-9-3-7-8"
       style="fill:#000080;stroke-width:0.398877"
       d="m 72.477907,104.07522 c 0.327788,0.072 1.410118,-0.72797 2.688611,-1.88612 0,0 1.647711,0.41934 1.178298,1.05675 -0.869192,1.18025 -2.956516,3.06485 -4.994734,2.67568 -1.834983,-0.35037 -4.014255,-1.74641 -3.145654,-2.68621 0.868605,-0.9398 2.309036,0.40707 4.273479,0.8399 z"
       sodipodi:nodetypes="ssssss"
       inkscape:transform-center-x="-1.493414"
       inkscape:transform-center-y="1.5574806" />
    <ellipse
       style="fill:#d08553;fill-opacity:1;stroke-width:0.398877"
       id="path9819-8-8-8-5-1"
       cx="126.05099"
       cy="19.699554"
       rx="0.90396488"
       ry="0.92643011"
       transform="matrix(0.46598752,0.88479129,0.88479129,-0.46598752,0,0)"
       inkscape:transform-center-x="-5.4205803"
       inkscape:transform-center-y="-0.18097806" />
    <ellipse
       style="fill:#d08553;fill-opacity:1;stroke-width:0.148272"
       id="path9819-9-7-8-1-0-8"
       cx="-19.02364"
       cy="125.16908"
       rx="0.32108271"
       ry="0.28087336"
       transform="matrix(-0.88479129,0.46598752,0.46598752,0.88479129,0,0)"
       inkscape:transform-center-x="-4.4115803"
       inkscape:transform-center-y="-0.64631182" />
    <rect
       style="fill:#1a1a1a;fill-opacity:1;stroke-width:0.264583"
       id="rect14275-5"
       width="0.44433558"
       height="1.2160764"
       x="47.753391"
       y="121.42223"
       transform="matrix(-0.57960066,0.81490065,0.81490065,0.57960066,0,0)" />
    <path
       id="path31-9-9-4-8-2"
       style="fill:#d08553;fill-opacity:1;fill-rule:evenodd;stroke-width:0.398877"
       d="m 74.775782,95.652789 c -0.213485,-1.049597 -0.839898,-4.819162 -5.050488,-4.83615 -4.001459,-0.01614 -3.573305,4.728822 -3.54202,5.119769 0.258704,3.232844 4.509682,7.010872 6.509571,5.500922 2.148812,-1.622382 2.493277,-3.767177 2.082937,-5.784541 z"
       sodipodi:nodetypes="sssss"
       inkscape:transform-center-x="-0.44017044"
       inkscape:transform-center-y="-4.09363" />
    <path
       id="path2169-5-4-0-9-4-9-2-3-5"
       style="fill:#37abc8;fill-opacity:1;stroke-width:0.551594"
       d="m 73.268939,96.480851 c -0.07416,0.307044 0.37738,0.3445 0.803712,0.339581 0.426352,-0.0049 0.801199,-0.177979 0.779204,-0.394939 -0.02708,-0.267038 -0.339167,-0.57577 -0.778764,-0.579965 -0.426385,-0.0032 -0.71636,0.271949 -0.804152,0.635323 z"
       sodipodi:nodetypes="sssss"
       inkscape:transform-center-x="-3.9560622"
       inkscape:transform-center-y="-4.0588008" />
    <path
       id="path2169-5-4-0-9-4-9-2-3-5-6"
       style="fill:#37abc8;fill-opacity:1;stroke-width:0.551594"
       d="m 72.202748,96.493156 c 0.08123,0.305251 -0.369329,0.353118 -0.795662,0.358039 -0.426351,0.0049 -0.805093,-0.159438 -0.788111,-0.376851 0.02092,-0.267592 0.325789,-0.583443 0.765173,-0.597783 0.426199,-0.01301 0.722444,0.255344 0.8186,0.616595 z"
       sodipodi:nodetypes="sssss"
       inkscape:transform-center-x="-1.3146011"
       inkscape:transform-center-y="-4.0282582" />
    <path
       id="rect1430-1-8-6-7-8"
       style="fill:#502d16;stroke-width:0.210089"
       d="m 70.766617,95.095169 0.978104,0.07916 0.736068,0.631697 c -0.833183,-0.228912 -1.65535,-0.504421 -2.633724,-0.120763 0.03601,-0.2776 0.864146,-0.393918 0.919554,-0.590104 z"
       sodipodi:nodetypes="ccccc"
       inkscape:transform-center-x="0.46185408"
       inkscape:transform-center-y="0.090918187" />
    <path
       id="rect1430-1-8-6-7-4"
       style="fill:#502d16;stroke-width:0.210089"
       d="m 74.044871,94.834275 -0.383413,0.128266 -0.475704,0.676075 c 0.443877,-0.277809 0.870689,-0.600101 1.539082,-0.293177 -0.08427,-0.266895 -0.240257,-0.335488 -0.317446,-0.522167 z"
       sodipodi:nodetypes="cccccc"
       inkscape:transform-center-x="0.032040988"
       inkscape:transform-center-y="0.086024865" />
    <path
       id="path2169-5-4-0-9-4-9-2"
       style="fill:#ffccaa;stroke-width:0.551594"
       d="m 72.203811,96.585275 c 0.08043,0.235961 -0.37024,0.274175 -0.796573,0.279096 -0.426351,0.0049 -0.804652,-0.121256 -0.787103,-0.289514 0.02161,-0.207094 0.327303,-0.452266 0.766711,-0.464509 0.426218,-0.01122 0.721756,0.195676 0.816965,0.474927 z"
       sodipodi:nodetypes="sssss"
       inkscape:transform-center-x="-1.3156051"
       inkscape:transform-center-y="-3.9047521" />
    <path
       id="path2169-5-4-0-9-4-9-2-3"
       style="fill:#ffccaa;stroke-width:0.551594"
       d="m 73.269849,96.559795 c -0.07496,0.237756 0.37647,0.265556 0.802802,0.260637 0.426352,-0.0049 0.801641,-0.139789 0.780212,-0.307603 -0.02639,-0.206539 -0.337653,-0.444591 -0.777226,-0.446689 -0.426364,-0.0014 -0.717048,0.212281 -0.805788,0.493655 z"
       sodipodi:nodetypes="sssss"
       inkscape:transform-center-x="-3.9569149"
       inkscape:transform-center-y="-3.9484323" />
    <ellipse
       style="fill:#502d16;stroke-width:0.314342"
       id="path2169-5-48-7-0-2-5"
       cx="73.356133"
       cy="97.240135"
       rx="0.32813457"
       ry="0.31256434"
       inkscape:transform-center-x="-4.3159709"
       inkscape:transform-center-y="-3.9395195"
       transform="rotate(-0.66122334)" />
    <ellipse
       style="fill:#28170b;stroke-width:0.344828"
       id="path2169-0-2-9-0-5-7-8"
       ry="0.22066765"
       rx="0.26542562"
       cy="97.240135"
       cx="73.356133"
       inkscape:transform-center-x="-4.3156204"
       inkscape:transform-center-y="-3.9526923"
       transform="rotate(-0.66122334)" />
    <ellipse
       style="fill:#502d16;stroke-width:0.314342"
       id="path2169-5-48-7-0-2-5-5"
       cx="70.686119"
       cy="97.251366"
       rx="0.32813457"
       ry="0.31256434"
       inkscape:transform-center-x="-1.6549232"
       inkscape:transform-center-y="-3.8956314"
       transform="rotate(-0.66122334)" />
    <ellipse
       style="fill:#28170b;stroke-width:0.344828"
       id="path2169-0-2-9-0-5-7-8-3"
       ry="0.22066765"
       rx="0.26542562"
       cy="97.238625"
       cx="70.683655"
       inkscape:transform-center-x="-1.6545728"
       inkscape:transform-center-y="-3.9088043"
       transform="rotate(-0.66122334)" />
    <path
       id="rect12747-2-4-7-5"
       style="fill:#aa0000;stroke-width:0.398877"
       d="m 73.837738,100.16708 c -0.356193,-0.0877 -0.728565,-0.0872 -1.185433,-0.0463 l -0.04356,0.21975 c 0.40958,-0.0426 0.832967,-0.0156 1.211726,0.008 z"
       sodipodi:nodetypes="ccccc"
       inkscape:transform-center-x="-3.1224714"
       inkscape:transform-center-y="-0.17062773" />
    <rect
       style="fill:#000000;fill-opacity:1;stroke-width:0.264583"
       id="rect17694"
       width="0.36950096"
       height="0.12635346"
       x="-73.040009"
       y="99.560661"
       transform="matrix(-0.99993341,0.01154027,0.01154027,0.99993341,0,0)"
       inkscape:transform-center-x="-3.8993226"
       inkscape:transform-center-y="-1.6155281" />
    <rect
       style="fill:#000000;fill-opacity:1;stroke-width:0.264583"
       id="rect17694-7"
       width="0.36950096"
       height="0.12635346"
       x="-72.132462"
       y="99.560661"
       transform="matrix(-0.99993341,0.01154027,0.01154027,0.99993341,0,0)"
       inkscape:transform-center-x="-2.991836"
       inkscape:transform-center-y="-1.6050548" />
    <path
       id="rect3820"
       style="opacity:0.99;fill:#552200;stroke-width:0.2;stop-color:#000000"
       d="m 66.719863,92.11385 c -0.01159,-1.125446 1.625114,-1.46707 4.066345,-1.204572 2.812152,0.04789 2.714664,0.869322 3.122159,2.194993 -0.251314,-0.05114 -0.327271,0.052 -0.545556,0.172571 -0.793396,0.438251 -2.395565,0.172498 -3.242583,0.109857 -0.355828,-0.02632 -0.688817,0.194829 -0.581311,0.436631 0.382905,4.321928 -0.684425,6.4385 -0.872991,6.84055 -1.77219,0.8974 -1.668072,-0.24044 -2.618251,-0.808396 -0.430567,-3.156747 -2.030157,-3.658045 0.672185,-7.741638 z"
       sodipodi:nodetypes="cccssccccc"
       inkscape:transform-center-x="0.55405524"
       inkscape:transform-center-y="-4.480706" />
    <g
       id="g3825"
       transform="rotate(-0.66122334,121.632,107.79816)"
       inkscape:transform-center-x="-0.15545775"
       inkscape:transform-center-y="-8.3544662">
      <path
         id="rect4004-0"
         style="fill:#000080;stroke-width:0.264583"
         d="m 72.467762,89.165418 c -1.66075,-0.716817 -3.414531,-0.699723 -5.262791,0.0627 -1.104663,1.29431 -1.110027,2.58862 -1.275184,3.88293 3.080481,0.0644 6.69909,1.665968 8.981415,0.314781 l -0.59911,-1.04947 c -0.247534,-1.647409 -1.02335,-2.464661 -1.84433,-3.210941 z"
         sodipodi:nodetypes="cccccc" />
      <path
         id="rect4603-4"
         style="fill:#000066;stroke-width:0.264583"
         d="m 74.312092,92.376359 -8.044242,0.83368 3.787802,1.03023 c 1.799648,-0.01656 3.44538,-0.237453 4.85555,-0.81444 z"
         sodipodi:nodetypes="ccccc" />
    </g>
  </g>
</svg>
