<?xml version="1.0" encoding="UTF-8" standalone="no"?>
<!-- Created with Inkscape (http://www.inkscape.org/) -->

<svg
   width="210mm"
   height="297mm"
   viewBox="0 0 210 297"
   version="1.1"
   id="svg2602"
   inkscape:version="1.2 (dc2aedaf03, 2022-05-15)"
   sodipodi:docname="controleuz_spe.svg"
   xmlns:inkscape="http://www.inkscape.org/namespaces/inkscape"
   xmlns:sodipodi="http://sodipodi.sourceforge.net/DTD/sodipodi-0.dtd"
   xmlns="http://www.w3.org/2000/svg"
   xmlns:svg="http://www.w3.org/2000/svg">
  <sodipodi:namedview
     id="namedview2604"
     pagecolor="#ffffff"
     bordercolor="#666666"
     borderopacity="1.0"
     inkscape:showpageshadow="2"
     inkscape:pageopacity="0.0"
     inkscape:pagecheckerboard="0"
     inkscape:deskcolor="#d1d1d1"
     inkscape:document-units="mm"
     showgrid="false"
     inkscape:zoom="2.993266"
     inkscape:cx="123.10967"
     inkscape:cy="398.72834"
     inkscape:window-width="1920"
     inkscape:window-height="1001"
     inkscape:window-x="-9"
     inkscape:window-y="-9"
     inkscape:window-maximized="1"
     inkscape:current-layer="layer1" />
  <defs
     id="defs2599" />
  <g
     inkscape:label="Calque 1"
     inkscape:groupmode="layer"
     id="layer1">
    <path
       id="path11385-4-04-45-3-8-4"
       style="fill:#1a1a1a;stroke-width:0.548397"
       d="m 71.836086,115.29962 c -0.658807,0.65489 -0.659591,1.87314 0.789266,2.05073 0.394128,0.0483 2.804265,0.12048 3.20705,-0.11847 0.355634,-0.21097 0.63431,-0.44179 0.215245,-0.79315 -0.883929,-0.74111 -1.633392,-0.89672 -2.644808,-1.16716 -1.910972,-0.51098 -1.424591,-0.11327 -1.566753,0.028 z"
       sodipodi:nodetypes="ssssss"
       inkscape:export-filename="..\_bank\perso\controleuz\controleuz_spe_4.png"
       inkscape:export-xdpi="62.474968"
       inkscape:export-ydpi="62.474968" />
    <path
       id="path11385-4-04-45-3-8"
       style="fill:#333333;stroke-width:0.548397"
       d="m 68.883957,115.5953 c -0.658807,0.65489 -0.659591,1.87314 0.789266,2.05073 0.394128,0.0483 2.804265,0.12048 3.20705,-0.11847 0.355634,-0.21097 0.63431,-0.44179 0.215245,-0.79315 -0.883929,-0.74111 -1.633392,-0.89672 -2.644808,-1.16716 -1.910972,-0.51098 -1.424591,-0.11327 -1.566753,0.028 z"
       sodipodi:nodetypes="ssssss" />
    <path
       id="rect10620-1-8-9-9-5-6"
       style="fill:#00001c;fill-opacity:1;stroke-width:0.398877"
       d="m 73.295677,110.53471 c -0.446626,-0.61731 -4.044785,-0.31898 -4.276655,-0.0137 l 2.714369,5.08366 c 0.620119,0.68944 1.271174,0.42819 1.891294,0.0576 z"
       sodipodi:nodetypes="ccccc" />
    <path
       id="rect10620-1-8-9-9-5"
       style="fill:#00003c;fill-opacity:1;stroke-width:0.398877"
       d="m 72.940733,110.59539 c -0.446626,-0.61731 -3.689841,-0.37966 -3.921711,-0.0744 l -0.135065,5.07426 c 0.620119,0.68944 0.946633,0.34254 1.566753,-0.028 z"
       sodipodi:nodetypes="ccccc" />
    <path
       id="path6217-9-9-3-7-8-9"
       style="fill:#000080;stroke-width:0.398877"
       d="m 73.926814,103.76349 c 0.239753,0.23294 0.825935,0.0567 2.515929,-0.25333 0,0 1.25511,0.83992 0.523313,1.13339 -1.355034,0.54339 -4.482827,2.01931 -5.031988,0.15293 -0.525226,-1.78501 -1.186951,-3.34088 0.04146,-3.681 1.228406,-0.34009 0.515027,1.25112 1.951286,2.64801 z"
       sodipodi:nodetypes="ssssss" />
    <path
       id="rect21874-0-5-4-2"
       style="fill:#000080;stroke-width:0.264583"
       d="m 72.780244,100.9199 c -1.618299,-0.0273 -2.671589,-1.486565 -4.589636,-0.31492 -1.36233,1.34312 0.06767,9.84923 0.828414,9.91603 2.100099,0.5095 2.368206,0.33251 4.276655,0.0137 0.72496,-0.12112 0.596345,-4.50155 0.993762,-5.09291 0.242741,-0.4744 0.0036,-1.14647 0.0036,-1.14647 -0.32654,-0.50414 -1.184462,-2.55945 -1.875317,-3.15662 z"
       sodipodi:nodetypes="cccscscc" />
    <rect
       style="fill:#000055;fill-opacity:1;stroke-width:0.264583"
       id="rect9477-8"
       width="0.56597674"
       height="0.51449186"
       x="-14.720057"
       y="125.20528"
       transform="rotate(-41.654779)" />
    <ellipse
       style="fill:#d08553;fill-opacity:1;stroke-width:0.398877"
       id="path9819-8-8-8-5"
       cx="107.18089"
       cy="72.137962"
       rx="0.90396488"
       ry="0.92643011"
       transform="matrix(0.04814619,0.9988403,0.9988403,-0.04814619,0,0)" />
    <ellipse
       style="fill:#d08553;fill-opacity:1;stroke-width:0.148272"
       id="path9819-9-7-8-1-0"
       cx="52.93499"
       cy="111.33829"
       rx="0.32108271"
       ry="0.28087336"
       transform="matrix(-0.46429415,0.88568106,0.88568106,0.46429415,0,0)" />
    <rect
       style="fill:#ececec;fill-opacity:1;stroke-width:0.264583"
       id="rect9477-6-3"
       width="0.49847209"
       height="0.43527719"
       x="-14.696505"
       y="125.24827"
       transform="rotate(-41.654779)" />
    <text
       xml:space="preserve"
       style="font-style:normal;font-weight:normal;font-size:0.216711px;line-height:1.25;font-family:sans-serif;fill:#000000;fill-opacity:1;stroke:none;stroke-width:0.264583"
       x="-28.645351"
       y="64.47879"
       id="text10217-0"
       transform="matrix(0.38364149,-0.34126933,1.2944248,1.4551411,0,0)"><tspan
         sodipodi:role="line"
         id="tspan10215-9"
         style="stroke-width:0.264583"
         x="-28.645351"
         y="64.47879">Contrôle</tspan></text>
    <rect
       style="fill:#1a1a1a;fill-opacity:1;stroke-width:0.264583"
       id="rect14169-9"
       width="0.56597751"
       height="0.81626797"
       x="14.154078"
       y="125.71978"
       transform="matrix(-0.74716298,0.66464086,0.66464086,0.74716298,0,0)" />
    <path
       id="path31-9-9-4-8-2"
       style="fill:#d08553;fill-opacity:1;fill-rule:evenodd;stroke-width:0.398877"
       d="m 74.830163,95.707055 c -0.201365,-1.051989 -0.784228,-4.828534 -4.994342,-4.894112 -4.001007,-0.06232 -3.627639,4.687271 -3.600868,5.078553 0.221379,3.235614 4.428474,7.062444 6.445655,5.575674 2.167392,-1.597475 2.536586,-3.738149 2.149555,-5.760115 z"
       sodipodi:nodetypes="sssss" />
    <path
       id="path6217-9-9-3-7-8-3"
       style="fill:#000051;fill-opacity:1;stroke-width:0.398877"
       d="m 70.887688,105.8311 c 0,0 0.02763,0.0498 1.451255,1.21439 0,0 -0.906062,0.5862 -1.680066,0.43594 -1.433176,-0.27823 -2.403944,-0.3577 -2.126327,-1.63318 0.395756,-1.81811 0.877709,-3.61326 2.030918,-3.07031 0.780972,0.36769 -0.125428,2.13711 0.01225,2.41764 z"
       sodipodi:nodetypes="sssssss"
       inkscape:transform-center-x="-0.5347288"
       inkscape:transform-center-y="2.1684999" />
    <path
       id="path6217-9-9-3-7-8"
       style="fill:#000080;stroke-width:0.398877"
       d="m 70.322568,105.32524 c 0.07516,0.3257 1.975003,2.33675 3.563007,2.99277 0,0 0.528949,1.42122 -0.245053,1.27096 -1.433174,-0.27823 -6.103122,-2.61043 -5.552437,-4.4764 0.526654,-1.78459 0.814362,-3.45066 2.030907,-3.0703 1.216548,0.38036 -0.245689,1.33046 0.203563,3.28298 z"
       sodipodi:nodetypes="ssssss"
       inkscape:transform-center-x="-1.1752875"
       inkscape:transform-center-y="2.8696105" />
    <ellipse
       style="fill:#d08553;fill-opacity:1;stroke-width:0.148272"
       id="path9819-9-7-8-1-0-8"
       cx="-131.30286"
       cy="-2.6915557"
       rx="0.32108271"
       ry="0.28087336"
       transform="matrix(-0.55023762,-0.83500812,-0.83500812,0.55023762,0,0)"
       inkscape:transform-center-x="-4.6179464"
       inkscape:transform-center-y="5.2337233" />
    <path
       id="path2169-5-4-0-9-4-9-2-3-5"
       style="fill:#37abc8;stroke-width:0.551594;fill-opacity:1"
       d="m 73.313863,96.517673 c -0.0777,0.306168 0.37338,0.348833 0.79974,0.348833 0.42638,0 0.8032,-0.168718 0.78371,-0.38592 -0.024,-0.267333 -0.3325,-0.579645 -0.77202,-0.588914 -0.42632,-0.0081 -0.71945,0.263664 -0.81143,0.626001 z"
       sodipodi:nodetypes="sssss" />
    <path
       id="path2169-5-4-0-9-4-9-2-3-5-6"
       style="fill:#37abc8;fill-opacity:1;stroke-width:0.551594"
       d="m 72.247601,96.517673 c 0.0777,0.306168 -0.37338,0.348833 -0.79974,0.348833 -0.42638,0 -0.8032,-0.168718 -0.78371,-0.38592 0.024,-0.267333 0.3325,-0.579645 0.77202,-0.588914 0.42632,-0.0081 0.71945,0.263664 0.81143,0.626001 z"
       sodipodi:nodetypes="sssss" />
    <path
       id="rect1430-1-8-6-7-8"
       style="fill:#502d16;stroke-width:0.210089"
       d="m 70.723807,94.990137 0.975842,-0.103374 0.840327,0.484444 c -0.861164,-0.07064 -1.720133,-0.18911 -2.610525,0.369112 -0.01603,-0.279464 0.776239,-0.547149 0.794354,-0.750203 z"
       sodipodi:nodetypes="ccccc"
       inkscape:transform-center-x="0.3774375"
       inkscape:transform-center-y="0.14734788" />
    <path
       id="rect1430-1-8-6-7-4"
       style="fill:#502d16;stroke-width:0.210089"
       d="m 74.376821,94.970852 -0.40411,0.01237 -0.650305,0.510368 c 0.505093,-0.13816 1.006657,-0.32382 1.558293,0.16264 -0.0038,-0.27986 -0.133411,-0.390483 -0.153558,-0.591483 z"
       sodipodi:nodetypes="cccccc"
       inkscape:transform-center-x="-0.24089308"
       inkscape:transform-center-y="0.08416638" />
    <path
       id="path2169-5-4-0-9-4-9-2"
       style="fill:#ffccaa;stroke-width:0.551594"
       d="m 72.247601,96.609798 c 0.0777,0.236875 -0.37338,0.269884 -0.79974,0.269884 -0.42638,0 -0.8032,-0.130533 -0.78371,-0.298578 0.024,-0.206829 0.3325,-0.448458 0.77202,-0.455629 0.42632,-0.0063 0.71945,0.203991 0.81143,0.484323 z"
       sodipodi:nodetypes="sssss" />
    <path
       id="path2169-5-4-0-9-4-9-2-3"
       style="fill:#ffccaa;stroke-width:0.551594"
       d="m 73.313863,96.596622 c -0.0777,0.236875 0.37338,0.269884 0.79974,0.269884 0.42638,0 0.8032,-0.130533 0.78371,-0.298578 -0.024,-0.206829 -0.3325,-0.448458 -0.77202,-0.455629 -0.42632,-0.0063 -0.71945,0.203991 -0.81143,0.484323 z"
       sodipodi:nodetypes="sssss" />
    <ellipse
       style="fill:#502d16;stroke-width:0.314342"
       id="path2169-5-48-7-0-2-5"
       cx="74.461914"
       cy="96.50251"
       rx="0.32813457"
       ry="0.31256434" />
    <ellipse
       style="fill:#28170b;stroke-width:0.344828"
       id="path2169-0-2-9-0-5-7-8"
       ry="0.22066765"
       rx="0.26542562"
       cy="96.489334"
       cx="74.461716" />
    <ellipse
       style="fill:#502d16;stroke-width:0.314342"
       id="path2169-5-48-7-0-2-5-5"
       cx="71.800537"
       cy="96.515686"
       rx="0.32813457"
       ry="0.31256434" />
    <ellipse
       style="fill:#28170b;stroke-width:0.344828"
       id="path2169-0-2-9-0-5-7-8-3"
       ry="0.22066765"
       rx="0.26542562"
       cy="96.50251"
       cx="71.800339" />
    <path
       id="rect12747-2-4-7-5"
       style="fill:#aa0000;stroke-width:0.398877"
       d="m 73.840083,100.21022 c -0.355156,-0.0918 -0.727509,-0.0956 -1.184817,-0.06 l -0.04609,0.21922 c 0.410042,-0.0379 0.833094,-0.006 1.211554,0.022 z"
       sodipodi:nodetypes="ccccc" />
    <rect
       style="fill:#000000;fill-opacity:1;stroke-width:0.264583"
       id="rect17694"
       width="0.36950096"
       height="0.12635346"
       x="-74.203224"
       y="98.758362"
       transform="scale(-1,1)" />
    <rect
       style="fill:#000000;fill-opacity:1;stroke-width:0.264583"
       id="rect17694-7"
       width="0.36950096"
       height="0.12635346"
       x="-73.295677"
       y="98.758362"
       transform="scale(-1,1)" />
    <path
       id="rect3820"
       style="opacity:0.99;fill:#552200;stroke-width:0.2;stop-color:#000000"
       d="m 66.81562,92.075384 c 0.0014,-1.125504 1.641936,-1.448217 4.079975,-1.157565 2.811412,0.08034 2.704451,0.900592 3.09662,2.230878 -0.250706,-0.05404 -0.327849,0.04822 -0.547511,0.166263 -0.798401,0.429066 -2.397396,0.144842 -3.243634,0.07243 -0.355501,-0.03042 -0.691021,0.186864 -0.586312,0.429893 0.333003,4.326059 -0.758681,6.430177 -0.951874,6.830017 -1.782429,0.87689 -1.665187,-0.25967 -2.608748,-0.838554 -0.394109,-3.161506 -1.987807,-3.68123 0.761481,-7.733365 z"
       sodipodi:nodetypes="cccssccccc" />
    <g
       id="g3825"
       transform="translate(-0.088901,0.594191)">
      <path
         id="rect4004-0"
         style="fill:#000080;stroke-width:0.264583"
         d="m 72.467762,89.165418 c -1.66075,-0.716817 -3.414531,-0.699723 -5.262791,0.0627 -1.104663,1.29431 -1.110027,2.58862 -1.275184,3.88293 3.080481,0.0644 6.69909,1.665968 8.981415,0.314781 l -0.59911,-1.04947 c -0.247534,-1.647409 -1.02335,-2.464661 -1.84433,-3.210941 z"
         sodipodi:nodetypes="cccccc" />
      <path
         id="rect4603-4"
         style="fill:#000066;stroke-width:0.264583"
         d="m 74.312092,92.376359 -8.044242,0.83368 3.787802,1.03023 c 1.799648,-0.01656 3.44538,-0.237453 4.85555,-0.81444 z"
         sodipodi:nodetypes="ccccc" />
    </g>
    <path
       id="path2773-6-0-5"
       style="opacity:0.99;fill:#ffeeaa;stroke-width:0.2;stop-color:#000000"
       d="m 78.574207,109.41785 c -1.086769,2.01287 -1.346941,2.28473 -2.114,2.35343 -0.782827,0.0701 -0.303518,-0.93938 0.617277,-2.46352 0.09128,-0.1511 -0.381566,0.92814 -0.245355,0.78112 0.183823,-0.19841 1.661479,-3.14381 1.802679,-3.32099 0.234455,-0.29421 -2.042787,3.55217 -1.802679,3.32099 0.181005,-0.17426 1.141551,-1.84748 1.029563,-1.61137 -0.244096,0.51462 -0.88391,1.53876 -0.734736,1.46578 0.203976,-0.0998 2.391933,-3.78266 2.197743,-3.43862 -0.247145,0.43786 -1.974296,3.48715 -1.905228,3.54781 0.07987,0.0701 2.018452,-3.1354 1.861227,-2.84319 -0.332293,0.61757 -1.8607,3.29162 -1.824693,3.43258 0.04263,0.16688 1.505711,-2.29684 2.001823,-3.12449 0.243276,-0.40584 -1.601705,2.78275 -1.792504,3.23793 -0.155713,0.37149 1.006353,-1.51799 0.908883,-1.33746 z"
       sodipodi:nodetypes="sssssssssssssss"
       inkscape:transform-center-x="-3.7969647"
       inkscape:transform-center-y="-0.37863436" />
    <path
       id="path2773-6-0"
       style="opacity:0.99;fill:#ff9955;stroke-width:0.2;stop-color:#000000"
       d="m 78.219339,110.06682 c -0.84716,1.61626 -1.074229,1.83332 -1.82834,1.88059 -0.769612,0.0482 -0.410038,-0.76305 0.328683,-1.98582 0.07323,-0.12123 -0.27186,0.74655 -0.15352,0.62912 0.159698,-0.15849 1.287476,-2.52475 1.407285,-2.66653 0.198941,-0.23542 -1.619125,2.8509 -1.407285,2.66653 0.159689,-0.13899 0.920685,-1.4819 0.836702,-1.29215 -0.183057,0.41359 -0.700394,1.23499 -0.560625,1.17758 0.191119,-0.0785 1.93937,-3.03355 1.78619,-2.75739 -0.194953,0.35147 -1.558595,2.79905 -1.482972,2.84886 0.08746,0.0576 1.643092,-2.51408 1.520647,-2.27944 -0.258786,0.4959 -1.468326,2.64214 -1.416273,2.75654 0.06163,0.13544 1.230564,-1.84139 1.627833,-2.50543 0.194808,-0.32561 -1.269805,2.23336 -1.406778,2.59945 -0.111785,0.29878 0.824433,-1.21686 0.748453,-1.07191 z"
       sodipodi:nodetypes="sssssssssssssss"
       inkscape:transform-center-x="-3.4519641"
       inkscape:transform-center-y="0.31800626" />
    <path
       id="path2773-6"
       style="opacity:0.99;fill:#d35f5f;stroke-width:0.2;stop-color:#000000"
       d="m 77.844941,110.68654 c -0.53312,1.09645 -0.716805,1.2417 -1.453942,1.26087 -0.752291,0.0196 -0.549651,-0.53196 -0.04956,-1.35974 0.04958,-0.0821 -0.128078,0.50856 -0.03316,0.4299 0.12809,-0.10616 0.797299,-1.71338 0.889074,-1.80876 0.152391,-0.15837 -1.063858,1.9318 -0.889074,1.80876 0.131754,-0.0927 0.631214,-1.00275 0.583935,-0.87375 -0.103059,0.28117 -0.459869,0.83686 -0.332422,0.79985 0.174264,-0.0506 1.346216,-2.05174 1.246783,-1.86454 -0.126547,0.23824 -1.013759,1.89722 -0.929543,1.9328 0.09739,0.0411 1.151129,-1.69976 1.074269,-1.54057 -0.162446,0.33643 -0.954064,1.79091 -0.88098,1.87049 0.08654,0.0942 0.869945,-1.24448 1.137665,-1.69408 0.131283,-0.22046 -0.834803,1.51332 -0.901229,1.76264 -0.05421,0.20348 0.586,-0.8222 0.538187,-0.72387 z"
       sodipodi:nodetypes="sssssssssssssss"
       inkscape:transform-center-x="-3.0811126"
       inkscape:transform-center-y="1.0003577" />
    <rect
       style="fill:#1a1a1a;fill-opacity:1;stroke-width:0.264583"
       id="rect14273-1"
       width="5.238483"
       height="0.32740518"
       x="128.23831"
       y="-25.015224"
       transform="matrix(0.71181144,0.70237061,0.70237061,-0.71181144,0,0)"
       inkscape:transform-center-x="-0.11229032"
       inkscape:transform-center-y="1.2259132" />
    <ellipse
       style="fill:#d08553;fill-opacity:1;stroke-width:0.398877"
       id="path9819-8-8-8-5-1"
       cx="-2.0944641"
       cy="132.02745"
       rx="0.90396488"
       ry="0.92643011"
       transform="matrix(-0.83500812,0.55023762,0.55023762,0.83500812,0,0)"
       inkscape:transform-center-x="-4.518069"
       inkscape:transform-center-y="6.1673076" />
    <path
       id="path2773"
       style="opacity:0.99;fill:#aa0000;stroke-width:0.2;stop-color:#000000"
       d="m 77.661714,110.98983 c -0.379431,0.84205 -0.541881,0.95215 -1.270715,0.95758 -0.743815,0.006 -0.617986,-0.41886 -0.234668,-1.05334 0.038,-0.0629 -0.05771,0.39209 0.02574,0.33241 0.11262,-0.0806 0.557411,-1.31631 0.635466,-1.38898 0.12962,-0.12065 -0.792116,1.482 -0.635466,1.38898 0.118086,-0.0701 0.489549,-0.76827 0.460231,-0.669 -0.0639,0.21636 -0.342153,0.64202 -0.220741,0.61499 0.166013,-0.0369 1.055932,-1.57124 0.982804,-1.42758 -0.09307,0.18283 -0.747119,1.45586 -0.658699,1.48448 0.102242,0.0331 0.910367,-1.30123 0.855814,-1.17897 -0.115296,0.25838 -0.70239,1.37432 -0.619013,1.43687 0.09871,0.0741 0.693463,-0.95236 0.897784,-1.29702 0.100194,-0.169 -0.621915,1.16094 -0.653818,1.35312 -0.02604,0.15684 0.469314,-0.62906 0.435283,-0.55354 z"
       sodipodi:nodetypes="sssssssssssssss"
       inkscape:transform-center-x="-2.8934653"
       inkscape:transform-center-y="1.3344489" />
  </g>
</svg>
