<?xml version="1.0" encoding="UTF-8" standalone="no"?>
<!-- Created with Inkscape (http://www.inkscape.org/) -->

<svg
   width="210mm"
   height="297mm"
   viewBox="0 0 210 297"
   version="1.1"
   id="svg2602"
   inkscape:version="1.2 (dc2aedaf03, 2022-05-15)"
   sodipodi:docname="controleuz_hit.svg"
   xmlns:inkscape="http://www.inkscape.org/namespaces/inkscape"
   xmlns:sodipodi="http://sodipodi.sourceforge.net/DTD/sodipodi-0.dtd"
   xmlns="http://www.w3.org/2000/svg"
   xmlns:svg="http://www.w3.org/2000/svg">
  <sodipodi:namedview
     id="namedview2604"
     pagecolor="#ffffff"
     bordercolor="#666666"
     borderopacity="1.0"
     inkscape:showpageshadow="2"
     inkscape:pageopacity="0.0"
     inkscape:pagecheckerboard="0"
     inkscape:deskcolor="#d1d1d1"
     inkscape:document-units="mm"
     showgrid="false"
     inkscape:zoom="2.993266"
     inkscape:cx="200.2829"
     inkscape:cy="436.14567"
     inkscape:window-width="1920"
     inkscape:window-height="1001"
     inkscape:window-x="-9"
     inkscape:window-y="-9"
     inkscape:window-maximized="1"
     inkscape:current-layer="layer1" />
  <defs
     id="defs2599" />
  <g
     inkscape:label="Calque 1"
     inkscape:groupmode="layer"
     id="layer1">
    <path
       id="path11385-4-04-45-3-8-4"
       style="fill:#1a1a1a;stroke-width:0.548397"
       d="m 75.749949,114.40348 c 0.340017,0.86446 1.458115,1.34819 2.195587,0.0885 0.200603,-0.34268 1.222428,-2.52667 1.162754,-2.99119 -0.05267,-0.41013 -0.15409,-0.75748 -0.642809,-0.51207 -1.030828,0.51766 -1.470827,1.14401 -2.120105,1.96531 -1.226755,1.55177 -0.668803,1.26293 -0.595473,1.44945 z"
       sodipodi:nodetypes="ssssss"
       inkscape:export-filename="..\_bank\perso\controleuz\controleuz_hit_2.png"
       inkscape:export-xdpi="62.474968"
       inkscape:export-ydpi="62.474968" />
    <path
       id="path11385-4-04-45-3-8"
       style="fill:#333333;stroke-width:0.548397"
       d="m 71.966781,115.55147 c -0.502095,0.78154 -0.24017,1.9713 1.212897,1.8323 0.395271,-0.0378 2.764274,-0.48704 3.106059,-0.80722 0.301777,-0.28269 0.524125,-0.56817 0.03916,-0.8209 -1.02294,-0.53308 -1.788326,-0.52342 -2.834263,-0.56941 -1.9762,-0.0869 -1.415503,0.19658 -1.523858,0.36518 z"
       sodipodi:nodetypes="ssssss" />
    <path
       id="rect10620-1-8-9-9-5-6"
       style="fill:#00001c;fill-opacity:1;stroke-width:0.398877"
       d="m 74.53557,109.2391 c -0.697378,-0.30694 -3.651381,1.76903 -3.697166,2.14964 l 4.911499,3.01472 c 0.883535,0.28149 1.313278,-0.273 1.661072,-0.90617 z"
       sodipodi:nodetypes="ccccc" />
    <path
       id="rect10620-1-8-9-9-5"
       style="fill:#00003c;fill-opacity:1;stroke-width:0.398877"
       d="m 74.333277,109.90853 c -0.56923,-0.50649 -3.684905,0.42491 -3.845497,0.77298 l 1.479001,4.86996 c 0.754195,0.53951 0.900623,0.33972 1.426256,-0.15582 z"
       sodipodi:nodetypes="ccccc" />
    <path
       id="path6217-9-9-3-7-8-9"
       style="fill:#000080;stroke-width:0.398877"
       d="m 72.715771,104.16571 c 0.227595,0.24481 0.821985,0.0986 2.525562,-0.12498 0,0 1.210747,0.9027 0.464966,1.15854 -1.380931,0.47374 -4.579766,1.7886 -5.033255,-0.10331 -0.433708,-1.80943 -1.015411,-3.39695 0.228714,-3.67412 1.244201,-0.2768 0.4507,1.2757 1.814015,2.74387 z"
       sodipodi:nodetypes="ssssss" />
    <path
       id="rect21874-0-5-4-2"
       style="fill:#000080;stroke-width:0.264583"
       d="m 71.288047,101.08899 c -1.539926,0.49827 -3.009038,-0.54124 -4.444275,1.18842 -0.853938,1.71193 3.253727,9.29651 3.995105,9.11334 2.151923,-0.19808 2.348254,-0.45239 4.050614,-1.37204 0.646663,-0.34938 -0.893632,-4.45208 -0.709152,-5.14028 0.07602,-0.52744 -0.367881,-1.08584 -0.367881,-1.08584 -0.47221,-0.37123 -1.949515,-2.03792 -2.796534,-2.37918 z"
       sodipodi:nodetypes="cccscscc" />
    <rect
       style="fill:#000055;fill-opacity:1;stroke-width:0.264583"
       id="rect9477-8"
       width="0.56597674"
       height="0.51449186"
       x="-55.002052"
       y="113.20648"
       transform="rotate(-60.550894)" />
    <ellipse
       style="fill:#d08553;fill-opacity:1;stroke-width:0.398877"
       id="path9819-8-8-8-5"
       cx="103.94441"
       cy="76.293739"
       rx="0.90396488"
       ry="0.92643011"
       transform="matrix(-0.00274116,0.99999624,0.99999624,0.00274116,0,0)" />
    <ellipse
       style="fill:#d08553;fill-opacity:1;stroke-width:0.148272"
       id="path9819-9-7-8-1-0"
       cx="-75.569138"
       cy="103.34736"
       rx="0.32108271"
       ry="0.28087336"
       transform="matrix(-0.99999624,-0.00274116,-0.00274116,0.99999624,0,0)" />
    <rect
       style="fill:#1a1a1a;fill-opacity:1;stroke-width:0.264583"
       id="rect14273-1"
       width="5.238483"
       height="0.32740518"
       x="83.69545"
       y="101.64941"
       transform="matrix(-0.28445619,0.95868904,0.95868904,0.28445619,0,0)" />
    <path
       id="path6217-9-9-3-7-8-3"
       style="fill:#000051;fill-opacity:1;stroke-width:0.398877"
       d="m 70.562176,106.62736 c 0.164751,0.29085 0.453697,0.15683 2.16277,0.33359 0,0 0.08384,1.15067 -0.700908,1.22697 -1.453079,0.14127 -3.567482,0.17343 -3.664431,-1.12834 -0.138193,-1.85555 -0.201649,-3.53973 1.072842,-3.52143 1.274489,0.0183 0.143222,1.34536 1.129722,3.0892 z"
       sodipodi:nodetypes="ssssss" />
    <rect
       style="fill:#ececec;fill-opacity:1;stroke-width:0.264583"
       id="rect9477-6-3"
       width="0.49847209"
       height="0.43527719"
       x="-54.9785"
       y="113.24949"
       transform="rotate(-60.550894)" />
    <path
       id="path6217-9-9-3-7-8"
       style="fill:#000080;stroke-width:0.398877"
       d="m 69.926645,106.04868 c 0.164751,0.29085 0.77685,0.28618 2.485922,0.46294 0,0 0.968951,1.1584 0.184202,1.2347 -1.453079,0.14127 -4.869374,0.68009 -4.872684,-1.2654 -0.0032,-1.86068 -0.201648,-3.53973 1.072843,-3.52143 1.274487,0.0183 0.14322,1.34537 1.129717,3.08919 z"
       sodipodi:nodetypes="ssssss" />
    <text
       xml:space="preserve"
       style="font-style:normal;font-weight:normal;font-size:0.216711px;line-height:1.25;font-family:sans-serif;fill:#000000;fill-opacity:1;stroke:none;stroke-width:0.264583"
       x="-107.09676"
       y="58.317841"
       id="text10217-0"
       transform="matrix(0.25244484,-0.44712097,1.695917,0.95751592,0,0)"><tspan
         sodipodi:role="line"
         id="tspan10215-9"
         style="stroke-width:0.264583"
         x="-107.09676"
         y="58.317841">Contrôle</tspan></text>
    <rect
       style="fill:#1a1a1a;fill-opacity:1;stroke-width:0.264583"
       id="rect14169-9"
       width="0.56597751"
       height="0.81626797"
       x="54.436073"
       y="113.72099"
       transform="matrix(-0.49165025,0.87079276,0.87079276,0.49165025,0,0)" />
    <ellipse
       style="fill:#d08553;fill-opacity:1;stroke-width:0.398877"
       id="path9819-8-8-8-5-1"
       cx="75.105499"
       cy="105.94804"
       rx="0.90396488"
       ry="0.92643011"
       transform="matrix(-0.34699177,0.93786817,0.93786817,0.34699177,0,0)"
       inkscape:transform-center-x="-0.16069912"
       inkscape:transform-center-y="-0.71220165" />
    <ellipse
       style="fill:#d08553;fill-opacity:1;stroke-width:0.148272"
       id="path9819-9-7-8-1-0-8"
       cx="-105.22346"
       cy="74.508438"
       rx="0.32108271"
       ry="0.28087336"
       transform="matrix(-0.93786817,-0.34699177,-0.34699177,0.93786817,0,0)"
       inkscape:transform-center-x="0.31169215"
       inkscape:transform-center-y="-1.5235919" />
    <rect
       style="fill:#1a1a1a;fill-opacity:1;stroke-width:0.264583"
       id="rect14275-5"
       width="0.44433558"
       height="1.2160764"
       x="84.331764"
       y="100.71877"
       transform="matrix(-0.28445619,0.95868904,0.95868904,0.28445619,0,0)" />
    <path
       id="path31-9-9-4-8-2"
       style="fill:#d08553;fill-opacity:1;fill-rule:evenodd;stroke-width:0.398877"
       d="m 71.628747,95.90255 c -0.457343,-0.968538 -1.963566,-4.480421 -6.057022,-3.494032 -3.890147,0.937397 -2.344147,5.443826 -2.220647,5.816071 1.021264,3.078181 6.049761,5.734961 7.632452,3.792131 1.700546,-2.087488 1.524247,-4.252599 0.645217,-6.11417 z"
       sodipodi:nodetypes="sssss" />
    <path
       id="path2169-5-4-0-9-4-9-2-3-5"
       style="fill:#37abc8;fill-opacity:1;stroke-width:0.551594"
       d="m 70.362498,97.065684 c 0.0011,0.31587 0.448574,0.244702 0.861465,0.138379 0.412909,-0.106325 0.73575,-0.363686 0.662711,-0.569166 -0.08991,-0.252903 -0.466544,-0.478415 -0.89449,-0.377787 -0.414872,0.09847 -0.630968,0.434747 -0.629686,0.808574 z"
       sodipodi:nodetypes="sssss" />
    <path
       id="path2169-5-4-0-9-4-9-2-3-5-6"
       style="fill:#37abc8;fill-opacity:1;stroke-width:0.551594"
       d="m 69.329922,97.331584 c 0.151596,0.277118 -0.274594,0.430923 -0.687484,0.537246 -0.412908,0.106325 -0.819898,0.0369 -0.855187,-0.178295 -0.04342,-0.264873 0.177427,-0.644255 0.600769,-0.762831 0.410831,-0.114155 0.762472,0.07592 0.941903,0.403875 z"
       sodipodi:nodetypes="sssss" />
    <path
       id="rect1430-1-8-6-7-8"
       style="fill:#502d16;stroke-width:0.210089"
       d="m 67.373063,96.29544 0.773107,-0.604365 0.969373,-0.03395 c -0.767957,0.396024 -1.559375,0.750314 -2.019167,1.6953 -0.161558,-0.228594 0.368816,-0.875154 0.276689,-1.056998 z"
       sodipodi:nodetypes="ccccc"
       inkscape:transform-center-x="0.12924725"
       inkscape:transform-center-y="0.53025947" />
    <path
       id="rect1430-1-8-6-7-4"
       style="fill:#502d16;stroke-width:0.210089"
       d="m 70.950114,94.985412 -0.403392,0.0271 -0.631259,0.533742 c 0.499718,-0.156487 0.994177,-0.360313 1.563186,0.105705 -0.01401,-0.279538 -0.147561,-0.385359 -0.175024,-0.58549 z"
       sodipodi:nodetypes="cccccc"
       inkscape:transform-center-x="-0.25333372"
       inkscape:transform-center-y="0.056101098" />
    <path
       id="rect12747-2-4-7-5"
       style="fill:#aa0000;stroke-width:0.398877"
       d="m 71.79292,100.51035 c -0.366829,-3.4e-4 -0.728365,0.0888 -1.162348,0.23735 l 0.01005,0.22379 c 0.328094,0.36046 0.671677,0.90704 1.178762,-0.28082 z"
       sodipodi:nodetypes="ccccc" />
    <rect
       style="fill:#000000;fill-opacity:1;stroke-width:0.264583"
       id="rect17694"
       width="0.36950096"
       height="0.12635346"
       x="-44.823219"
       y="113.78638"
       transform="matrix(-0.96840716,0.24937435,0.24937435,0.96840716,0,0)" />
    <rect
       style="fill:#000000;fill-opacity:1;stroke-width:0.264583"
       id="rect17694-7"
       width="0.36950096"
       height="0.12635346"
       x="-43.915672"
       y="113.78638"
       transform="matrix(-0.96840716,0.24937435,0.24937435,0.96840716,0,0)" />
    <path
       id="rect3820"
       style="opacity:0.99;fill:#552200;stroke-width:0.2;stop-color:#000000"
       d="m 62.96176,94.384235 c -0.279316,-1.090296 1.228914,-1.81192 3.66241,-2.138435 2.742627,-0.623292 2.843594,0.197715 3.555113,1.38818 -0.256259,0.01021 -0.305468,0.128455 -0.488752,0.297546 -0.66618,0.614611 -2.285536,0.738115 -3.123097,0.87902 -0.351855,0.05919 -0.62259,0.353283 -0.460584,0.562523 1.401291,4.106344 0.868812,6.416211 0.781431,6.851601 -1.507445,1.29368 -1.677336,0.16378 -2.735443,-0.16149 -1.170059,-2.963335 -2.843012,-3.069217 -1.191082,-7.678927 z"
       sodipodi:nodetypes="cccssccccc" />
    <g
       id="g3825"
       transform="rotate(-14.440493,76.390549,108.49356)">
      <path
         id="rect4004-0"
         style="fill:#000080;stroke-width:0.264583"
         d="m 72.467762,89.165418 c -1.66075,-0.716817 -3.414531,-0.699723 -5.262791,0.0627 -1.104663,1.29431 -1.110027,2.58862 -1.275184,3.88293 3.080481,0.0644 6.69909,1.665968 8.981415,0.314781 l -0.59911,-1.04947 c -0.247534,-1.647409 -1.02335,-2.464661 -1.84433,-3.210941 z"
         sodipodi:nodetypes="cccccc" />
      <path
         id="rect4603-4"
         style="fill:#000066;stroke-width:0.264583"
         d="m 74.312092,92.376359 -8.044242,0.83368 3.787802,1.03023 c 1.799648,-0.01656 3.44538,-0.237453 4.85555,-0.81444 z"
         sodipodi:nodetypes="ccccc" />
    </g>
  </g>
</svg>
