<?xml version="1.0" encoding="UTF-8" standalone="no"?>
<!-- Created with Inkscape (http://www.inkscape.org/) -->

<svg
   width="210mm"
   height="297mm"
   viewBox="0 0 210 297"
   version="1.1"
   id="svg2602"
   inkscape:version="1.2 (dc2aedaf03, 2022-05-15)"
   sodipodi:docname="controleuz_ko.svg"
   xmlns:inkscape="http://www.inkscape.org/namespaces/inkscape"
   xmlns:sodipodi="http://sodipodi.sourceforge.net/DTD/sodipodi-0.dtd"
   xmlns="http://www.w3.org/2000/svg"
   xmlns:svg="http://www.w3.org/2000/svg">
  <sodipodi:namedview
     id="namedview2604"
     pagecolor="#ffffff"
     bordercolor="#666666"
     borderopacity="1.0"
     inkscape:showpageshadow="2"
     inkscape:pageopacity="0.0"
     inkscape:pagecheckerboard="0"
     inkscape:deskcolor="#d1d1d1"
     inkscape:document-units="mm"
     showgrid="false"
     inkscape:zoom="4.2331174"
     inkscape:cx="282.88845"
     inkscape:cy="407.85545"
     inkscape:window-width="1920"
     inkscape:window-height="1001"
     inkscape:window-x="-9"
     inkscape:window-y="-9"
     inkscape:window-maximized="1"
     inkscape:current-layer="layer1" />
  <defs
     id="defs2599" />
  <g
     inkscape:label="Calque 1"
     inkscape:groupmode="layer"
     id="layer1">
    <path
       id="path11385-4-04-45-3-8-4"
       style="fill:#1a1a1a;stroke-width:0.548397"
       d="m 76.001994,114.00017 c -0.170762,0.9131 0.519959,1.9166 1.813692,1.24054 0.351916,-0.18392 2.377279,-1.4923 2.573302,-1.91763 0.17308,-0.37554 0.271532,-0.72374 -0.27291,-0.77521 -1.148387,-0.10853 -1.853774,0.18868 -2.84001,0.54002 -1.863402,0.66382 -1.237225,0.71524 -1.2741,0.91223 z"
       sodipodi:nodetypes="ssssss"
       inkscape:export-filename="..\_bank\perso\controleuz\controleuz_ko_1.png"
       inkscape:export-xdpi="62.474968"
       inkscape:export-ydpi="62.474968" />
    <path
       id="path11385-4-04-45-3-8"
       style="fill:#333333;stroke-width:0.548397"
       d="m 74.174844,115.61871 c -0.170761,0.9131 0.51996,1.9166 1.813694,1.24055 0.351916,-0.18392 2.377278,-1.4923 2.573301,-1.91763 0.173081,-0.37554 0.271532,-0.72375 -0.272908,-0.7752 -1.148389,-0.10855 -1.853773,0.18868 -2.840009,0.54002 -1.863402,0.66381 -1.237228,0.71523 -1.274101,0.91223 z"
       sodipodi:nodetypes="ssssss" />
    <path
       id="rect10620-1-8-9-9-5-6"
       style="fill:#00001c;fill-opacity:1;stroke-width:0.398877"
       d="m 74.499528,109.2486 c -0.718072,-0.25479 -3.677285,1.43134 -3.69494,1.81429 l 5.285977,3.24673 c 0.901853,0.21571 1.289636,-0.36888 1.589891,-1.02595 z"
       sodipodi:nodetypes="ccccc" />
    <path
       id="rect10620-1-8-9-9-5"
       style="fill:#00003c;fill-opacity:1;stroke-width:0.398877"
       d="m 74.24172,109.5 c -0.718071,-0.25479 -3.419466,1.17996 -3.437132,1.56289 l 3.370256,4.55582 c 0.901857,0.21573 0.962255,-0.0245 1.26254,-0.68152 z"
       sodipodi:nodetypes="ccccc" />
    <path
       id="path6217-9-9-3-7-8-9"
       style="fill:#000080;stroke-width:0.398877"
       d="m 72.525352,104.228 c 0.188737,0.27588 0.798247,0.21951 2.516137,0.25125 0,0 1.063354,1.07242 0.287864,1.21473 -1.435955,0.26349 -4.794511,1.08904 -4.962173,-0.84924 -0.160346,-1.85374 -0.499972,-3.51003 0.771514,-3.59946 1.271478,-0.0894 0.256366,1.32846 1.386663,2.98272 z"
       sodipodi:nodetypes="ssssss" />
    <path
       id="rect21874-0-5-4-2"
       style="fill:#000080;stroke-width:0.264583"
       d="m 72.034391,100.89891 c -1.567276,0.40408 -2.970734,-0.7225 -4.508095,0.91707 -0.956053,1.65706 2.684707,9.47651 3.435818,9.33858 2.159969,-0.0674 2.811949,0.29578 4.126274,-1.12421 0.446329,-0.48221 -1.098203,-4.87093 -0.396524,-5.17378 0.107829,-0.52187 -0.301442,-1.10614 -0.301442,-1.10614 -0.448859,-0.39914 -1.822507,-2.15225 -2.647303,-2.54418 z"
       sodipodi:nodetypes="cccscscc" />
    <rect
       style="fill:#000055;fill-opacity:1;stroke-width:0.264583"
       id="rect9477-8"
       width="0.56597674"
       height="0.51449186"
       x="-47.569725"
       y="116.73316"
       transform="rotate(-57.078615)" />
    <ellipse
       style="fill:#d08553;fill-opacity:1;stroke-width:0.398877"
       id="path9819-8-8-8-5"
       cx="92.048027"
       cy="90.737488"
       rx="0.90396488"
       ry="0.92643011"
       transform="matrix(-0.15113532,0.98851308,0.98851308,0.15113532,0,0)" />
    <ellipse
       style="fill:#d08553;fill-opacity:1;stroke-width:0.148272"
       id="path9819-9-7-8-1-0"
       cx="-90.012894"
       cy="91.450974"
       rx="0.32108271"
       ry="0.28087336"
       transform="matrix(-0.98851308,-0.15113532,-0.15113532,0.98851308,0,0)" />
    <rect
       style="fill:#1a1a1a;fill-opacity:1;stroke-width:0.264583"
       id="rect14273-1"
       width="5.238483"
       height="0.32740518"
       x="77.240067"
       y="106.74892"
       transform="matrix(-0.34199757,0.93970084,0.93970084,0.34199757,0,0)" />
    <path
       id="path6217-9-9-3-7-8-3"
       style="fill:#000051;fill-opacity:1;stroke-width:0.398877"
       d="m 71.145883,106.0798 c 0.211192,0.25912 0.473575,0.0785 2.18809,-0.0338 0,0 0.275591,1.12031 -0.485258,1.32711 -1.408936,0.38249 -3.487894,0.76915 -3.801744,-0.49794 -0.447356,-1.8061 -0.792309,-3.4558 0.467208,-3.65145 1.259515,-0.19565 0.366768,1.3023 1.631702,2.85603 z"
       sodipodi:nodetypes="ssssss" />
    <rect
       style="fill:#ececec;fill-opacity:1;stroke-width:0.264583"
       id="rect9477-6-3"
       width="0.49847209"
       height="0.43527719"
       x="-47.546173"
       y="116.77615"
       transform="rotate(-57.078615)" />
    <path
       id="path6217-9-9-3-7-8"
       style="fill:#000080;stroke-width:0.398877"
       d="m 70.422329,105.6159 c 0.21119,0.2591 0.813832,0.15185 2.528347,0.0396 0,0 1.149466,0.97954 0.388621,1.18634 -1.408935,0.38249 -4.686404,1.48693 -5.015875,-0.43047 -0.315105,-1.83381 -0.792309,-3.45581 0.467208,-3.65146 1.259514,-0.19564 0.366767,1.30231 1.631701,2.85604 z"
       sodipodi:nodetypes="ssssss" />
    <text
       xml:space="preserve"
       style="font-style:normal;font-weight:normal;font-size:0.216711px;line-height:1.25;font-family:sans-serif;fill:#000000;fill-opacity:1;stroke:none;stroke-width:0.264583"
       x="-92.621895"
       y="60.128662"
       id="text10217-0"
       transform="matrix(0.27906155,-0.43101067,1.6348111,1.0584724,0,0)"><tspan
         sodipodi:role="line"
         id="tspan10215-9"
         style="stroke-width:0.264583"
         x="-92.621895"
         y="60.128662">Contrôle</tspan></text>
    <rect
       style="fill:#1a1a1a;fill-opacity:1;stroke-width:0.264583"
       id="rect14169-9"
       width="0.56597751"
       height="0.81626797"
       x="47.003746"
       y="117.24767"
       transform="matrix(-0.54348778,0.83941708,0.83941708,0.54348778,0,0)" />
    <ellipse
       style="fill:#d08553;fill-opacity:1;stroke-width:0.398877"
       id="path9819-8-8-8-5-1"
       cx="90.690338"
       cy="92.297478"
       rx="0.90396488"
       ry="0.92643011"
       transform="matrix(-0.18482407,0.98277162,0.98277162,0.18482407,0,0)"
       inkscape:transform-center-x="-0.039009778"
       inkscape:transform-center-y="-0.72906779" />
    <ellipse
       style="fill:#d08553;fill-opacity:1;stroke-width:0.148272"
       id="path9819-9-7-8-1-0-8"
       cx="-91.572868"
       cy="90.093277"
       rx="0.32108271"
       ry="0.28087336"
       transform="matrix(-0.98277162,-0.18482407,-0.18482407,0.98277162,0,0)"
       inkscape:transform-center-x="0.56275695"
       inkscape:transform-center-y="-1.4497664" />
    <rect
       style="fill:#1a1a1a;fill-opacity:1;stroke-width:0.264583"
       id="rect14275-5"
       width="0.44433558"
       height="1.2160764"
       x="77.876373"
       y="105.81828"
       transform="matrix(-0.34199757,0.93970084,0.93970084,0.34199757,0,0)" />
    <path
       id="path31-9-9-4-8-2"
       style="fill:#d08553;fill-opacity:1;fill-rule:evenodd;stroke-width:0.398877"
       d="m 74.816081,97.051849 c -0.148209,-1.060784 -0.54043,-4.861862 -4.741919,-5.139064 -3.992812,-0.263434 -3.858752,4.498923 -3.851691,4.891056 0.0584,3.242649 4.067732,7.276189 6.157124,5.892739 2.24498,-1.48646 2.721352,-3.605861 2.436486,-5.644731 z"
       sodipodi:nodetypes="sssss" />
    <path
       id="path2169-5-4-0-9-4-9-2-3-5"
       style="fill:#37abc8;fill-opacity:1;stroke-width:0.551594"
       d="m 73.260938,97.785193 c -0.093,0.301873 0.355366,0.367167 0.781186,0.388607 0.425841,0.02144 0.810668,-0.128117 0.802126,-0.346023 -0.01053,-0.268201 -0.302932,-0.595632 -0.741431,-0.62699 -0.425373,-0.02953 -0.731799,0.227148 -0.841881,0.584406 z"
       sodipodi:nodetypes="sssss" />
    <path
       id="path2169-5-4-0-9-4-9-2-3-5-6"
       style="fill:#37abc8;fill-opacity:1;stroke-width:0.551594"
       d="m 72.196025,97.731575 c 0.0622,0.309689 -0.39045,0.329616 -0.816268,0.308182 -0.425841,-0.02144 -0.7937,-0.208895 -0.763313,-0.424842 0.03741,-0.265787 0.361227,-0.562191 0.800657,-0.549347 0.426189,0.01335 0.705282,0.299508 0.778925,0.666012 z"
       sodipodi:nodetypes="sssss" />
    <path
       id="rect1430-1-8-6-7-8"
       style="fill:#502d16;stroke-width:0.210089"
       d="m 70.728245,95.648515 0.979805,-0.05417 0.814904,0.526087 c -0.856523,-0.113855 -1.708448,-0.275368 -2.625784,0.237373 -0.002,-0.279917 0.802771,-0.507423 0.831074,-0.70931 z"
       sodipodi:nodetypes="ccccc"
       inkscape:transform-center-x="0.39643154"
       inkscape:transform-center-y="0.1070619" />
    <path
       id="rect1430-1-8-6-7-4"
       style="fill:#502d16;stroke-width:0.210089"
       d="m 74.324922,95.617223 -0.404221,-0.008 -0.675146,0.477022 c 0.511402,-0.112585 1.021679,-0.272746 1.548143,0.240794 0.01027,-0.279696 -0.113597,-0.396701 -0.123617,-0.598458 z"
       sodipodi:nodetypes="cccccc"
       inkscape:transform-center-x="-0.22351504"
       inkscape:transform-center-y="0.11866773" />
    <path
       id="path2169-5-4-0-9-4-9-2"
       style="fill:#ffccaa;stroke-width:0.551594"
       d="m 72.18816,97.887768 c 0.06852,0.18415 -0.383245,0.186587 -0.809067,0.165145 -0.42584,-0.02144 -0.797182,-0.139713 -0.771279,-0.266601 0.03189,-0.156173 0.34926,-0.32452 0.788499,-0.307876 0.426022,0.01664 0.710724,0.191398 0.791847,0.409332 z"
       sodipodi:nodetypes="sssss" />
    <path
       id="path2169-5-4-0-9-4-9-2-3"
       style="fill:#ffccaa;stroke-width:0.551594"
       d="m 73.253262,97.937642 c -0.08626,0.16807 0.363042,0.214718 0.788862,0.236158 0.425841,0.02144 0.806956,-0.05438 0.793632,-0.17737 -0.01641,-0.15137 -0.315686,-0.342312 -0.754388,-0.369621 -0.425549,-0.02603 -0.725996,0.111925 -0.828108,0.310826 z"
       sodipodi:nodetypes="sssss" />
    <ellipse
       style="fill:#502d16;stroke-width:0.314342"
       id="path2169-5-48-7-0-2-5"
       cx="79.200333"
       cy="94.183022"
       rx="0.32813457"
       ry="0.31256434"
       transform="rotate(2.8823646)" />
    <ellipse
       style="fill:#28170b;stroke-width:0.344828"
       id="path2169-0-2-9-0-5-7-8"
       ry="0.22066765"
       rx="0.26542562"
       cy="94.183022"
       cx="79.233482"
       transform="rotate(2.8823646)" />
    <ellipse
       style="fill:#502d16;stroke-width:0.314342"
       id="path2169-5-48-7-0-2-5-5"
       cx="76.616104"
       cy="94.183022"
       rx="0.32813457"
       ry="0.31256434"
       transform="rotate(2.8823646)" />
    <ellipse
       style="fill:#28170b;stroke-width:0.344828"
       id="path2169-0-2-9-0-5-7-8-3"
       ry="0.22066765"
       rx="0.26542562"
       cy="94.196198"
       cx="76.616104"
       transform="rotate(2.8823646)" />
    <path
       id="rect12747-2-4-7-5"
       style="fill:#aa0000;stroke-width:0.398877"
       d="m 73.600809,101.49953 c -0.338599,-0.0665 -0.693029,-0.12982 -1.1803,-0.11951 l -0.05706,0.21663 c 0.258992,0.0642 0.82151,-0.13941 1.208915,0.0829 z"
       sodipodi:nodetypes="ccccc" />
    <rect
       style="fill:#000000;fill-opacity:1;stroke-width:0.264583"
       id="rect17694"
       width="0.36950096"
       height="0.12635346"
       x="-78.974792"
       y="96.218208"
       transform="matrix(-0.99873488,-0.05028554,-0.05028554,0.99873488,0,0)" />
    <rect
       style="fill:#000000;fill-opacity:1;stroke-width:0.264583"
       id="rect17694-7"
       width="0.36950096"
       height="0.12635346"
       x="-78.067238"
       y="96.218208"
       transform="matrix(-0.99873488,-0.05028554,-0.05028554,0.99873488,0,0)" />
    <path
       id="rect3820"
       style="opacity:0.99;fill:#552200;stroke-width:0.2;stop-color:#000000"
       d="m 66.994299,93.021757 c 0.05799,-1.124011 1.712683,-1.36382 4.133022,-0.950937 2.803815,0.221611 2.655742,1.035447 2.980522,2.38377 -0.247672,-0.06658 -0.329861,0.03167 -0.555179,0.138523 -0.818967,0.388375 -2.401647,0.0241 -3.243173,-0.09077 -0.353521,-0.04826 -0.699543,0.151878 -0.607187,0.399866 0.115043,4.337331 -1.081066,6.38389 -1.294121,6.77351 -1.824267,0.78616 -1.650023,-0.34308 -2.56328,-0.96868 -0.234633,-3.177319 -1.800181,-3.776526 1.149393,-7.685285 z"
       sodipodi:nodetypes="cccssccccc" />
    <g
       id="g3825"
       transform="rotate(2.8823646,36.332476,94.035716)">
      <path
         id="rect4004-0"
         style="fill:#000080;stroke-width:0.264583"
         d="m 72.467762,89.165418 c -1.66075,-0.716817 -3.414531,-0.699723 -5.262791,0.0627 -1.104663,1.29431 -1.110027,2.58862 -1.275184,3.88293 3.080481,0.0644 6.69909,1.665968 8.981415,0.314781 l -0.59911,-1.04947 c -0.247534,-1.647409 -1.02335,-2.464661 -1.84433,-3.210941 z"
         sodipodi:nodetypes="cccccc" />
      <path
         id="rect4603-4"
         style="fill:#000066;stroke-width:0.264583"
         d="m 74.312092,92.376359 -8.044242,0.83368 3.787802,1.03023 c 1.799648,-0.01656 3.44538,-0.237453 4.85555,-0.81444 z"
         sodipodi:nodetypes="ccccc" />
    </g>
  </g>
</svg>
