<?xml version="1.0" encoding="UTF-8" standalone="no"?>
<!-- Created with Inkscape (http://www.inkscape.org/) -->

<svg
   width="210mm"
   height="297mm"
   viewBox="0 0 210 297"
   version="1.1"
   id="svg5"
   inkscape:version="1.2 (dc2aedaf03, 2022-05-15)"
   sodipodi:docname="fantom_spe.svg"
   xmlns:inkscape="http://www.inkscape.org/namespaces/inkscape"
   xmlns:sodipodi="http://sodipodi.sourceforge.net/DTD/sodipodi-0.dtd"
   xmlns="http://www.w3.org/2000/svg"
   xmlns:svg="http://www.w3.org/2000/svg">
  <sodipodi:namedview
     id="namedview7"
     pagecolor="#ffffff"
     bordercolor="#666666"
     borderopacity="1.0"
     inkscape:showpageshadow="2"
     inkscape:pageopacity="0.0"
     inkscape:pagecheckerboard="0"
     inkscape:deskcolor="#d1d1d1"
     inkscape:document-units="mm"
     showgrid="false"
     inkscape:zoom="1.0582793"
     inkscape:cx="420.02144"
     inkscape:cy="505.06516"
     inkscape:window-width="1920"
     inkscape:window-height="1001"
     inkscape:window-x="-9"
     inkscape:window-y="-9"
     inkscape:window-maximized="1"
     inkscape:current-layer="layer1" />
  <defs
     id="defs2" />
  <g
     inkscape:label="Calque 1"
     inkscape:groupmode="layer"
     id="layer1">
    <path
       id="path344-8"
       style="opacity:0.99;fill:#cccccc;fill-opacity:0.478632;stroke-width:0.2;stop-color:#000000"
       d="m 151.06201,115.62296 c 0,11.66905 -20.91819,52.3678 -28.09576,45.55445 -4.93352,-4.68318 -6.34194,-6.09039 -12.46701,0.62244 -1.87483,2.05474 2.38763,-8.23174 1.90463,-13.29985 -0.33164,-3.48 -1.89107,0.0554 -4.62413,10.8086 -3.87882,15.26129 -2.93942,-27.68662 -2.93942,-42.40465 0,-14.71803 10.40991,-26.649349 23.25119,-26.649349 12.84135,1.3e-5 22.9705,10.650339 22.9705,25.368359 z"
       sodipodi:nodetypes="ssssssss"
       inkscape:export-filename="..\_bank\perso\fantom\fantom_spe_4.png"
       inkscape:export-xdpi="20.131071"
       inkscape:export-ydpi="20.131071" />
    <path
       sodipodi:type="star"
       style="opacity:0.99;fill:#d4aa00;stroke-width:0.704017;stop-color:#000000;fill-opacity:0.24786325"
       id="path2944"
       inkscape:flatsided="false"
       sodipodi:sides="5"
       sodipodi:cx="127.00647"
       sodipodi:cy="103.95"
       sodipodi:r1="13.613481"
       sodipodi:r2="6.5851073"
       sodipodi:arg1="1.8833456"
       sodipodi:arg2="2.5116641"
       inkscape:rounded="0"
       inkscape:randomized="0"
       d="m 122.82052,116.90394 -1.13528,-9.07474 -8.29223,-3.85729 8.27977,-3.88396 1.10605,-9.078353 6.25246,6.674323 8.97582,-1.753447 -4.41554,8.008917 4.44131,7.99467 -8.98142,-1.72454 z"
       inkscape:transform-center-x="-0.19999748"
       inkscape:transform-center-y="0.0035354341"
       transform="matrix(-0.15461816,0,0,0.52195582,224.23675,88.637242)" />
    <path
       id="path344"
       style="opacity:0.99;fill:#ffffff;stroke-width:0.2;stop-color:#000000"
       d="m 151.34281,111.63069 c 0,9.36003 -8.94829,55.31667 -19.25106,43.23366 -3.84017,-4.50371 -8.46708,-2.27821 -14.59215,3.10631 -1.87483,1.64816 -5.11329,-5.94128 -5.59629,-10.00654 -0.33164,-2.79139 -3.71634,0.66814 -6.4494,9.29358 -3.87882,12.24145 -0.61359,-33.82132 -0.61359,-45.62701 0,-11.805689 10.40991,-21.376091 23.25119,-21.376089 12.84135,3e-6 23.2513,9.570403 23.2513,21.376089 z"
       sodipodi:nodetypes="ssssssss" />
    <path
       id="path549"
       style="opacity:0.99;stroke-width:0.200001;stop-color:#000000"
       d="m 138.71713,111.54866 c -1e-5,0.47921 -2.49627,0.45751 -4.18774,0.45751 -1.69146,0 -3.06267,-0.38848 -3.06267,-0.86768 0,-0.47921 0.99618,-0.82035 2.68765,-0.82035 1.69147,0 4.56276,0.75132 4.56276,1.23052 z"
       sodipodi:nodetypes="sssss" />
    <path
       id="path549-5"
       style="opacity:0.99;stroke-width:0.200001;stop-color:#000000"
       d="m 143.71739,111.37922 c 1e-5,0.65663 2.49628,0.62689 4.18775,0.62689 1.69145,0 3.06265,-0.5323 3.06265,-1.18893 0,-0.65663 -0.99617,-1.12408 -2.68763,-1.12408 -1.69147,0 -4.56277,1.02949 -4.56277,1.68612 z"
       sodipodi:nodetypes="sssss" />
    <path
       id="rect680"
       style="opacity:0.99;stroke-width:0.2;stop-color:#000000"
       d="m 148.24891,122.00623 -14.21953,-0.0876 c 3.92517,-1.44764 10.31536,-0.8501 14.21953,0.0876 z"
       sodipodi:nodetypes="ccc" />
    <ellipse
       style="opacity:0.99;fill:#000000;fill-opacity:0.344729;stroke-width:0.2;stop-color:#000000"
       id="path1312"
       cx="115.77465"
       cy="181.16002"
       rx="15.120063"
       ry="3.7244098" />
    <ellipse
       style="opacity:0.99;fill:#ffffff;stroke-width:0.2;stop-color:#000000;fill-opacity:0"
       id="path2998"
       cx="5.0002556"
       cy="107.13077"
       rx="5.0002556"
       ry="4.8755474" />
  </g>
</svg>
