<?xml version="1.0" encoding="UTF-8" standalone="no"?>
<!-- Created with Inkscape (http://www.inkscape.org/) -->

<svg
   width="194mm"
   height="215mm"
   viewBox="0 0 194 215"
   version="1.1"
   id="svg5"
   inkscape:version="1.2 (dc2aedaf03, 2022-05-15)"
   sodipodi:docname="gus_down.svg"
   inkscape:export-filename="C:\Users\basti\OneDrive\Bureau\Gus veut boire un coup\Gus\gus_fight\gus_punch_r1.png"
   inkscape:export-xdpi="5.9319429"
   inkscape:export-ydpi="5.9319429"
   xmlns:inkscape="http://www.inkscape.org/namespaces/inkscape"
   xmlns:sodipodi="http://sodipodi.sourceforge.net/DTD/sodipodi-0.dtd"
   xmlns:xlink="http://www.w3.org/1999/xlink"
   xmlns="http://www.w3.org/2000/svg"
   xmlns:svg="http://www.w3.org/2000/svg">
  <sodipodi:namedview
     id="namedview7"
     pagecolor="#ffffff"
     bordercolor="#666666"
     borderopacity="1.0"
     inkscape:pageshadow="2"
     inkscape:pageopacity="0.0"
     inkscape:pagecheckerboard="0"
     inkscape:document-units="mm"
     showgrid="false"
     inkscape:zoom="0.72337261"
     inkscape:cx="46.310849"
     inkscape:cy="379.47248"
     inkscape:window-width="1920"
     inkscape:window-height="1001"
     inkscape:window-x="-9"
     inkscape:window-y="-9"
     inkscape:window-maximized="1"
     inkscape:current-layer="layer1"
     height="296mm"
     width="209mm"
     inkscape:showpageshadow="2"
     inkscape:deskcolor="#d1d1d1" />
  <defs
     id="defs2">
    <linearGradient
       inkscape:collect="always"
       id="linearGradient30040">
      <stop
         style="stop-color:#1c1f24;stop-opacity:1;"
         offset="0"
         id="stop30036" />
      <stop
         style="stop-color:#1c1f24;stop-opacity:0;"
         offset="1"
         id="stop30038" />
    </linearGradient>
    <linearGradient
       inkscape:collect="always"
       id="linearGradient29840">
      <stop
         style="stop-color:#535d6c;stop-opacity:1;"
         offset="0"
         id="stop29836" />
      <stop
         style="stop-color:#535d6c;stop-opacity:0;"
         offset="1"
         id="stop29838" />
    </linearGradient>
    <linearGradient
       inkscape:collect="always"
       id="linearGradient5194">
      <stop
         style="stop-color:#800000;stop-opacity:1;"
         offset="0"
         id="stop5190" />
      <stop
         style="stop-color:#800000;stop-opacity:0;"
         offset="1"
         id="stop5192" />
    </linearGradient>
    <linearGradient
       inkscape:collect="always"
       xlink:href="#linearGradient5194"
       id="linearGradient7905"
       gradientUnits="userSpaceOnUse"
       gradientTransform="matrix(0.73841257,0.14169097,-0.21338083,1.4006094,81.067085,-9.2918855)"
       x1="51.572659"
       y1="126.18843"
       x2="51.572659"
       y2="126.18843" />
    <linearGradient
       inkscape:collect="always"
       xlink:href="#linearGradient5194"
       id="linearGradient14432"
       gradientUnits="userSpaceOnUse"
       gradientTransform="matrix(1.0212644,-0.69985869,1.1058599,0.60661394,-123.73834,81.543198)"
       x1="51.572659"
       y1="126.18843"
       x2="51.572659"
       y2="126.18843" />
    <linearGradient
       inkscape:collect="always"
       xlink:href="#linearGradient5194"
       id="linearGradient27326"
       gradientUnits="userSpaceOnUse"
       gradientTransform="matrix(0.16920842,0.10335877,-0.04889656,1.0216973,122.14732,39.109825)"
       x1="51.572659"
       y1="126.18843"
       x2="51.572659"
       y2="126.18843" />
    <linearGradient
       inkscape:collect="always"
       xlink:href="#linearGradient29840"
       id="linearGradient29842"
       x1="-227.65132"
       y1="-227.23926"
       x2="-227.67598"
       y2="-223.42758"
       gradientUnits="userSpaceOnUse"
       gradientTransform="matrix(-0.99996326,0.00857199,0.36253726,-0.93196928,-17.311961,0.98137729)" />
    <linearGradient
       inkscape:collect="always"
       xlink:href="#linearGradient30040"
       id="linearGradient30042"
       x1="213.05557"
       y1="-59.214508"
       x2="213.22256"
       y2="-61.33345"
       gradientUnits="userSpaceOnUse"
       gradientTransform="matrix(0.99874781,0.00988158,-0.00988159,1.001156,-1.1459533,17.442051)" />
    <linearGradient
       inkscape:collect="always"
       xlink:href="#linearGradient5194"
       id="linearGradient27326-1"
       gradientUnits="userSpaceOnUse"
       gradientTransform="matrix(0.16920842,0.10335877,-0.04889656,1.0216973,122.14732,39.10983)"
       x1="51.572659"
       y1="126.18843"
       x2="51.572659"
       y2="126.18843" />
    <linearGradient
       inkscape:collect="always"
       xlink:href="#linearGradient29840"
       id="linearGradient29842-7"
       x1="-227.65132"
       y1="-227.23926"
       x2="-227.67598"
       y2="-223.42758"
       gradientUnits="userSpaceOnUse"
       gradientTransform="matrix(-0.99965016,-0.02644921,0.3949499,-0.91870266,-11.321384,-1.2655522)" />
    <linearGradient
       inkscape:collect="always"
       xlink:href="#linearGradient30040"
       id="linearGradient30042-2"
       x1="213.05557"
       y1="-59.214508"
       x2="213.22256"
       y2="-61.33345"
       gradientUnits="userSpaceOnUse"
       gradientTransform="matrix(0.99874781,0.00988158,-0.00988159,1.001156,-1.1459542,17.442051)" />
  </defs>
  <g
     inkscape:label="Calque 1"
     inkscape:groupmode="layer"
     id="layer1">
    <path
       id="rect10620-2"
       style="fill:#414477;fill-opacity:1;stroke-width:0.561253"
       d="m 37.781209,189.73934 88.472891,-0.90522 c 0.29045,-0.91242 11.38903,3.23188 10.15088,7.12153 l -89.197761,2.47082 z"
       sodipodi:nodetypes="ccccc"
       inkscape:export-filename="..\_bank\perso\gus\gus_down_4.png"
       inkscape:export-xdpi="5.9230065"
       inkscape:export-ydpi="5.9230065" />
    <g
       id="g796"
       transform="rotate(-2.5687125,22.563044,-253.11688)">
      <path
         id="path11385-7"
         style="fill:#45323f;fill-opacity:1;stroke-width:0.602877"
         d="m 156.11892,205.19862 c 7.26565,10.63331 -2.04294,10.0779 -59.985566,9.59985 -58.295815,-0.48096 -52.690695,0.0246 -52.471915,-11.66892 0.14861,-7.94282 13.2626,-6.74215 51.430691,-6.74215 38.16799,0 56.5222,2.21872 61.02679,8.81122 z"
         sodipodi:nodetypes="sssss"
         inkscape:export-filename="..\..\..\Gus veut boire un coup\Gus\gus_fight\gus_down_1.png"
         inkscape:export-xdpi="5.9230065"
         inkscape:export-ydpi="5.9230065" />
      <path
         id="rect20539-9-5-5"
         style="fill:url(#linearGradient29842-7);fill-opacity:1;stroke-width:0.184944"
         inkscape:transform-center-x="-4.2314379"
         inkscape:transform-center-y="-2.9143884"
         d="m 151.45591,210.11311 c -4.8062,0.64795 -17.75672,0.57196 -30.06863,0.55273 -0.0284,-4e-5 -0.005,-0.0465 -0.0332,-0.047 -16.53378,-0.31723 -80.688071,1.88391 1.37793,-3.64772 0.0281,-0.001 0.041,-0.0484 0.0694,-0.0489 10.02337,-0.19168 20.21022,-2.34215 30.06863,-0.55273 0.028,0.005 0.0103,0.0302 0.0332,0.0471 1.17864,0.8717 3.72472,1.45605 -1.37793,3.64773 -0.0261,0.0112 -0.0413,0.0452 -0.0694,0.0489 z"
         sodipodi:nodetypes="sssssssss"
         inkscape:export-filename="C:\Users\basti\OneDrive\Bureau\Gus veut boire un coup\Gus\gus_fight\gus_lr1.png"
         inkscape:export-xdpi="5.9230065"
         inkscape:export-ydpi="5.9230065" />
    </g>
    <path
       id="rect10620"
       style="fill:#0044aa;stroke-width:0.561253"
       d="m 32.276389,189.64575 h 96.749181 c 0.29045,-0.91242 -24.05181,12.90579 -25.28997,16.79544 L 44.816346,195.95565 Z"
       sodipodi:nodetypes="ccccc"
       inkscape:export-filename="C:\Users\basti\OneDrive\Bureau\Gus veut boire un coup\Gus\gus_fight\gus_lr1.png"
       inkscape:export-xdpi="5.9230065"
       inkscape:export-ydpi="5.9230065" />
    <ellipse
       style="fill:#a05a2c;fill-opacity:1;stroke-width:0.148273"
       id="path9819-9-5-6"
       cx="171.62189"
       cy="91.861763"
       rx="5.6022215"
       ry="5.1560364"
       inkscape:export-filename="C:\Users\basti\OneDrive\Bureau\Gus veut boire un coup\Gus\gus_fight\gus_lr1.png"
       inkscape:export-xdpi="5.9230065"
       inkscape:export-ydpi="5.9230065"
       transform="rotate(14.282578)" />
    <ellipse
       style="fill:#a05a2c;fill-opacity:1;stroke-width:0.381028"
       id="path9819-5-4"
       cx="145.11633"
       cy="145.53752"
       rx="13.358972"
       ry="14.278785"
       inkscape:export-filename="C:\Users\basti\OneDrive\Bureau\Gus veut boire un coup\Gus\gus_fight\gus_lr1.png"
       inkscape:export-xdpi="5.9230065"
       inkscape:export-ydpi="5.9230065" />
    <path
       id="rect8523-3"
       style="fill:#aa0000;fill-opacity:1;stroke-width:0.391005"
       d="m 31.303639,131.85053 c 42.543639,-2.41827 69.228671,-0.12564 106.585161,-0.0976 1.58157,5.93705 3.58198,15.71844 -0.29638,22.30208 l -111.390221,-1.3287 c -7.68935,-6.72574 4.64141,-14.15003 5.10144,-20.87578 z"
       sodipodi:nodetypes="ccccc"
       inkscape:export-filename="C:\Users\basti\OneDrive\Bureau\Gus veut boire un coup\Gus\gus_fight\gus_lr1.png"
       inkscape:export-xdpi="5.9230065"
       inkscape:export-ydpi="5.9230065" />
    <path
       id="rect8523"
       style="fill:#d40000;stroke-width:0.391005"
       d="m 29.395029,113.12992 c 42.54356,-8.9733 69.875187,7.21132 107.231741,7.31528 11.79761,24.42934 -6.49431,43.95957 -10.37267,68.38892 l -101.960511,1.75773 c -7.689353,-24.95663 4.64141,-52.5053 5.10144,-77.46193 z"
       sodipodi:nodetypes="ccccc"
       inkscape:export-filename="C:\Users\basti\OneDrive\Bureau\Gus veut boire un coup\Gus\gus_fight\gus_lr1.png"
       inkscape:export-xdpi="5.9230065"
       inkscape:export-ydpi="5.9230065" />
    <path
       id="rect10620-1"
       style="fill:#00446c;fill-opacity:0.998403;stroke-width:0.198579"
       d="m 35.265169,190.50491 90.988931,2.56257 -3.52834,1.45389 -82.837891,-2.33301 z"
       sodipodi:nodetypes="ccccc"
       inkscape:export-filename="C:\Users\basti\OneDrive\Bureau\Gus veut boire un coup\Gus\gus_fight\gus_lr1.png"
       inkscape:export-xdpi="5.9230065"
       inkscape:export-ydpi="5.9230065" />
    <ellipse
       style="fill:#c87137;stroke-width:0.381028"
       id="path9819-5"
       cx="131.75735"
       cy="149.92873"
       rx="13.358972"
       ry="14.278785"
       inkscape:export-filename="C:\Users\basti\OneDrive\Bureau\Gus veut boire un coup\Gus\gus_fight\gus_lr1.png"
       inkscape:export-xdpi="5.9230065"
       inkscape:export-ydpi="5.9230065" />
    <ellipse
       style="fill:#c87137;stroke-width:0.148273"
       id="path9819-9-5"
       cx="124.00219"
       cy="139.44559"
       rx="5.6022215"
       ry="5.1560364"
       inkscape:export-filename="C:\Users\basti\OneDrive\Bureau\Gus veut boire un coup\Gus\gus_fight\gus_lr1.png"
       inkscape:export-xdpi="5.9230065"
       inkscape:export-ydpi="5.9230065" />
    <rect
       style="fill:#217821;stroke-width:0.319807"
       id="rect20539-9"
       width="59.05151"
       height="5.6798477"
       x="266.48611"
       y="314.69479"
       ry="0.072818741"
       transform="matrix(-0.91180894,0.41061473,0.99998811,-0.00487665,0,0)"
       inkscape:transform-center-x="-9.9595237"
       inkscape:transform-center-y="-2.5546381"
       rx="0.072818741"
       inkscape:export-filename="C:\Users\basti\OneDrive\Bureau\Gus veut boire un coup\Gus\gus_fight\gus_lr1.png"
       inkscape:export-xdpi="5.9230065"
       inkscape:export-ydpi="5.9230065" />
    <rect
       style="fill:#217821;stroke-width:0.275565"
       id="rect20539-9-6"
       width="30.301662"
       height="3.9757664"
       x="-238.22896"
       y="-285.75339"
       ry="0.064277701"
       transform="matrix(-0.92932515,0.36926245,0.56397633,-0.82579096,0,0)"
       inkscape:transform-center-x="-4.6531162"
       inkscape:transform-center-y="-3.6741307"
       rx="0.069366395"
       inkscape:export-filename="C:\Users\basti\OneDrive\Bureau\Gus veut boire un coup\Gus\gus_fight\gus_lr1.png"
       inkscape:export-xdpi="5.9230065"
       inkscape:export-ydpi="5.9230065" />
    <path
       id="path31-6"
       style="fill:#d38d5f;fill-rule:evenodd;stroke-width:0.357437"
       d="M 91.273187,73.356907 C 84.523393,132.20112 47.429073,92.455667 87.146309,113.7727 124.81997,133.99293 156.93016,114.35897 159.48939,98.403973 168.78481,40.453746 145.64,14.230727 107.32837,9.2454563 69.016617,4.2601835 96.413788,28.541154 91.273187,73.356907 Z"
       sodipodi:nodetypes="sssss"
       inkscape:export-filename="C:\Users\basti\OneDrive\Bureau\Gus veut boire un coup\Gus\gus_fight\gus_lr1.png"
       inkscape:export-xdpi="5.9230065"
       inkscape:export-ydpi="5.9230065" />
    <path
       id="path32024"
       style="fill-opacity:0.998403;stroke-width:0.264583"
       d="m 134.98121,22.546084 c -5.15247,5.130032 -33.46758,2.350323 -32.57044,14.598594 7.19164,98.185792 -23.461032,-9.013702 -22.371324,-18.428216 1.02359,-8.8432205 15.420727,-14.2482583 31.877444,-12.1068519 16.45662,2.1414088 29.37289,9.6553709 23.06432,15.9364739 z"
       sodipodi:nodetypes="sssss"
       inkscape:export-filename="C:\Users\basti\OneDrive\Bureau\Gus veut boire un coup\Gus\gus_fight\gus_lr1.png"
       inkscape:export-xdpi="5.9230065"
       inkscape:export-ydpi="5.9230065" />
    <path
       id="path31"
       style="fill:#d40000;fill-rule:evenodd;stroke-width:0.398876"
       d="M 98.119014,69.070337 C 82.422583,126.18661 187.98571,152.33475 72.417952,118.31117 15.455743,101.54128 0.22859785,125.1725 0.51095818,60.768728 0.70878823,15.646213 58.459374,-8.76691 105.08446,3.1025608 151.70947,14.972019 110.07344,25.570586 98.119014,69.070337 Z"
       sodipodi:nodetypes="sssss"
       inkscape:export-filename="C:\Users\basti\OneDrive\Bureau\Gus veut boire un coup\Gus\gus_fight\gus_lr1.png"
       inkscape:export-xdpi="5.9230065"
       inkscape:export-ydpi="5.9230065" />
    <path
       id="path4257-0-5"
       style="fill:url(#linearGradient7905);fill-opacity:1;stroke-width:0.272979"
       d="m 71.390793,149.84558 c -1.97427,10.83947 62.858857,3.68901 55.004827,8.23818 -6.37866,3.69462 -61.587697,13.58846 -63.465447,-5.59174 -3.75338,-38.33898 17.34541,-51.42713 10.25795,-12.51444 z"
       sodipodi:nodetypes="sssss"
       inkscape:export-filename="C:\Users\basti\OneDrive\Bureau\Gus veut boire un coup\Gus\gus_fight\gus_lr1.png"
       inkscape:export-xdpi="5.9230065"
       inkscape:export-ydpi="5.9230065" />
    <path
       id="path4257-0-5-7"
       style="fill:url(#linearGradient27326);fill-opacity:1;stroke-width:0.111607"
       d="m 115.27272,138.06411 c 3.115,0.27358 2.42782,-0.59549 3.83442,1.2586 1.14238,1.5058 -5.51762,0.27879 -10.90519,0.34103 -10.769125,0.12444 -14.876001,-3.52737 -3.6934,-2.54512 z"
       sodipodi:nodetypes="sssss"
       inkscape:export-filename="C:\Users\basti\OneDrive\Bureau\Gus veut boire un coup\Gus\gus_fight\gus_lr1.png"
       inkscape:export-xdpi="5.9230065"
       inkscape:export-ydpi="5.9230065" />
    <path
       id="path4257-0-5-7-1"
       style="fill:url(#linearGradient27326-1);fill-opacity:1;stroke-width:0.111607"
       d="m 99.495463,136.24784 c -0.273577,3.115 0.595487,2.42782 -1.258601,3.83442 -1.505801,1.14238 -0.27879,-5.51762 -0.34103,-10.90517 -0.124437,-10.76908 3.527378,-14.87596 2.545118,-3.69338 z"
       sodipodi:nodetypes="sssss"
       inkscape:export-filename="C:\Users\basti\OneDrive\Bureau\Gus veut boire un coup\Gus\gus_fight\gus_lr1.png"
       inkscape:export-xdpi="5.9230065"
       inkscape:export-ydpi="5.9230065" />
    <path
       id="path4257-0"
       style="fill:url(#linearGradient14432);fill-opacity:1;stroke-width:0.312327"
       d="m 22.101629,81.886319 c 10.423254,21.406241 36.58219,29.242851 23.064461,35.374751 0,0 -27.899256,-1.24899 -39.0777972,-23.053985 -8.1632751,-15.92335 -1.941104,-30.431215 6.9161862,-40.490688 8.07297,-9.168671 2.589822,14.80583 9.09715,28.169922 z"
       sodipodi:nodetypes="sssss"
       inkscape:export-filename="C:\Users\basti\OneDrive\Bureau\Gus veut boire un coup\Gus\gus_fight\gus_lr1.png"
       inkscape:export-xdpi="5.9230065"
       inkscape:export-ydpi="5.9230065" />
    <g
       id="g673"
       transform="rotate(-0.56196292,-108.71281,-1764.5627)">
      <rect
         style="fill:url(#linearGradient30042-2);fill-opacity:1;stroke-width:0.45445"
         id="rect11065-9-7"
         width="8.7783976"
         height="3.2693968"
         x="208.1817"
         y="-50.642059"
         transform="matrix(1.1291329e-4,0.99999999,-0.99253434,0.12196553,0,0)"
         inkscape:export-filename="C:\Users\basti\OneDrive\Bureau\Gus veut boire un coup\Gus\gus_fight\gus_lr1.png"
         inkscape:export-xdpi="5.9230065"
         inkscape:export-ydpi="5.9230065" />
      <path
         id="path11385"
         style="fill:#373748;stroke-width:0.602877"
         d="m 123.95109,204.39616 c 6.42079,10.50655 -1.99233,10.0855 -54.403776,10.43741 -52.730747,0.35406 -47.667266,0.77835 -47.302056,-10.8932 0.248073,-7.92789 12.094548,-6.91741 46.623493,-7.46345 34.529029,-0.54604 51.101549,1.40534 55.082339,7.91924 z"
         sodipodi:nodetypes="sssss"
         inkscape:export-filename="C:\Users\basti\OneDrive\Bureau\Gus veut boire un coup\Gus\gus_fight\gus_lr1.png"
         inkscape:export-xdpi="5.9230065"
         inkscape:export-ydpi="5.9230065" />
      <path
         id="rect20539-9-5"
         style="fill:url(#linearGradient29842);fill-opacity:1;stroke-width:0.184944"
         inkscape:transform-center-x="-3.8043724"
         inkscape:transform-center-y="-2.5151528"
         d="m 122.92614,210.47915 c -4.31898,0.5933 -15.94407,0.61711 -26.996336,0.68556 -0.0255,1.6e-4 -0.0042,-0.0402 -0.02948,-0.0404 -14.840105,-0.15996 -72.446244,2.18604 1.262173,-3.16264 0.02523,-0.001 0.03714,-0.0421 0.06264,-0.0427 8.999303,-0.23495 18.158853,-2.16423 26.996333,-0.68557 0.0251,0.004 0.009,0.026 0.0295,0.0405 1.05203,0.74536 3.3336,1.23288 -1.26217,3.16265 -0.0235,0.01 -0.0374,0.0394 -0.0626,0.0428 z"
         sodipodi:nodetypes="sssssssss"
         inkscape:export-filename="C:\Users\basti\OneDrive\Bureau\Gus veut boire un coup\Gus\gus_fight\gus_lr1.png"
         inkscape:export-xdpi="5.9230065"
         inkscape:export-ydpi="5.9230065" />
      <rect
         style="fill:url(#linearGradient30042);fill-opacity:1;stroke-width:0.45445"
         id="rect11065-9"
         width="8.7783976"
         height="3.2693968"
         x="206.36232"
         y="-29.070518"
         transform="matrix(1.1291329e-4,0.99999999,-0.99253434,0.12196553,0,0)"
         inkscape:export-filename="C:\Users\basti\OneDrive\Bureau\Gus veut boire un coup\Gus\gus_fight\gus_lr1.png"
         inkscape:export-xdpi="5.9230065"
         inkscape:export-ydpi="5.9230065" />
    </g>
    <path
       id="rect17082"
       style="fill:#00aa00;stroke-width:0.147492"
       d="m 5.3193317,132.35288 c 7.6044013,-6.84068 14.7921363,-15.16584 28.2103673,-1.29317 3.13738,16.05268 2.64925,29.9841 -1.28594,41.8987 -8.47747,3.5037 -16.614704,4.42442 -24.5936475,0.51726 C 1.5626218,160.64445 3.2050319,146.53761 5.3193317,132.35288 Z"
       sodipodi:nodetypes="ccccc"
       inkscape:export-filename="C:\Users\basti\OneDrive\Bureau\Gus veut boire un coup\Gus\gus_fight\gus_lr1.png"
       inkscape:export-xdpi="5.9230065"
       inkscape:export-ydpi="5.9230065" />
    <rect
       style="fill:#00aa00;stroke-width:0.368834"
       id="rect17663"
       width="2.1983922"
       height="10.199855"
       x="21.344994"
       y="121.90825"
       ry="3.3260343"
       rx="3.3260343"
       inkscape:export-filename="C:\Users\basti\OneDrive\Bureau\Gus veut boire un coup\Gus\gus_fight\gus_lr1.png"
       inkscape:export-xdpi="5.9230065"
       inkscape:export-ydpi="5.9230065" />
    <path
       id="rect17811"
       style="fill:#0b280b;stroke-width:0.0561649"
       d="m 5.005982,141.12351 c 0.8510694,-6.92358 1.5939901,-7.21802 2.2143398,0 0.0372,0.43247 0.1952497,6.51056 0.1952497,7.4419 0,0.93134 -0.1593197,-3.59833 -0.1952497,-4.07966 -0.8276597,-11.08824 -1.5268801,-6.69019 -2.2143398,0 -0.0384,0.37403 -0.24882,5.19388 -0.24882,4.26254 0,-0.93134 0.20941,-7.30423 0.24882,-7.62478 z"
       sodipodi:nodetypes="sssssss"
       inkscape:export-filename="C:\Users\basti\OneDrive\Bureau\Gus veut boire un coup\Gus\gus_fight\gus_lr1.png"
       inkscape:export-xdpi="5.9230065"
       inkscape:export-ydpi="5.9230065" />
    <path
       id="rect17813"
       style="fill:#002b00;stroke-width:0.117925"
       d="m 3.5850219,158.67357 c 1.8407898,-0.15768 3.6815899,-1.6567 5.5223897,0 0.0508,0.0456 0.092,0.40243 0.092,0.90232 0,0.49989 -0.0413,0.95255 -0.092,0.90231 -1.8407998,-1.823 -3.6815999,-0.13787 -5.5223897,0 -0.051,0.004 -0.092,-0.40242 -0.092,-0.90231 0,-0.49989 0.0411,-0.89796 0.092,-0.90232 z"
       sodipodi:nodetypes="sssssss"
       inkscape:export-filename="C:\Users\basti\OneDrive\Bureau\Gus veut boire un coup\Gus\gus_fight\gus_lr1.png"
       inkscape:export-xdpi="5.9230065"
       inkscape:export-ydpi="5.9230065" />
    <path
       id="rect19198"
       style="fill:#217821;stroke-width:0.190509"
       d="m 17.863056,132.1358 -0.52362,33.33461 c -5.9e-4,0.0371 -0.10188,0.0324 -0.13037,0.0665 -0.51952,0.62118 1.894341,11.047 -2.118761,-0.009 -0.0132,-0.0364 -0.11183,-0.0314 -0.12826,-0.0676 -4.609873,-10.1427 -3.402023,-21.46348 0.52363,-33.33461 0.0121,-0.0366 0.11213,-0.0306 0.13036,-0.0665 3.700452,-7.2919 3.164812,-4.26325 2.118761,0.009 -0.009,0.0368 0.12884,0.0305 0.12826,0.0676 z"
       sodipodi:nodetypes="sssssssss"
       inkscape:export-filename="C:\Users\basti\OneDrive\Bureau\Gus veut boire un coup\Gus\gus_fight\gus_lr1.png"
       inkscape:export-xdpi="5.9230065"
       inkscape:export-ydpi="5.9230065" />
    <path
       id="rect19198-2"
       style="fill:#217821;stroke-width:0.176999"
       d="m 29.279159,133.39751 0.45199,33.33461 c 5e-4,0.0371 0.0879,0.0324 0.11253,0.0665 0.44845,0.62118 -1.89383,2.12413 1.82891,-0.009 0.0331,-0.019 2.03629,0.0979 2.05046,0.0617 3.97924,-10.1427 3.19526,-23.9205 -0.19335,-35.79163 0,0 -2.01341,-0.58884 -2.05228,-0.58377 -3.58218,0.46711 -2.9905,-1.41828 -2.08755,2.85397 0.007,0.0368 -0.11122,0.0305 -0.11071,0.0676 z"
       sodipodi:nodetypes="sssssssss"
       inkscape:export-filename="C:\Users\basti\OneDrive\Bureau\Gus veut boire un coup\Gus\gus_fight\gus_lr1.png"
       inkscape:export-xdpi="5.9230065"
       inkscape:export-ydpi="5.9230065" />
    <path
       id="rect1430"
       style="fill:#28170b;stroke-width:0.147509"
       d="m 147.06236,43.897305 7.54297,2.295634 4.24296,5.206759 c -6.02078,-2.937663 -11.83784,-6.137651 -20.54167,-5.620548 0.97942,-1.621345 7.82587,-0.791794 8.75574,-1.881845 z"
       sodipodi:nodetypes="ccccc"
       inkscape:transform-center-x="4.2893366"
       inkscape:transform-center-y="0.14009605"
       inkscape:export-filename="C:\Users\basti\OneDrive\Bureau\Gus veut boire un coup\Gus\gus_fight\gus_lr1.png"
       inkscape:export-xdpi="5.9230065"
       inkscape:export-ydpi="5.9230065" />
    <path
       id="path2169-5-4-0"
       style="fill:#ffccaa;stroke-width:0.456428"
       d="m 145.03047,61.285418 c -1.16414,3.042772 3.00562,6.147903 7.14931,6.6871 4.14371,0.539197 8.1884,-2.812239 8.289,-5.065193 0.1238,-2.772596 -2.45766,-6.366855 -6.7167,-7.01782 -4.13125,-0.631361 -7.34398,1.795054 -8.72161,5.395913 z"
       sodipodi:nodetypes="sssss"
       inkscape:export-filename="C:\Users\basti\OneDrive\Bureau\Gus veut boire un coup\Gus\gus_fight\gus_lr1.png"
       inkscape:export-xdpi="5.9230065"
       inkscape:export-ydpi="5.9230065" />
    <path
       id="path3219-1"
       style="fill:#241c1c;stroke-width:0.479567"
       d="m 160.14605,93.857468 c -0.0198,0.582549 0.3086,4.41646 -3.28656,4.29478 -3.59529,-0.121701 -4.95473,-2.874553 -4.935,-3.457904 0.0198,-0.582548 1.28998,-1.839502 4.88529,-1.717804 3.59533,0.121695 3.35601,0.298384 3.33627,0.880898 z"
       sodipodi:nodetypes="ssssss"
       inkscape:export-filename="C:\Users\basti\OneDrive\Bureau\Gus veut boire un coup\Gus\gus_fight\gus_lr1.png"
       inkscape:export-xdpi="5.9230065"
       inkscape:export-ydpi="5.9230065" />
    <ellipse
       style="fill:#28170b;stroke-width:0.285998"
       id="path2169"
       ry="3.7418122"
       rx="4.8368506"
       cy="43.600426"
       cx="162.10948"
       inkscape:export-filename="C:\Users\basti\OneDrive\Bureau\Gus veut boire un coup\Gus\gus_fight\gus_lr1.png"
       inkscape:export-xdpi="5.9230065"
       inkscape:export-ydpi="5.9230065"
       transform="rotate(7.4139207)" />
    <ellipse
       style="fill:#000000;fill-opacity:0.998403;stroke-width:0.433747"
       id="path31470"
       cx="169.50592"
       cy="58.133465"
       rx="0.24574739"
       ry="1.0972906"
       inkscape:export-filename="C:\Users\basti\OneDrive\Bureau\Gus veut boire un coup\Gus\gus_fight\gus_lr1.png"
       inkscape:export-xdpi="5.9230065"
       inkscape:export-ydpi="5.9230065"
       transform="rotate(7.4139207)" />
  </g>
</svg>
