<?xml version="1.0" encoding="UTF-8" standalone="no"?>
<!-- Created with Inkscape (http://www.inkscape.org/) -->

<svg
   width="194mm"
   height="215mm"
   viewBox="0 0 194 215"
   version="1.1"
   id="svg5"
   inkscape:version="1.2 (dc2aedaf03, 2022-05-15)"
   sodipodi:docname="gus_low.svg"
   inkscape:export-filename="C:\Users\basti\OneDrive\Bureau\Gus veut boire un coup\Gus\gus_fight\gus_punch_r1.png"
   inkscape:export-xdpi="5.9319429"
   inkscape:export-ydpi="5.9319429"
   xmlns:inkscape="http://www.inkscape.org/namespaces/inkscape"
   xmlns:sodipodi="http://sodipodi.sourceforge.net/DTD/sodipodi-0.dtd"
   xmlns:xlink="http://www.w3.org/1999/xlink"
   xmlns="http://www.w3.org/2000/svg"
   xmlns:svg="http://www.w3.org/2000/svg">
  <sodipodi:namedview
     id="namedview7"
     pagecolor="#ffffff"
     bordercolor="#666666"
     borderopacity="1.0"
     inkscape:pageshadow="2"
     inkscape:pageopacity="0.0"
     inkscape:pagecheckerboard="0"
     inkscape:document-units="mm"
     showgrid="false"
     inkscape:zoom="0.51150168"
     inkscape:cx="-22.48282"
     inkscape:cy="505.37468"
     inkscape:window-width="1920"
     inkscape:window-height="1001"
     inkscape:window-x="-9"
     inkscape:window-y="-9"
     inkscape:window-maximized="1"
     inkscape:current-layer="layer1"
     height="296mm"
     width="209mm"
     inkscape:showpageshadow="2"
     inkscape:deskcolor="#d1d1d1" />
  <defs
     id="defs2">
    <linearGradient
       inkscape:collect="always"
       id="linearGradient30040">
      <stop
         style="stop-color:#1c1f24;stop-opacity:1;"
         offset="0"
         id="stop30036" />
      <stop
         style="stop-color:#1c1f24;stop-opacity:0;"
         offset="1"
         id="stop30038" />
    </linearGradient>
    <linearGradient
       inkscape:collect="always"
       id="linearGradient29840">
      <stop
         style="stop-color:#535d6c;stop-opacity:1;"
         offset="0"
         id="stop29836" />
      <stop
         style="stop-color:#535d6c;stop-opacity:0;"
         offset="1"
         id="stop29838" />
    </linearGradient>
    <linearGradient
       inkscape:collect="always"
       id="linearGradient5194">
      <stop
         style="stop-color:#800000;stop-opacity:1;"
         offset="0"
         id="stop5190" />
      <stop
         style="stop-color:#800000;stop-opacity:0;"
         offset="1"
         id="stop5192" />
    </linearGradient>
    <linearGradient
       inkscape:collect="always"
       xlink:href="#linearGradient5194"
       id="linearGradient7905"
       gradientUnits="userSpaceOnUse"
       gradientTransform="matrix(0.73841257,0.14169097,-0.21338083,1.4006094,81.067085,-9.2918855)"
       x1="51.572659"
       y1="126.18843"
       x2="51.572659"
       y2="126.18843" />
    <linearGradient
       inkscape:collect="always"
       xlink:href="#linearGradient5194"
       id="linearGradient14432"
       gradientUnits="userSpaceOnUse"
       gradientTransform="matrix(1.0212644,-0.69985869,1.1058599,0.60661395,-123.73834,81.543194)"
       x1="51.572659"
       y1="126.18843"
       x2="51.572659"
       y2="126.18843" />
    <linearGradient
       inkscape:collect="always"
       xlink:href="#linearGradient5194"
       id="linearGradient27326"
       gradientUnits="userSpaceOnUse"
       gradientTransform="matrix(0.16920842,0.10335877,-0.04889656,1.0216973,122.14732,39.109825)"
       x1="51.572659"
       y1="126.18843"
       x2="51.572659"
       y2="126.18843" />
    <linearGradient
       inkscape:collect="always"
       xlink:href="#linearGradient29840"
       id="linearGradient29842"
       x1="-227.65132"
       y1="-227.23926"
       x2="-227.67598"
       y2="-223.42758"
       gradientUnits="userSpaceOnUse"
       gradientTransform="matrix(-0.99983109,0.01837916,0.35337912,-0.9354802,-44.578159,0.81163)" />
    <linearGradient
       inkscape:collect="always"
       xlink:href="#linearGradient30040"
       id="linearGradient30042"
       x1="213.05557"
       y1="-59.214508"
       x2="213.22256"
       y2="-61.33345"
       gradientUnits="userSpaceOnUse"
       gradientTransform="translate(-4.6661983,44.912934)" />
    <linearGradient
       inkscape:collect="always"
       xlink:href="#linearGradient5194"
       id="linearGradient27326-1"
       gradientUnits="userSpaceOnUse"
       gradientTransform="matrix(0.16920842,0.10335877,-0.04889656,1.0216973,122.14732,39.10983)"
       x1="51.572659"
       y1="126.18843"
       x2="51.572659"
       y2="126.18843" />
    <linearGradient
       inkscape:collect="always"
       xlink:href="#linearGradient29840"
       id="linearGradient29842-7"
       x1="-227.65132"
       y1="-227.23926"
       x2="-227.67598"
       y2="-223.42758"
       gradientUnits="userSpaceOnUse"
       gradientTransform="matrix(-0.99983109,0.01837916,0.35337912,-0.9354802,4.5633333e-6,0)" />
    <linearGradient
       inkscape:collect="always"
       xlink:href="#linearGradient30040"
       id="linearGradient30042-2"
       x1="213.05557"
       y1="-59.214508"
       x2="213.22256"
       y2="-61.33345"
       gradientUnits="userSpaceOnUse"
       gradientTransform="translate(-4.6662003,44.912934)" />
  </defs>
  <g
     inkscape:label="Calque 1"
     inkscape:groupmode="layer"
     id="layer1">
    <path
       id="path11385-7"
       style="fill:#45323f;fill-opacity:1;stroke-width:0.602877"
       d="m 156.11892,205.19862 c 7.26565,10.63331 -2.04294,10.0779 -59.985566,9.59985 -58.295815,-0.48096 -52.690695,0.0246 -52.471915,-11.66892 0.14861,-7.94282 13.2626,-6.74215 51.430691,-6.74215 38.16799,0 56.5222,2.21872 61.02679,8.81122 z"
       sodipodi:nodetypes="sssss"
       inkscape:export-filename="..\_bank\perso\gus\gus_low_4.png"
       inkscape:export-xdpi="5.9230065"
       inkscape:export-ydpi="5.9230065" />
    <path
       id="rect10620-2"
       style="fill:#414477;fill-opacity:1;stroke-width:0.561253"
       d="m 37.781209,189.73934 88.472891,-0.90522 c 0.29045,-0.91242 5.42455,5.97999 4.1864,9.86964 l -83.233281,-0.27729 z"
       sodipodi:nodetypes="ccccc"
       inkscape:export-filename="C:\Users\basti\OneDrive\Bureau\Gus veut boire un coup\Gus\gus_fight\gus_lr1.png"
       inkscape:export-xdpi="5.9230065"
       inkscape:export-ydpi="5.9230065" />
    <path
       id="rect20539-9-5-5"
       style="fill:url(#linearGradient29842-7);fill-opacity:1;stroke-width:0.184944"
       inkscape:transform-center-x="-4.2314379"
       inkscape:transform-center-y="-2.9143884"
       d="m 151.45591,210.11311 c -4.8062,0.64795 -17.75672,0.57196 -30.06863,0.55273 -0.0284,-4e-5 -0.005,-0.0465 -0.0332,-0.047 -16.53378,-0.31723 -80.688071,1.88391 1.37793,-3.64772 0.0281,-0.001 0.041,-0.0484 0.0694,-0.0489 10.02337,-0.19168 20.21022,-2.34215 30.06863,-0.55273 0.028,0.005 0.0103,0.0302 0.0332,0.0471 1.17864,0.8717 3.72472,1.45605 -1.37793,3.64773 -0.0261,0.0112 -0.0413,0.0452 -0.0694,0.0489 z"
       sodipodi:nodetypes="sssssssss"
       inkscape:export-filename="C:\Users\basti\OneDrive\Bureau\Gus veut boire un coup\Gus\gus_fight\gus_lr1.png"
       inkscape:export-xdpi="5.9230065"
       inkscape:export-ydpi="5.9230065" />
    <path
       id="rect10620"
       style="fill:#0044aa;stroke-width:0.561253"
       d="m 24.293589,190.59185 c 25.245407,-12.34777 43.730761,-30.84663 111.055851,-4.90541 0.29045,-0.91242 -7.85718,11.61739 -9.09534,15.50704 l -48.10539,-2.48972 z"
       sodipodi:nodetypes="ccccc"
       inkscape:export-filename="C:\Users\basti\OneDrive\Bureau\Gus veut boire un coup\Gus\gus_fight\gus_lr1.png"
       inkscape:export-xdpi="5.9230065"
       inkscape:export-ydpi="5.9230065" />
    <path
       id="rect8523-3"
       style="fill:#aa0000;fill-opacity:1;stroke-width:0.391005"
       d="m 54.347334,133.02136 c 37.535745,-2.41827 61.079626,-0.12564 94.038816,-0.0976 1.3954,5.93705 3.16033,15.71844 -0.2615,22.30208 l -98.278255,-1.3287 c -6.784222,-6.72574 4.09506,-14.15003 4.500939,-20.87578 z"
       sodipodi:nodetypes="ccccc"
       inkscape:export-filename="C:\Users\basti\OneDrive\Bureau\Gus veut boire un coup\Gus\gus_fight\gus_lr1.png"
       inkscape:export-xdpi="5.9230065"
       inkscape:export-ydpi="5.9230065" />
    <ellipse
       style="fill:#a05a2c;fill-opacity:1;stroke-width:0.381028"
       id="path9819-5-4"
       cx="151.66748"
       cy="148.47696"
       rx="13.358972"
       ry="14.278785"
       inkscape:export-filename="C:\Users\basti\OneDrive\Bureau\Gus veut boire un coup\Gus\gus_fight\gus_lr1.png"
       inkscape:export-xdpi="5.9230065"
       inkscape:export-ydpi="5.9230065" />
    <ellipse
       style="fill:#a05a2c;fill-opacity:1;stroke-width:0.148273"
       id="path9819-9-5-6"
       cx="163.63872"
       cy="114.69079"
       rx="5.6022215"
       ry="5.1560364"
       inkscape:export-filename="C:\Users\basti\OneDrive\Bureau\Gus veut boire un coup\Gus\gus_fight\gus_lr1.png"
       inkscape:export-xdpi="5.9230065"
       inkscape:export-ydpi="5.9230065"
       transform="rotate(7.1622165)" />
    <path
       id="rect8523"
       style="fill:#d40000;stroke-width:0.391005"
       d="m 29.395029,113.12992 c 42.54356,-8.9733 69.875187,7.21132 107.231741,7.31528 11.79761,24.42934 2.60103,40.81189 -1.27733,65.24124 -37.635392,-8.23597 -73.420457,-5.65259 -111.055851,4.90541 -7.689353,-24.95663 4.64141,-52.5053 5.10144,-77.46193 z"
       sodipodi:nodetypes="ccccc"
       inkscape:export-filename="C:\Users\basti\OneDrive\Bureau\Gus veut boire un coup\Gus\gus_fight\gus_lr1.png"
       inkscape:export-xdpi="5.9230065"
       inkscape:export-ydpi="5.9230065" />
    <ellipse
       style="fill:#c87137;stroke-width:0.381028"
       id="path9819-5"
       cx="131.75735"
       cy="150.94057"
       rx="13.358972"
       ry="14.278785"
       inkscape:export-filename="C:\Users\basti\OneDrive\Bureau\Gus veut boire un coup\Gus\gus_fight\gus_lr1.png"
       inkscape:export-xdpi="5.9230065"
       inkscape:export-ydpi="5.9230065" />
    <ellipse
       style="fill:#c87137;stroke-width:0.148273"
       id="path9819-9-5"
       cx="124.00219"
       cy="141.56223"
       rx="5.6022215"
       ry="5.1560364"
       inkscape:export-filename="C:\Users\basti\OneDrive\Bureau\Gus veut boire un coup\Gus\gus_fight\gus_lr1.png"
       inkscape:export-xdpi="5.9230065"
       inkscape:export-ydpi="5.9230065" />
    <rect
       style="fill:#217821;stroke-width:0.319807"
       id="rect20539-9"
       width="59.05151"
       height="5.6798477"
       x="266.48611"
       y="314.69479"
       ry="0.072818741"
       transform="matrix(-0.91180894,0.41061473,0.99998811,-0.00487665,0,0)"
       inkscape:transform-center-x="-9.9595237"
       inkscape:transform-center-y="-2.5546381"
       rx="0.072818741"
       inkscape:export-filename="C:\Users\basti\OneDrive\Bureau\Gus veut boire un coup\Gus\gus_fight\gus_lr1.png"
       inkscape:export-xdpi="5.9230065"
       inkscape:export-ydpi="5.9230065" />
    <rect
       style="fill:#217821;stroke-width:0.275565"
       id="rect20539-9-6"
       width="30.301662"
       height="3.9757664"
       x="-238.22896"
       y="-285.75339"
       ry="0.064277701"
       transform="matrix(-0.92932515,0.36926245,0.56397633,-0.82579096,0,0)"
       inkscape:transform-center-x="-4.6531162"
       inkscape:transform-center-y="-3.6741307"
       rx="0.069366395"
       inkscape:export-filename="C:\Users\basti\OneDrive\Bureau\Gus veut boire un coup\Gus\gus_fight\gus_lr1.png"
       inkscape:export-xdpi="5.9230065"
       inkscape:export-ydpi="5.9230065" />
    <path
       id="path31-6"
       style="fill:#d38d5f;fill-rule:evenodd;stroke-width:0.357437"
       d="M 91.839768,73.517277 C 85.348544,132.39057 48.079979,92.808461 87.890479,113.95081 125.6526,134.00534 157.67623,114.23052 160.16535,98.264432 169.2061,40.273922 145.94631,14.152833 107.61316,9.3359136 69.279869,4.5189944 96.783451,28.679373 91.839768,73.517277 Z"
       sodipodi:nodetypes="sssss"
       inkscape:export-filename="C:\Users\basti\OneDrive\Bureau\Gus veut boire un coup\Gus\gus_fight\gus_lr1.png"
       inkscape:export-xdpi="5.9230065"
       inkscape:export-ydpi="5.9230065" />
    <path
       id="path32024"
       style="fill-opacity:0.998403;stroke-width:0.264583"
       d="m 135.32415,22.514933 c -5.12988,5.152618 -33.45692,2.497325 -32.50599,14.741537 7.62291,98.15325 -23.500401,-8.91055 -22.452061,-18.32976 0.98473,-8.847632 15.357988,-14.3158654 31.823941,-12.2467729 16.46588,2.0690928 29.41503,9.5262409 23.13411,15.8349959 z"
       sodipodi:nodetypes="sssss"
       inkscape:export-filename="C:\Users\basti\OneDrive\Bureau\Gus veut boire un coup\Gus\gus_fight\gus_lr1.png"
       inkscape:export-xdpi="5.9230065"
       inkscape:export-ydpi="5.9230065" />
    <path
       id="path31"
       style="fill:#d40000;fill-rule:evenodd;stroke-width:0.398876"
       d="M 98.535569,67.170189 C 90.039987,125.79162 198.03018,138.65312 79.136319,119.21703 20.534708,109.63717 8.3541822,134.97361 0.65125243,71.031522 -4.7455645,26.232472 49.533539,-5.1507981 97.270318,0.84776383 145.00702,6.8463228 105.00583,22.52411 98.535569,67.170189 Z"
       sodipodi:nodetypes="sssss"
       inkscape:export-filename="C:\Users\basti\OneDrive\Bureau\Gus veut boire un coup\Gus\gus_fight\gus_lr1.png"
       inkscape:export-xdpi="5.9230065"
       inkscape:export-ydpi="5.9230065" />
    <path
       id="path4257-0-5"
       style="fill:url(#linearGradient7905);fill-opacity:1;stroke-width:0.272979"
       d="m 69.927739,158.67732 c -1.97427,10.83947 62.858861,3.68901 55.004831,8.23818 -6.37866,3.69462 -61.587701,13.58846 -63.465451,-5.59174 -3.75338,-38.33898 17.34541,-51.42712 10.25795,-12.51444 z"
       sodipodi:nodetypes="sssss"
       inkscape:export-filename="C:\Users\basti\OneDrive\Bureau\Gus veut boire un coup\Gus\gus_fight\gus_lr1.png"
       inkscape:export-xdpi="5.9230065"
       inkscape:export-ydpi="5.9230065" />
    <path
       id="path4257-0-5-7"
       style="fill:url(#linearGradient27326);fill-opacity:1;stroke-width:0.111607"
       d="m 115.27272,140.18079 c 3.115,0.27358 2.42782,-0.59549 3.83442,1.2586 1.14238,1.5058 -5.51762,0.27879 -10.90519,0.34103 -10.769125,0.12444 -14.876001,-3.52737 -3.6934,-2.54512 z"
       sodipodi:nodetypes="sssss"
       inkscape:export-filename="C:\Users\basti\OneDrive\Bureau\Gus veut boire un coup\Gus\gus_fight\gus_lr1.png"
       inkscape:export-xdpi="5.9230065"
       inkscape:export-ydpi="5.9230065" />
    <path
       id="path4257-0-5-7-1"
       style="fill:url(#linearGradient27326-1);fill-opacity:1;stroke-width:0.111607"
       d="m 99.495463,138.36452 c -0.273577,3.115 0.595487,2.42782 -1.258601,3.83442 -1.505801,1.14238 -0.27879,-5.51762 -0.34103,-10.90517 -0.124437,-10.76908 3.527378,-14.87596 2.545118,-3.69338 z"
       sodipodi:nodetypes="sssss"
       inkscape:export-filename="C:\Users\basti\OneDrive\Bureau\Gus veut boire un coup\Gus\gus_fight\gus_lr1.png"
       inkscape:export-xdpi="5.9230065"
       inkscape:export-ydpi="5.9230065" />
    <path
       id="path4257-0"
       style="fill:url(#linearGradient14432);fill-opacity:1;stroke-width:0.312327"
       d="m 22.706349,82.350481 c 10.51719,21.360239 36.7103,29.081849 23.21964,35.273079 0,0 -27.904473,-1.12641 -39.1786969,-22.882086 C -1.4858562,78.85414 4.6725213,64.319081 13.485534,54.220795 c 8.032614,-9.204049 2.654841,14.794309 9.220815,28.129686 z"
       sodipodi:nodetypes="sssss"
       inkscape:export-filename="C:\Users\basti\OneDrive\Bureau\Gus veut boire un coup\Gus\gus_fight\gus_lr1.png"
       inkscape:export-xdpi="5.9230065"
       inkscape:export-ydpi="5.9230065" />
    <g
       id="g2265"
       transform="translate(44.578163,-0.81163)">
      <rect
         style="fill:url(#linearGradient30042-2);fill-opacity:1;stroke-width:0.45445"
         id="rect11065-9-7"
         width="8.7783976"
         height="3.2693968"
         x="208.1817"
         y="-50.642059"
         transform="matrix(1.1291329e-4,0.99999999,-0.99253434,0.12196553,0,0)"
         inkscape:export-filename="C:\Users\basti\OneDrive\Bureau\Gus veut boire un coup\Gus\gus_fight\gus_lr1.png"
         inkscape:export-xdpi="5.9230065"
         inkscape:export-ydpi="5.9230065" />
      <g
         id="g2258">
        <path
           id="path11385"
           style="fill:#373748;stroke-width:0.602877"
           d="m 134.70812,206.01025 c 7.26564,10.63331 -2.04294,10.0779 -59.985661,9.59985 -58.295723,-0.48096 -52.6906,0.0246 -52.47182,-11.66892 0.14861,-7.94282 13.26259,-6.74215 51.43059,-6.74215 38.168091,0 56.522301,2.21872 61.026891,8.81122 z"
           sodipodi:nodetypes="sssss"
           inkscape:export-filename="C:\Users\basti\OneDrive\Bureau\Gus veut boire un coup\Gus\gus_fight\gus_lr1.png"
           inkscape:export-xdpi="5.9230065"
           inkscape:export-ydpi="5.9230065" />
      </g>
      <path
         id="rect20539-9-5"
         style="fill:url(#linearGradient29842);fill-opacity:1;stroke-width:0.184944"
         inkscape:transform-center-x="-4.231437"
         inkscape:transform-center-y="-2.9143884"
         d="m 130.04511,210.92474 c -4.8062,0.64795 -17.75672,0.57196 -30.068697,0.55273 -0.0284,-4e-5 -0.005,-0.0465 -0.0332,-0.047 -16.533787,-0.31723 -80.688016,1.88391 1.377937,-3.64772 0.0281,-0.001 0.041,-0.0484 0.0694,-0.0489 10.02343,-0.19168 20.21028,-2.34215 30.06869,-0.55273 0.028,0.005 0.0103,0.0302 0.0332,0.0471 1.17864,0.8717 3.72472,1.45605 -1.37793,3.64773 -0.0261,0.0112 -0.0413,0.0452 -0.0694,0.0489 z"
         sodipodi:nodetypes="sssssssss"
         inkscape:export-filename="C:\Users\basti\OneDrive\Bureau\Gus veut boire un coup\Gus\gus_fight\gus_lr1.png"
         inkscape:export-xdpi="5.9230065"
         inkscape:export-ydpi="5.9230065" />
      <rect
         style="fill:url(#linearGradient30042);fill-opacity:1;stroke-width:0.45445"
         id="rect11065-9"
         width="8.7783976"
         height="3.2693968"
         x="206.36232"
         y="-29.070518"
         transform="matrix(1.1291329e-4,0.99999999,-0.99253434,0.12196553,0,0)"
         inkscape:export-filename="C:\Users\basti\OneDrive\Bureau\Gus veut boire un coup\Gus\gus_fight\gus_lr1.png"
         inkscape:export-xdpi="5.9230065"
         inkscape:export-ydpi="5.9230065" />
    </g>
    <path
       id="rect17082"
       style="fill:#00aa00;stroke-width:0.147492"
       d="m 5.3193317,132.35288 c 7.6044013,-6.84068 14.7921363,-15.16584 28.2103673,-1.29317 3.13738,16.05268 2.64925,29.9841 -1.28594,41.8987 -8.47747,3.5037 -16.614704,4.42442 -24.5936475,0.51726 C 1.5626218,160.64445 3.2050319,146.53761 5.3193317,132.35288 Z"
       sodipodi:nodetypes="ccccc"
       inkscape:export-filename="C:\Users\basti\OneDrive\Bureau\Gus veut boire un coup\Gus\gus_fight\gus_lr1.png"
       inkscape:export-xdpi="5.9230065"
       inkscape:export-ydpi="5.9230065" />
    <rect
       style="fill:#00aa00;stroke-width:0.368834"
       id="rect17663"
       width="2.1983922"
       height="10.199855"
       x="21.344994"
       y="121.90825"
       ry="3.3260343"
       rx="3.3260343"
       inkscape:export-filename="C:\Users\basti\OneDrive\Bureau\Gus veut boire un coup\Gus\gus_fight\gus_lr1.png"
       inkscape:export-xdpi="5.9230065"
       inkscape:export-ydpi="5.9230065" />
    <path
       id="rect17811"
       style="fill:#0b280b;stroke-width:0.0561649"
       d="m 5.005982,141.12351 c 0.8510694,-6.92358 1.5939901,-7.21802 2.2143398,0 0.0372,0.43247 0.1952497,6.51056 0.1952497,7.4419 0,0.93134 -0.1593197,-3.59833 -0.1952497,-4.07966 -0.8276597,-11.08824 -1.5268801,-6.69019 -2.2143398,0 -0.0384,0.37403 -0.24882,5.19388 -0.24882,4.26254 0,-0.93134 0.20941,-7.30423 0.24882,-7.62478 z"
       sodipodi:nodetypes="sssssss"
       inkscape:export-filename="C:\Users\basti\OneDrive\Bureau\Gus veut boire un coup\Gus\gus_fight\gus_lr1.png"
       inkscape:export-xdpi="5.9230065"
       inkscape:export-ydpi="5.9230065" />
    <path
       id="rect17813"
       style="fill:#002b00;stroke-width:0.117925"
       d="m 3.5850219,158.67357 c 1.8407898,-0.15768 3.6815899,-1.6567 5.5223897,0 0.0508,0.0456 0.092,0.40243 0.092,0.90232 0,0.49989 -0.0413,0.95255 -0.092,0.90231 -1.8407998,-1.823 -3.6815999,-0.13787 -5.5223897,0 -0.051,0.004 -0.092,-0.40242 -0.092,-0.90231 0,-0.49989 0.0411,-0.89796 0.092,-0.90232 z"
       sodipodi:nodetypes="sssssss"
       inkscape:export-filename="C:\Users\basti\OneDrive\Bureau\Gus veut boire un coup\Gus\gus_fight\gus_lr1.png"
       inkscape:export-xdpi="5.9230065"
       inkscape:export-ydpi="5.9230065" />
    <path
       id="rect19198"
       style="fill:#217821;stroke-width:0.190509"
       d="m 17.863056,132.1358 -0.52362,33.33461 c -5.9e-4,0.0371 -0.10188,0.0324 -0.13037,0.0665 -0.51952,0.62118 1.894341,11.047 -2.118761,-0.009 -0.0132,-0.0364 -0.11183,-0.0314 -0.12826,-0.0676 -4.609873,-10.1427 -3.402023,-21.46348 0.52363,-33.33461 0.0121,-0.0366 0.11213,-0.0306 0.13036,-0.0665 3.700452,-7.2919 3.164812,-4.26325 2.118761,0.009 -0.009,0.0368 0.12884,0.0305 0.12826,0.0676 z"
       sodipodi:nodetypes="sssssssss"
       inkscape:export-filename="C:\Users\basti\OneDrive\Bureau\Gus veut boire un coup\Gus\gus_fight\gus_lr1.png"
       inkscape:export-xdpi="5.9230065"
       inkscape:export-ydpi="5.9230065" />
    <path
       id="rect19198-2"
       style="fill:#217821;stroke-width:0.176999"
       d="m 29.279159,133.39751 0.45199,33.33461 c 5e-4,0.0371 0.0879,0.0324 0.11253,0.0665 0.44845,0.62118 -1.89383,2.12413 1.82891,-0.009 0.0331,-0.019 2.03629,0.0979 2.05046,0.0617 3.97924,-10.1427 3.19526,-23.9205 -0.19335,-35.79163 0,0 -2.01341,-0.58884 -2.05228,-0.58377 -3.58218,0.46711 -2.9905,-1.41828 -2.08755,2.85397 0.007,0.0368 -0.11122,0.0305 -0.11071,0.0676 z"
       sodipodi:nodetypes="sssssssss"
       inkscape:export-filename="C:\Users\basti\OneDrive\Bureau\Gus veut boire un coup\Gus\gus_fight\gus_lr1.png"
       inkscape:export-xdpi="5.9230065"
       inkscape:export-ydpi="5.9230065" />
    <path
       id="rect1430"
       style="fill:#28170b;stroke-width:0.147509"
       d="m 145.30612,49.158928 7.88372,0.115055 5.51986,3.826776 c -6.59912,-1.153827 -13.0752,-2.616167 -21.29472,0.29307 0.49167,-1.829286 7.29982,-2.929827 7.89114,-4.234901 z"
       sodipodi:nodetypes="ccccc"
       inkscape:transform-center-x="3.821671"
       inkscape:transform-center-y="0.25660239"
       inkscape:export-filename="C:\Users\basti\OneDrive\Bureau\Gus veut boire un coup\Gus\gus_fight\gus_lr1.png"
       inkscape:export-xdpi="5.9230065"
       inkscape:export-ydpi="5.9230065" />
    <path
       id="path2169-5-4-0"
       style="fill:#ffccaa;stroke-width:0.456428"
       d="m 145.5435,61.209747 c -1.15076,3.047856 3.0326,6.13464 7.17863,6.655627 4.14603,0.520989 8.17596,-2.848183 8.26666,-5.101558 0.11162,-2.773112 -2.4856,-6.355997 -6.74746,-6.988245 -4.13399,-0.613205 -7.33603,1.8273 -8.69783,5.434176 z"
       sodipodi:nodetypes="sssss"
       inkscape:export-filename="C:\Users\basti\OneDrive\Bureau\Gus veut boire un coup\Gus\gus_fight\gus_lr1.png"
       inkscape:export-xdpi="5.9230065"
       inkscape:export-ydpi="5.9230065" />
    <path
       id="path3219-1"
       style="fill:#241c1c;stroke-width:0.479567"
       d="m 160.80203,93.715085 c -0.0172,0.582624 -0.21043,0.47373 -3.80608,0.367834 -3.59579,-0.105901 -4.42889,1.088579 -4.41173,0.505182 0.0172,-0.582634 1.28189,-1.845161 4.8777,-1.73926 3.59583,0.105902 3.35729,0.283636 3.34011,0.866244 z"
       sodipodi:nodetypes="sssss"
       inkscape:export-filename="C:\Users\basti\OneDrive\Bureau\Gus veut boire un coup\Gus\gus_fight\gus_lr1.png"
       inkscape:export-xdpi="5.9230065"
       inkscape:export-ydpi="5.9230065" />
    <ellipse
       style="fill:#28170b;stroke-width:0.285998"
       id="path2169"
       ry="3.7418122"
       rx="4.8368506"
       cy="44.186245"
       cx="162.9511"
       inkscape:export-filename="C:\Users\basti\OneDrive\Bureau\Gus veut boire un coup\Gus\gus_fight\gus_lr1.png"
       inkscape:export-xdpi="5.9230065"
       inkscape:export-ydpi="5.9230065"
       transform="rotate(7.1622165)" />
    <ellipse
       style="fill:#000000;fill-opacity:0.998403;stroke-width:0.433747"
       id="path31470"
       cx="169.81927"
       cy="58.660553"
       rx="0.24574739"
       ry="1.0972906"
       inkscape:export-filename="C:\Users\basti\OneDrive\Bureau\Gus veut boire un coup\Gus\gus_fight\gus_lr1.png"
       inkscape:export-xdpi="5.9230065"
       inkscape:export-ydpi="5.9230065"
       transform="rotate(7.1622165)" />
  </g>
</svg>
