<?xml version="1.0" encoding="UTF-8" standalone="no"?>
<!-- Created with Inkscape (http://www.inkscape.org/) -->

<svg
   width="210mm"
   height="297mm"
   viewBox="0 0 210 297"
   version="1.1"
   id="svg5"
   inkscape:version="1.2 (dc2aedaf03, 2022-05-15)"
   sodipodi:docname="icone.svg"
   xmlns:inkscape="http://www.inkscape.org/namespaces/inkscape"
   xmlns:sodipodi="http://sodipodi.sourceforge.net/DTD/sodipodi-0.dtd"
   xmlns="http://www.w3.org/2000/svg"
   xmlns:svg="http://www.w3.org/2000/svg">
  <sodipodi:namedview
     id="namedview7"
     pagecolor="#ffffff"
     bordercolor="#666666"
     borderopacity="1.0"
     inkscape:showpageshadow="2"
     inkscape:pageopacity="0.0"
     inkscape:pagecheckerboard="0"
     inkscape:deskcolor="#d1d1d1"
     inkscape:document-units="mm"
     showgrid="false"
     inkscape:zoom="0.26142019"
     inkscape:cx="-518.32263"
     inkscape:cy="338.53544"
     inkscape:window-width="1920"
     inkscape:window-height="991"
     inkscape:window-x="-9"
     inkscape:window-y="-9"
     inkscape:window-maximized="1"
     inkscape:current-layer="layer1" />
  <defs
     id="defs2" />
  <g
     inkscape:label="Calque 1"
     inkscape:groupmode="layer"
     id="layer1">
    <ellipse
       style="opacity:0.99;fill:#c93737;fill-opacity:0.992157;stroke-width:0.2;stop-color:#000000"
       id="path757"
       cx="-193.70798"
       cy="61.565269"
       rx="30.616022"
       ry="33.857086"
       transform="rotate(-5.0389424)"
       inkscape:export-filename="..\_bank\image\icon.png"
       inkscape:export-xdpi="96"
       inkscape:export-ydpi="96" />
    <path
       id="path757-4"
       style="opacity:0.99;fill:#902727;fill-opacity:0.490029;stroke-width:0.2;stop-color:#000000"
       d="m -148.33845,84.405907 c 1.64236,18.626493 -19.39625,26.176433 -36.23967,27.661583 -16.84341,1.48514 -19.13154,-7.44447 -8.27749,-22.670533 17.89435,-25.1022 11.65048,-17.22235 16.00763,-27.01678 8.23925,-18.52103 26.86717,3.39924 28.50953,22.02573 z"
       sodipodi:nodetypes="sssss" />
    <rect
       style="opacity:0.99;fill:#000000;stroke-width:0.2;stop-color:#000000"
       id="rect575-4"
       width="47.568691"
       height="100.89695"
       x="-240.11568"
       y="-42.884174"
       transform="rotate(-41.352306)" />
    <ellipse
       style="opacity:0.99;fill:#c83737;stroke-width:0.2;stop-color:#000000"
       id="path629"
       cx="-126.50748"
       cy="7.5642972"
       rx="92.354111"
       ry="86.787552"
       transform="rotate(-41.352306)" />
    <path
       id="path629-2"
       style="opacity:0.99;fill:#912727;fill-opacity:0.253561;stroke-width:0.2;stop-color:#000000"
       d="m -3.3627399,58.468189 c 9.23086,43.549531 9.14305,61.486371 -28.8210901,95.549741 -40.37937,36.23045 -94.332,31.25663 -126.66608,-4.13087 -14.71848,-16.1084 83.27187,33.56008 121.55992,-0.13877 C 0.99807009,116.04943 -6.7663199,42.410735 -3.3627399,58.468189 Z"
       sodipodi:nodetypes="sssss" />
    <rect
       style="opacity:0.99;fill:#000074;fill-opacity:1;stroke-width:0.200011;stop-color:#000000"
       id="rect184-9"
       width="162.85916"
       height="25.288471"
       x="-227.99477"
       y="-26.209694"
       ry="3.5419583"
       rx="3.5419848"
       transform="matrix(0.94317613,-0.33229321,0.34602745,0.93822439,0,0)" />
    <path
       id="rect396-3"
       style="opacity:0.99;fill:#000074;fill-opacity:1;stroke-width:0.200001;stop-color:#000000"
       d="m -152.20988,44.578436 15.83852,-7.930869 c 3.0711,-1.537803 6.78482,-0.34653 8.38355,2.642271 l 70.481481,131.762812 c 0.88351,1.65158 4.33801,7.69071 5.56303,13.57797 1.33189,6.40073 0.40013,12.65595 0.36781,13.78518 -2.66285,93.023 -100.350351,40.23134 -140.243231,-36.38937 -1.56497,-3.00579 26.5668,-16.04136 27.82281,-12.9001 17.18735,42.98485 76.582691,94.89023 83.174411,54.35883 0.82898,-4.66891 2.58027,-7.80713 -0.0158,-18.16175 L -154.91262,52.772313 c -1.65406,-2.959895 -0.36766,-6.656074 2.70342,-8.193877 z"
       sodipodi:nodetypes="ssssssssccsss" />
    <rect
       style="opacity:0.99;fill:#0000ff;stroke-width:0.200011;stop-color:#000000"
       id="rect184"
       width="162.85916"
       height="25.288471"
       x="-234.94688"
       y="-31.488188"
       ry="3.5419583"
       rx="3.5419848"
       transform="matrix(0.94317613,-0.33229321,0.34602745,0.93822439,0,0)" />
    <path
       id="rect396"
       style="opacity:0.99;fill:#0000ff;stroke-width:0.200001;stop-color:#000000"
       d="m -160.59343,41.936165 15.83852,-7.930869 c 3.0711,-1.537803 6.78482,-0.34653 8.38355,2.642271 l 70.481501,131.762803 c 0.88351,1.65159 4.33801,7.69072 5.56303,13.57798 1.33189,6.40073 0.40013,12.65595 0.36781,13.78518 -2.66285,93.023 -100.350391,40.23134 -140.243251,-36.38937 -1.56497,-3.00579 26.56678,-16.04136 27.82281,-12.9001 17.18735,42.98484 76.582691,94.89023 83.174411,54.35883 0.82898,-4.66892 2.58027,-7.80713 -0.0158,-18.16175 L -163.29617,50.130042 c -1.65407,-2.959895 -0.36766,-6.656074 2.70342,-8.193877 z"
       sodipodi:nodetypes="ssssssssccsss" />
    <rect
       style="opacity:0.99;fill:#c83737;stroke-width:0.2;stop-color:#000000"
       id="rect575"
       width="47.568691"
       height="112.84913"
       x="-281.10574"
       y="-48.860264"
       transform="rotate(-41.352306)" />
    <ellipse
       style="opacity:0.99;fill:#000000;fill-opacity:0.992157;stroke-width:0.2;stop-color:#000000"
       id="path1161"
       cx="-281.10574"
       cy="7.5642972"
       rx="10.203762"
       ry="56.424568"
       transform="rotate(-41.352306)" />
    <ellipse
       style="opacity:0.99;fill:#c83737;fill-opacity:0.992157;stroke-width:0.2;stop-color:#000000"
       id="path1161-5"
       cx="-233.53703"
       cy="7.5642972"
       rx="10.203762"
       ry="56.424568"
       transform="rotate(-41.352306)" />
    <path
       id="rect2494"
       style="opacity:0.99;fill:#cccccc;stroke-width:0.2;stop-color:#000000"
       d="m -219.30643,149.92719 16.24451,-14.29745 c 17.06916,18.57306 36.77159,34.04838 49.50686,56.24884 l -16.24451,14.29744 c -12.32784,-20.60092 -29.82592,-37.84628 -49.50686,-56.24883 z"
       sodipodi:nodetypes="ccccc" />
  </g>
</svg>
