<?xml version="1.0" encoding="UTF-8" standalone="no"?>
<!-- Created with Inkscape (http://www.inkscape.org/) -->

<svg
   width="210mm"
   height="297mm"
   viewBox="0 0 210 297"
   version="1.1"
   id="svg1228"
   inkscape:version="1.2 (dc2aedaf03, 2022-05-15)"
   sodipodi:docname="justi_low.svg"
   inkscape:export-filename="..\_bank\image\justi_mega.png"
   inkscape:export-xdpi="18.142857"
   inkscape:export-ydpi="18.142857"
   xmlns:inkscape="http://www.inkscape.org/namespaces/inkscape"
   xmlns:sodipodi="http://sodipodi.sourceforge.net/DTD/sodipodi-0.dtd"
   xmlns="http://www.w3.org/2000/svg"
   xmlns:svg="http://www.w3.org/2000/svg">
  <sodipodi:namedview
     id="namedview1230"
     pagecolor="#ffffff"
     bordercolor="#666666"
     borderopacity="1.0"
     inkscape:showpageshadow="2"
     inkscape:pageopacity="0.0"
     inkscape:pagecheckerboard="0"
     inkscape:deskcolor="#d1d1d1"
     inkscape:document-units="mm"
     showgrid="false"
     inkscape:zoom="4"
     inkscape:cx="418.375"
     inkscape:cy="507.875"
     inkscape:window-width="2400"
     inkscape:window-height="1271"
     inkscape:window-x="2391"
     inkscape:window-y="-9"
     inkscape:window-maximized="1"
     inkscape:current-layer="layer1" />
  <defs
     id="defs1225" />
  <g
     inkscape:label="Calque 1"
     inkscape:groupmode="layer"
     id="layer1">
    <path
       id="rect2729-6"
       style="opacity:0.99;fill:#cccccc;fill-opacity:1;stroke-width:0.2"
       d="m 100.50083,137.11604 1.09519,0.54051 c 0.64993,0.27504 1.26244,0.82378 1.85543,1.27802 0.1099,0.59324 -0.1512,0.62966 -0.38902,0.70112 -1.66199,-0.76164 -0.11371,-0.11187 -3.04837,-1.49812 -0.126142,-0.4134 -0.02161,-0.83366 0.48644,-1.02089 z"
       sodipodi:nodetypes="cccccc"
       inkscape:export-filename="..\_bank\perso\justi\justi_low4.png"
       inkscape:export-xdpi="95.618889"
       inkscape:export-ydpi="95.618889" />
    <path
       id="rect3235-9"
       style="fill:#deb200;fill-opacity:1;stroke-width:0.264584"
       d="m 99.97913,131.80175 -1.950265,3.10365 c 1.205415,-0.12846 3.890175,0.31074 2.471965,2.21064 l 1.6834,0.79369 c 0.75428,-3.84442 -1.45721,-4.0876 -2.2051,-6.10798 z"
       sodipodi:nodetypes="ccccc"
       inkscape:export-filename="C:\Users\basti\OneDrive\Bureau\Gus veut boire un coup\bank\pnj\hooker\hooker_r1.png"
       inkscape:export-xdpi="8.2899275"
       inkscape:export-ydpi="8.2899275" />
    <path
       id="rect3235"
       style="fill:#ffcc00;stroke-width:0.264584"
       d="m 100.25339,132.47668 -2.224525,2.42872 c -0.18151,-0.19615 4.742655,0.57732 3.981315,2.64211 l 1.6521,-0.26249 -0.39942,-2.4493 z"
       sodipodi:nodetypes="cccccc"
       inkscape:export-filename="C:\Users\basti\OneDrive\Bureau\Gus veut boire un coup\bank\pnj\hooker\hooker_r1.png"
       inkscape:export-xdpi="8.2899275"
       inkscape:export-ydpi="8.2899275" />
    <ellipse
       style="fill:#d99d74;fill-opacity:1;stroke-width:0.148272"
       id="path9819-9-5-9-7"
       cx="145.20447"
       cy="80.564926"
       rx="0.44504142"
       ry="0.37403113"
       inkscape:export-filename="C:\Users\basti\OneDrive\Bureau\Gus veut boire un coup\bank\pnj\hooker\hooker_r1.png"
       inkscape:export-xdpi="8.2899275"
       inkscape:export-ydpi="8.2899275"
       transform="rotate(23.136139)" />
    <path
       id="rect1717-7"
       style="opacity:0.99;fill:#8d9473;fill-opacity:1;stroke-width:0.2"
       d="m 98.748531,129.72357 c 1.305159,-0.16547 1.057965,0.27198 1.006268,1.21934 -0.02665,0.1972 -0.876107,0.28821 -1.115269,0.80335 -0.284421,0.61267 1.107579,1.35042 1.185097,2.05824 -0.421581,0.16698 -0.739862,0.63702 -1.000715,0.8268 -0.669218,-0.9784 -1.404717,-1.69842 -1.563895,-2.72154 -0.1186,-0.76542 0.269881,-1.48789 1.488547,-2.18617 z"
       sodipodi:nodetypes="ccsccsc" />
    <ellipse
       style="fill:#d99d74;fill-opacity:1;stroke-width:0.381028"
       id="path9819-5-3-9"
       cx="146.12384"
       cy="80.978577"
       rx="1.2766604"
       ry="0.93029302"
       inkscape:export-filename="C:\Users\basti\OneDrive\Bureau\Gus veut boire un coup\bank\pnj\hooker\hooker_r1.png"
       inkscape:export-xdpi="8.2899275"
       inkscape:export-ydpi="8.2899275"
       transform="rotate(23.136139)" />
    <path
       id="path6843-9"
       style="fill:#0b2817;stroke-width:0.264583"
       d="m 101.92156,132.20225 c 0.32514,1.79975 -0.75204,0.98883 -1.65394,1.4206 -1.685185,0.80666 -1.879054,2.24552 -3.203311,0.16733 -1.323427,-2.07692 -0.723377,-4.95627 0.971196,-5.74787 1.613108,-0.75349 3.374595,1.278 4.189585,2.30344 0.43679,0.54953 -0.44007,1.10083 -0.30364,1.85653 z"
       sodipodi:nodetypes="ssssss"
       inkscape:export-filename="C:\Users\basti\OneDrive\Bureau\Gus veut boire un coup\bank\pnj\hooker\hooker_r1.png"
       inkscape:export-xdpi="8.2899275"
       inkscape:export-ydpi="8.2899275" />
    <path
       id="path6843-9-8"
       style="fill:#00ff00;stroke-width:0.264583"
       d="m 100.72206,130.02725 c -1.620327,-0.84818 -1.627329,-1.13877 -2.529271,-0.70703 -1.685186,0.80667 -1.713297,3.23572 -1.849534,1.93018 -0.198644,-1.9036 -0.0023,-2.41649 1.692246,-3.20809 1.613108,-0.7535 2.720809,0.73666 3.650709,1.65913 0.56757,0.56304 -0.36864,0.63752 -0.96414,0.32582 z"
       sodipodi:nodetypes="ssssss"
       inkscape:export-filename="C:\Users\basti\OneDrive\Bureau\Gus veut boire un coup\bank\pnj\hooker\hooker_r1.png"
       inkscape:export-xdpi="8.2899275"
       inkscape:export-ydpi="8.2899275" />
    <path
       id="path31-6"
       style="fill:#deaa87;fill-opacity:1;fill-rule:evenodd;stroke-width:0.357437"
       d="m 93.524011,126.387 c 1.222143,3.76336 -0.311747,2.0849 4.053551,2.24943 0.936242,0.0353 1.291635,-0.41035 1.757507,-0.53328 0.466234,-0.12273 0.674181,0.2091 1.103931,-0.11843 0.3094,-0.23576 0.43254,-0.16848 0.89204,-0.47048 0.98043,-0.64437 1.2938,-1.74152 1.26296,-2.44577 -0.085,-1.94246 -2.620045,-4.68234 -6.405491,-3.42495 -3.458248,1.1487 -3.59506,1.87797 -2.664575,4.74324 z"
       sodipodi:nodetypes="sssssssss"
       inkscape:export-filename="C:\Users\basti\OneDrive\Bureau\Gus veut boire un coup\bank\pnj\hooker\hooker_r1.png"
       inkscape:export-xdpi="8.2899275"
       inkscape:export-ydpi="8.2899275" />
    <ellipse
       style="fill:#deaa87;fill-opacity:1;stroke-width:0.148272"
       id="path9819-9-5-9"
       cx="145.97295"
       cy="80.736923"
       rx="0.48111215"
       ry="0.38345483"
       inkscape:export-filename="C:\Users\basti\OneDrive\Bureau\Gus veut boire un coup\bank\pnj\hooker\hooker_r1.png"
       inkscape:export-xdpi="8.2899275"
       inkscape:export-ydpi="8.2899275"
       transform="rotate(23.136139)" />
    <path
       id="rect1430-21"
       style="fill:#502d16;stroke-width:0.147507"
       d="m 100.70483,123.09924 0.56359,-0.0452 0.53294,0.21645 c -0.51086,-0.0318 -1.02429,-0.0858 -1.50011,0.16192 -0.033,-0.12429 0.4098,-0.24284 0.40355,-0.33329 z"
       sodipodi:nodetypes="ccccc"
       inkscape:transform-center-x="0.1898336"
       inkscape:transform-center-y="0.064750479"
       inkscape:export-filename="C:\Users\basti\OneDrive\Bureau\Gus veut boire un coup\bank\pnj\hooker\hooker_r1.png"
       inkscape:export-xdpi="8.2899275"
       inkscape:export-ydpi="8.2899275" />
    <path
       id="path2169-5-4-0-8"
       style="fill:#ffe6d5;stroke-width:0.456428"
       d="m 100.73704,124.14308 c 0.0162,0.26856 0.42724,0.36505 0.75087,0.26801 0.32341,-0.0967 0.5092,-0.48431 0.44116,-0.6579 -0.0837,-0.21366 -0.39442,-0.39958 -0.73004,-0.30747 -0.32537,0.09 -0.48105,0.37942 -0.46199,0.69726 z"
       sodipodi:nodetypes="sssss"
       inkscape:export-filename="C:\Users\basti\OneDrive\Bureau\Gus veut boire un coup\bank\pnj\hooker\hooker_r1.png"
       inkscape:export-xdpi="8.2899275"
       inkscape:export-ydpi="8.2899275" />
    <path
       id="path3219-1-5"
       style="fill:#a02c2c;stroke-width:0.479568"
       d="m 102.56876,125.5963 c -0.007,0.21313 0.0644,0.16404 -0.2807,0.30151 -0.33038,0.13176 -0.46238,0.0612 -0.47688,0.0421 -0.0142,-0.0191 0.2008,-0.26111 0.34496,-0.32711 0.33734,-0.15462 0.41321,-0.0418 0.41245,-0.0166 z"
       sodipodi:nodetypes="ssssss"
       inkscape:export-filename="C:\Users\basti\OneDrive\Bureau\Gus veut boire un coup\bank\pnj\hooker\hooker_r1.png"
       inkscape:export-xdpi="8.2899275"
       inkscape:export-ydpi="8.2899275" />
    <ellipse
       style="fill:#2b1100;stroke-width:0.285997"
       id="path2169-4"
       ry="0.38631111"
       rx="0.41376001"
       cy="147.86369"
       cx="61.795258"
       inkscape:export-filename="C:\Users\basti\OneDrive\Bureau\Gus veut boire un coup\bank\pnj\hooker\hooker_r1.png"
       inkscape:export-xdpi="8.2899275"
       inkscape:export-ydpi="8.2899275"
       transform="rotate(-16.66073)" />
    <ellipse
       style="fill:#241c1c;stroke-width:0.285997"
       id="path2169-5-28"
       ry="0.20212972"
       rx="0.26438349"
       cy="147.92189"
       cx="61.856857"
       inkscape:export-filename="C:\Users\basti\OneDrive\Bureau\Gus veut boire un coup\bank\pnj\hooker\hooker_r1.png"
       inkscape:export-xdpi="8.2899275"
       inkscape:export-ydpi="8.2899275"
       transform="rotate(-16.66073)" />
    <ellipse
       style="fill:#000000;fill-opacity:0.998403;stroke-width:0.433746"
       id="path31470"
       cx="62.254776"
       cy="148.80156"
       rx="0.097419605"
       ry="0.07329201"
       inkscape:export-filename="C:\Users\basti\OneDrive\Bureau\Gus veut boire un coup\bank\pnj\hooker\hooker_r1.png"
       inkscape:export-xdpi="8.2899275"
       inkscape:export-ydpi="8.2899275"
       transform="rotate(-16.66073)" />
    <ellipse
       style="fill:#deaa87;fill-opacity:1;stroke-width:0.381028"
       id="path9819-5-3"
       cx="146.81056"
       cy="81.451736"
       rx="1.3801341"
       ry="0.95373172"
       inkscape:export-filename="C:\Users\basti\OneDrive\Bureau\Gus veut boire un coup\bank\pnj\hooker\hooker_r1.png"
       inkscape:export-xdpi="8.2899275"
       inkscape:export-ydpi="8.2899275"
       transform="rotate(23.136139)" />
    <path
       id="path1496"
       style="fill:#502d16;stroke-width:0.264583"
       d="m 100.73413,126.18788 c 0.56297,0.38899 0.79673,2.15999 -0.004,3.37872 -0.56715,0.8635 -2.451741,0.0743 -3.295374,0.67894 -0.739296,2.41232 -1.073632,1.03542 -1.797417,1.04625 -1.16837,-1.3048 -0.586928,-0.36995 -1.738584,-2.00098 -0.830577,-1.17627 -1.640409,-3.11093 -1.652052,-4.58288 -0.0083,-1.04448 0.833269,-2.02105 1.615845,-2.54063 0.537963,-0.35717 2.189618,-1.32526 3.503895,-1.61596 1.230243,-0.27217 2.406889,0.57618 2.829687,0.87631 0.90019,0.63896 -0.239928,4.22325 0.53768,4.76023 z"
       sodipodi:nodetypes="ssccssssss"
       inkscape:export-filename="C:\Users\basti\OneDrive\Bureau\Gus veut boire un coup\bank\pnj\hooker\hooker_r1.png"
       inkscape:export-xdpi="8.2899275"
       inkscape:export-ydpi="8.2899275" />
    <path
       id="rect1717"
       style="opacity:0.99;fill:#a7ac93;stroke-width:0.2"
       d="m 97.91811,130.64942 c 0.547059,-1.19646 0.788606,-0.75587 1.566557,-0.21276 0.153553,0.12655 -0.216669,0.89648 0.09514,1.37119 0.370844,0.56454 1.731346,-0.22982 2.373776,0.0773 -0.0799,0.44633 0.15158,0.96449 0.17544,1.28619 -1.18419,0.0532 -2.183697,0.29896 -3.137134,-0.10479 -0.713043,-0.30251 -1.122389,-1.01338 -1.073735,-2.41705 z"
       sodipodi:nodetypes="ccsccsc" />
    <path
       id="rect2729"
       style="opacity:0.99;fill:#e6e6e6;stroke-width:0.2"
       d="m 102.01011,137.54705 1.2056,-0.19532 c 0.68894,-0.15307 1.50616,-0.0614 2.2527,-0.0355 0.43368,0.41946 0.24212,0.60062 0.0899,0.79678 -1.79559,0.34382 -0.15752,-0.0251 -3.35207,0.54822 -0.34257,-0.26357 -0.50121,-0.66653 -0.19609,-1.11374 z"
       sodipodi:nodetypes="cccccc" />
  </g>
</svg>
