<?xml version="1.0" encoding="UTF-8" standalone="no"?>
<!-- Created with Inkscape (http://www.inkscape.org/) -->

<svg
   width="210mm"
   height="297mm"
   viewBox="0 0 210 297"
   version="1.1"
   id="svg1228"
   inkscape:version="1.2 (dc2aedaf03, 2022-05-15)"
   sodipodi:docname="justi_pied.svg"
   xmlns:inkscape="http://www.inkscape.org/namespaces/inkscape"
   xmlns:sodipodi="http://sodipodi.sourceforge.net/DTD/sodipodi-0.dtd"
   xmlns="http://www.w3.org/2000/svg"
   xmlns:svg="http://www.w3.org/2000/svg">
  <sodipodi:namedview
     id="namedview1230"
     pagecolor="#ffffff"
     bordercolor="#666666"
     borderopacity="1.0"
     inkscape:showpageshadow="2"
     inkscape:pageopacity="0.0"
     inkscape:pagecheckerboard="0"
     inkscape:deskcolor="#d1d1d1"
     inkscape:document-units="mm"
     showgrid="false"
     inkscape:zoom="4"
     inkscape:cx="375.875"
     inkscape:cy="504.125"
     inkscape:window-width="1920"
     inkscape:window-height="1001"
     inkscape:window-x="-9"
     inkscape:window-y="-9"
     inkscape:window-maximized="1"
     inkscape:current-layer="layer1" />
  <defs
     id="defs1225" />
  <g
     inkscape:label="Calque 1"
     inkscape:groupmode="layer"
     id="layer1">
    <path
       id="rect2729-6"
       style="opacity:0.99;fill:#cccccc;fill-opacity:1;stroke-width:0.2"
       d="m 96.252886,138.38673 -1.221307,2e-5 c -0.704547,-0.0409 -1.496601,0.18028 -2.229371,0.3253 -0.36101,0.48343 -0.14295,0.63161 0.0387,0.8009 1.827457,0.0522 0.1515,-0.05 3.396603,0.005 0.296049,-0.31491 0.388151,-0.7381 0.01541,-1.13077 z"
       sodipodi:nodetypes="cccccc"
       inkscape:export-filename="..\bank\perso\justi\justi_punch_4.png"
       inkscape:export-xdpi="95.618889"
       inkscape:export-ydpi="95.618889" />
    <path
       id="rect3235-9"
       style="fill:#deb200;fill-opacity:1;stroke-width:0.264584"
       d="m 92.516621,133.74737 3.358868,1.5337 c -0.292207,0.44316 -0.301993,0.791 -0.433055,1.61375 -0.09449,0.59313 0.696589,1.20268 0.810487,1.49236 l -1.451678,-0.005 -1.425024,-1.18145 z"
       sodipodi:nodetypes="ccscccc"
       inkscape:export-filename="C:\Users\basti\OneDrive\Bureau\Gus veut boire un coup\bank\pnj\hooker\hooker_r1.png"
       inkscape:export-xdpi="8.2899275"
       inkscape:export-ydpi="8.2899275" />
    <path
       id="rect3235"
       style="fill:#ffcc00;stroke-width:0.264584"
       d="m 93.104921,134.82655 c 0.755287,-0.60156 1.530194,-1.18135 3.71339,-0.19843 0.4041,0.0897 0.210149,0.28856 0.885319,0.20032 0.663437,-0.0867 1.661237,-0.34837 1.984053,-0.64263 l 0.687577,1.6138 -3.877644,1.04657 z"
       sodipodi:nodetypes="ccscccc"
       inkscape:export-filename="C:\Users\basti\OneDrive\Bureau\Gus veut boire un coup\bank\pnj\hooker\hooker_r1.png"
       inkscape:export-xdpi="8.2899275"
       inkscape:export-ydpi="8.2899275" />
    <ellipse
       style="fill:#d99d74;fill-opacity:1;stroke-width:0.148272"
       id="path9819-9-5-9-7"
       cx="-91.762222"
       cy="130.94156"
       rx="0.44504142"
       ry="0.37403113"
       inkscape:export-filename="C:\Users\basti\OneDrive\Bureau\Gus veut boire un coup\bank\pnj\hooker\hooker_r1.png"
       inkscape:export-xdpi="8.2899275"
       inkscape:export-ydpi="8.2899275"
       transform="scale(-1,1)" />
    <ellipse
       style="fill:#d99d74;fill-opacity:1;stroke-width:0.381028"
       id="path9819-5-3-9"
       cx="-90.928154"
       cy="131.87186"
       rx="1.2766604"
       ry="0.93029302"
       inkscape:export-filename="C:\Users\basti\OneDrive\Bureau\Gus veut boire un coup\bank\pnj\hooker\hooker_r1.png"
       inkscape:export-xdpi="8.2899275"
       inkscape:export-ydpi="8.2899275"
       transform="scale(-1,1)" />
    <path
       id="path6843-9"
       style="fill:#0b2817;stroke-width:0.264583"
       d="m 92.371339,133.82718 c 0.388086,1.78724 1.073097,0.62596 2.071596,0.67983 1.86558,0.10064 2.595141,1.35589 3.023657,-1.07082 0.428248,-2.42521 -1.227652,-4.856 -3.096145,-4.93913 -1.778661,-0.0791 -2.629021,2.47173 -2.98977,3.73091 -0.193343,0.67483 0.827711,0.84875 0.990662,1.59921 z"
       sodipodi:nodetypes="ssssss"
       inkscape:export-filename="C:\Users\basti\OneDrive\Bureau\Gus veut boire un coup\bank\pnj\hooker\hooker_r1.png"
       inkscape:export-xdpi="8.2899275"
       inkscape:export-ydpi="8.2899275" />
    <path
       id="path6843-9-8"
       style="fill:#00ff00;stroke-width:0.264583"
       d="m 92.647565,131.35874 c 1.172608,-1.40351 1.067926,-1.67467 2.066425,-1.6208 1.86558,0.10064 2.820783,2.33418 2.447226,1.07582 -0.544683,-1.8348 -0.922276,-2.23357 -2.790769,-2.3167 -1.778661,-0.0791 -2.232036,1.72147 -2.738321,2.9295 -0.309014,0.73733 0.584476,0.448 1.015439,-0.0678 z"
       sodipodi:nodetypes="ssssss"
       inkscape:export-filename="C:\Users\basti\OneDrive\Bureau\Gus veut boire un coup\bank\pnj\hooker\hooker_r1.png"
       inkscape:export-xdpi="8.2899275"
       inkscape:export-ydpi="8.2899275" />
    <path
       id="path31-6"
       style="fill:#deaa87;fill-opacity:1;fill-rule:evenodd;stroke-width:0.357437"
       d="m 97.940563,125.57495 c -0.09187,3.95575 0.896403,1.90797 -3.238466,3.31715 -0.886819,0.30223 -1.355054,-0.0228 -1.836613,-0.007 -0.481845,0.0161 -0.585941,0.39359 -1.09155,0.20304 -0.364,-0.13716 -0.462686,-0.0374 -0.989473,-0.19498 -1.12403,-0.33623 -1.73878,-1.29748 -1.91116,-1.98099 -0.47545,-1.8853 1.16761,-5.23696 5.15464,-5.11766 3.642407,0.10899 3.982562,0.76842 3.912622,3.78018 z"
       sodipodi:nodetypes="sssssssss"
       inkscape:export-filename="C:\Users\basti\OneDrive\Bureau\Gus veut boire un coup\bank\pnj\hooker\hooker_r1.png"
       inkscape:export-xdpi="8.2899275"
       inkscape:export-ydpi="8.2899275" />
    <ellipse
       style="fill:#deaa87;fill-opacity:1;stroke-width:0.148272"
       id="path9819-9-5-9"
       cx="-91.656982"
       cy="132.57103"
       rx="0.48111215"
       ry="0.38345483"
       inkscape:export-filename="C:\Users\basti\OneDrive\Bureau\Gus veut boire un coup\bank\pnj\hooker\hooker_r1.png"
       inkscape:export-xdpi="8.2899275"
       inkscape:export-ydpi="8.2899275"
       transform="scale(-1,1)" />
    <path
       id="rect1430-21"
       style="fill:#502d16;stroke-width:0.147507"
       d="m 90.298671,124.5334 -0.56476,0.027 -0.50094,0.28272 c 0.50254,-0.0972 1.00498,-0.21573 1.50851,-0.0308 0.0169,-0.12748 -0.43745,-0.18858 -0.44279,-0.27908 z"
       sodipodi:nodetypes="ccccc"
       inkscape:transform-center-x="-0.20972949"
       inkscape:transform-center-y="0.0078715802"
       inkscape:export-filename="C:\Users\basti\OneDrive\Bureau\Gus veut boire un coup\bank\pnj\hooker\hooker_r1.png"
       inkscape:export-xdpi="8.2899275"
       inkscape:export-ydpi="8.2899275" />
    <path
       id="path2169-5-4-0-8"
       style="fill:#ffe6d5;stroke-width:0.456428"
       d="m 90.386991,125.49321 c 0.0615,0.26195 -0.4548,0.3545 -0.7924,0.3545 -0.33758,0 -0.47675,-0.2004 -0.46132,-0.38623 0.019,-0.2287 0.1588,-0.39914 0.5068,-0.40706 0.33754,-0.007 0.67409,0.12879 0.74692,0.43879 z"
       sodipodi:nodetypes="sssss"
       inkscape:export-filename="C:\Users\basti\OneDrive\Bureau\Gus veut boire un coup\bank\pnj\hooker\hooker_r1.png"
       inkscape:export-xdpi="8.2899275"
       inkscape:export-ydpi="8.2899275" />
    <path
       id="path3219-1-5"
       style="fill:#a02c2c;stroke-width:0.479568"
       d="m 89.048811,127.41059 c 0.0672,0.20238 0.0672,0.14936 0.43722,0.18208 0.35429,0.0315 0.37864,-0.0477 0.38708,-0.0701 0.008,-0.0224 -0.29289,-0.2159 -0.44992,-0.2378 -0.36752,-0.0514 -0.38222,0.1017 -0.37427,0.1256 z"
       sodipodi:nodetypes="ssssss"
       inkscape:export-filename="C:\Users\basti\OneDrive\Bureau\Gus veut boire un coup\bank\pnj\hooker\hooker_r1.png"
       inkscape:export-xdpi="8.2899275"
       inkscape:export-ydpi="8.2899275" />
    <path
       id="path2169-4"
       style="fill:#2b1100;stroke-width:0.285997"
       d="m 89.573696,125.4614 c 0,0.21335 0.18525,0.38631 0.41376,0.38631 0.22851,0 0.41376,-0.17296 0.41376,-0.38631 0,-0.21335 -0.18525,-0.36564 -0.41376,-0.36564 -0.22851,0 -0.41376,0.15225 -0.41376,0.36564 z"
       sodipodi:nodetypes="sssss" />
    <ellipse
       style="fill:#241c1c;stroke-width:0.285997"
       id="path2169-5-28"
       ry="0.20212972"
       rx="0.26438349"
       cy="125.47173"
       cx="-90.109085"
       inkscape:export-filename="C:\Users\basti\OneDrive\Bureau\Gus veut boire un coup\bank\pnj\hooker\hooker_r1.png"
       inkscape:export-xdpi="8.2899275"
       inkscape:export-ydpi="8.2899275"
       transform="scale(-1,1)" />
    <ellipse
       style="fill:#000000;fill-opacity:0.998403;stroke-width:0.433746"
       id="path31470"
       cx="-89.047928"
       cy="126.48161"
       rx="0.097419605"
       ry="0.07329201"
       inkscape:export-filename="C:\Users\basti\OneDrive\Bureau\Gus veut boire un coup\bank\pnj\hooker\hooker_r1.png"
       inkscape:export-xdpi="8.2899275"
       inkscape:export-ydpi="8.2899275"
       transform="scale(-1,1)" />
    <ellipse
       style="fill:#deaa87;fill-opacity:1;stroke-width:0.381028"
       id="path9819-5-3"
       cx="-90.600746"
       cy="132.78229"
       rx="1.3801341"
       ry="0.95373172"
       inkscape:export-filename="C:\Users\basti\OneDrive\Bureau\Gus veut boire un coup\bank\pnj\hooker\hooker_r1.png"
       inkscape:export-xdpi="8.2899275"
       inkscape:export-ydpi="8.2899275"
       transform="scale(-1,1)" />
    <path
       id="path1496"
       style="fill:#502d16;stroke-width:0.264583"
       d="m 91.84679,126.55801 c -0.371514,0.57467 -0.588934,3.55851 0.616816,4.37834 0.854329,0.58085 2.293666,-0.86926 3.304427,-0.63335 1.605893,1.94602 1.388074,0.54596 2.060939,0.27907 0.580361,-1.65249 0.400763,-0.56633 0.840884,-2.51385 0.317409,-1.40455 0.325542,-3.50185 -0.226778,-4.86628 -0.391927,-0.9682 -1.543034,-1.54856 -2.464852,-1.72924 -0.633679,-0.12421 -2.530051,-0.38684 -3.855555,-0.15265 -1.24079,0.21916 -1.76368,0.6599 -2.03951,1.09894 -0.58728,0.93473 2.276666,3.34542 1.763629,4.13902 z"
       sodipodi:nodetypes="ssccssssss"
       inkscape:export-filename="C:\Users\basti\OneDrive\Bureau\Gus veut boire un coup\bank\pnj\hooker\hooker_r1.png"
       inkscape:export-xdpi="8.2899275"
       inkscape:export-ydpi="8.2899275" />
    <path
       id="rect1717"
       style="opacity:0.99;fill:#a7ac93;stroke-width:0.2"
       d="m 95.507542,132.28406 c -0.03296,-1.31519 -0.42818,-1.00494 -1.356968,-0.81118 -0.190942,0.056 -0.05097,1.37366 -0.524233,1.68767 -0.562846,0.37343 -1.257934,-0.23601 -1.969359,-0.20607 -0.10159,0.44192 -0.152241,0.47334 -0.300561,0.75982 1.06803,0.51425 1.364392,0.9105 2.399801,0.91382 0.774559,0.002 1.244526,-1.03414 1.75132,-2.34406 z"
       sodipodi:nodetypes="ccsccsc" />
    <path
       id="rect2729"
       style="opacity:0.99;fill:#e6e6e6;stroke-width:0.2"
       d="m 99.687683,134.18581 0.335357,1.17435 c 0.15415,0.6887 0.58432,1.38959 0.92496,2.05435 0.56397,0.21439 0.64659,-0.036 0.75951,-0.25709 -0.4516,-1.77153 -0.0896,-0.13195 -0.92787,-3.2674 -0.38411,-0.19821 -0.816317,-0.17059 -1.091547,0.2957 z"
       sodipodi:nodetypes="cccccc" />
    <path
       sodipodi:type="star"
       style="opacity:0.99;fill:#ffd42a;fill-opacity:1;stroke-width:0.2"
       id="path3562"
       inkscape:flatsided="false"
       sodipodi:sides="5"
       sodipodi:cx="103.1875"
       sodipodi:cy="127.59997"
       sodipodi:r1="1.2722175"
       sodipodi:r2="0.49026972"
       sodipodi:arg1="1.0240326"
       sodipodi:arg2="1.6523511"
       inkscape:rounded="0"
       inkscape:randomized="0"
       d="m 103.84896,128.68671 -0.7014,-0.5981 -0.78921,0.47626 0.35208,-0.85189 -0.69683,-0.60341 0.919,0.0716 0.35854,-0.84919 0.21589,0.89615 0.91843,0.0786 -0.78558,0.48224 z"
       inkscape:transform-center-x="-0.032025351"
       inkscape:transform-center-y="-0.090624619"
       transform="translate(-0.82285144,7.7721354)" />
    <path
       sodipodi:type="star"
       style="opacity:0.99;fill:#ffeeaa;fill-opacity:1;stroke-width:0.353196"
       id="path3562-8"
       inkscape:flatsided="false"
       sodipodi:sides="5"
       sodipodi:cx="103.1875"
       sodipodi:cy="127.59997"
       sodipodi:r1="1.2722175"
       sodipodi:r2="0.49026972"
       sodipodi:arg1="1.0240326"
       sodipodi:arg2="1.6523511"
       inkscape:rounded="0"
       inkscape:randomized="0"
       d="m 103.84896,128.68671 -0.7014,-0.5981 -0.78921,0.47626 0.35208,-0.85189 -0.69683,-0.60341 0.919,0.0716 0.35854,-0.84919 0.21589,0.89615 0.91843,0.0786 -0.78558,0.48224 z"
       inkscape:transform-center-x="-0.018301905"
       inkscape:transform-center-y="-0.050847976"
       transform="matrix(0.57148037,0,0,0.56108438,43.408742,63.737978)" />
  </g>
</svg>
