<?xml version="1.0" encoding="UTF-8" standalone="no"?>
<!-- Created with Inkscape (http://www.inkscape.org/) -->

<svg
   width="210mm"
   height="297mm"
   viewBox="0 0 210 297"
   version="1.1"
   id="svg1228"
   inkscape:version="1.2 (dc2aedaf03, 2022-05-15)"
   sodipodi:docname="justinouille.svg"
   xmlns:inkscape="http://www.inkscape.org/namespaces/inkscape"
   xmlns:sodipodi="http://sodipodi.sourceforge.net/DTD/sodipodi-0.dtd"
   xmlns="http://www.w3.org/2000/svg"
   xmlns:svg="http://www.w3.org/2000/svg">
  <sodipodi:namedview
     id="namedview1230"
     pagecolor="#ffffff"
     bordercolor="#666666"
     borderopacity="1.0"
     inkscape:showpageshadow="2"
     inkscape:pageopacity="0.0"
     inkscape:pagecheckerboard="0"
     inkscape:deskcolor="#d1d1d1"
     inkscape:document-units="mm"
     showgrid="false"
     inkscape:zoom="5.6568543"
     inkscape:cx="374.6782"
     inkscape:cy="501.42709"
     inkscape:window-width="1920"
     inkscape:window-height="1001"
     inkscape:window-x="-9"
     inkscape:window-y="-9"
     inkscape:window-maximized="1"
     inkscape:current-layer="layer1" />
  <defs
     id="defs1225" />
  <g
     inkscape:label="Calque 1"
     inkscape:groupmode="layer"
     id="layer1">
    <path
       id="rect2729-6"
       style="opacity:0.99;fill:#cccccc;fill-opacity:1;stroke-width:0.2"
       d="m 96.547229,138.44792 1.221307,2e-5 c 0.704547,-0.0409 1.4966,0.18028 2.229367,0.3253 0.361007,0.48343 0.142947,0.63161 -0.0387,0.8009 -1.827453,0.0522 -0.1515,-0.05 -3.396599,0.005 -0.296049,-0.31491 -0.388151,-0.7381 -0.01541,-1.13077 z"
       sodipodi:nodetypes="cccccc"
       inkscape:export-filename="..\bank\perso\justi\justi_1.png"
       inkscape:export-xdpi="95.618889"
       inkscape:export-ydpi="95.618889" />
    <path
       id="rect3235-9"
       style="fill:#deb200;fill-opacity:1;stroke-width:0.264584"
       d="m 97.963921,133.7143 -3.323789,1.56687 c 0.45175,0.68513 2.229599,2.34652 1.907097,3.16675 l 1.106277,0.0241 z"
       sodipodi:nodetypes="ccccc"
       inkscape:export-filename="C:\Users\basti\OneDrive\Bureau\Gus veut boire un coup\bank\pnj\hooker\hooker_r1.png"
       inkscape:export-xdpi="8.2899275"
       inkscape:export-ydpi="8.2899275" />
    <path
       id="rect3235"
       style="fill:#ffcc00;stroke-width:0.264584"
       d="m 98.13414,134.40969 -3.611052,0.6804 c 0.264879,0.77675 0.874482,2.73168 0.356028,3.4444 l 1.221307,2e-5 z"
       sodipodi:nodetypes="ccccc"
       inkscape:export-filename="C:\Users\basti\OneDrive\Bureau\Gus veut boire un coup\bank\pnj\hooker\hooker_r1.png"
       inkscape:export-xdpi="8.2899275"
       inkscape:export-ydpi="8.2899275" />
    <ellipse
       style="fill:#d99d74;fill-opacity:1;stroke-width:0.148272"
       id="path9819-9-5-9-7"
       cx="99.882103"
       cy="130.62318"
       rx="0.44504142"
       ry="0.37403113"
       inkscape:export-filename="C:\Users\basti\OneDrive\Bureau\Gus veut boire un coup\bank\pnj\hooker\hooker_r1.png"
       inkscape:export-xdpi="8.2899275"
       inkscape:export-ydpi="8.2899275" />
    <ellipse
       style="fill:#d99d74;fill-opacity:1;stroke-width:0.381028"
       id="path9819-5-3-9"
       cx="100.71372"
       cy="131.17944"
       rx="1.2766604"
       ry="0.93029302"
       inkscape:export-filename="C:\Users\basti\OneDrive\Bureau\Gus veut boire un coup\bank\pnj\hooker\hooker_r1.png"
       inkscape:export-xdpi="8.2899275"
       inkscape:export-ydpi="8.2899275" />
    <path
       id="path6843-9"
       style="fill:#0b2817;stroke-width:0.264583"
       d="m 98.707062,134.15459 c -0.388086,1.78724 -1.073097,0.62596 -2.071596,0.67983 -1.86558,0.10064 -2.595141,1.35589 -3.023657,-1.07082 -0.428248,-2.42521 1.227652,-4.856 3.096145,-4.93913 1.778661,-0.0791 2.629021,2.47173 2.98977,3.73091 0.193343,0.67483 -0.827711,0.84875 -0.990662,1.59921 z"
       sodipodi:nodetypes="ssssss"
       inkscape:export-filename="C:\Users\basti\OneDrive\Bureau\Gus veut boire un coup\bank\pnj\hooker\hooker_r1.png"
       inkscape:export-xdpi="8.2899275"
       inkscape:export-ydpi="8.2899275" />
    <path
       id="path6843-9-8"
       style="fill:#00ff00;stroke-width:0.264583"
       d="m 98.430836,131.68615 c -1.172608,-1.40351 -1.067926,-1.67467 -2.066425,-1.6208 -1.86558,0.10064 -2.820783,2.33418 -2.447226,1.07582 0.544683,-1.8348 0.922276,-2.23357 2.790769,-2.3167 1.778661,-0.0791 2.232036,1.72147 2.738321,2.9295 0.309014,0.73733 -0.584476,0.448 -1.015439,-0.0678 z"
       sodipodi:nodetypes="ssssss"
       inkscape:export-filename="C:\Users\basti\OneDrive\Bureau\Gus veut boire un coup\bank\pnj\hooker\hooker_r1.png"
       inkscape:export-xdpi="8.2899275"
       inkscape:export-ydpi="8.2899275" />
    <path
       id="path31-6"
       style="fill:#deaa87;fill-opacity:1;fill-rule:evenodd;stroke-width:0.357437"
       d="m 93.137838,125.90236 c 0.09187,3.95575 -0.896403,1.90797 3.238466,3.31715 0.886819,0.30223 1.355054,-0.0228 1.836613,-0.007 0.481845,0.0161 0.585941,0.39359 1.09155,0.20304 0.364,-0.13716 0.462686,-0.0374 0.989473,-0.19498 1.12403,-0.33623 1.73878,-1.29748 1.91116,-1.98099 0.47545,-1.8853 -1.16761,-5.23696 -5.15464,-5.11766 -3.642407,0.10899 -3.982562,0.76842 -3.912622,3.78018 z"
       sodipodi:nodetypes="sssssssss"
       inkscape:export-filename="C:\Users\basti\OneDrive\Bureau\Gus veut boire un coup\bank\pnj\hooker\hooker_r1.png"
       inkscape:export-xdpi="8.2899275"
       inkscape:export-ydpi="8.2899275" />
    <ellipse
       style="fill:#deaa87;fill-opacity:1;stroke-width:0.148272"
       id="path9819-9-5-9"
       cx="99.640038"
       cy="131.32051"
       rx="0.48111215"
       ry="0.38345483"
       inkscape:export-filename="C:\Users\basti\OneDrive\Bureau\Gus veut boire un coup\bank\pnj\hooker\hooker_r1.png"
       inkscape:export-xdpi="8.2899275"
       inkscape:export-ydpi="8.2899275" />
    <path
       id="rect1430-21"
       style="fill:#502d16;stroke-width:0.147507"
       d="m 100.95982,124.81138 0.55291,0.11822 0.44848,0.36019 c -0.48013,-0.17742 -0.95672,-0.3758 -1.48356,-0.27496 0.004,-0.12853 0.46223,-0.11516 0.48217,-0.2036 z"
       sodipodi:nodetypes="ccccc"
       inkscape:transform-center-x="0.23062409"
       inkscape:transform-center-y="0.0097115802"
       inkscape:export-filename="C:\Users\basti\OneDrive\Bureau\Gus veut boire un coup\bank\pnj\hooker\hooker_r1.png"
       inkscape:export-xdpi="8.2899275"
       inkscape:export-ydpi="8.2899275" />
    <path
       id="path2169-5-4-0-8"
       style="fill:#ffe6d5;stroke-width:0.456428"
       d="m 100.69141,125.82062 c -0.0615,0.26195 0.30487,0.47209 0.64247,0.47209 0.33758,0 0.62668,-0.31799 0.61125,-0.50382 -0.019,-0.2287 -0.26325,-0.49591 -0.61125,-0.50383 -0.33754,-0.007 -0.56964,0.22557 -0.64247,0.53556 z"
       sodipodi:nodetypes="sssss"
       inkscape:export-filename="C:\Users\basti\OneDrive\Bureau\Gus veut boire un coup\bank\pnj\hooker\hooker_r1.png"
       inkscape:export-xdpi="8.2899275"
       inkscape:export-ydpi="8.2899275" />
    <path
       id="path3219-1-5"
       style="fill:#a02c2c;stroke-width:0.479568"
       d="m 102.02959,127.738 c -0.0672,0.20238 0.0147,0.17567 -0.35537,0.20839 -0.35429,0.0315 -0.46049,-0.074 -0.46893,-0.0964 -0.008,-0.0224 0.27535,-0.0522 0.43238,-0.0741 0.36752,-0.0514 0.39976,-0.062 0.39181,-0.0381 z"
       sodipodi:nodetypes="sssss"
       inkscape:export-filename="C:\Users\basti\OneDrive\Bureau\Gus veut boire un coup\bank\pnj\hooker\hooker_r1.png"
       inkscape:export-xdpi="8.2899275"
       inkscape:export-ydpi="8.2899275" />
    <ellipse
       style="fill:#2b1100;stroke-width:0.285997"
       id="path2169-4"
       ry="0.38631111"
       rx="0.41376001"
       cy="125.78881"
       cx="101.48381"
       inkscape:export-filename="C:\Users\basti\OneDrive\Bureau\Gus veut boire un coup\bank\pnj\hooker\hooker_r1.png"
       inkscape:export-xdpi="8.2899275"
       inkscape:export-ydpi="8.2899275" />
    <ellipse
       style="fill:#241c1c;stroke-width:0.285997"
       id="path2169-5-28"
       ry="0.20212972"
       rx="0.26438349"
       cy="125.78881"
       cx="101.48381"
       inkscape:export-filename="C:\Users\basti\OneDrive\Bureau\Gus veut boire un coup\bank\pnj\hooker\hooker_r1.png"
       inkscape:export-xdpi="8.2899275"
       inkscape:export-ydpi="8.2899275" />
    <ellipse
       style="fill:#000000;fill-opacity:0.998403;stroke-width:0.433746"
       id="path31470"
       cx="102.03047"
       cy="126.80902"
       rx="0.097419605"
       ry="0.07329201"
       inkscape:export-filename="C:\Users\basti\OneDrive\Bureau\Gus veut boire un coup\bank\pnj\hooker\hooker_r1.png"
       inkscape:export-xdpi="8.2899275"
       inkscape:export-ydpi="8.2899275" />
    <ellipse
       style="fill:#deaa87;fill-opacity:1;stroke-width:0.381028"
       id="path9819-5-3"
       cx="100.47765"
       cy="132.03534"
       rx="1.3801341"
       ry="0.95373172"
       inkscape:export-filename="C:\Users\basti\OneDrive\Bureau\Gus veut boire un coup\bank\pnj\hooker\hooker_r1.png"
       inkscape:export-xdpi="8.2899275"
       inkscape:export-ydpi="8.2899275" />
    <path
       id="path1496"
       style="fill:#502d16;stroke-width:0.264583"
       d="m 99.231611,126.88542 c 0.371514,0.57467 0.588934,3.55851 -0.616816,4.37834 -0.854329,0.58085 -2.293666,-0.86926 -3.304427,-0.63335 -1.605893,1.94602 -1.388074,0.54596 -2.060939,0.27907 -0.580361,-1.65249 -0.400763,-0.56633 -0.840884,-2.51385 -0.317409,-1.40455 -0.325542,-3.50185 0.226778,-4.86628 0.391927,-0.9682 1.543034,-1.54856 2.464852,-1.72924 0.633679,-0.12421 2.530051,-0.38684 3.855555,-0.15265 1.24079,0.21916 1.76368,0.6599 2.03951,1.09894 0.58728,0.93473 -2.276666,3.34542 -1.763629,4.13902 z"
       sodipodi:nodetypes="ssccssssss"
       inkscape:export-filename="C:\Users\basti\OneDrive\Bureau\Gus veut boire un coup\bank\pnj\hooker\hooker_r1.png"
       inkscape:export-xdpi="8.2899275"
       inkscape:export-ydpi="8.2899275" />
    <path
       id="rect1717"
       style="opacity:0.99;fill:#a7ac93;stroke-width:0.2"
       d="m 95.044423,132.25168 c 0.03296,-1.31519 0.42818,-1.00494 1.356968,-0.81118 0.190942,0.056 0.152987,0.90952 0.626247,1.22353 0.562846,0.37343 1.501803,-0.8916 2.213227,-0.86166 0.101597,0.44192 0.518335,0.82736 0.666654,1.11384 -1.068029,0.51425 -1.890604,1.13292 -2.926013,1.13624 -0.774559,0.002 -1.430289,-0.49085 -1.937083,-1.80077 z"
       sodipodi:nodetypes="ccsccsc" />
    <path
       id="rect2729"
       style="opacity:0.99;fill:#e6e6e6;stroke-width:0.2"
       d="m 94.879116,138.53449 1.221307,2e-5 c 0.704547,-0.0409 1.496602,0.18028 2.229367,0.3253 0.361006,0.48343 0.142948,0.63161 -0.03867,0.8009 -1.827453,0.0522 -0.151497,-0.05 -3.396599,0.005 -0.296049,-0.31491 -0.388151,-0.7381 -0.01541,-1.13077 z"
       sodipodi:nodetypes="cccccc" />
  </g>
</svg>
