<?xml version="1.0" encoding="UTF-8" standalone="no"?>
<!-- Created with Inkscape (http://www.inkscape.org/) -->

<svg
   width="210mm"
   height="297mm"
   viewBox="0 0 210 297"
   version="1.1"
   id="svg1228"
   inkscape:version="1.2 (dc2aedaf03, 2022-05-15)"
   sodipodi:docname="justi_hit.svg"
   xmlns:inkscape="http://www.inkscape.org/namespaces/inkscape"
   xmlns:sodipodi="http://sodipodi.sourceforge.net/DTD/sodipodi-0.dtd"
   xmlns="http://www.w3.org/2000/svg"
   xmlns:svg="http://www.w3.org/2000/svg">
  <sodipodi:namedview
     id="namedview1230"
     pagecolor="#ffffff"
     bordercolor="#666666"
     borderopacity="1.0"
     inkscape:showpageshadow="2"
     inkscape:pageopacity="0.0"
     inkscape:pagecheckerboard="0"
     inkscape:deskcolor="#d1d1d1"
     inkscape:document-units="mm"
     showgrid="false"
     inkscape:zoom="5.6568543"
     inkscape:cx="350.99013"
     inkscape:cy="489.40628"
     inkscape:window-width="1920"
     inkscape:window-height="1001"
     inkscape:window-x="-9"
     inkscape:window-y="-9"
     inkscape:window-maximized="1"
     inkscape:current-layer="layer1" />
  <defs
     id="defs1225" />
  <g
     inkscape:label="Calque 1"
     inkscape:groupmode="layer"
     id="layer1">
    <path
       id="rect2729-6"
       style="opacity:0.99;fill:#cccccc;fill-opacity:1;stroke-width:0.2"
       d="m 97.435729,138.3487 1.221307,2e-5 c 0.704547,-0.0409 1.496604,0.18028 2.229374,0.3253 0.36101,0.48343 0.14295,0.63161 -0.0387,0.8009 -1.82746,0.0522 -0.1515,-0.05 -3.396606,0.005 -0.296049,-0.31491 -0.388151,-0.7381 -0.01541,-1.13077 z"
       sodipodi:nodetypes="cccccc"
       inkscape:export-filename="..\bank\perso\justi\justi_punch_4.png"
       inkscape:export-xdpi="95.618889"
       inkscape:export-ydpi="95.618889" />
    <path
       id="rect3235-9"
       style="fill:#deb200;fill-opacity:1;stroke-width:0.264584"
       d="m 97.963921,133.7143 -3.323789,1.56687 c 0.292207,0.44316 1.382141,1.01112 2.169472,1.77936 0.429878,0.41945 0.739988,0.99894 0.62609,1.28862 l 1.023282,-0.005 0.147903,-1.53269 z"
       sodipodi:nodetypes="ccscccc"
       inkscape:export-filename="C:\Users\basti\OneDrive\Bureau\Gus veut boire un coup\bank\pnj\hooker\hooker_r1.png"
       inkscape:export-xdpi="8.2899275"
       inkscape:export-ydpi="8.2899275" />
    <path
       id="rect3235"
       style="fill:#ffcc00;stroke-width:0.264584"
       d="m 98.13414,134.40969 -3.611052,0.6804 c 0.133601,0.39178 0.650225,1.19916 0.636798,1.87994 -0.01319,0.66895 0.254522,1.13566 -0.0024,1.4889 l 1.039406,-0.005 0.819971,-1.69533 z"
       sodipodi:nodetypes="ccscccc"
       inkscape:export-filename="C:\Users\basti\OneDrive\Bureau\Gus veut boire un coup\bank\pnj\hooker\hooker_r1.png"
       inkscape:export-xdpi="8.2899275"
       inkscape:export-ydpi="8.2899275" />
    <ellipse
       style="fill:#d99d74;fill-opacity:1;stroke-width:0.148272"
       id="path9819-9-5-9-7"
       cx="114.85075"
       cy="117.14184"
       rx="0.44504142"
       ry="0.37403113"
       inkscape:export-filename="C:\Users\basti\OneDrive\Bureau\Gus veut boire un coup\bank\pnj\hooker\hooker_r1.png"
       inkscape:export-xdpi="8.2899275"
       inkscape:export-ydpi="8.2899275"
       transform="rotate(7.3663973)" />
    <ellipse
       style="fill:#d99d74;fill-opacity:1;stroke-width:0.381028"
       id="path9819-5-3-9"
       cx="99.324982"
       cy="131.88783"
       rx="1.2766604"
       ry="0.93029302"
       inkscape:export-filename="C:\Users\basti\OneDrive\Bureau\Gus veut boire un coup\bank\pnj\hooker\hooker_r1.png"
       inkscape:export-xdpi="8.2899275"
       inkscape:export-ydpi="8.2899275" />
    <path
       id="path6843-9"
       style="fill:#0b2817;stroke-width:0.264583"
       d="m 98.23934,134.07274 c 0.255032,1.18505 -0.605375,0.70781 -1.603874,0.76168 -1.86558,0.10064 -1.72827,1.02549 -3.023657,-1.07082 -1.498626,-2.42521 1.227652,-4.856 3.096145,-4.93913 1.77866,-0.0791 1.768451,2.35866 2.1292,3.61784 0.193343,0.67483 -0.759383,0.87967 -0.597814,1.63043 z"
       sodipodi:nodetypes="ssssss"
       inkscape:export-filename="C:\Users\basti\OneDrive\Bureau\Gus veut boire un coup\bank\pnj\hooker\hooker_r1.png"
       inkscape:export-xdpi="8.2899275"
       inkscape:export-ydpi="8.2899275" />
    <path
       id="path6843-9-8"
       style="fill:#00ff00;stroke-width:0.264583"
       d="m 97.690589,131.73294 c 0,0 -0.327679,-1.72146 -1.326178,-1.66759 -1.86558,0.10064 -2.820783,2.33418 -2.447226,1.07582 0.544683,-1.8348 0.922276,-2.23357 2.790769,-2.3167 1.778661,-0.0791 1.622915,2.40981 2.1292,3.61784 0.309014,0.73733 -1.146565,-0.70937 -1.146565,-0.70937 z"
       sodipodi:nodetypes="sssssss"
       inkscape:export-filename="C:\Users\basti\OneDrive\Bureau\Gus veut boire un coup\bank\pnj\hooker\hooker_r1.png"
       inkscape:export-xdpi="8.2899275"
       inkscape:export-ydpi="8.2899275" />
    <path
       id="path31-6"
       style="fill:#deaa87;fill-opacity:1;fill-rule:evenodd;stroke-width:0.357437"
       d="m 93.261114,125.38246 c -0.416071,3.93488 -1.133633,1.77729 2.786432,3.70499 0.84075,0.41344 1.346794,0.15112 1.822352,0.22853 0.475804,0.0778 0.530641,0.46547 1.056509,0.34132 0.378581,-0.0894 0.463662,0.0222 1.006305,-0.0665 1.157858,-0.18933 1.890788,-1.06383 2.149378,-1.7196 0.71325,-1.80878 -0.48652,-5.34344 -4.455942,-5.73632 -3.626318,-0.35891 -4.048214,0.25146 -4.365001,3.24733 z"
       sodipodi:nodetypes="sssssssss"
       inkscape:export-filename="C:\Users\basti\OneDrive\Bureau\Gus veut boire un coup\bank\pnj\hooker\hooker_r1.png"
       inkscape:export-xdpi="8.2899275"
       inkscape:export-ydpi="8.2899275" />
    <ellipse
       style="fill:#deaa87;fill-opacity:1;stroke-width:0.148272"
       id="path9819-9-5-9"
       cx="115.69031"
       cy="119.60912"
       rx="0.48111215"
       ry="0.38345483"
       inkscape:export-filename="C:\Users\basti\OneDrive\Bureau\Gus veut boire un coup\bank\pnj\hooker\hooker_r1.png"
       inkscape:export-xdpi="8.2899275"
       inkscape:export-ydpi="8.2899275"
       transform="rotate(7.3663973)" />
    <path
       id="rect1430-21"
       style="fill:#502d16;stroke-width:0.147507"
       d="m 100.84841,125.23781 0.5393,-0.16979 0.56779,0.0922 c -0.50518,0.0824 -1.01762,0.14483 -1.42623,0.49235 -0.0599,-0.11379 0.34534,-0.32811 0.31907,-0.41489 z"
       sodipodi:nodetypes="ccccc"
       inkscape:transform-center-x="0.14866557"
       inkscape:transform-center-y="0.16463565"
       inkscape:export-filename="C:\Users\basti\OneDrive\Bureau\Gus veut boire un coup\bank\pnj\hooker\hooker_r1.png"
       inkscape:export-xdpi="8.2899275"
       inkscape:export-ydpi="8.2899275" />
    <path
       id="path2169-5-4-0-8"
       style="fill:#ffe6d5;stroke-width:0.456428"
       d="m 100.76282,126.42517 c -0.0946,0.16679 0.4056,0.2714 0.74041,0.30006 0.33479,0.0287 0.49851,-0.0911 0.50703,-0.21447 0.0105,-0.15179 -0.10631,-0.27558 -0.45042,-0.31033 -0.33386,-0.0332 -0.68504,0.0273 -0.79702,0.22474 z"
       sodipodi:nodetypes="sssss"
       inkscape:export-filename="C:\Users\basti\OneDrive\Bureau\Gus veut boire un coup\bank\pnj\hooker\hooker_r1.png"
       inkscape:export-xdpi="8.2899275"
       inkscape:export-ydpi="8.2899275" />
    <path
       id="path3219-1-5"
       style="fill:#a02c2c;stroke-width:0.479568"
       d="m 101.84412,128.343 c -0.0926,0.19209 -0.0858,0.13951 -0.45695,0.12451 -0.35541,-0.0142 -0.3694,-0.0959 -0.3749,-0.11915 -0.005,-0.0232 0.30245,-0.23755 0.46099,-0.23913 0.37108,-0.004 0.38173,0.21085 0.37078,0.23353 z"
       sodipodi:nodetypes="ssssss"
       inkscape:export-filename="C:\Users\basti\OneDrive\Bureau\Gus veut boire un coup\bank\pnj\hooker\hooker_r1.png"
       inkscape:export-xdpi="8.2899275"
       inkscape:export-ydpi="8.2899275" />
    <path
       id="path2169-4"
       style="fill:#2b1100;stroke-width:0.285997"
       d="m 101.96311,126.49864 c -0.0274,0.1446 -0.23326,0.2456 -0.45988,0.22557 -0.22662,-0.02 -0.38817,-0.15348 -0.36081,-0.29809 0.0273,-0.1446 0.2306,-0.23159 0.45722,-0.21157 0.22663,0.02 0.39083,0.13945 0.36347,0.28409 z"
       sodipodi:nodetypes="sssss" />
    <ellipse
       style="fill:#241c1c;stroke-width:0.286697"
       id="path2169-5-28"
       ry="0.13942911"
       rx="0.26322284"
       cy="117.60789"
       cx="123.89344"
       inkscape:export-filename="C:\Users\basti\OneDrive\Bureau\Gus veut boire un coup\bank\pnj\hooker\hooker_r1.png"
       inkscape:export-xdpi="8.2899275"
       inkscape:export-ydpi="8.2899275"
       transform="matrix(0.99611955,0.08801042,-0.1858712,0.98257412,0,0)" />
    <ellipse
       style="fill:#000000;fill-opacity:0.998403;stroke-width:0.433746"
       id="path31470"
       cx="117.4598"
       cy="113.2969"
       rx="0.097419605"
       ry="0.07329201"
       inkscape:export-filename="C:\Users\basti\OneDrive\Bureau\Gus veut boire un coup\bank\pnj\hooker\hooker_r1.png"
       inkscape:export-xdpi="8.2899275"
       inkscape:export-ydpi="8.2899275"
       transform="rotate(7.3663973)" />
    <ellipse
       style="fill:#deaa87;fill-opacity:1;stroke-width:0.381028"
       id="path9819-5-3"
       cx="100.32669"
       cy="134.26921"
       rx="1.3801341"
       ry="0.95373172"
       inkscape:export-filename="C:\Users\basti\OneDrive\Bureau\Gus veut boire un coup\bank\pnj\hooker\hooker_r1.png"
       inkscape:export-xdpi="8.2899275"
       inkscape:export-ydpi="8.2899275" />
    <path
       id="path1496"
       style="fill:#502d16;stroke-width:0.264583"
       d="m 99.17855,127.13871 c 0.294767,0.61756 0.127822,3.60465 -1.17309,4.26312 -0.92175,0.46652 -2.163284,-1.15616 -3.195949,-1.0518 -1.842146,1.72407 -1.446618,0.36349 -2.07971,0.0125 -0.363699,-1.71326 -0.324844,-0.61304 -0.511633,-2.60091 -0.134706,-1.43366 0.126131,-3.51469 0.848831,-4.79704 0.512829,-0.90996 1.728846,-1.33795 2.666221,-1.39894 0.644375,-0.0419 2.558768,-0.0593 3.843306,0.34294 1.202454,0.37644 1.664514,0.88058 1.881774,1.35137 0.46259,1.00231 -2.686802,3.0259 -2.27975,3.87873 z"
       sodipodi:nodetypes="ssccssssss"
       inkscape:export-filename="C:\Users\basti\OneDrive\Bureau\Gus veut boire un coup\bank\pnj\hooker\hooker_r1.png"
       inkscape:export-xdpi="8.2899275"
       inkscape:export-ydpi="8.2899275" />
    <path
       id="rect1717"
       style="opacity:0.99;fill:#a7ac93;stroke-width:0.2"
       d="m 95.702592,132.29717 c 0.03296,-1.31519 0.42818,-1.00494 1.356968,-0.81118 0.190942,0.056 0.132825,1.26979 0.606085,1.5838 0.562846,0.37343 1.022829,0.35532 1.734254,0.38526 0.10159,0.44192 0.331347,1.38226 0.479667,1.66874 -1.06803,0.51425 -1.999705,-0.8579 -3.035114,-0.85458 -0.774559,0.002 -0.635066,-0.66212 -1.14186,-1.97204 z"
       sodipodi:nodetypes="ccsccsc" />
    <path
       id="rect2729"
       style="opacity:0.99;fill:#e6e6e6;stroke-width:0.2"
       d="m 95.157454,138.45893 1.221307,3e-5 c 0.704547,-0.0409 1.496602,0.18028 2.229367,0.3253 0.361006,0.48342 0.142948,0.6316 -0.03867,0.8009 -1.827453,0.0522 -0.151497,-0.05 -3.396599,0.005 -0.296049,-0.31491 -0.388151,-0.7381 -0.01541,-1.13078 z"
       sodipodi:nodetypes="cccccc" />
  </g>
</svg>
