<?xml version="1.0" encoding="UTF-8" standalone="no"?>
<!-- Created with Inkscape (http://www.inkscape.org/) -->

<svg
   width="210mm"
   height="297mm"
   viewBox="0 0 210 297"
   version="1.1"
   id="svg1228"
   inkscape:version="1.2 (dc2aedaf03, 2022-05-15)"
   sodipodi:docname="justi_punch2.svg"
   inkscape:export-filename="..\_bank\image\justi_mega.png"
   inkscape:export-xdpi="18.142857"
   inkscape:export-ydpi="18.142857"
   xmlns:inkscape="http://www.inkscape.org/namespaces/inkscape"
   xmlns:sodipodi="http://sodipodi.sourceforge.net/DTD/sodipodi-0.dtd"
   xmlns="http://www.w3.org/2000/svg"
   xmlns:svg="http://www.w3.org/2000/svg">
  <sodipodi:namedview
     id="namedview1230"
     pagecolor="#ffffff"
     bordercolor="#666666"
     borderopacity="1.0"
     inkscape:showpageshadow="2"
     inkscape:pageopacity="0.0"
     inkscape:pagecheckerboard="0"
     inkscape:deskcolor="#d1d1d1"
     inkscape:document-units="mm"
     showgrid="false"
     inkscape:zoom="8.0000001"
     inkscape:cx="378.4375"
     inkscape:cy="492.0625"
     inkscape:window-width="2400"
     inkscape:window-height="1271"
     inkscape:window-x="2391"
     inkscape:window-y="-9"
     inkscape:window-maximized="1"
     inkscape:current-layer="layer1" />
  <defs
     id="defs1225" />
  <g
     inkscape:label="Calque 1"
     inkscape:groupmode="layer"
     id="layer1">
    <path
       id="rect2729-6"
       style="opacity:0.99;fill:#cccccc;fill-opacity:1;stroke-width:0.2"
       d="m 94.430561,138.44792 1.221307,2e-5 c 0.704547,-0.0409 1.4966,0.18028 2.229367,0.3253 0.361007,0.48343 0.142947,0.63161 -0.0387,0.8009 -1.827453,0.0522 -0.1515,-0.05 -3.396599,0.005 -0.296049,-0.31491 -0.388151,-0.7381 -0.01541,-1.13077 z"
       sodipodi:nodetypes="cccccc"
       inkscape:export-filename="..\_bank\perso\justi\justi_punch2_4.png"
       inkscape:export-xdpi="95.618889"
       inkscape:export-ydpi="95.618889" />
    <path
       id="rect3235-9"
       style="fill:#deb200;fill-opacity:1;stroke-width:0.264584"
       d="m 97.963921,133.7143 -3.323789,1.56687 c 0.45175,0.68513 0.112896,2.34697 -0.209606,3.1672 l 1.802603,-0.005 z"
       sodipodi:nodetypes="ccccc"
       inkscape:export-filename="C:\Users\basti\OneDrive\Bureau\Gus veut boire un coup\bank\pnj\hooker\hooker_r1.png"
       inkscape:export-xdpi="8.2899275"
       inkscape:export-ydpi="8.2899275" />
    <path
       id="rect3235"
       style="fill:#ffcc00;stroke-width:0.264584"
       d="m 98.13414,134.40969 -3.611052,0.6804 c 0.264879,0.77675 3.520317,2.73168 3.001863,3.4444 l 1.62151,-0.005 z"
       sodipodi:nodetypes="ccccc"
       inkscape:export-filename="C:\Users\basti\OneDrive\Bureau\Gus veut boire un coup\bank\pnj\hooker\hooker_r1.png"
       inkscape:export-xdpi="8.2899275"
       inkscape:export-ydpi="8.2899275" />
    <ellipse
       style="fill:#d99d74;fill-opacity:1;stroke-width:0.148272"
       id="path9819-9-5-9-7"
       cx="53.944843"
       cy="154.90277"
       rx="0.3583352"
       ry="0.29579908"
       inkscape:export-filename="C:\Users\basti\OneDrive\Bureau\Gus veut boire un coup\bank\pnj\hooker\hooker_r1.png"
       inkscape:export-xdpi="8.2899275"
       inkscape:export-ydpi="8.2899275"
       transform="rotate(-18.343512)" />
    <ellipse
       style="fill:#d99d74;fill-opacity:1;stroke-width:0.381028"
       id="path9819-5-3-9"
       cx="54.565746"
       cy="155.63849"
       rx="1.0279322"
       ry="0.73571372"
       inkscape:export-filename="C:\Users\basti\OneDrive\Bureau\Gus veut boire un coup\bank\pnj\hooker\hooker_r1.png"
       inkscape:export-xdpi="8.2899275"
       inkscape:export-ydpi="8.2899275"
       transform="rotate(-18.343512)" />
    <path
       id="path6843-9"
       style="fill:#0b2817;stroke-width:0.264583"
       d="m 98.707062,134.15459 c -0.388086,1.78724 -1.073097,0.62596 -2.071596,0.67983 -1.86558,0.10064 -2.595141,1.35589 -3.023657,-1.07082 -0.428248,-2.42521 1.227652,-4.856 3.096145,-4.93913 1.778661,-0.0791 2.629021,2.47173 2.98977,3.73091 0.193343,0.67483 -0.827711,0.84875 -0.990662,1.59921 z"
       sodipodi:nodetypes="ssssss"
       inkscape:export-filename="C:\Users\basti\OneDrive\Bureau\Gus veut boire un coup\bank\pnj\hooker\hooker_r1.png"
       inkscape:export-xdpi="8.2899275"
       inkscape:export-ydpi="8.2899275" />
    <path
       id="path6843-9-8"
       style="fill:#00ff00;stroke-width:0.264583"
       d="m 98.430836,131.68615 c -1.172608,-1.40351 -1.067926,-1.67467 -2.066425,-1.6208 -1.86558,0.10064 -2.820783,2.33418 -2.447226,1.07582 0.544683,-1.8348 0.922276,-2.23357 2.790769,-2.3167 1.778661,-0.0791 2.232036,1.72147 2.738321,2.9295 0.309014,0.73733 -0.584476,0.448 -1.015439,-0.0678 z"
       sodipodi:nodetypes="ssssss"
       inkscape:export-filename="C:\Users\basti\OneDrive\Bureau\Gus veut boire un coup\bank\pnj\hooker\hooker_r1.png"
       inkscape:export-xdpi="8.2899275"
       inkscape:export-ydpi="8.2899275" />
    <path
       id="path31-6"
       style="fill:#deaa87;fill-opacity:1;fill-rule:evenodd;stroke-width:0.357437"
       d="m 92.915529,125.22318 c -0.472339,3.92852 -1.158952,1.76089 2.733128,3.74448 0.834744,0.42543 1.344494,0.17038 1.818892,0.2546 0.474641,0.0846 0.523928,0.473 1.051529,0.35636 0.379822,-0.084 0.46329,0.0288 1.007156,-0.0521 1.160446,-0.17272 1.905806,-1.03668 2.173756,-1.68867 0.73905,-1.79839 -0.40999,-5.34986 -4.37339,-5.7995 -3.620809,-0.41077 -4.0514,0.1935 -4.411023,3.18453 z"
       sodipodi:nodetypes="sssssssss"
       inkscape:export-filename="C:\Users\basti\OneDrive\Bureau\Gus veut boire un coup\bank\pnj\hooker\hooker_r1.png"
       inkscape:export-xdpi="8.2899275"
       inkscape:export-ydpi="8.2899275" />
    <ellipse
       style="fill:#deaa87;fill-opacity:1;stroke-width:0.148272"
       id="path9819-9-5-9"
       cx="54.832981"
       cy="154.61322"
       rx="0.48111215"
       ry="0.38345483"
       inkscape:export-filename="C:\Users\basti\OneDrive\Bureau\Gus veut boire un coup\bank\pnj\hooker\hooker_r1.png"
       inkscape:export-xdpi="8.2899275"
       inkscape:export-ydpi="8.2899275"
       transform="rotate(-18.343512)" />
    <path
       id="rect1430-21"
       style="fill:#502d16;stroke-width:0.147507"
       d="m 100.72164,125.21787 0.56273,0.0549 0.48638,0.30708 c -0.49713,-0.12191 -0.99312,-0.26504 -1.50515,-0.10519 -0.0106,-0.12816 0.44621,-0.1668 0.45603,-0.25687 z"
       sodipodi:nodetypes="ccccc"
       inkscape:transform-center-x="0.21660687"
       inkscape:transform-center-y="0.008522914"
       inkscape:export-filename="C:\Users\basti\OneDrive\Bureau\Gus veut boire un coup\bank\pnj\hooker\hooker_r1.png"
       inkscape:export-xdpi="8.2899275"
       inkscape:export-ydpi="8.2899275" />
    <path
       id="path2169-5-4-0-8"
       style="fill:#ffe6d5;stroke-width:0.456428"
       d="m 100.40377,126.21785 c -0.0982,0.25052 0.23453,0.51068 0.56871,0.55876 0.33412,0.0481 0.66556,-0.22551 0.67674,-0.41166 0.0138,-0.22905 -0.18995,-0.52833 -0.53327,-0.58572 -0.33311,-0.055 -0.59596,0.14211 -0.71218,0.43862 z"
       sodipodi:nodetypes="sssss"
       inkscape:export-filename="C:\Users\basti\OneDrive\Bureau\Gus veut boire un coup\bank\pnj\hooker\hooker_r1.png"
       inkscape:export-xdpi="8.2899275"
       inkscape:export-ydpi="8.2899275" />
    <path
       id="path3219-1-5"
       style="fill:#a02c2c;stroke-width:0.479568"
       d="m 101.45529,128.30624 c -0.0953,0.19075 -0.0105,0.17598 -0.38142,0.15566 -0.35517,-0.0193 -0.44514,-0.13925 -0.45044,-0.16217 -0.005,-0.0232 0.27998,-0.0124 0.43853,-0.0118 0.3711,0.001 0.40451,-0.004 0.39324,0.018 z"
       sodipodi:nodetypes="sssss"
       inkscape:export-filename="C:\Users\basti\OneDrive\Bureau\Gus veut boire un coup\bank\pnj\hooker\hooker_r1.png"
       inkscape:export-xdpi="8.2899275"
       inkscape:export-ydpi="8.2899275" />
    <ellipse
       style="fill:#2b1100;stroke-width:0.285997"
       id="path2169-4"
       ry="0.38631111"
       rx="0.41376001"
       cy="110.60309"
       cx="118.14563"
       inkscape:export-filename="C:\Users\basti\OneDrive\Bureau\Gus veut boire un coup\bank\pnj\hooker\hooker_r1.png"
       inkscape:export-xdpi="8.2899275"
       inkscape:export-ydpi="8.2899275"
       transform="rotate(8.1863525)" />
    <ellipse
       style="fill:#241c1c;stroke-width:0.285997"
       id="path2169-5-28"
       ry="0.20212972"
       rx="0.26438349"
       cy="110.60309"
       cx="118.14563"
       inkscape:export-filename="C:\Users\basti\OneDrive\Bureau\Gus veut boire un coup\bank\pnj\hooker\hooker_r1.png"
       inkscape:export-xdpi="8.2899275"
       inkscape:export-ydpi="8.2899275"
       transform="rotate(8.1863525)" />
    <ellipse
       style="fill:#000000;fill-opacity:0.998403;stroke-width:0.433746"
       id="path31470"
       cx="118.6923"
       cy="111.62329"
       rx="0.097419605"
       ry="0.07329201"
       inkscape:export-filename="C:\Users\basti\OneDrive\Bureau\Gus veut boire un coup\bank\pnj\hooker\hooker_r1.png"
       inkscape:export-xdpi="8.2899275"
       inkscape:export-ydpi="8.2899275"
       transform="rotate(8.1863525)" />
    <ellipse
       style="fill:#deaa87;fill-opacity:1;stroke-width:0.381028"
       id="path9819-5-3"
       cx="55.82542"
       cy="155.44849"
       rx="1.3801341"
       ry="0.95373172"
       inkscape:export-filename="C:\Users\basti\OneDrive\Bureau\Gus veut boire un coup\bank\pnj\hooker\hooker_r1.png"
       inkscape:export-xdpi="8.2899275"
       inkscape:export-ydpi="8.2899275"
       transform="rotate(-18.343512)" />
    <path
       id="path1496"
       style="fill:#502d16;stroke-width:0.264583"
       d="m 98.634323,127.16696 c 0.354651,0.58522 0.485246,3.57412 -0.743823,4.35856 -0.870852,0.55577 -2.26743,-0.93557 -3.284621,-0.72914 -1.66178,1.89853 -1.403357,0.50539 -2.068228,0.21862 -0.532082,-1.66867 -0.38413,-0.57774 -0.767457,-2.53724 -0.276449,-1.41318 -0.223614,-3.50983 0.368131,-4.85762 0.419904,-0.95641 1.587394,-1.50306 2.514075,-1.65687 0.637024,-0.10571 2.540226,-0.31314 3.858364,-0.0405 1.233899,0.25513 1.743766,0.71088 2.006716,1.15775 0.55986,0.95141 -2.372958,3.27783 -1.883205,4.08601 z"
       sodipodi:nodetypes="ssccssssss"
       inkscape:export-filename="C:\Users\basti\OneDrive\Bureau\Gus veut boire un coup\bank\pnj\hooker\hooker_r1.png"
       inkscape:export-xdpi="8.2899275"
       inkscape:export-ydpi="8.2899275" />
    <path
       id="rect1717"
       style="opacity:0.99;fill:#a7ac93;stroke-width:0.2"
       d="m 95.409941,132.30864 c -0.700775,-1.11342 0.243195,-0.81369 1.123897,-1.16661 0.190099,-0.0588 1.457303,0.12304 2.025262,0.12248 0.675459,-7e-4 1.432476,-0.48023 2.04136,-0.84953 0.32929,0.31173 0.55609,0.39285 0.83821,0.54928 -0.60462,1.01959 -1.702293,0.92874 -2.562656,1.50481 -0.643878,0.43054 -2.318746,0.64977 -3.466073,-0.16043 z"
       sodipodi:nodetypes="ccsccsc" />
    <path
       id="rect2729"
       style="opacity:0.99;fill:#e6e6e6;stroke-width:0.2"
       d="m 97.524951,138.53449 1.221307,2e-5 c 0.704547,-0.0409 1.496602,0.18028 2.229372,0.3253 0.36101,0.48343 0.14295,0.63161 -0.0387,0.8009 -1.827458,0.0522 -0.1515,-0.05 -3.396604,0.005 -0.296049,-0.31491 -0.388151,-0.7381 -0.01541,-1.13077 z"
       sodipodi:nodetypes="cccccc" />
  </g>
</svg>
