<?xml version="1.0" encoding="UTF-8" standalone="no"?>
<!-- Created with Inkscape (http://www.inkscape.org/) -->

<svg
   width="210mm"
   height="297mm"
   viewBox="0 0 210 297"
   version="1.1"
   id="svg1228"
   inkscape:version="1.2 (dc2aedaf03, 2022-05-15)"
   sodipodi:docname="justi_down.svg"
   inkscape:export-filename="..\_bank\image\justi_mega.png"
   inkscape:export-xdpi="18.142857"
   inkscape:export-ydpi="18.142857"
   xmlns:inkscape="http://www.inkscape.org/namespaces/inkscape"
   xmlns:sodipodi="http://sodipodi.sourceforge.net/DTD/sodipodi-0.dtd"
   xmlns="http://www.w3.org/2000/svg"
   xmlns:svg="http://www.w3.org/2000/svg">
  <sodipodi:namedview
     id="namedview1230"
     pagecolor="#ffffff"
     bordercolor="#666666"
     borderopacity="1.0"
     inkscape:showpageshadow="2"
     inkscape:pageopacity="0.0"
     inkscape:pagecheckerboard="0"
     inkscape:deskcolor="#d1d1d1"
     inkscape:document-units="mm"
     showgrid="false"
     inkscape:zoom="5.6568543"
     inkscape:cx="355.23277"
     inkscape:cy="502.84131"
     inkscape:window-width="2400"
     inkscape:window-height="1271"
     inkscape:window-x="2391"
     inkscape:window-y="-9"
     inkscape:window-maximized="1"
     inkscape:current-layer="layer1" />
  <defs
     id="defs1225" />
  <g
     inkscape:label="Calque 1"
     inkscape:groupmode="layer"
     id="layer1">
    <path
       id="rect2729-6"
       style="opacity:0.99;fill:#cccccc;fill-opacity:1;stroke-width:0.2"
       d="m 94.476203,138.44569 1.219989,0.0568 c 0.705686,-0.008 1.486608,0.24964 2.211839,0.42856 0.338156,0.49969 0.113449,0.63757 -0.07587,0.79824 -1.827911,-0.0328 -0.149008,-0.057 -3.393164,-0.15286 -0.281098,-0.32833 -0.353433,-0.75534 0.03716,-1.13027 z"
       sodipodi:nodetypes="cccccc"
       inkscape:export-filename="..\_bank\perso\justi\justi_down4.png"
       inkscape:export-xdpi="95.618889"
       inkscape:export-ydpi="95.618889" />
    <path
       id="rect3235-9"
       style="fill:#deb200;fill-opacity:1;stroke-width:0.264584"
       d="m 98.033366,136.66967 c -0.383262,-0.20521 0.289944,-1.31798 -0.0114,-1.51374 -0.630418,-0.40953 -1.430921,-0.14119 -2.232714,-0.30441 -0.142768,1.78156 -0.945623,3.2747 -1.313095,3.59464 l 1.710033,0.0709 z"
       sodipodi:nodetypes="cscccc"
       inkscape:export-filename="C:\Users\basti\OneDrive\Bureau\Gus veut boire un coup\bank\pnj\hooker\hooker_r1.png"
       inkscape:export-xdpi="8.2899275"
       inkscape:export-ydpi="8.2899275" />
    <path
       id="rect3235"
       style="fill:#ffcc00;stroke-width:0.264584"
       d="m 97.970041,134.85152 c -0.926496,-0.1019 -2.331633,0.0327 -3.446953,0.23857 0.264879,0.77675 2.205273,2.89179 1.686819,3.60451 l 1.892236,-0.0791 v -2.50125 z"
       sodipodi:nodetypes="cccccc"
       inkscape:export-filename="C:\Users\basti\OneDrive\Bureau\Gus veut boire un coup\bank\pnj\hooker\hooker_r1.png"
       inkscape:export-xdpi="8.2899275"
       inkscape:export-ydpi="8.2899275" />
    <ellipse
       style="fill:#d99d74;fill-opacity:1;stroke-width:0.148272"
       id="path9819-9-5-9-7"
       cx="51.456615"
       cy="155.75775"
       rx="0.44504142"
       ry="0.37403113"
       inkscape:export-filename="C:\Users\basti\OneDrive\Bureau\Gus veut boire un coup\bank\pnj\hooker\hooker_r1.png"
       inkscape:export-xdpi="8.2899275"
       inkscape:export-ydpi="8.2899275"
       transform="rotate(-19.321107)" />
    <ellipse
       style="fill:#d99d74;fill-opacity:1;stroke-width:0.381028"
       id="path9819-5-3-9"
       cx="51.955685"
       cy="156.75691"
       rx="1.2766604"
       ry="0.93029302"
       inkscape:export-filename="C:\Users\basti\OneDrive\Bureau\Gus veut boire un coup\bank\pnj\hooker\hooker_r1.png"
       inkscape:export-xdpi="8.2899275"
       inkscape:export-ydpi="8.2899275"
       transform="rotate(-19.321107)" />
    <path
       id="path6843-9"
       style="fill:#0b2817;stroke-width:0.264583"
       d="m 98.707062,134.15459 c -0.388086,1.78724 -1.073097,0.62596 -2.071596,0.67983 -1.86558,0.10064 -2.595141,1.35589 -3.023657,-1.07082 -0.428248,-2.42521 1.227652,-4.856 3.096145,-4.93913 1.778661,-0.0791 2.629021,2.47173 2.98977,3.73091 0.193343,0.67483 -0.827711,0.84875 -0.990662,1.59921 z"
       sodipodi:nodetypes="ssssss"
       inkscape:export-filename="C:\Users\basti\OneDrive\Bureau\Gus veut boire un coup\bank\pnj\hooker\hooker_r1.png"
       inkscape:export-xdpi="8.2899275"
       inkscape:export-ydpi="8.2899275" />
    <path
       id="path6843-9-8"
       style="fill:#00ff00;stroke-width:0.264583"
       d="m 98.430836,131.68615 c -1.172608,-1.40351 -1.067926,-1.67467 -2.066425,-1.6208 -1.86558,0.10064 -2.820783,2.33418 -2.447226,1.07582 0.544683,-1.8348 0.922276,-2.23357 2.790769,-2.3167 1.778661,-0.0791 2.232036,1.72147 2.738321,2.9295 0.309014,0.73733 -0.584476,0.448 -1.015439,-0.0678 z"
       sodipodi:nodetypes="ssssss"
       inkscape:export-filename="C:\Users\basti\OneDrive\Bureau\Gus veut boire un coup\bank\pnj\hooker\hooker_r1.png"
       inkscape:export-xdpi="8.2899275"
       inkscape:export-ydpi="8.2899275" />
    <path
       id="path31-6"
       style="fill:#deaa87;fill-opacity:1;fill-rule:evenodd;stroke-width:0.357437"
       d="m 93.32775,124.35583 c -1.221691,3.76348 -1.477023,1.50408 1.959025,4.20159 0.736941,0.57853 1.286327,0.42667 1.735556,0.60086 0.4494,0.17456 0.42278,0.56524 0.962957,0.55265 0.388882,-0.009 0.449014,0.11774 0.998272,0.14327 1.17198,0.0545 2.07007,-0.64935 2.45882,-1.23737 1.07226,-1.62193 0.63026,-5.3284 -3.171822,-6.53454 -3.473448,-1.1019 -4.012568,-0.59209 -4.942723,2.27329 z"
       sodipodi:nodetypes="sssssssss"
       inkscape:export-filename="C:\Users\basti\OneDrive\Bureau\Gus veut boire un coup\bank\pnj\hooker\hooker_r1.png"
       inkscape:export-xdpi="8.2899275"
       inkscape:export-ydpi="8.2899275" />
    <ellipse
       style="fill:#deaa87;fill-opacity:1;stroke-width:0.148272"
       id="path9819-9-5-9"
       cx="51.341587"
       cy="156.54161"
       rx="0.48111215"
       ry="0.38345483"
       inkscape:export-filename="C:\Users\basti\OneDrive\Bureau\Gus veut boire un coup\bank\pnj\hooker\hooker_r1.png"
       inkscape:export-xdpi="8.2899275"
       inkscape:export-ydpi="8.2899275"
       transform="rotate(-19.321107)" />
    <path
       id="rect1430-21"
       style="fill:#502d16;stroke-width:0.147507"
       d="m 101.08084,125.99721 0.48269,0.29444 0.30411,0.48825 c -0.39443,-0.32624 -0.77858,-0.67109 -1.30913,-0.75018 0.0463,-0.11997 0.47432,0.0442 0.52238,-0.0327 z"
       sodipodi:nodetypes="ccccc"
       inkscape:transform-center-x="0.25452656"
       inkscape:transform-center-y="0.0062049201"
       inkscape:export-filename="C:\Users\basti\OneDrive\Bureau\Gus veut boire un coup\bank\pnj\hooker\hooker_r1.png"
       inkscape:export-xdpi="8.2899275"
       inkscape:export-ydpi="8.2899275" />
    <path
       id="path2169-5-4-0-8"
       style="fill:#ffe6d5;stroke-width:0.456428"
       d="m 100.48321,126.77707 c -0.14468,0.22687 0.13161,0.54636 0.45016,0.65802 0.31858,0.11166 0.69659,-0.0928 0.7435,-0.27329 0.0577,-0.22211 -0.0844,-0.55507 -0.41021,-0.67764 -0.31622,-0.11825 -0.61219,0.0244 -0.78345,0.29291 z"
       sodipodi:nodetypes="sssss"
       inkscape:export-filename="C:\Users\basti\OneDrive\Bureau\Gus veut boire un coup\bank\pnj\hooker\hooker_r1.png"
       inkscape:export-xdpi="8.2899275"
       inkscape:export-ydpi="8.2899275" />
    <path
       id="path3219-1-5"
       style="fill:#a02c2c;stroke-width:0.479568"
       d="m 101.14564,129.05312 c -0.13035,0.16876 -0.0442,0.17064 -0.40429,0.0792 -0.34477,-0.0875 -0.4101,-0.22215 -0.41065,-0.24607 1e-5,-0.0238 0.27711,0.0418 0.43255,0.0731 0.36383,0.073 0.39777,0.0737 0.38236,0.0936 z"
       sodipodi:nodetypes="sssss"
       inkscape:export-filename="C:\Users\basti\OneDrive\Bureau\Gus veut boire un coup\bank\pnj\hooker\hooker_r1.png"
       inkscape:export-xdpi="8.2899275"
       inkscape:export-ydpi="8.2899275" />
    <ellipse
       style="fill:#2b1100;stroke-width:0.285997"
       id="path2169-4"
       ry="0.38631111"
       rx="0.41376001"
       cy="86.357353"
       cx="137.51624"
       inkscape:export-filename="C:\Users\basti\OneDrive\Bureau\Gus veut boire un coup\bank\pnj\hooker\hooker_r1.png"
       inkscape:export-xdpi="8.2899275"
       inkscape:export-ydpi="8.2899275"
       transform="rotate(19.314678)" />
    <ellipse
       style="fill:#241c1c;stroke-width:0.285997"
       id="path2169-5-28"
       ry="0.20212972"
       rx="0.26438349"
       cy="86.383965"
       cx="137.56364"
       inkscape:export-filename="C:\Users\basti\OneDrive\Bureau\Gus veut boire un coup\bank\pnj\hooker\hooker_r1.png"
       inkscape:export-xdpi="8.2899275"
       inkscape:export-ydpi="8.2899275"
       transform="rotate(19.314678)" />
    <ellipse
       style="fill:#000000;fill-opacity:0.998403;stroke-width:0.433746"
       id="path31470"
       cx="138.05179"
       cy="87.776749"
       rx="0.097419605"
       ry="0.07329201"
       inkscape:export-filename="C:\Users\basti\OneDrive\Bureau\Gus veut boire un coup\bank\pnj\hooker\hooker_r1.png"
       inkscape:export-xdpi="8.2899275"
       inkscape:export-ydpi="8.2899275"
       transform="rotate(19.314678)" />
    <ellipse
       style="fill:#deaa87;fill-opacity:1;stroke-width:0.381028"
       id="path9819-5-3"
       cx="64.692886"
       cy="152.55342"
       rx="1.3801341"
       ry="0.95373172"
       inkscape:export-filename="C:\Users\basti\OneDrive\Bureau\Gus veut boire un coup\bank\pnj\hooker\hooker_r1.png"
       inkscape:export-xdpi="8.2899275"
       inkscape:export-ydpi="8.2899275"
       transform="rotate(-14.528685)" />
    <path
       id="path1496"
       style="fill:#502d16;stroke-width:0.264583"
       d="m 98.742565,127.51142 c 0.215193,0.64959 -0.324132,3.59233 -1.6972,4.08287 -0.972873,0.34755 -2.001651,-1.41772 -3.03926,-1.44335 -2.043358,1.48005 -1.480723,0.17968 -2.064938,-0.24775 -0.146546,-1.7453 -0.245599,-0.64886 -0.182234,-2.64449 0.0457,-1.43924 0.564836,-3.4713 1.442284,-4.65316 0.622637,-0.83866 1.882643,-1.11115 2.820285,-1.0544 0.644561,0.039 2.546079,0.26131 3.770209,0.82106 1.145909,0.52391 1.541269,1.08189 1.697929,1.57616 0.33357,1.05231 -3.044241,2.66601 -2.747077,3.56306 z"
       sodipodi:nodetypes="ssccssssss"
       inkscape:export-filename="C:\Users\basti\OneDrive\Bureau\Gus veut boire un coup\bank\pnj\hooker\hooker_r1.png"
       inkscape:export-xdpi="8.2899275"
       inkscape:export-ydpi="8.2899275" />
    <path
       id="rect1717"
       style="opacity:0.99;fill:#a7ac93;stroke-width:0.2"
       d="m 95.380266,132.28879 c -0.117615,-1.31034 0.310483,-1.04731 1.255332,-0.96099 0.196135,0.0335 0.255965,0.88606 0.76202,1.14391 0.601848,0.30663 1.390026,-1.05745 2.100209,-1.10904 0.151449,0.42741 0.609523,0.76268 0.789623,1.03032 -1.002237,0.63298 -1.74869,1.34164 -2.77693,1.46331 -0.769253,0.0905 -1.477029,-0.32411 -2.130254,-1.56751 z"
       sodipodi:nodetypes="ccsccsc" />
    <path
       id="rect2729"
       style="opacity:0.99;fill:#e6e6e6;stroke-width:0.2"
       d="m 96.210074,138.69415 1.219794,-0.0607 c 0.701651,-0.0758 1.503711,0.10569 2.242781,0.21411 0.384571,0.46491 0.17418,0.62373 10e-4,0.80183 -1.822599,0.14296 -0.15379,-0.0423 -3.392152,0.17381 -0.311335,-0.29981 -0.424354,-0.71789 -0.07159,-1.1286 z"
       sodipodi:nodetypes="cccccc" />
  </g>
</svg>
