<?xml version="1.0" encoding="UTF-8" standalone="no"?>
<!-- Created with Inkscape (http://www.inkscape.org/) -->

<svg
   width="210mm"
   height="297mm"
   viewBox="0 0 210 297"
   version="1.1"
   id="svg1228"
   inkscape:version="1.2 (dc2aedaf03, 2022-05-15)"
   sodipodi:docname="justi_jump.svg"
   xmlns:inkscape="http://www.inkscape.org/namespaces/inkscape"
   xmlns:sodipodi="http://sodipodi.sourceforge.net/DTD/sodipodi-0.dtd"
   xmlns="http://www.w3.org/2000/svg"
   xmlns:svg="http://www.w3.org/2000/svg">
  <sodipodi:namedview
     id="namedview1230"
     pagecolor="#ffffff"
     bordercolor="#666666"
     borderopacity="1.0"
     inkscape:showpageshadow="2"
     inkscape:pageopacity="0.0"
     inkscape:pagecheckerboard="0"
     inkscape:deskcolor="#d1d1d1"
     inkscape:document-units="mm"
     showgrid="false"
     inkscape:zoom="4"
     inkscape:cx="340.875"
     inkscape:cy="525.625"
     inkscape:window-width="1920"
     inkscape:window-height="1001"
     inkscape:window-x="-9"
     inkscape:window-y="-9"
     inkscape:window-maximized="1"
     inkscape:current-layer="layer1" />
  <defs
     id="defs1225" />
  <g
     inkscape:label="Calque 1"
     inkscape:groupmode="layer"
     id="layer1">
    <path
       id="rect2729-6"
       style="opacity:0.99;fill:#cccccc;fill-opacity:1;stroke-width:0.2"
       d="m 96.906562,138.3487 1.221307,2e-5 c 0.704547,-0.0409 1.496601,0.18028 2.229371,0.3253 0.36101,0.48343 0.14295,0.63161 -0.0387,0.8009 -1.827457,0.0522 -0.1515,-0.05 -3.396603,0.005 -0.296049,-0.31491 -0.388151,-0.7381 -0.01541,-1.13077 z"
       sodipodi:nodetypes="cccccc"
       inkscape:export-filename="..\bank\perso\justi\justi_jump_4.png"
       inkscape:export-xdpi="90.551407"
       inkscape:export-ydpi="90.551407" />
    <path
       id="rect3235-9"
       style="fill:#deb200;fill-opacity:1;stroke-width:0.264584"
       d="m 97.963921,133.7143 -3.323789,1.56687 c 0.292207,0.44316 1.382141,1.01112 2.169472,1.77936 0.429878,0.41945 0.210858,0.99849 0.09696,1.28817 l 1.221307,2e-5 0.479008,-1.53765 z"
       sodipodi:nodetypes="ccscccc"
       inkscape:export-filename="C:\Users\basti\OneDrive\Bureau\Gus veut boire un coup\bank\pnj\hooker\hooker_r1.png"
       inkscape:export-xdpi="8.2899275"
       inkscape:export-ydpi="8.2899275" />
    <path
       id="rect3235"
       style="fill:#ffcc00;stroke-width:0.264584"
       d="m 98.13414,134.40969 -3.611052,0.6804 c 0.133601,0.39178 0.650225,1.19916 0.636798,1.87994 -0.01319,0.66895 -0.27465,1.13611 -0.531604,1.48935 l 1.221312,-4.2e-4 1.167237,-1.70029 z"
       sodipodi:nodetypes="ccscccc"
       inkscape:export-filename="C:\Users\basti\OneDrive\Bureau\Gus veut boire un coup\bank\pnj\hooker\hooker_r1.png"
       inkscape:export-xdpi="8.2899275"
       inkscape:export-ydpi="8.2899275" />
    <ellipse
       style="fill:#d99d74;fill-opacity:1;stroke-width:0.148272"
       id="path9819-9-5-9-7"
       cx="139.38609"
       cy="87.131676"
       rx="0.44504142"
       ry="0.37403113"
       inkscape:export-filename="C:\Users\basti\OneDrive\Bureau\Gus veut boire un coup\bank\pnj\hooker\hooker_r1.png"
       inkscape:export-xdpi="8.2899275"
       inkscape:export-ydpi="8.2899275"
       transform="rotate(20.476787)" />
    <ellipse
       style="fill:#d99d74;fill-opacity:1;stroke-width:0.381028"
       id="path9819-5-3-9"
       cx="140.44234"
       cy="87.687935"
       rx="1.2766604"
       ry="0.93029302"
       inkscape:export-filename="C:\Users\basti\OneDrive\Bureau\Gus veut boire un coup\bank\pnj\hooker\hooker_r1.png"
       inkscape:export-xdpi="8.2899275"
       inkscape:export-ydpi="8.2899275"
       transform="rotate(20.476787)" />
    <path
       id="path6843-9"
       style="fill:#0b2817;stroke-width:0.264583"
       d="m 98.707062,134.15459 c -0.388086,1.78724 -1.073097,0.62596 -2.071596,0.67983 -1.86558,0.10064 -2.595141,1.35589 -3.023657,-1.07082 -0.428248,-2.42521 1.227652,-4.856 3.096145,-4.93913 1.778661,-0.0791 2.629021,2.47173 2.98977,3.73091 0.193343,0.67483 -0.827711,0.84875 -0.990662,1.59921 z"
       sodipodi:nodetypes="ssssss"
       inkscape:export-filename="C:\Users\basti\OneDrive\Bureau\Gus veut boire un coup\bank\pnj\hooker\hooker_r1.png"
       inkscape:export-xdpi="8.2899275"
       inkscape:export-ydpi="8.2899275" />
    <path
       id="path6843-9-8"
       style="fill:#00ff00;stroke-width:0.264583"
       d="m 98.808682,131.00775 c -0.60753,-1.72503 -0.4146,-1.94244 -1.36885,-2.24128 -1.78291,-0.55834 -3.4591,1.19994 -2.66895,0.15174 1.15214,-1.52832 1.64537,-1.76981 3.4249,-1.19398 1.69394,0.54812 1.48878,2.39352 1.54047,3.70233 0.0316,0.79885 -0.70425,0.21525 -0.92756,-0.41874 z"
       sodipodi:nodetypes="ssssss"
       inkscape:export-filename="C:\Users\basti\OneDrive\Bureau\Gus veut boire un coup\bank\pnj\hooker\hooker_r1.png"
       inkscape:export-xdpi="8.2899275"
       inkscape:export-ydpi="8.2899275" />
    <path
       id="path31-6"
       style="fill:#deaa87;fill-opacity:1;fill-rule:evenodd;stroke-width:0.357437"
       d="m 95.873462,123.73778 c -1.29777,3.73795 -1.50722,1.47382 1.8734,4.24046 0.72506,0.59337 1.27741,0.45267 1.72302,0.63594 0.44577,0.18364 0.41123,0.5737 0.951548,0.57207 0.38898,-0.001 0.44653,0.12682 0.99516,0.16349 1.17063,0.0782 2.08281,-0.60723 2.48341,-1.18725 1.10493,-1.59985 0.7382,-5.31452 -3.03864,-6.59753 -3.450378,-1.17212 -3.999728,-0.67334 -4.987808,2.17258 z"
       sodipodi:nodetypes="sssssssss"
       inkscape:export-filename="C:\Users\basti\OneDrive\Bureau\Gus veut boire un coup\bank\pnj\hooker\hooker_r1.png"
       inkscape:export-xdpi="8.2899275"
       inkscape:export-ydpi="8.2899275" />
    <ellipse
       style="fill:#deaa87;fill-opacity:1;stroke-width:0.148272"
       id="path9819-9-5-9"
       cx="139.97713"
       cy="87.494118"
       rx="0.48111215"
       ry="0.38345483"
       inkscape:export-filename="C:\Users\basti\OneDrive\Bureau\Gus veut boire un coup\bank\pnj\hooker\hooker_r1.png"
       inkscape:export-xdpi="8.2899275"
       inkscape:export-ydpi="8.2899275"
       transform="rotate(20.476787)" />
    <path
       id="rect1430-21"
       style="fill:#502d16;stroke-width:0.147507"
       d="m 103.45449,125.36883 0.47662,0.30418 0.29413,0.49433 c -0.38773,-0.33418 -0.7648,-0.68675 -1.29363,-0.77658 0.0487,-0.11905 0.47331,0.0538 0.52292,-0.0221 z"
       sodipodi:nodetypes="ccccc"
       inkscape:transform-center-x="0.25506093"
       inkscape:transform-center-y="0.002173666"
       inkscape:export-filename="C:\Users\basti\OneDrive\Bureau\Gus veut boire un coup\bank\pnj\hooker\hooker_r1.png"
       inkscape:export-xdpi="8.2899275"
       inkscape:export-ydpi="8.2899275" />
    <path
       id="path2169-5-4-0-8"
       style="fill:#ffe6d5;stroke-width:0.456428"
       d="m 102.97834,126.30366 c -0.14925,0.22388 0.30205,0.49119 0.61832,0.6093 0.31625,0.1181 0.51673,-0.021 0.5674,-0.20013 0.0622,-0.2209 -0.009,-0.42948 -0.33238,-0.55863 -0.31376,-0.12465 -0.67655,-0.11517 -0.85323,0.14977 z"
       sodipodi:nodetypes="sssss"
       inkscape:export-filename="C:\Users\basti\OneDrive\Bureau\Gus veut boire un coup\bank\pnj\hooker\hooker_r1.png"
       inkscape:export-xdpi="8.2899275"
       inkscape:export-ydpi="8.2899275" />
    <path
       id="path3219-1-5"
       style="fill:#a02c2c;stroke-width:0.479568"
       d="m 103.56122,128.56802 c -0.13376,0.16608 -0.1152,0.11642 -0.47329,0.0176 -0.34293,-0.0944 -0.33803,-0.17714 -0.3381,-0.20108 8.6e-4,-0.0239 0.27621,0.0474 0.43098,0.0818 0.36228,0.0804 0.39619,0.0818 0.38038,0.10138 z"
       sodipodi:nodetypes="ssssss"
       inkscape:export-filename="C:\Users\basti\OneDrive\Bureau\Gus veut boire un coup\bank\pnj\hooker\hooker_r1.png"
       inkscape:export-xdpi="8.2899275"
       inkscape:export-ydpi="8.2899275" />
    <path
       id="path2169-4"
       style="fill:#2b1100;stroke-width:0.285997"
       d="m 104.11942,126.69581 c -0.0746,0.19987 -0.30869,0.29709 -0.52275,0.21719 -0.21407,-0.0799 -0.32711,-0.30678 -0.2525,-0.50664 0.0746,-0.19987 0.30146,-0.27773 0.51537,-0.19822 0.21407,0.0799 0.33435,0.28738 0.25972,0.48728 z"
       sodipodi:nodetypes="sssss" />
    <ellipse
       style="fill:#241c1c;stroke-width:0.285997"
       id="path2169-5-28"
       ry="0.20212972"
       rx="0.26438349"
       cy="82.266525"
       cx="141.44849"
       inkscape:export-filename="C:\Users\basti\OneDrive\Bureau\Gus veut boire un coup\bank\pnj\hooker\hooker_r1.png"
       inkscape:export-xdpi="8.2899275"
       inkscape:export-ydpi="8.2899275"
       transform="rotate(20.476787)" />
    <ellipse
       style="fill:#000000;fill-opacity:0.998403;stroke-width:0.433746"
       id="path31470"
       cx="141.99515"
       cy="83.286736"
       rx="0.097419605"
       ry="0.07329201"
       inkscape:export-filename="C:\Users\basti\OneDrive\Bureau\Gus veut boire un coup\bank\pnj\hooker\hooker_r1.png"
       inkscape:export-xdpi="8.2899275"
       inkscape:export-ydpi="8.2899275"
       transform="rotate(20.476787)" />
    <ellipse
       style="fill:#deaa87;fill-opacity:1;stroke-width:0.381028"
       id="path9819-5-3"
       cx="140.56497"
       cy="88.01635"
       rx="1.3801341"
       ry="0.95373172"
       inkscape:export-filename="C:\Users\basti\OneDrive\Bureau\Gus veut boire un coup\bank\pnj\hooker\hooker_r1.png"
       inkscape:export-xdpi="8.2899275"
       inkscape:export-ydpi="8.2899275"
       transform="rotate(20.476787)" />
    <path
       id="path1496"
       style="fill:#502d16;stroke-width:0.264583"
       d="m 101.23829,126.7905 c 0.14704,0.66831 -0.69314,3.53968 -2.109498,3.88591 -1.00355,0.24528 -1.84466,-1.61673 -2.87408,-1.74931 -2.18519,1.26127 -1.49136,0.0259 -2.02834,-0.45954 0.0344,-1.7511 -0.1773,-0.67075 0.0917,-2.64918 0.194,-1.42684 0.92008,-3.39446 1.91481,-4.47946 0.70587,-0.76992 1.98727,-0.91092 2.91404,-0.7577 0.63709,0.10531 2.505518,0.52268 3.665338,1.20577 1.08572,0.63938 1.42139,1.23519 1.5262,1.74298 0.22318,1.08112 -3.30313,2.3376 -3.10013,3.26053 z"
       sodipodi:nodetypes="ssccssssss"
       inkscape:export-filename="C:\Users\basti\OneDrive\Bureau\Gus veut boire un coup\bank\pnj\hooker\hooker_r1.png"
       inkscape:export-xdpi="8.2899275"
       inkscape:export-ydpi="8.2899275" />
    <path
       id="rect1717"
       style="opacity:0.99;fill:#a7ac93;stroke-width:0.2"
       d="m 95.702592,132.29717 c 0.03296,-1.31519 0.42818,-1.00494 1.356968,-0.81118 0.190942,0.056 0.822714,0.71345 1.295974,1.02746 0.562846,0.37343 0.768269,-0.89711 1.479694,-0.86717 0.10159,0.44192 1.231812,0.32993 1.380132,0.61641 -1.06803,0.51425 -1.341156,1.57428 -2.376565,1.5776 -0.774559,0.002 -2.629409,-0.2332 -3.136203,-1.54312 z"
       sodipodi:nodetypes="ccsccsc" />
    <path
       id="rect2729"
       style="opacity:0.99;fill:#e6e6e6;stroke-width:0.2"
       d="m 94.628287,138.45893 1.221307,3e-5 c 0.704547,-0.0409 1.496602,0.18028 2.229367,0.3253 0.361006,0.48342 0.142948,0.6316 -0.03867,0.8009 -1.827453,0.0522 -0.151497,-0.05 -3.396599,0.005 -0.296049,-0.31491 -0.388151,-0.7381 -0.01541,-1.13078 z"
       sodipodi:nodetypes="cccccc" />
  </g>
</svg>
