<?xml version="1.0" encoding="UTF-8" standalone="no"?>
<!-- Created with Inkscape (http://www.inkscape.org/) -->

<svg
   width="210mm"
   height="297mm"
   viewBox="0 0 210 297"
   version="1.1"
   id="svg5"
   inkscape:export-filename="ko_3.png"
   inkscape:export-xdpi="36.870125"
   inkscape:export-ydpi="36.870125"
   inkscape:version="1.2 (dc2aedaf03, 2022-05-15)"
   sodipodi:docname="ko.svg"
   xmlns:inkscape="http://www.inkscape.org/namespaces/inkscape"
   xmlns:sodipodi="http://sodipodi.sourceforge.net/DTD/sodipodi-0.dtd"
   xmlns="http://www.w3.org/2000/svg"
   xmlns:svg="http://www.w3.org/2000/svg">
  <sodipodi:namedview
     id="namedview7"
     pagecolor="#ffffff"
     bordercolor="#666666"
     borderopacity="1.0"
     inkscape:showpageshadow="2"
     inkscape:pageopacity="0.0"
     inkscape:pagecheckerboard="0"
     inkscape:deskcolor="#d1d1d1"
     inkscape:document-units="mm"
     showgrid="false"
     inkscape:zoom="0.7483165"
     inkscape:cx="314.70641"
     inkscape:cy="525.84702"
     inkscape:window-width="1920"
     inkscape:window-height="1001"
     inkscape:window-x="-9"
     inkscape:window-y="-9"
     inkscape:window-maximized="1"
     inkscape:current-layer="layer1" />
  <defs
     id="defs2" />
  <g
     inkscape:label="Calque 1"
     inkscape:groupmode="layer"
     id="layer1">
    <path
       style="opacity:0.99;fill:#000000;stroke-width:0.2;stop-color:#000000"
       id="path213-1"
       d="m 9.072325,116.30576 c 0.99295,1.5213 2.304719,2.80028 3.406536,4.23441 0.886502,1.15387 1.793515,2.299 2.559865,3.53593 0.995618,1.607 1.91714,3.26531 2.715513,4.97887 0.92394,1.98306 1.628323,4.0612 2.442485,6.0918 0.641913,2.26254 1.386973,4.49833 1.925738,6.78763 0.54892,2.33245 0.970314,4.69523 1.334026,7.06364 0.79784,5.19534 1.131898,8.86768 0.960585,14.10459 -0.160559,4.90819 -0.663977,7.04713 -1.446895,11.7628 -0.818519,3.73801 -1.910802,7.41339 -3.31304,10.97399 -0.508347,1.2908 -1.000711,2.42441 -1.686503,3.61503 -0.196098,0.34045 -0.431416,0.65676 -0.647123,0.98514 0,0 23.162673,0.51623 23.162673,0.51623 v 0 c -0.138084,-0.8976 -0.288616,-1.79335 -0.415626,-2.69258 -0.625327,-4.42733 -0.998993,-8.8878 -1.444768,-13.33508 -0.531297,-6.29417 -1.039151,-12.59153 -1.632434,-18.88024 -0.228299,-2.41993 -0.437751,-4.84219 -0.721762,-7.25622 -0.279964,-2.37964 -0.659353,-4.74657 -0.969894,-7.12241 -0.299207,-2.28911 -0.572879,-4.58149 -0.859319,-6.87224 -0.444672,-4.32325 -0.818761,-7.08467 -0.943576,-11.33558 -0.03659,-1.2462 0.03256,-2.49326 0.04466,-3.73993 0.0071,-0.72814 0.01442,-1.45631 0.01281,-2.18448 -7.94e-4,-0.37226 -0.06489,-0.74703 -0.02016,-1.11659 0.01752,-0.1447 0.134843,-0.25845 0.202264,-0.38767 0,0 -24.666046,0.27296 -24.666046,0.27296 z"
       inkscape:export-filename="ko_3.png"
       inkscape:export-xdpi="36.870125"
       inkscape:export-ydpi="36.870125" />
    <path
       style="opacity:0.99;fill:#000000;stroke-width:0.2;stop-color:#000000"
       id="path215-8"
       d="m 48.513946,154.96186 c 0.06488,-0.35504 0.09373,-0.7186 0.194652,-1.06512 0.422801,-1.45182 0.966107,-2.45852 1.707189,-3.82233 0.522791,-0.96209 1.079461,-1.90541 1.627812,-2.85317 2.570284,-4.4424 1.676416,-2.92843 4.677164,-7.56311 2.110941,-3.02424 4.512897,-6.62062 6.923241,-9.39199 2.610358,-3.00134 6.519344,-6.66231 9.587698,-9.19 3.437247,-2.83157 5.604986,-4.18693 9.203931,-6.62251 1.169516,-0.75272 2.339033,-1.50544 3.508547,-2.25816 0,0 -18.966114,-1.609 -18.966114,-1.609 v 0 c -0.585959,0.80089 -1.171919,1.60178 -1.757878,2.40266 -2.397736,2.95234 -3.186396,4.02469 -5.961129,6.94655 -1.05587,1.11186 -8.414427,8.40993 -9.346679,9.31052 -8.927097,8.62393 -1.531305,1.1323 -9.470403,9.3135 -3.722489,3.9091 -3.513193,3.77937 -7.250191,7.37318 -2.182927,2.09929 -3.167388,3.02634 -5.442353,4.87165 -0.634227,0.51444 -1.271231,1.02806 -1.944079,1.49085 -0.42671,0.29349 -0.898424,0.51548 -1.347636,0.77321 0,0 24.056228,1.89327 24.056228,1.89327 z" />
    <path
       style="opacity:0.99;fill:#000000;stroke-width:0.2;stop-color:#000000"
       id="path217-5"
       d="m 23.456488,148.99804 c 0.508101,0.22115 1.031579,0.40989 1.524302,0.66346 2.247486,1.15663 4.906601,2.83648 6.938122,4.16236 1.847123,1.20553 3.682799,2.42942 5.491501,3.69186 1.467887,1.02456 12.059121,8.71801 13.162045,9.51803 6.479254,5.1521 6.066065,4.7845 12.342354,9.92492 3.993833,3.27104 6.321568,5.11586 10.017676,8.56666 3.026055,2.82521 3.524869,3.48295 6.132443,6.36109 2.541421,2.7716 5.151832,5.64499 6.621444,9.15626 0,0 23.316035,-1.6631 23.316035,-1.6631 v 0 c -0.75061,-0.57753 -1.48881,-1.17142 -2.24926,-1.73593 -3.3985,-2.52286 -6.906624,-4.89705 -10.386226,-7.30487 -1.735338,-1.09176 -8.204282,-5.15478 -9.631709,-6.08419 -8.562504,-5.57512 -16.878223,-11.55685 -24.625196,-18.22914 -1.725578,-1.71761 -3.505589,-3.38221 -5.176732,-5.15283 -3.218058,-3.40961 -6.287987,-7.08989 -8.348228,-11.33942 -0.491184,-1.01313 -0.652458,-1.71534 -0.922325,-2.71 0,0 -24.206246,2.17484 -24.206246,2.17484 z" />
    <path
       style="opacity:0.99;fill:#000000;stroke-width:0.2;stop-color:#000000"
       id="path225-9"
       d="m 136.78775,119.29548 c -0.49019,-0.2246 -0.90303,-0.59715 -1.39556,-0.81562 -2.20374,-0.9775 -5.01021,-1.45712 -7.38103,-1.60404 -1.50891,-0.0935 -3.02324,-0.047 -4.53486,-0.0706 -7.44679,0.17173 -14.90709,0.0349 -22.34036,0.51518 -2.154104,0.13917 -7.452604,2.32093 -9.177234,3.25974 -3.56507,1.94069 -6.22352,3.90322 -8.2172,7.58953 -1.10744,2.04766 -1.57402,4.38176 -2.36104,6.57263 -0.62574,2.559 -1.35721,5.09444 -1.87723,7.677 -1.01689,5.05013 -1.86832,11.48829 -2.04181,16.64305 -0.0896,2.66352 -0.0277,5.33474 0.15318,7.99362 0.1641,2.41202 0.40305,4.82916 0.8805,7.19914 0.4252,2.11059 1.21226,4.13182 1.81838,6.19772 1.03211,1.69738 1.66786,3.71162 3.09632,5.09214 3.61701,3.49559 9.48508,5.18097 14.2868,5.48018 10.855094,0.67641 18.523134,1.31663 28.065134,-2.31145 2.81047,-1.0686 5.39133,-2.66382 8.087,-3.99574 2.24889,-1.95845 4.90521,-3.5297 6.74667,-5.87535 4.07056,-5.18508 5.5787,-11.51558 5.81808,-17.96387 0.13673,-3.68313 -0.33036,-7.37394 -0.82633,-11.02609 -1.20848,-8.89886 -2.51439,-12.04707 -5.06487,-20.438 -1.91489,-4.95344 -3.02071,-8.90366 -6.03194,-13.20683 -1.99445,-2.85016 -3.28368,-3.49715 -5.88996,-5.37166 l -17.83384,2.048 v 0 c 1.59884,0.48505 3.25103,0.82033 4.79653,1.45514 4.22191,1.73414 8.73424,4.38194 11.84983,7.74647 2.11171,2.28043 3.59624,5.07009 5.39437,7.60513 3.62795,8.14891 5.72566,10.95619 6.30483,20.16449 0.4456,7.08468 -0.91382,13.97318 -3.86302,20.40238 -1.26339,2.75417 -2.85461,5.39699 -4.80189,7.71856 -1.82769,2.179 -4.26836,3.75968 -6.40254,5.63951 -18.35911,8.72475 -11.25325,5.23401 -17.12307,5.68702 -1.7444,-0.74182 -1.1175,-0.51513 -3.64948,-1.51382 -1.85188,-0.76429 -3.599434,-1.84764 -5.110614,-3.1629 -1.54086,-1.34111 -2.61864,-3.13593 -3.92796,-4.70389 -2.82859,-5.51693 -3.8661,-6.61173 -5.06548,-12.9349 -1.52826,-8.05702 -0.82773,-16.4411 1.8055,-24.19174 0.86977,-2.56007 2.17413,-4.95125 3.2612,-7.42688 1.44485,-2.02463 2.69992,-4.19913 4.33455,-6.07389 3.866904,-4.43493 8.802184,-7.13339 14.460004,-8.52001 1.7644,-0.43242 7.18239,-0.62492 5.38128,-0.86185 -6.37448,0.5115 -16.81256,-1.63365 -8.70623,0.2515 0.64165,0.15027 1.87389,0.43225 2.40582,0.97118 4.6674,-0.22309 19.96147,-0.879 24.67757,-1.84018 z"
       sodipodi:nodetypes="csscssscscsscssscssscsccssscssscccscsscsscccc" />
    <path
       style="opacity:0.99;fill:#ff0000;stroke-width:0.2;stop-color:#000000"
       id="path213"
       d="m 10.773366,112.02567 c 0.992951,1.5213 2.30472,2.80028 3.406537,4.23441 0.886502,1.15387 1.793515,2.299 2.559865,3.53593 0.995618,1.607 1.91714,3.26531 2.715513,4.97887 0.92394,1.98306 1.628323,4.0612 2.442485,6.0918 0.641913,2.26254 1.386973,4.49833 1.925738,6.78763 0.54892,2.33245 0.970314,4.69523 1.334026,7.06364 0.79784,5.19534 1.131898,8.86768 0.960585,14.10459 -0.160559,4.90819 -0.663977,7.04713 -1.446895,11.7628 -0.818519,3.73801 -1.910802,7.41339 -3.31304,10.97399 -0.508347,1.2908 -1.000711,2.42441 -1.686503,3.61503 -0.196098,0.34045 -0.431416,0.65676 -0.647123,0.98514 0,0 23.162673,0.51623 23.162673,0.51623 v 0 c -0.138084,-0.8976 -0.288616,-1.79335 -0.415626,-2.69258 -0.625327,-4.42733 -0.998993,-8.8878 -1.444768,-13.33508 -0.531297,-6.29417 -1.039151,-12.59153 -1.632434,-18.88024 -0.228299,-2.41993 -0.437751,-4.84219 -0.721762,-7.25622 -0.279964,-2.37964 -0.659353,-4.74657 -0.969894,-7.12241 -0.299207,-2.28911 -0.572879,-4.58149 -0.859319,-6.87224 -0.444672,-4.32325 -0.818761,-7.08467 -0.943576,-11.33558 -0.03659,-1.2462 0.03256,-2.49326 0.04466,-3.73993 0.0071,-0.72814 0.01442,-1.45631 0.01281,-2.18448 -7.94e-4,-0.37226 -0.06489,-0.74703 -0.02016,-1.11659 0.01752,-0.1447 0.134843,-0.25845 0.202264,-0.38767 0,0 -24.666047,0.27296 -24.666047,0.27296 z" />
    <path
       style="opacity:0.99;fill:#ff0000;stroke-width:0.2;stop-color:#000000"
       id="path215"
       d="m 50.214988,151.21094 c 0.06488,-0.35504 0.09373,-0.7186 0.194652,-1.06512 0.422801,-1.45182 0.966107,-2.45852 1.707189,-3.82233 0.522791,-0.96209 1.079461,-1.90541 1.627812,-2.85317 2.570284,-4.4424 1.676416,-2.92843 4.677164,-7.56311 2.110941,-3.02424 4.512897,-6.62062 6.923241,-9.39199 2.610358,-3.00134 6.519344,-6.66231 9.587698,-9.19 3.437247,-2.83157 5.604986,-4.18693 9.203931,-6.62251 1.169516,-0.75272 2.339033,-1.50544 3.508547,-2.25816 0,0 -18.966114,-1.609 -18.966114,-1.609 v 0 c -0.585959,0.80089 -1.171919,1.60178 -1.757878,2.40266 -2.397736,2.95234 -3.186396,4.02469 -5.961129,6.94655 -1.05587,1.11186 -8.414427,8.40993 -9.346679,9.31052 -8.927097,8.62393 -1.531305,1.1323 -9.470403,9.3135 -3.722489,3.9091 -3.513193,3.77937 -7.250191,7.37318 -2.182927,2.09929 -3.167388,3.02634 -5.442353,4.87165 -0.634227,0.51444 -1.271231,1.02806 -1.944079,1.49085 -0.42671,0.29349 -0.898424,0.51548 -1.347636,0.77321 0,0 24.056228,1.89327 24.056228,1.89327 z" />
    <path
       style="opacity:0.99;fill:#ff0000;stroke-width:0.2;stop-color:#000000"
       id="path217"
       d="m 25.15753,145.24712 c 0.508101,0.22115 1.031579,0.40989 1.524302,0.66346 2.247486,1.15663 4.906601,2.83648 6.938122,4.16236 1.847123,1.20553 3.682799,2.42942 5.491501,3.69186 1.467887,1.02456 12.059121,8.71801 13.162045,9.51803 6.479254,5.1521 6.066065,4.7845 12.342354,9.92492 3.993833,3.27104 6.321568,5.11586 10.017676,8.56666 3.026055,2.82521 3.524869,3.48295 6.132443,6.36109 2.541421,2.7716 5.151832,5.64499 6.621444,9.15626 0,0 23.316043,-1.6631 23.316043,-1.6631 v 0 c -0.75061,-0.57753 -1.48881,-1.17142 -2.24926,-1.73593 -3.3985,-2.52286 -6.90663,-4.89705 -10.386234,-7.30487 -1.735338,-1.09176 -8.204282,-5.15478 -9.631709,-6.08419 -8.562504,-5.57512 -16.878223,-11.55685 -24.625196,-18.22914 -1.725578,-1.71761 -3.505589,-3.38221 -5.176732,-5.15283 -3.218058,-3.40961 -6.287987,-7.08989 -8.348228,-11.33942 -0.491184,-1.01313 -0.652458,-1.71534 -0.922325,-2.71 0,0 -24.206246,2.17484 -24.206246,2.17484 z" />
    <path
       style="opacity:0.99;fill:#ff0000;stroke-width:0.2;stop-color:#000000"
       id="path225"
       d="m 135.82325,117.0075 c -0.46818,-0.22021 -0.86248,-0.58548 -1.3329,-0.79968 -2.10479,-0.9584 -4.78525,-1.42865 -7.04962,-1.5727 -1.44117,-0.0917 -2.8875,-0.0461 -4.33125,-0.0692 -7.11243,0.16838 -14.23777,0.0342 -21.33729,0.50512 -2.057391,0.13645 -7.117992,2.27558 -8.765187,3.19604 -3.405,1.90277 -5.944087,3.82695 -7.848252,7.44124 -1.057716,2.00765 -1.503347,4.29614 -2.25503,6.4442 -0.597644,2.509 -1.296272,4.9949 -1.792943,7.52699 -0.971232,4.95146 -1.784433,11.26382 -1.950134,16.31786 -0.08558,2.61147 -0.02646,5.2305 0.146302,7.83742 0.156732,2.3649 0.384954,4.73481 0.840966,7.05848 0.406109,2.06935 1.157831,4.05108 1.736736,6.07662 0.985769,1.66421 1.592974,3.63909 2.957297,4.99264 3.454608,3.42729 12.382549,0.83769 13.645329,5.3731 1.45653,5.23128 13.166196,3.34771 26.805026,-2.26629 2.66548,-1.09715 5.14927,-2.61177 7.7239,-3.91766 2.14792,-1.92019 4.68497,-3.46073 6.44375,-5.76055 3.88779,-5.08377 5.32822,-11.29057 5.55685,-17.61286 0.13059,-3.61117 -0.31553,-7.22986 -0.78923,-10.81065 -1.15422,-8.72498 -2.40149,-11.81168 -4.83746,-20.03865 -1.82891,-4.85665 -2.88508,-8.72969 -5.76111,-12.94878 -1.9049,-2.79446 -3.13624,-3.42881 -5.6255,-5.2667 l -17.03311,2.00799 v 0 c 1.52705,0.47557 3.10506,0.8043 4.58117,1.4267 4.03235,1.70026 8.34208,4.29632 11.31778,7.59511 2.01689,2.23587 3.43477,4.97102 5.15216,7.45653 3.46506,7.98969 5.46858,10.74211 6.02175,19.77049 0.42559,6.94624 -0.87279,13.70015 -3.68957,20.00372 -1.20667,2.70036 -2.72644,5.29154 -4.58629,7.56775 -1.74563,2.13642 -4.07671,3.68621 -6.11507,5.52931 -17.53479,8.55428 -10.74798,5.13174 -16.35425,5.5759 -1.66608,-0.72732 -1.06733,-0.50506 -3.48562,-1.48424 -1.76873,-0.74936 -3.43783,-1.81154 -4.88116,-3.1011 -1.471676,-1.3149 -2.501064,-3.07465 -3.751596,-4.61198 -2.701588,-5.40913 -3.692514,-6.48254 -4.838042,-12.68215 -1.459642,-7.89959 -0.790566,-16.11985 1.724434,-23.71905 0.830717,-2.51005 2.076512,-4.8545 3.114773,-7.28176 1.379977,-1.98507 2.578695,-4.11708 4.139933,-5.95521 3.693288,-4.34827 8.406978,-6.99401 13.810758,-8.35353 1.68518,-0.42397 6.85991,-0.61271 5.13967,-0.84501 -6.08827,0.5015 -16.05769,-1.60173 -8.31533,0.24658 0.61284,0.14734 1.78976,0.42381 2.2978,0.95221 4.45784,-0.21873 19.06521,-0.86183 23.56956,-1.80423 z"
       sodipodi:nodetypes="csscssscscsscssscssscsccssscssscccscsscsscccc" />
  </g>
</svg>
