<?xml version="1.0" encoding="UTF-8" standalone="no"?>
<!-- Created with Inkscape (http://www.inkscape.org/) -->

<svg
   width="210mm"
   height="297mm"
   viewBox="0 0 210 297"
   version="1.1"
   id="svg1343"
   inkscape:version="1.2 (dc2aedaf03, 2022-05-15)"
   sodipodi:docname="sam_pied.svg"
   inkscape:export-filename="C:\Users\basti\OneDrive\Bureau\Gus veut boire un coup\Gus\fighter_1\fighter_1_2.png"
   inkscape:export-xdpi="73.163231"
   inkscape:export-ydpi="73.163231"
   xmlns:inkscape="http://www.inkscape.org/namespaces/inkscape"
   xmlns:sodipodi="http://sodipodi.sourceforge.net/DTD/sodipodi-0.dtd"
   xmlns="http://www.w3.org/2000/svg"
   xmlns:svg="http://www.w3.org/2000/svg">
  <sodipodi:namedview
     id="namedview1345"
     pagecolor="#ffffff"
     bordercolor="#666666"
     borderopacity="1.0"
     inkscape:pageshadow="2"
     inkscape:pageopacity="0.0"
     inkscape:pagecheckerboard="0"
     inkscape:document-units="mm"
     showgrid="false"
     inkscape:zoom="5.9722784"
     inkscape:cx="51.655328"
     inkscape:cy="66.892394"
     inkscape:window-width="1920"
     inkscape:window-height="1001"
     inkscape:window-x="-9"
     inkscape:window-y="-9"
     inkscape:window-maximized="1"
     inkscape:current-layer="layer1"
     inkscape:showpageshadow="2"
     inkscape:deskcolor="#d1d1d1" />
  <defs
     id="defs1340" />
  <g
     inkscape:label="Calque 1"
     inkscape:groupmode="layer"
     id="layer1">
    <path
       id="path11385-4-1-1-5-2-8"
       style="fill:#ac9393;stroke-width:0.548397"
       d="m 11.721078,24.183449 c -0.355032,0.858418 0.145981,1.537147 2.102322,2.346264 1.956323,0.809112 2.855999,0.709691 3.211031,-0.148728 0.355027,-0.858409 -0.256538,-1.548491 -2.21286,-2.357601 -1.956332,-0.809115 -2.745466,-0.698344 -3.100493,0.160065 z"
       sodipodi:nodetypes="sssss"
       inkscape:export-filename="..\_bank\perso\sam\sam_pied_4.png"
       inkscape:export-xdpi="73.163231"
       inkscape:export-ydpi="73.163231" />
    <path
       id="path11724-0-2-14-2-8-2"
       style="fill:#916f6f;stroke-width:0.398878"
       d="m 15.507388,25.184875 c -0.04823,0.175482 0.187196,0.405436 1.975104,0.976605 1.787872,0.571145 2.201381,0.548494 2.249569,0.373008 0.04814,-0.175537 -0.401559,-0.0209 -2.189423,-0.592061 -1.787891,-0.571153 -1.987063,-0.932962 -2.035246,-0.757561 z"
       sodipodi:nodetypes="sssss" />
    <path
       id="path11385-4-04-45-3-8-6"
       style="fill:#c8b7b7;stroke-width:0.548397"
       d="m 13.9523,26.203779 c 0,0.92893 0.85749,1.36463 3.37043,1.36463 2.51294,0 3.45468,-0.4357 3.45468,-1.36463 0,-0.92894 -0.98387,-1.3329 -3.49681,-1.3329 -2.51296,0 -3.3283,0.40396 -3.3283,1.3329 z"
       sodipodi:nodetypes="sssss" />
    <path
       id="rect12969-1-0"
       style="stroke-width:0.264582"
       transform="scale(-1,1)"
       d="m -15.376412,21.093016 h 5.356813 l -0.933246,2.249709 -4.423567,0.0092 z"
       sodipodi:nodetypes="ccccc" />
    <path
       id="rect10620-3-0-1-1"
       style="fill:#000028;fill-opacity:1;stroke-width:0.462379"
       d="m 17.170326,24.0981 c 4.591096,-7.247709 -4.839961,-5.09004 -4.848611,-0.534566 -0.0185,-0.161127 1.542,-0.59007 1.62089,0.09643 l 1.241092,1.657127 z"
       sodipodi:nodetypes="ccccc" />
    <path
       id="rect10620-1-8-9-9-7"
       style="fill:#00003c;fill-opacity:1;stroke-width:0.398878"
       d="m 16.731769,23.085694 c -0.84731,-5.366662 -6.8910094,-5.48549 -6.9642394,-0.882496 0.6483864,1.393924 4.5424354,2.231478 4.1847704,3.518075 1.429183,-0.06603 2.109548,0.215191 3.3283,-0.850394 z"
       sodipodi:nodetypes="ccccc" />
    <path
       id="path4257-0-5-6-5-0-3-4"
       style="fill:#000055;fill-opacity:1;stroke-width:0.218812"
       d="m 17.691645,16.795927 c -0.0207,0.51599 0.28191,0.7416 -0.31268,0.62454 0,0 -0.35608,-0.95139 -0.33251,-1.82124 0.0154,-0.54026 0.76872,-1.88984 0.71655,-0.58628 z"
       sodipodi:nodetypes="sssss" />
    <ellipse
       style="fill:#deaa87;stroke-width:0.148272"
       id="path9819-9-7-8-8-0-4"
       cx="-17.257524"
       cy="20.566084"
       rx="0.52575547"
       ry="0.4306986"
       transform="scale(-1,1)" />
    <path
       id="path6217-9-9-5-1"
       style="fill:#003380;stroke-width:0.398878"
       d="m 16.948855,16.337384 c -1.99969,3.60877 -2.204613,4.064657 0.931037,4.208277 2.04794,0.0939 1.839716,0.235499 2.286478,-2.433964 0.31638,-1.89041 0.391438,-4.245173 -1.324825,-4.245173 -1.36471,0 -1.01296,0.88321 -1.89269,2.47086 z"
       sodipodi:nodetypes="sssss" />
    <path
       id="rect21874-0-5-4-1"
       style="fill:#003380;stroke-width:0.264582"
       d="m 17.839285,18.112097 -8.7279704,0.55229 c 0.0364,0.79577 0.237365,3.295151 0.656215,3.538811 3.8925904,0.70305 6.1022524,0.08188 9.4138024,-0.846304 0,-0.61337 -0.184887,-2.631837 -1.342067,-3.245197 z"
       sodipodi:nodetypes="cccccc" />
    <rect
       style="fill:#2b1100;fill-opacity:1;stroke-width:0.264582"
       id="rect24357"
       width="2.2924378"
       height="2.3386087"
       x="12.891259"
       y="20.45648" />
    <path
       id="rect8523-7-3-4-8"
       style="fill:#003380;stroke-width:0.376887"
       d="m 19.926046,14.380597 -9.440561,-0.99698 -0.5559944,0.877703 -0.463665,6.831696 8.7115974,-0.889703 z"
       sodipodi:nodetypes="cccccc" />
    <ellipse
       style="fill:#ffccaa;stroke-width:0.148272"
       id="path9819-9-7-8-1-9-3"
       cx="-19.70351"
       cy="19.752762"
       rx="0.52575547"
       ry="0.4306986"
       transform="scale(-1,1)" />
    <path
       id="path6217-9-9-3-7-8-0"
       style="fill:#003380;stroke-width:0.398878"
       d="m 12.663515,16.783874 c 1.40043,3.69366 4.020376,3.171122 0.08641,3.312502 -2.56931,0.0923 -4.6096314,0.488613 -4.6096314,-2.175407 0,-1.86068 0.436495,-3.569095 2.1486654,-3.569095 1.71216,0 1.64348,0.5038 2.37456,2.432 z"
       sodipodi:nodetypes="ssssss" />
    <ellipse
       style="fill:#ffccaa;stroke-width:0.148272"
       id="path9819-9-7-8-1-9"
       cx="-13.420425"
       cy="18.317368"
       rx="0.52575547"
       ry="0.4306986"
       transform="scale(-1,1)" />
    <rect
       style="fill:#502d16;fill-opacity:1;stroke-width:0.264582"
       id="rect24359"
       width="2.063194"
       height="0.10523742"
       x="13.520752"
       y="19.567686" />
    <rect
       style="fill:#28170b;fill-opacity:1;stroke-width:0.280313"
       id="rect24649"
       width="0.43880653"
       height="1.6168292"
       x="-10.917389"
       y="25.27544"
       transform="matrix(0.8595193,-0.51110328,0.84572423,0.5336202,0,0)" />
    <path
       id="path4257-0-5-7-9-5-5-4"
       style="fill:#002255;fill-opacity:1;stroke-width:0.253626"
       d="m 11.463125,17.485625 c 0.0278,0.285039 0.595902,0.697649 1.394732,0.632986 0,0 -0.496242,-0.813551 -0.527922,-1.294082 -0.0197,-0.298449 -1.03276,-1.043982 -0.96269,-0.323867 z"
       sodipodi:nodetypes="sssss" />
    <rect
       style="fill:#000000;fill-opacity:1;stroke-width:0.264582"
       id="rect12931-8-7-6"
       width="0.22212978"
       height="1.741194"
       x="-16.827112"
       y="15.492492"
       transform="scale(-1,1)" />
    <rect
       style="fill:#000000;fill-opacity:1;stroke-width:0.264582"
       id="rect12931-8-7-6-7"
       width="0.22212978"
       height="1.741194"
       x="-15.688813"
       y="15.621856"
       transform="scale(-1,1)" />
    <rect
       style="fill:#502d16;fill-opacity:1;stroke-width:0.264582"
       id="rect24359-7"
       width="2.063194"
       height="0.10523742"
       x="13.527939"
       y="19.807386" />
    <path
       id="rect24181"
       style="fill:#2b1100;stroke-width:0.264582"
       d="m 18.302995,14.903067 0.5188,0.19872 -3.44538,5.99124 c -1.07114,0.66681 -0.34586,-0.13247 -0.5188,-0.19871 z"
       sodipodi:nodetypes="ccccc" />
    <ellipse
       style="fill:#ffccaa;stroke-width:0.398878"
       id="path9819-5-0-5-9-5"
       cx="20.566084"
       cy="18.348415"
       rx="0.97849739"
       ry="1.6747377"
       transform="matrix(0,1,1,0,0,0)" />
    <path
       id="path31-9-9-4-8-9"
       style="fill:#ffccaa;fill-opacity:1;fill-rule:evenodd;stroke-width:0.398878"
       d="m 20.755965,10.280897 c -0.19906,-1.08946 1.48507,-5.77068 -6.07159,-5.45575 -6.2473904,0.26038 -4.7367204,4.56691 -4.8031804,4.95683 -0.34387,2.01753 0.8511104,5.42641 4.9815504,5.94623 4.46255,0.56159 6.29705,-3.23706 5.89322,-5.44731 z"
       sodipodi:nodetypes="sssss" />
    <path
       id="rect1628"
       style="fill:#c87137;stroke-width:0.264583"
       d="m 13.134352,19.1418 c 0.693322,0.435527 0.414207,1.32544 2.500962,1.109859 l 1.280613,-2.885735 c -0.426131,-0.83828 -1.314981,-1.733103 -2.500982,-1.10985 z"
       sodipodi:nodetypes="ccccc" />
    <path
       id="rect1430-1-8-6-7-2"
       style="fill:#28170b;stroke-width:0.210089"
       d="m 14.276426,8.7539334 1.31751,0.0342 1.04776,0.59777 c -1.13817,-0.19061 -2.2662,-0.42832 -3.53852,2e-4 0.0218,-0.27915 1.11837,-0.43351 1.17325,-0.63222 z"
       sodipodi:nodetypes="ccccc"
       inkscape:transform-center-x="0.56232992"
       inkscape:transform-center-y="0.017187885" />
    <path
       id="rect1430-1-8-6-7-4-5"
       style="fill:#28170b;stroke-width:0.210089"
       d="m 19.620689,8.6345852 -0.9811,0.28627 -0.6259,0.77669 c 0.80399,-0.40227 1.5876,-0.8479 2.65992,-0.68021 -0.091,-0.26473 -0.95793,-0.20213 -1.05292,-0.38277 z"
       sodipodi:nodetypes="ccccc"
       inkscape:transform-center-x="-0.51282386"
       inkscape:transform-center-y="0.021147908" />
    <path
       id="path2169-5-4-04-7-9-1"
       style="fill:#e9c6af;stroke-width:0.566042"
       d="m 18.432675,10.010807 c -0.10992,0.21534 0.54468,0.30245 1.14782,0.30245 0.60312,0 1.11961,-0.17577 1.09206,-0.32854 -0.0338,-0.188 -0.47032,-0.40765 -1.09206,-0.41419 -0.60308,-0.006 -1.01773,0.18545 -1.14782,0.44028 z"
       sodipodi:nodetypes="sssss" />
    <path
       id="path2169-5-4-0-9-4-9-5"
       style="fill:#e9c6af;stroke-width:0.551594"
       d="m 16.035895,10.075957 c 0.1044,0.18949 -0.50156,0.21589 -1.07428,0.21589 -0.57274,0 -1.07892,-0.10442 -1.05273,-0.23884 0.0322,-0.16546 0.44664,-0.35875 1.03704,-0.36447 0.57265,-0.005 0.96641,0.16318 1.08997,0.38742 z"
       sodipodi:nodetypes="sssss" />
    <ellipse
       style="fill:#502d16;stroke-width:0.344828"
       id="path2169-03-4-0-2"
       ry="0.31256437"
       rx="0.65988362"
       cy="9.941823"
       cx="-19.886169"
       transform="scale(-1,1)" />
    <ellipse
       style="fill:#28170b;stroke-width:0.344828"
       id="path2169-0-8-7-5-1"
       ry="0.22066769"
       rx="0.44355947"
       cy="10.000289"
       cx="-20.037027"
       transform="scale(-1,1)" />
    <ellipse
       style="fill:#502d16;stroke-width:0.314342"
       id="path2169-5-48-7-0-5"
       cx="-15.371655"
       cy="10.076401"
       rx="0.54835397"
       ry="0.29502484"
       transform="scale(-1,1)" />
    <ellipse
       style="fill:#28170b;stroke-width:0.344828"
       id="path2169-0-2-9-0-5-8"
       ry="0.22066769"
       rx="0.44355947"
       cy="10.076401"
       cx="-15.471642"
       transform="scale(-1,1)" />
    <path
       id="path11724-0-2-14-2-8"
       style="fill:#916f6f;stroke-width:0.398878"
       d="m 16.16801,27.136279 c 0.0225,0.18058 0.32796,0.30311 2.19841,0.1476 1.87043,-0.15552 2.24389,-0.33449 2.22136,-0.51507 -0.0225,-0.18062 -0.37905,0.13416 -2.24948,0.28966 -1.87048,0.15553 -2.19281,-0.1027 -2.17028,0.0778 z"
       sodipodi:nodetypes="sssss" />
    <path
       id="rect12747-2-4-7-8"
       style="fill:#1c1f24;stroke-width:0.398878"
       d="m 18.110415,14.107807 c -0.47383,-0.12744 -1.10612,-0.0494 -1.71624,0 l -0.18137,0.16142 c 0.587348,0.361768 1.706192,0.655934 2.13561,-0.052 z"
       sodipodi:nodetypes="ccccc" />
    <path
       id="rect12747-2-4-7-8-0"
       style="fill:#1c1f24;fill-opacity:0.50639;stroke-width:0.398878"
       d="m 18.110415,13.318169 c -0.47383,-0.12744 -1.10612,-0.0494 -1.71624,0 l -0.18137,0.16143 c 0.54707,-0.0526 1.63069,-0.0902 2.13561,-0.052 z"
       sodipodi:nodetypes="ccccc" />
    <rect
       style="fill:#000000;fill-opacity:1;stroke-width:0.264582"
       id="rect17694-1"
       width="0.59951073"
       height="0.12350398"
       x="-18.297548"
       y="12.479629"
       transform="scale(-1,1)" />
    <rect
       style="fill:#000000;fill-opacity:1;stroke-width:0.264582"
       id="rect17694-7-5"
       width="0.59951073"
       height="0.12350398"
       x="-17.067644"
       y="12.528197"
       transform="scale(-1,1)" />
    <ellipse
       style="fill:#a05a2c;stroke-width:0.264584"
       id="path2211"
       cx="21.610304"
       cy="-8.1525335"
       rx="1.2023382"
       ry="0.65271729"
       transform="matrix(0.89180874,0.45241261,0.45241261,-0.89180874,0,0)" />
    <rect
       style="fill:#552200;stroke-width:0.29625"
       id="rect2337"
       width="2.2592118"
       height="1.1400765"
       x="19.418846"
       y="-5.293716"
       transform="matrix(0.74715232,0.66465285,0.07953264,-0.99683226,0,0)" />
    <ellipse
       style="fill:#ffccaa;stroke-width:0.398878"
       id="path9819-8-8-8-2"
       cx="19.672924"
       cy="13.227172"
       rx="0.97849739"
       ry="1.6747377"
       transform="matrix(0,1,1,0,0,0)" />
  </g>
</svg>
