<?xml version="1.0" encoding="UTF-8" standalone="no"?>
<!-- Created with Inkscape (http://www.inkscape.org/) -->

<svg
   width="210mm"
   height="297mm"
   viewBox="0 0 210 297"
   version="1.1"
   id="svg1343"
   inkscape:version="1.2 (dc2aedaf03, 2022-05-15)"
   sodipodi:docname="sam_down.svg"
   inkscape:export-filename="C:\Users\basti\OneDrive\Bureau\Gus veut boire un coup\Gus\fighter_1\fighter_1_2.png"
   inkscape:export-xdpi="73.163231"
   inkscape:export-ydpi="73.163231"
   xmlns:inkscape="http://www.inkscape.org/namespaces/inkscape"
   xmlns:sodipodi="http://sodipodi.sourceforge.net/DTD/sodipodi-0.dtd"
   xmlns="http://www.w3.org/2000/svg"
   xmlns:svg="http://www.w3.org/2000/svg">
  <sodipodi:namedview
     id="namedview1345"
     pagecolor="#ffffff"
     bordercolor="#666666"
     borderopacity="1.0"
     inkscape:pageshadow="2"
     inkscape:pageopacity="0.0"
     inkscape:pagecheckerboard="0"
     inkscape:document-units="mm"
     showgrid="false"
     inkscape:zoom="4.2230386"
     inkscape:cx="11.247825"
     inkscape:cy="72.341277"
     inkscape:window-width="1920"
     inkscape:window-height="1001"
     inkscape:window-x="-9"
     inkscape:window-y="-9"
     inkscape:window-maximized="1"
     inkscape:current-layer="layer1"
     inkscape:showpageshadow="2"
     inkscape:deskcolor="#d1d1d1" />
  <defs
     id="defs1340" />
  <g
     inkscape:label="Calque 1"
     inkscape:groupmode="layer"
     id="layer1">
    <path
       id="path11385-4-1-1-5-2-8"
       style="fill:#ac9393;stroke-width:0.548397"
       d="m 10.281581,24.257128 c -0.7102903,0.598679 -0.5778994,1.431839 0.78649,3.050598 1.364377,1.618744 2.208853,1.944573 2.919145,1.345896 0.710283,-0.598673 0.484971,-1.492795 -0.879406,-3.11154 -1.364383,-1.618752 -2.115944,-1.883625 -2.826229,-1.284954 z"
       sodipodi:nodetypes="sssss"
       inkscape:export-filename="..\_bank\perso\sam\sam_down4.png"
       inkscape:export-xdpi="73.163231"
       inkscape:export-ydpi="73.163231" />
    <path
       id="path11724-0-2-14-2-8-2"
       style="fill:#916f6f;stroke-width:0.398878"
       d="m 12.612018,26.127541 c -0.05616,0.173104 0.168581,0.41352 1.928685,1.065344 1.760073,0.651796 2.174186,0.64796 2.230296,0.474844 0.05607,-0.173169 -0.400193,-0.03912 -2.160258,-0.690938 -1.76009,-0.651804 -1.942614,-1.022289 -1.99872,-0.84926 z"
       sodipodi:nodetypes="sssss" />
    <path
       id="path11385-4-04-45-3-8-6"
       style="fill:#c8b7b7;stroke-width:0.548397"
       d="m 10.161237,26.799694 c -0.08478,0.925052 0.729355,1.437201 3.231805,1.66657 2.50245,0.229369 3.480029,-0.118554 3.564816,-1.043606 0.08478,-0.925065 -0.858102,-1.417141 -3.360552,-1.646509 -2.502472,-0.229372 -3.351279,0.09848 -3.436069,1.023545 z"
       sodipodi:nodetypes="sssss" />
    <path
       id="rect12969-1-0"
       style="stroke-width:0.264582"
       d="M 13.741054,21.525949 8.8405948,19.960624 8.4169152,21.287009 c 1.9972558,2.528304 3.2669728,1.04355 4.9004588,1.565325 z"
       sodipodi:nodetypes="ccccc" />
    <ellipse
       style="fill:#deaa87;stroke-width:0.148272"
       id="path9819-9-7-8-8-0-4"
       cx="-22.241825"
       cy="16.267176"
       rx="0.52575547"
       ry="0.4306986"
       transform="matrix(-0.95258323,-0.30427814,-0.30427814,0.95258323,0,0)" />
    <ellipse
       style="fill:#ffccaa;stroke-width:0.148272"
       id="path9819-9-7-8-1-9-3"
       cx="-22.021219"
       cy="14.961662"
       rx="0.52575547"
       ry="0.4306986"
       transform="matrix(-0.95258323,-0.30427814,-0.30427814,0.95258323,0,0)" />
    <path
       id="rect10620-3-0-1-1"
       style="fill:#000028;fill-opacity:1;stroke-width:0.462379"
       d="m 14.896872,24.424566 c 1.485792,-5.007427 -3.423026,-5.811557 -4.817397,-1.474721 0.0314,-0.159116 -0.02165,0.931631 -0.1553897,1.609585 l 2.9931317,1.251597 z"
       sodipodi:nodetypes="ccccc" />
    <path
       id="rect10620-1-8-9-9-7"
       style="fill:#00003c;fill-opacity:1;stroke-width:0.398878"
       d="M 12.521112,24.021619 C 13.346936,18.651608 10.452573,17.556037 8.9822247,21.91849 l 1.1790123,4.881204 c 1.381508,0.37197 1.950872,-0.379326 3.436069,-1.023545 -1.003161,-0.02153 0.12707,-1.303674 0.278198,-1.649623 z"
       sodipodi:nodetypes="cccccc" />
    <path
       id="path4257-0-5-6-5-0-3-4"
       style="fill:#000055;fill-opacity:1;stroke-width:0.218812"
       d="m 17.254015,18.137087 c -0.176724,0.485227 0.04289,0.792216 -0.487891,0.499783 0,0 -0.04971,-1.014626 0.237421,-1.836058 0.179059,-0.509957 1.307306,-1.566325 0.860964,-0.340454 z"
       sodipodi:nodetypes="sssss" />
    <rect
       style="fill:#28170b;fill-opacity:1;stroke-width:0.280313"
       id="rect24649"
       width="0.43880653"
       height="1.6168292"
       x="-1.9827418"
       y="26.386696"
       transform="matrix(0.97428123,-0.22533549,0.64325376,0.76565305,0,0)" />
    <path
       id="path6217-9-9-5-1"
       style="fill:#003380;stroke-width:0.398878"
       d="m 16.685971,17.474273 c -3.002941,2.829192 -3.336864,3.201109 -0.393598,4.292028 1.922262,0.712591 3.309438,0.575322 4.132994,-2.002929 0.575211,-1.800774 0.115396,-3.651637 -1.184623,-4.066894 -1.300001,-0.415253 -1.233671,0.533106 -2.554773,1.777795 z"
       sodipodi:nodetypes="sssss" />
    <rect
       style="fill:#000000;fill-opacity:1;stroke-width:0.264582"
       id="rect12931-8-7-6"
       width="0.22212978"
       height="1.741194"
       x="-22.900297"
       y="11.198689"
       transform="matrix(-0.95258323,-0.30427814,-0.30427814,0.95258323,0,0)" />
    <ellipse
       style="fill:#ffccaa;stroke-width:0.398878"
       id="path9819-5-0-5-9-5"
       cx="15.113067"
       cy="22.989758"
       rx="0.97849739"
       ry="1.6747377"
       transform="matrix(-0.30427814,0.95258323,0.95258323,0.30427814,0,0)" />
    <path
       id="rect21874-0-5-4-1"
       style="fill:#003380;stroke-width:0.264582"
       d="M 16.994172,19.435773 9.0624555,17.72762 c -0.207462,0.769113 -0.7585496,2.536643 -0.4337005,2.896196 3.494094,1.854144 4.405911,2.623864 7.842862,2.747328 0.186636,-0.584287 1.438336,-2.999377 0.522658,-3.935757 z"
       sodipodi:nodetypes="cccccc" />
    <path
       id="rect8523-7-3-4-8"
       style="fill:#003380;stroke-width:0.376887"
       d="m 20.1174,16.516165 -8.689561,-3.822264 -0.796702,0.666903 -2.002382,7.263012 8.051206,0.906896 z"
       sodipodi:nodetypes="cccccc" />
    <path
       id="path6217-9-9-3-7-8-0"
       style="fill:#003380;stroke-width:0.398878"
       d="m 12.46797,16.595657 c 0.210126,3.944639 2.86484,4.244069 -0.925609,3.181726 -2.4755672,-0.693861 -4.2013125,-0.928392 -3.3907057,-3.466095 0.5661638,-1.772452 1.1633746,-3.275818 2.7943587,-2.754842 1.630976,0.520972 1.412257,0.979986 1.521963,3.039209 z"
       sodipodi:nodetypes="ssssss" />
    <path
       id="path4257-0-5-7-9-5-5-4"
       style="fill:#002255;fill-opacity:1;stroke-width:0.253626"
       d="m 17.275846,17.008355 c -0.06025,0.279981 0.355366,0.845889 1.135996,1.027356 0,0 -0.225171,-0.925967 -0.109128,-1.393355 0.07204,-0.290292 -0.666129,-1.308726 -0.818497,-0.601436 z"
       sodipodi:nodetypes="sssss" />
    <rect
       style="fill:#000000;fill-opacity:1;stroke-width:0.264582"
       id="rect12931-8-7-6-7"
       width="0.22212978"
       height="1.741194"
       x="-21.761999"
       y="11.328053"
       transform="matrix(-0.95258323,-0.30427814,-0.30427814,0.95258323,0,0)" />
    <path
       id="rect24181"
       style="fill:#2b1100;stroke-width:0.264582"
       d="m 18.412332,16.520001 0.433736,0.347157 -5.105015,4.6588 C 12.517808,21.835226 13.4519,21.294533 13.307315,21.178813 Z"
       sodipodi:nodetypes="ccccc" />
    <ellipse
       style="fill:#ffccaa;stroke-width:0.148272"
       id="path9819-9-7-8-1-9"
       cx="-20.152449"
       cy="13.175131"
       rx="0.52575547"
       ry="0.4306986"
       transform="matrix(-0.95258323,-0.30427814,-0.30427814,0.95258323,0,0)" />
    <path
       id="path31-9-9-4-8-9"
       style="fill:#ffccaa;fill-opacity:1;fill-rule:evenodd;stroke-width:0.398878"
       d="M 22.155416,12.863385 C 22.297294,11.765014 25.32596,7.8182066 18.031787,5.8188776 12.001399,4.165967 12.130055,8.7279588 11.948103,9.0791669 11.006647,10.8964 11.107718,14.50725 14.884137,16.259223 c 4.080069,1.892817 6.98343,-1.167514 7.271279,-3.395838 z"
       sodipodi:nodetypes="sssss" />
    <path
       id="rect1628"
       style="fill:#c87137;stroke-width:0.264583"
       d="m 15.510204,18.989669 c 0.52794,0.625827 -0.0087,1.388626 2.044671,1.818219 l 2.097955,-2.35924 c -0.150853,-0.928193 -0.725319,-2.051032 -2.044687,-1.81822 z"
       sodipodi:nodetypes="ccccc" />
    <ellipse
       style="fill:#a05a2c;stroke-width:0.264584"
       id="path2211"
       cx="25.633366"
       cy="0.30058491"
       rx="1.2023382"
       ry="0.65271729"
       transform="matrix(0.71186279,0.70231856,0.70231856,-0.71186279,0,0)" />
    <path
       id="rect1430-1-8-6-7-2"
       style="fill:#28170b;stroke-width:0.210089"
       d="m 16.623224,9.2196939 1.110074,0.7104475 0.587795,1.0533896 c -0.875724,-0.75158 -1.718361,-1.5382967 -3.02899,-1.8293031 0.162985,-0.2276763 1.18143,0.207142 1.331142,0.065425 z"
       sodipodi:nodetypes="ccccc"
       inkscape:transform-center-x="0.65361402"
       inkscape:transform-center-y="-0.039168861" />
    <path
       id="rect1430-1-8-6-7-4-5"
       style="fill:#28170b;stroke-width:0.210089"
       d="m 21.90609,11.437677 -0.993546,-0.239525 -0.929258,0.362602 c 0.897575,0.05081 1.799031,0.05387 2.645969,0.732608 0.05269,-0.274929 -0.730569,-0.65173 -0.72315,-0.855689 z"
       sodipodi:nodetypes="ccccc"
       inkscape:transform-center-x="-0.34050427"
       inkscape:transform-center-y="0.25812145" />
    <path
       id="path2169-5-4-04-7-9-1"
       style="fill:#e9c6af;stroke-width:0.566042"
       d="m 20.024471,11.899176 c -0.170196,0.171716 0.426827,0.453841 1.001365,0.637364 0.574523,0.183516 1.120005,0.173239 1.140246,0.01933 0.02501,-0.189371 -0.323976,-0.531431 -0.914249,-0.72684 -0.572658,-0.189219 -1.025902,-0.133017 -1.227362,0.07015 z"
       sodipodi:nodetypes="sssss" />
    <path
       id="path2169-5-4-0-9-4-9-5"
       style="fill:#e9c6af;stroke-width:0.551594"
       d="m 17.721515,11.231949 c 0.04179,0.212271 -0.543468,0.05304 -1.089032,-0.121228 -0.545582,-0.174271 -0.995988,-0.427759 -0.930139,-0.547837 0.08102,-0.147816 0.534621,-0.205838 1.098767,-0.03164 0.547019,0.169481 0.870934,0.449499 0.920404,0.700703 z"
       sodipodi:nodetypes="sssss" />
    <ellipse
       style="fill:#502d16;stroke-width:0.344828"
       id="path2169-03-4-0-2"
       ry="0.31256437"
       rx="0.65988362"
       cy="5.2153578"
       cx="-24.294708"
       transform="matrix(-0.95258323,-0.30427814,-0.30427814,0.95258323,0,0)" />
    <ellipse
       style="fill:#28170b;stroke-width:0.344828"
       id="path2169-0-8-7-5-1"
       ry="0.22066769"
       rx="0.44355947"
       cy="5.2158566"
       cx="-24.491955"
       transform="matrix(-0.95258323,-0.30427814,-0.30427814,0.95258323,0,0)" />
    <ellipse
       style="fill:#502d16;stroke-width:0.314342"
       id="path2169-5-48-7-0-5"
       cx="-19.812485"
       cy="5.2862511"
       rx="0.54835397"
       ry="0.29502484"
       transform="matrix(-0.95258323,-0.30427814,-0.30427814,0.95258323,0,0)" />
    <ellipse
       style="fill:#28170b;stroke-width:0.344828"
       id="path2169-0-2-9-0-5-8"
       ry="0.22066769"
       rx="0.44355947"
       cy="5.3070974"
       cx="-19.855295"
       transform="matrix(-0.95258323,-0.30427814,-0.30427814,0.95258323,0,0)" />
    <path
       id="path11724-0-2-14-2-8"
       style="fill:#916f6f;stroke-width:0.398878"
       d="m 12.282585,27.93054 c 0.0059,0.181879 0.298925,0.331779 2.17576,0.347644 1.876819,0.01585 2.265055,-0.128282 2.259103,-0.310164 -0.0059,-0.181921 -0.389715,0.099 -2.26653,0.08313 -1.876868,-0.01585 -2.174283,-0.302421 -2.168323,-0.120618 z"
       sodipodi:nodetypes="sssss" />
    <path
       id="rect12747-2-4-7-8"
       style="fill:#1c1f24;stroke-width:0.398878"
       d="m 18.470864,15.703853 c -0.412587,-0.265571 -1.03864,-0.383626 -1.634861,-0.522215 l -0.221882,0.09858 c 0.449418,0.523333 1.425704,1.14399 2.050169,0.600285 z"
       sodipodi:nodetypes="ccccc" />
    <path
       id="rect12747-2-4-7-8-0"
       style="fill:#1c1f24;fill-opacity:0.50639;stroke-width:0.398878"
       d="M 18.628918,15.295576 C 18.216331,15.030005 17.590279,14.91195 16.994057,14.773362 l -0.221886,0.09859 c 0.537134,0.116355 1.580813,0.41026 2.050167,0.600285 z"
       sodipodi:nodetypes="ccccc" />
    <rect
       style="fill:#000000;fill-opacity:1;stroke-width:0.264582"
       id="rect17694-1"
       width="0.59951073"
       height="0.12350398"
       x="-22.560507"
       y="7.7107682"
       transform="matrix(-0.95258323,-0.30427814,-0.30427814,0.95258323,0,0)" />
    <rect
       style="fill:#000000;fill-opacity:1;stroke-width:0.264582"
       id="rect17694-7-5"
       width="0.59951073"
       height="0.12350398"
       x="-21.330603"
       y="7.7593369"
       transform="matrix(-0.95258323,-0.30427814,-0.30427814,0.95258323,0,0)" />
    <rect
       style="fill:#2b1100;fill-opacity:1;stroke-width:0.264582"
       id="rect24357"
       width="2.2924378"
       height="2.3386087"
       x="17.154219"
       y="15.68762"
       transform="rotate(17.71474)" />
    <rect
       style="fill:#552200;stroke-width:0.29625"
       id="rect2337"
       width="2.2592118"
       height="1.1400765"
       x="28.048223"
       y="6.1974549"
       transform="matrix(0.50948545,0.86047927,0.37907572,-0.92536566,0,0)" />
    <ellipse
       style="fill:#ffccaa;stroke-width:0.398878"
       id="path9819-8-8-8-2"
       cx="14.265395"
       cy="20.584154"
       rx="0.97849739"
       ry="1.6747377"
       transform="matrix(-0.30427814,0.95258323,0.95258323,0.30427814,0,0)" />
  </g>
</svg>
