<?xml version="1.0" encoding="UTF-8" standalone="no"?>
<!-- Created with Inkscape (http://www.inkscape.org/) -->

<svg
   width="210mm"
   height="297mm"
   viewBox="0 0 210 297"
   version="1.1"
   id="svg1343"
   inkscape:version="1.2 (dc2aedaf03, 2022-05-15)"
   sodipodi:docname="sam_jump.svg"
   inkscape:export-filename="C:\Users\basti\OneDrive\Bureau\Gus veut boire un coup\Gus\fighter_1\fighter_1_2.png"
   inkscape:export-xdpi="73.163231"
   inkscape:export-ydpi="73.163231"
   xmlns:inkscape="http://www.inkscape.org/namespaces/inkscape"
   xmlns:sodipodi="http://sodipodi.sourceforge.net/DTD/sodipodi-0.dtd"
   xmlns="http://www.w3.org/2000/svg"
   xmlns:svg="http://www.w3.org/2000/svg">
  <sodipodi:namedview
     id="namedview1345"
     pagecolor="#ffffff"
     bordercolor="#666666"
     borderopacity="1.0"
     inkscape:pageshadow="2"
     inkscape:pageopacity="0.0"
     inkscape:pagecheckerboard="0"
     inkscape:document-units="mm"
     showgrid="false"
     inkscape:zoom="5.9722784"
     inkscape:cx="4.6046079"
     inkscape:cy="54.501813"
     inkscape:window-width="1920"
     inkscape:window-height="1001"
     inkscape:window-x="-9"
     inkscape:window-y="-9"
     inkscape:window-maximized="1"
     inkscape:current-layer="layer1"
     inkscape:showpageshadow="2"
     inkscape:deskcolor="#d1d1d1" />
  <defs
     id="defs1340" />
  <g
     inkscape:label="Calque 1"
     inkscape:groupmode="layer"
     id="layer1">
    <path
       id="path11385-4-1-1-5-2-8"
       style="fill:#ac9393;stroke-width:0.548397"
       d="m 14.468341,26.776841 c 0.04321,0.927936 0.785078,1.32958 2.899848,1.231102 2.114747,-0.09847 2.887,-0.57063 2.843788,-1.498564 -0.04321,-0.927925 -0.889983,-1.292891 -3.004731,-1.194414 -2.114759,0.09847 -2.782115,0.533952 -2.738905,1.461876 z"
       sodipodi:nodetypes="sssss"
       inkscape:export-filename="..\_bank\perso\sam\sam_jump_4.png"
       inkscape:export-xdpi="73.163231"
       inkscape:export-ydpi="73.163231" />
    <path
       id="path11724-0-2-14-2-8-2"
       style="fill:#916f6f;stroke-width:0.398878"
       d="m 15.166858,27.693692 c 0.03088,0.179346 0.341681,0.287531 2.202896,0.04518 1.86117,-0.242359 2.225901,-0.438505 2.194985,-0.617841 -0.03098,-0.179362 -0.372409,0.151648 -2.23358,0.393985 -1.861192,0.242359 -2.195185,-5.9e-4 -2.164299,0.178711 z"
       sodipodi:nodetypes="sssss" />
    <path
       id="rect10620-3-0-1-1"
       style="fill:#000028;fill-opacity:1;stroke-width:0.462379"
       d="m 18.538955,22.019867 c -0.10831,-5.222084 -6.20859,-3.011807 -6.21724,1.543667 -0.0185,-0.161127 2.482597,1.577307 2.561487,2.263808 l 2.692386,-0.527954 z"
       sodipodi:nodetypes="ccccc" />
    <path
       id="path11385-4-04-45-3-8-6"
       style="fill:#c8b7b7;stroke-width:0.548397"
       d="m 10.710518,26.054052 c -0.283521,0.884603 0.400094,1.561224 2.793118,2.328195 2.393038,0.766971 3.422822,0.639487 3.70634,-0.24512 0.283525,-0.884617 -0.530115,-1.569586 -2.923149,-2.336558 -2.393055,-0.766976 -3.292783,-0.63114 -3.576306,0.253478 z"
       sodipodi:nodetypes="sssss" />
    <path
       id="rect12969-1-0"
       style="stroke-width:0.264582"
       transform="scale(-1,1)"
       d="m -15.376412,21.093016 h 5.356813 l -1.006656,2.575819 -4.350157,-0.316868 z"
       sodipodi:nodetypes="ccccc" />
    <path
       id="rect10620-1-8-9-9-7"
       style="fill:#00003c;fill-opacity:1;stroke-width:0.398878"
       d="m 17.045334,23.152375 c -3.679937,-3.956984 -7.2045744,-5.552171 -7.2778044,-0.949177 1.5962424,2.045269 0.6656444,1.148769 1.4144644,3.261106 1.429183,-0.06603 1.886081,1.40185 3.104833,0.336265 z"
       sodipodi:nodetypes="ccccc" />
    <path
       id="path4257-0-5-6-5-0-3-4"
       style="fill:#000055;fill-opacity:1;stroke-width:0.218812"
       d="m 18.749979,17.854261 c -0.0207,0.51599 0.28191,0.7416 -0.31268,0.62454 0,0 -0.35608,-0.95139 -0.33251,-1.82124 0.0154,-0.54026 0.76872,-1.88984 0.71655,-0.58628 z"
       sodipodi:nodetypes="sssss" />
    <ellipse
       style="fill:#deaa87;stroke-width:0.148272"
       id="path9819-9-7-8-8-0-4"
       cx="-17.257524"
       cy="20.566084"
       rx="0.52575547"
       ry="0.4306986"
       transform="scale(-1,1)" />
    <path
       id="path6217-9-9-5-1"
       style="fill:#003380;stroke-width:0.398878"
       d="m 16.948855,17.395718 c -1.99969,3.60877 -2.301225,2.905588 0.834425,3.049208 2.04794,0.0939 3.424185,0.700122 3.424185,-2.006468 0,-1.89041 -1.00119,-3.5136 -2.36592,-3.5136 -1.36471,0 -1.01296,0.88321 -1.89269,2.47086 z"
       sodipodi:nodetypes="sssss" />
    <path
       id="rect21874-0-5-4-1"
       style="fill:#003380;stroke-width:0.264582"
       d="m 17.839285,18.112097 -8.7279704,0.55229 c 0.0364,0.79577 0.237365,3.295151 0.656215,3.538811 3.8925904,0.70305 5.4598754,0.744849 8.7714254,-0.183331 0,-0.61337 0.45749,-3.29481 -0.69969,-3.90817 z"
       sodipodi:nodetypes="cccccc" />
    <path
       id="rect8523-7-3-4-8"
       style="fill:#003380;stroke-width:0.376887"
       d="m 19.926046,14.380597 -9.440561,-0.99698 -0.5559944,0.877703 -0.463665,6.831696 8.7115974,-0.889703 z"
       sodipodi:nodetypes="cccccc" />
    <ellipse
       style="fill:#ffccaa;stroke-width:0.148272"
       id="path9819-9-7-8-1-9-3"
       cx="-20.366106"
       cy="17.692816"
       rx="0.52575547"
       ry="0.4306986"
       transform="scale(-1,1)" />
    <path
       id="path6217-9-9-3-7-8-0"
       style="fill:#003380;stroke-width:0.398878"
       d="m 12.663515,16.783874 c 1.40043,3.69366 4.676141,2.584446 0.742175,2.725826 -2.56931,0.0923 -5.2653964,1.075289 -5.2653964,-1.588731 0,-1.86068 0.436495,-3.569095 2.1486654,-3.569095 1.71216,0 1.64348,0.5038 2.37456,2.432 z"
       sodipodi:nodetypes="ssssss" />
    <ellipse
       style="fill:#ffccaa;stroke-width:0.148272"
       id="path9819-9-7-8-1-9"
       cx="-15.666762"
       cy="16.939768"
       rx="0.52575547"
       ry="0.4306986"
       transform="scale(-1,1)" />
    <rect
       style="fill:#28170b;fill-opacity:1;stroke-width:0.280313"
       id="rect24649"
       width="0.43880653"
       height="1.6168292"
       x="-12.238997"
       y="25.99291"
       transform="matrix(0.8595193,-0.51110328,0.84572423,0.5336202,0,0)" />
    <path
       id="path4257-0-5-7-9-5-5-4"
       style="fill:#002255;fill-opacity:1;stroke-width:0.253626"
       d="m 11.463125,17.485625 c 0.0278,0.285039 1.103442,-0.449263 1.902272,-0.513926 0,0 -1.003782,0.333361 -1.035462,-0.14717 -0.0197,-0.298449 -1.03276,-1.043982 -0.96269,-0.323867 z"
       sodipodi:nodetypes="sssss" />
    <rect
       style="fill:#000000;fill-opacity:1;stroke-width:0.264582"
       id="rect12931-8-7-6"
       width="0.22212978"
       height="1.741194"
       x="-18.414614"
       y="14.963326"
       transform="scale(-1,1)" />
    <rect
       style="fill:#000000;fill-opacity:1;stroke-width:0.264582"
       id="rect12931-8-7-6-7"
       width="0.22212978"
       height="1.741194"
       x="-17.276314"
       y="15.09269"
       transform="scale(-1,1)" />
    <path
       id="rect24181"
       style="fill:#2b1100;stroke-width:0.264582"
       d="m 18.302995,14.903067 0.5188,0.19872 -3.44538,5.99124 c -1.07114,0.66681 -0.34586,-0.13247 -0.5188,-0.19871 z"
       sodipodi:nodetypes="ccccc" />
    <ellipse
       style="fill:#ffccaa;stroke-width:0.398878"
       id="path9819-5-0-5-9-5"
       cx="18.269724"
       cy="18.823929"
       rx="0.97849739"
       ry="1.6747377"
       transform="matrix(0,1,1,0,0,0)" />
    <path
       id="path31-9-9-4-8-9"
       style="fill:#ffccaa;fill-opacity:1;fill-rule:evenodd;stroke-width:0.398878"
       d="m 20.755965,10.280897 c -0.19906,-1.08946 1.48507,-5.77068 -6.07159,-5.45575 -6.2473904,0.26038 -4.7367204,4.56691 -4.8031804,4.95683 -0.34387,2.01753 0.8511104,5.42641 4.9815504,5.94623 4.46255,0.56159 6.29705,-3.23706 5.89322,-5.44731 z"
       sodipodi:nodetypes="sssss" />
    <path
       id="rect12747-2-4-7-8"
       style="fill:#1c1f24;stroke-width:0.398878"
       d="m 17.581248,15.166141 c -0.47383,-0.12744 -1.10612,-0.0494 -1.71624,0 l -0.18137,0.16142 c 0.587348,0.361768 1.706192,0.655934 2.13561,-0.052 z"
       sodipodi:nodetypes="ccccc" />
    <path
       id="rect1628"
       style="fill:#c87137;stroke-width:0.264583"
       d="m 16.06722,17.134463 c 0.693322,0.435527 0.414207,1.32544 2.500962,1.109859 l 1.280613,-2.885735 c -0.426131,-0.83828 -1.314981,-1.733103 -2.500982,-1.10985 z"
       sodipodi:nodetypes="ccccc" />
    <path
       id="rect1430-1-8-6-7-2"
       style="fill:#28170b;stroke-width:0.210089"
       d="m 14.248746,8.3512289 1.31751,0.0342 1.04776,0.59777 c -1.13817,-0.19061 -2.2662,-0.42832 -3.53852,2e-4 0.0218,-0.27915 1.11837,-0.43351 1.17325,-0.63222 z"
       sodipodi:nodetypes="ccccc"
       inkscape:transform-center-x="0.56232992"
       inkscape:transform-center-y="0.017187885" />
    <path
       id="rect1430-1-8-6-7-4-5"
       style="fill:#28170b;stroke-width:0.210089"
       d="m 19.975851,8.2590839 -0.9811,0.28627 -0.6259,0.77669 c 0.80399,-0.40227 1.5876,-0.8479 2.65992,-0.68021 -0.091,-0.26473 -0.95793,-0.20213 -1.05292,-0.38277 z"
       sodipodi:nodetypes="ccccc"
       inkscape:transform-center-x="-0.51282386"
       inkscape:transform-center-y="0.021147908" />
    <path
       id="path2169-5-4-04-7-9-1"
       style="fill:#e9c6af;stroke-width:0.566042"
       d="m 18.432675,10.010807 c -0.10992,0.21534 0.54468,0.30245 1.14782,0.30245 0.60312,0 1.11961,-0.17577 1.09206,-0.32854 -0.0338,-0.188 -0.47032,-0.40765 -1.09206,-0.41419 -0.60308,-0.006 -1.01773,0.18545 -1.14782,0.44028 z"
       sodipodi:nodetypes="sssss" />
    <path
       id="path2169-5-4-0-9-4-9-5"
       style="fill:#e9c6af;stroke-width:0.551594"
       d="m 16.035895,10.075957 c 0.1044,0.18949 -0.50156,0.21589 -1.07428,0.21589 -0.57274,0 -1.07892,-0.10442 -1.05273,-0.23884 0.0322,-0.16546 0.44664,-0.35875 1.03704,-0.36447 0.57265,-0.005 0.96641,0.16318 1.08997,0.38742 z"
       sodipodi:nodetypes="sssss" />
    <ellipse
       style="fill:#502d16;stroke-width:0.344828"
       id="path2169-03-4-0-2"
       ry="0.31256437"
       rx="0.65988362"
       cy="10.010807"
       cx="-19.926046"
       transform="scale(-1,1)" />
    <ellipse
       style="fill:#28170b;stroke-width:0.344828"
       id="path2169-0-8-7-5-1"
       ry="0.22066769"
       rx="0.44355947"
       cy="10.102704"
       cx="-20.14237"
       transform="scale(-1,1)" />
    <ellipse
       style="fill:#502d16;stroke-width:0.314342"
       id="path2169-5-48-7-0-5"
       cx="-15.39311"
       cy="9.9901381"
       rx="0.54835397"
       ry="0.29502484"
       transform="scale(-1,1)" />
    <ellipse
       style="fill:#28170b;stroke-width:0.344828"
       id="path2169-0-2-9-0-5-8"
       ry="0.22066769"
       rx="0.44355947"
       cy="10.102704"
       cx="-15.460609"
       transform="scale(-1,1)" />
    <path
       id="path11724-0-2-14-2-8"
       style="fill:#916f6f;stroke-width:0.398878"
       d="m 12.535902,27.61831 c -0.03368,0.178835 0.219803,0.38874 2.048465,0.81153 1.828649,0.422767 2.238913,0.366323 2.272573,0.187484 0.0337,-0.178869 -0.401913,0.01207 -2.230557,-0.410721 -1.8287,-0.422771 -2.056836,-0.767063 -2.090482,-0.588256 z"
       sodipodi:nodetypes="sssss" />
    <path
       id="rect12747-2-4-7-8-0"
       style="fill:#1c1f24;fill-opacity:0.50639;stroke-width:0.398878"
       d="m 18.136745,13.670797 c -0.47383,-0.12744 -1.10612,-0.0494 -1.71624,0 l -0.18137,0.16143 c 0.54707,-0.0526 1.63069,-0.0902 2.13561,-0.052 z"
       sodipodi:nodetypes="ccccc" />
    <rect
       style="fill:#000000;fill-opacity:1;stroke-width:0.264582"
       id="rect17694-1"
       width="0.59951073"
       height="0.12350398"
       x="-18.297548"
       y="12.479629"
       transform="scale(-1,1)" />
    <rect
       style="fill:#000000;fill-opacity:1;stroke-width:0.264582"
       id="rect17694-7-5"
       width="0.59951073"
       height="0.12350398"
       x="-17.067644"
       y="12.528197"
       transform="scale(-1,1)" />
    <ellipse
       style="fill:#a05a2c;stroke-width:0.264584"
       id="path2211"
       cx="23.336168"
       cy="-5.086132"
       rx="1.2023382"
       ry="0.65271729"
       transform="matrix(0.89180874,0.45241261,0.45241261,-0.89180874,0,0)" />
    <rect
       style="fill:#2b1100;fill-opacity:1;stroke-width:0.264582"
       id="rect24357"
       width="2.2924378"
       height="2.3386087"
       x="12.891259"
       y="20.45648" />
    <rect
       style="fill:#552200;stroke-width:0.29625"
       id="rect2337"
       width="2.2592118"
       height="1.1400765"
       x="22.817762"
       y="-1.0666409"
       transform="matrix(0.74715232,0.66465285,0.07953264,-0.99683226,0,0)" />
    <ellipse
       style="fill:#ffccaa;stroke-width:0.398878"
       id="path9819-8-8-8-2"
       cx="18.030033"
       cy="16.098467"
       rx="0.97849739"
       ry="1.6747377"
       transform="matrix(0,1,1,0,0,0)" />
    <rect
       style="fill:#502d16;fill-opacity:1;stroke-width:0.264582"
       id="rect24359"
       width="2.063194"
       height="0.10523742"
       x="12.991586"
       y="20.62602" />
    <rect
       style="fill:#502d16;fill-opacity:1;stroke-width:0.264582"
       id="rect24359-7"
       width="2.063194"
       height="0.10523742"
       x="12.998773"
       y="20.865721" />
  </g>
</svg>
