<?xml version="1.0" encoding="UTF-8" standalone="no"?>
<!-- Created with Inkscape (http://www.inkscape.org/) -->

<svg
   width="210mm"
   height="297mm"
   viewBox="0 0 210 297"
   version="1.1"
   id="svg5"
   inkscape:version="1.2 (dc2aedaf03, 2022-05-15)"
   sodipodi:docname="villageois_punch2.svg"
   xmlns:inkscape="http://www.inkscape.org/namespaces/inkscape"
   xmlns:sodipodi="http://sodipodi.sourceforge.net/DTD/sodipodi-0.dtd"
   xmlns="http://www.w3.org/2000/svg"
   xmlns:svg="http://www.w3.org/2000/svg">
  <sodipodi:namedview
     id="namedview7"
     pagecolor="#ffffff"
     bordercolor="#666666"
     borderopacity="1.0"
     inkscape:showpageshadow="2"
     inkscape:pageopacity="0.0"
     inkscape:pagecheckerboard="0"
     inkscape:deskcolor="#d1d1d1"
     inkscape:document-units="mm"
     showgrid="false"
     inkscape:zoom="1.0582793"
     inkscape:cx="374.6648"
     inkscape:cy="318.91392"
     inkscape:window-width="1920"
     inkscape:window-height="1001"
     inkscape:window-x="-9"
     inkscape:window-y="-9"
     inkscape:window-maximized="1"
     inkscape:current-layer="layer1" />
  <defs
     id="defs2" />
  <g
     inkscape:label="Calque 1"
     inkscape:groupmode="layer"
     id="layer1">
    <rect
       style="opacity:0.99;fill:#ffccaa;fill-opacity:1;stroke-width:0.2;stop-color:#000000"
       id="rect188"
       width="20.617432"
       height="31.36125"
       x="47.509338"
       y="65.067078"
       inkscape:export-filename="..\_bank\perso\villageman\villageman_punch2_4.png"
       inkscape:export-xdpi="17.077272"
       inkscape:export-ydpi="17.077272"
       transform="rotate(2.5190422)" />
    <rect
       style="opacity:0.99;fill:#695951;fill-opacity:1;stroke-width:0.2;stop-color:#000000"
       id="rect2727-9-7"
       width="26.338661"
       height="9.98839"
       x="53.539814"
       y="166.78134"
       transform="rotate(-1.50304)" />
    <rect
       style="opacity:0.99;fill:#988478;fill-opacity:1;stroke-width:0.2;stop-color:#000000"
       id="rect2727-4"
       width="23.755625"
       height="9.98839"
       x="47.039463"
       y="166.78134"
       transform="rotate(-1.50304)" />
    <path
       id="rect2619"
       style="opacity:0.99;fill:#483e37;stroke-width:0.2;stop-color:#000000"
       d="m 43.150855,145.97984 34.763028,5.02298 0.361628,13.78205 -35.906824,0.94217 z"
       sodipodi:nodetypes="ccccc" />
    <path
       id="rect1471"
       style="opacity:0.99;fill:#9d7963;stroke-width:0.2;stop-color:#000000"
       d="m 41.857194,100.35841 0.009,-2.472371 21.956125,1.452963 -2.535931,57.642728 -20.597507,-0.90617 2.439994,-55.46208 z"
       sodipodi:nodetypes="ccccccc" />
    <path
       id="rect1547-5"
       style="opacity:0.99;fill:#7e614f;stroke-width:0.2;stop-color:#000000"
       d="m 71.810209,115.52804 10.566,-7.21514 10.413195,20.48912 -11.33945,5.27826 z"
       sodipodi:nodetypes="ccccc" />
    <rect
       style="opacity:0.99;fill:#333333;fill-opacity:0.940171;stroke-width:0.2;stop-color:#000000"
       id="rect2673"
       width="1.5384861"
       height="13.643157"
       x="68.254982"
       y="153.13818"
       transform="rotate(-1.50304)" />
    <path
       id="rect1471-6"
       style="opacity:0.99;fill:#8b6a57;stroke-width:0.2;stop-color:#000000"
       d="m 63.822773,99.329398 21.267471,0.935652 -0.01726,1.81431 -1.108527,-0.0153 -2.50276,52.54101 -4.413407,2.87106 -0.542299,-0.97498 -4.31678,-0.18989 -0.796481,1.00459 -10.106311,-0.334 z"
       sodipodi:nodetypes="ccccccccccc" />
    <path
       id="rect188-7"
       style="opacity:0.99;fill:#ffc49c;stroke-width:0.2;stop-color:#000000"
       d="m 65.201146,67.998458 20.222844,0.889684 -1.378362,31.330948 -2.689189,-0.1183 -2.076961,3.45064 -5.135661,-0.20182 -4.901281,-3.781773 -5.419763,-0.238433 z"
       sodipodi:nodetypes="ccccccccc" />
    <rect
       style="opacity:0.99;fill:#784421;fill-opacity:0.472934;stroke-width:0.2;stop-color:#000000"
       id="rect1395"
       width="12.218546"
       height="1.000051"
       x="75.045715"
       y="93.492165"
       transform="rotate(2.5190422)" />
    <g
       id="g2821"
       transform="rotate(2.5190422,-50.552042,217.56208)">
      <rect
         style="opacity:0.99;fill:#d38d5f;fill-opacity:1;stroke-width:0.2;stop-color:#000000"
         id="rect1184"
         width="7.8754015"
         height="13.250676"
         x="68.503487"
         y="82.879227" />
      <rect
         style="opacity:0.99;fill:#d7976d;fill-opacity:1;stroke-width:0.2;stop-color:#000000"
         id="rect1184-1"
         width="2.437624"
         height="13.250676"
         x="68.503487"
         y="82.879227" />
    </g>
    <rect
       style="opacity:0.99;fill:#ffffff;fill-opacity:1;stroke-width:0.2;stop-color:#000000"
       id="rect1292"
       width="2.5626307"
       height="3.3751724"
       x="73.110077"
       y="79.6782"
       transform="rotate(2.5190422)" />
    <rect
       style="opacity:0.99;fill:#ffffff;fill-opacity:1;stroke-width:0.2;stop-color:#000000"
       id="rect1292-0"
       width="2.5626307"
       height="3.3751724"
       x="83.191566"
       y="79.6782"
       transform="rotate(2.5190422)" />
    <rect
       style="opacity:0.99;fill:#008000;fill-opacity:1;stroke-width:0.2;stop-color:#000000"
       id="rect1292-8-5"
       width="2.5626307"
       height="3.3751724"
       x="85.727127"
       y="79.6782"
       transform="rotate(2.5190422)" />
    <path
       id="rect1238"
       style="opacity:0.99;fill:#1a1a1a;stroke-width:0.2;stop-color:#000000"
       d="m 69.385192,79.440633 c 2.666819,0.05716 5.517393,2.84495 8.24391,2.488743 2.511073,-0.32806 5.045147,-1.809967 7.21538,-1.675913 l 0.0228,1.288925 c -2.123708,-0.150066 -4.368154,1.220301 -7.292683,1.625688 -2.776412,0.384853 -6.454745,-2.326186 -8.332326,-2.490052 z"
       sodipodi:nodetypes="csccscc" />
    <rect
       style="opacity:0.99;fill:#008000;fill-opacity:1;stroke-width:0.2;stop-color:#000000"
       id="rect1292-8"
       width="2.5626307"
       height="3.3751724"
       x="75.645638"
       y="79.6782"
       transform="rotate(2.5190422)" />
    <rect
       style="opacity:0.99;fill:#725848;fill-opacity:1;stroke-width:0.202079;stop-color:#000000"
       id="rect1547"
       width="8.4052181"
       height="21.216919"
       x="-5.2827425"
       y="121.0693"
       transform="matrix(0.80287565,-0.59614654,0.42234279,0.90643619,0,0)" />
    <rect
       style="opacity:0.99;fill:#483e37;fill-opacity:0.549858;stroke-width:0.2;stop-color:#000000"
       id="rect1891"
       width="4.0002041"
       height="53.008324"
       x="79.184212"
       y="99.978958"
       transform="rotate(2.5190422)" />
    <path
       id="rect1601"
       style="opacity:0.99;fill:#725848;stroke-width:0.2;stop-color:#000000"
       d="m 62.600515,127.11194 30.210456,1.19996 -0.197865,5.42803 -36.760936,-1.61727 z"
       sodipodi:nodetypes="ccccc" />
    <path
       id="rect1774"
       style="opacity:0.99;fill:#7e614f;stroke-width:0.2;stop-color:#000000"
       d="m 62.897554,120.36002 20.222848,0.88968 3.114672,6.902 -23.634562,-1.03976 z"
       sodipodi:nodetypes="ccccc" />
    <path
       id="rect1829"
       style="opacity:0.99;fill:#7e614f;stroke-width:0.2;stop-color:#000000"
       d="m 53.639697,107.88014 6.577054,0.28936 5.654027,12.32136 -3.270264,6.6211 z"
       sodipodi:nodetypes="ccccc" />
    <path
       id="rect1833"
       style="opacity:0.99;fill:#483e37;fill-opacity:0.549858;stroke-width:0.2;stop-color:#000000"
       d="m 75.481311,120.91363 0.967863,0.0426 2.571347,6.96878 -0.229073,5.20686 -1.373744,-0.0604 0.227696,-5.17566 z"
       sodipodi:nodetypes="ccccccc" />
    <g
       id="g2753"
       transform="matrix(0.81839695,-0.02147393,0.02622999,0.99965593,4.3839155,1.460608)"
       style="stroke-width:1.10521">
      <rect
         style="opacity:0.99;fill:#836f64;fill-opacity:1;stroke-width:0.221041;stop-color:#000000"
         id="rect2727-9"
         width="32.172161"
         height="9.98839"
         x="49.058743"
         y="165.20625" />
      <rect
         style="opacity:0.99;fill:#988478;fill-opacity:1;stroke-width:0.221041;stop-color:#000000"
         id="rect2727"
         width="29.017033"
         height="9.98839"
         x="41.118694"
         y="165.20625" />
    </g>
  </g>
</svg>
