<?xml version="1.0" encoding="UTF-8" standalone="no"?>
<!-- Created with Inkscape (http://www.inkscape.org/) -->

<svg
   width="210mm"
   height="297mm"
   viewBox="0 0 210 297"
   version="1.1"
   id="svg5"
   inkscape:version="1.2 (dc2aedaf03, 2022-05-15)"
   sodipodi:docname="villageois_hit.svg"
   xmlns:inkscape="http://www.inkscape.org/namespaces/inkscape"
   xmlns:sodipodi="http://sodipodi.sourceforge.net/DTD/sodipodi-0.dtd"
   xmlns="http://www.w3.org/2000/svg"
   xmlns:svg="http://www.w3.org/2000/svg">
  <sodipodi:namedview
     id="namedview7"
     pagecolor="#ffffff"
     bordercolor="#666666"
     borderopacity="1.0"
     inkscape:showpageshadow="2"
     inkscape:pageopacity="0.0"
     inkscape:pagecheckerboard="0"
     inkscape:deskcolor="#d1d1d1"
     inkscape:document-units="mm"
     showgrid="false"
     inkscape:zoom="0.74831647"
     inkscape:cx="-96.884143"
     inkscape:cy="555.24637"
     inkscape:window-width="1920"
     inkscape:window-height="1001"
     inkscape:window-x="-9"
     inkscape:window-y="-9"
     inkscape:window-maximized="1"
     inkscape:current-layer="layer1" />
  <defs
     id="defs2" />
  <g
     inkscape:label="Calque 1"
     inkscape:groupmode="layer"
     id="layer1">
    <rect
       style="opacity:0.99;fill:#ffccaa;fill-opacity:1;stroke-width:0.2;stop-color:#000000"
       id="rect188"
       width="20.617432"
       height="31.36125"
       x="11.259176"
       y="87.306862"
       inkscape:export-filename="..\_bank\perso\villageman\villageman_hit_2.png"
       inkscape:export-xdpi="17.077272"
       inkscape:export-ydpi="17.077272"
       transform="rotate(-15.967404)" />
    <rect
       style="opacity:0.99;fill:#695951;fill-opacity:1;stroke-width:0.2;stop-color:#000000"
       id="rect2727-9-7"
       width="26.338661"
       height="9.98839"
       x="-33.258213"
       y="183.61943"
       transform="rotate(-37.09567)" />
    <rect
       style="opacity:0.99;fill:#988478;fill-opacity:1;stroke-width:0.2;stop-color:#000000"
       id="rect2727-4"
       width="23.755625"
       height="9.98839"
       x="-39.758564"
       y="183.61943"
       transform="rotate(-37.09567)" />
    <rect
       style="opacity:0.99;fill:#483e37;fill-opacity:1;stroke-width:0.2;stop-color:#000000"
       id="rect2619"
       width="35.919182"
       height="13.786804"
       x="-48.790936"
       y="169.83263"
       transform="rotate(-37.09567)" />
    <path
       id="rect1471"
       style="opacity:0.99;fill:#9d7963;stroke-width:0.2;stop-color:#000000"
       d="m 42.78537,113.26151 -0.775372,-2.34765 21.283866,-5.58387 15.872297,55.47238 -19.821976,5.67166 -15.271844,-53.37384 z"
       sodipodi:nodetypes="ccccccc" />
    <path
       id="rect1547-5"
       style="opacity:0.99;fill:#7e614f;stroke-width:0.2;stop-color:#000000"
       d="m 77.145485,122.22708 7.732998,-10.1931 16.372557,16.13002 -9.080686,8.60142 z"
       sodipodi:nodetypes="ccccc" />
    <path
       id="rect1471-6"
       style="opacity:0.99;fill:#8b6a57;stroke-width:0.2;stop-color:#000000"
       d="m 63.291218,105.32075 20.46671,-5.85613 0.558919,1.72618 -1.056203,0.33691 15.175134,53.48524 -4.164333,1.26048 -0.823471,-0.75273 -4.154236,1.18869 -0.436842,1.2053 -9.690726,2.88772 z"
       sodipodi:nodetypes="ccccccccccc" />
    <path
       id="rect188-7"
       style="opacity:0.99;fill:#ffc49c;stroke-width:0.2;stop-color:#000000"
       d="m 54.6377,75.176859 19.461428,-5.568496 8.62718,30.151287 -2.587944,0.74046 -0.875651,3.93115 -4.934662,1.43697 -5.847481,-2.0325 -5.215694,1.49239 z"
       sodipodi:nodetypes="ccccccccc" />
    <path
       id="rect1395"
       style="opacity:0.99;fill:#784421;fill-opacity:0.472934;stroke-width:0.2;stop-color:#000000"
       d="m 69.135522,100.59455 c 4.110694,-3.121037 8.020678,-4.182625 11.747135,-3.361207 l 0.275144,0.961461 c -3.479748,1.313008 -3.68045,4.074686 -11.747135,3.361206 z"
       sodipodi:nodetypes="ccccc" />
    <g
       id="g2821"
       transform="rotate(-15.967404,99.776847,82.843999)">
      <rect
         style="opacity:0.99;fill:#d38d5f;fill-opacity:1;stroke-width:0.2;stop-color:#000000"
         id="rect1184"
         width="7.8754015"
         height="13.250676"
         x="68.503487"
         y="82.879227" />
      <rect
         style="opacity:0.99;fill:#d7976d;fill-opacity:1;stroke-width:0.2;stop-color:#000000"
         id="rect1184-1"
         width="2.437624"
         height="13.250676"
         x="68.503487"
         y="82.879227" />
    </g>
    <rect
       style="opacity:0.99;fill:#ffffff;fill-opacity:1;stroke-width:0.200171;stop-color:#000000"
       id="rect1292"
       width="2.5625942"
       height="0.30701229"
       x="31.218876"
       y="104.98524"
       transform="matrix(0.96274764,-0.27040152,0.32620675,0.94529845,0,0)" />
    <rect
       style="opacity:0.99;fill:#ffffff;fill-opacity:1;stroke-width:0.200171;stop-color:#000000"
       id="rect1292-0"
       width="2.5625942"
       height="0.30701229"
       x="41.300228"
       y="104.98524"
       transform="matrix(0.96274764,-0.27040152,0.32620675,0.94529845,0,0)" />
    <rect
       style="opacity:0.99;fill:#008000;fill-opacity:1;stroke-width:0.200171;stop-color:#000000"
       id="rect1292-8-5"
       width="2.5625942"
       height="0.30701229"
       x="43.835735"
       y="104.98524"
       transform="matrix(0.96274764,-0.27040152,0.32620675,0.94529845,0,0)" />
    <path
       id="rect1238"
       style="opacity:0.99;fill:#1a1a1a;stroke-width:0.2;stop-color:#000000"
       d="m 63.019841,86.545857 c 4.751695,-3.270008 10.081803,-5.581523 14.670367,-4.197634 l 0.378296,1.322009 c -4.507037,-1.952884 -11.154752,1.779187 -14.670375,4.197625 z"
       sodipodi:nodetypes="ccccc" />
    <rect
       style="opacity:0.99;fill:#008000;fill-opacity:1;stroke-width:0.200171;stop-color:#000000"
       id="rect1292-8"
       width="2.5625942"
       height="0.30701229"
       x="33.754391"
       y="104.98524"
       transform="matrix(0.96274764,-0.27040152,0.32620675,0.94529845,0,0)" />
    <rect
       style="opacity:0.99;fill:#725848;fill-opacity:1;stroke-width:0.202079;stop-color:#000000"
       id="rect1547"
       width="8.4052181"
       height="21.216919"
       x="-50.60891"
       y="118.67776"
       transform="matrix(0.57241988,-0.81996066,0.68796242,0.72574631,0,0)" />
    <rect
       style="opacity:0.99;fill:#483e37;fill-opacity:0.549858;stroke-width:0.2;stop-color:#000000"
       id="rect1891"
       width="4.0002041"
       height="53.008324"
       x="42.934048"
       y="122.21875"
       transform="rotate(-15.967404)" />
    <path
       id="rect1601"
       style="opacity:0.99;fill:#725848;stroke-width:0.2;stop-color:#000000"
       d="m 72.084042,136.13343 29.032048,-8.44109 1.53344,5.21068 -35.376826,10.12238 z"
       sodipodi:nodetypes="ccccc" />
    <path
       id="rect1774"
       style="opacity:0.99;fill:#7e614f;stroke-width:0.2;stop-color:#000000"
       d="m 70.224855,129.63574 19.461429,-5.56849 5.142443,5.55826 -22.744688,6.50792 z"
       sodipodi:nodetypes="ccccc" />
    <path
       id="rect1829"
       style="opacity:0.99;fill:#7e614f;stroke-width:0.2;stop-color:#000000"
       d="m 57.487592,120.73532 6.329417,-1.81104 9.269123,9.89276 -1.002096,7.31637 z"
       sodipodi:nodetypes="ccccc" />
    <path
       id="rect1833"
       style="opacity:0.99;fill:#483e37;fill-opacity:0.549858;stroke-width:0.2;stop-color:#000000"
       d="m 82.334811,126.17072 0.931472,-0.26632 4.648321,5.79385 1.433752,5.01084 -1.322116,0.37791 -1.425151,-4.98079 z"
       sodipodi:nodetypes="ccccccc" />
    <g
       id="g2753"
       transform="matrix(0.65300223,-0.49378414,0.60314772,0.7976295,-54.661829,64.418789)"
       style="stroke-width:1.10521">
      <rect
         style="opacity:0.99;fill:#836f64;fill-opacity:1;stroke-width:0.221041;stop-color:#000000"
         id="rect2727-9"
         width="32.172161"
         height="9.98839"
         x="49.058743"
         y="165.20625" />
      <rect
         style="opacity:0.99;fill:#988478;fill-opacity:1;stroke-width:0.221041;stop-color:#000000"
         id="rect2727"
         width="29.017033"
         height="9.98839"
         x="41.118694"
         y="165.20625" />
    </g>
  </g>
</svg>
