<?xml version="1.0" encoding="UTF-8" standalone="no"?>
<!-- Created with Inkscape (http://www.inkscape.org/) -->

<svg
   width="210mm"
   height="297mm"
   viewBox="0 0 210 297"
   version="1.1"
   id="svg5"
   inkscape:version="1.2 (dc2aedaf03, 2022-05-15)"
   sodipodi:docname="villageois_ko.svg"
   xmlns:inkscape="http://www.inkscape.org/namespaces/inkscape"
   xmlns:sodipodi="http://sodipodi.sourceforge.net/DTD/sodipodi-0.dtd"
   xmlns="http://www.w3.org/2000/svg"
   xmlns:svg="http://www.w3.org/2000/svg">
  <sodipodi:namedview
     id="namedview7"
     pagecolor="#ffffff"
     bordercolor="#666666"
     borderopacity="1.0"
     inkscape:showpageshadow="2"
     inkscape:pageopacity="0.0"
     inkscape:pagecheckerboard="0"
     inkscape:deskcolor="#d1d1d1"
     inkscape:document-units="mm"
     showgrid="false"
     inkscape:zoom="0.52913965"
     inkscape:cx="70.86976"
     inkscape:cy="543.33483"
     inkscape:window-width="1920"
     inkscape:window-height="1001"
     inkscape:window-x="-9"
     inkscape:window-y="-9"
     inkscape:window-maximized="1"
     inkscape:current-layer="layer1" />
  <defs
     id="defs2" />
  <g
     inkscape:label="Calque 1"
     inkscape:groupmode="layer"
     id="layer1">
    <rect
       style="opacity:0.99;fill:#ffccaa;fill-opacity:1;stroke-width:0.2;stop-color:#000000"
       id="rect188"
       width="20.617432"
       height="31.36125"
       x="-139.45711"
       y="5.8596988"
       inkscape:export-filename="..\_bank\perso\villageman\villageman_ko_2.png"
       inkscape:export-xdpi="17.077272"
       inkscape:export-ydpi="17.077272"
       transform="rotate(-90.039884)" />
    <rect
       style="opacity:0.99;fill:#695951;fill-opacity:1;stroke-width:0.2;stop-color:#000000"
       id="rect2727-9-7"
       width="26.338661"
       height="9.98839"
       x="-130.10439"
       y="96.186089"
       transform="rotate(-93.728803)" />
    <rect
       style="opacity:0.99;fill:#988478;fill-opacity:1;stroke-width:0.2;stop-color:#000000"
       id="rect2727-4"
       width="23.755625"
       height="9.98839"
       x="-136.60474"
       y="96.186089"
       transform="rotate(-93.728803)" />
    <path
       id="rect2619"
       style="opacity:0.99;fill:#483e37;stroke-width:0.2;stop-color:#000000"
       d="m 88.294076,138.56557 1.066164,-34.43865 13.75761,-0.89661 2.33597,35.84314 z"
       sodipodi:nodetypes="ccccc" />
    <path
       id="rect1471"
       style="opacity:0.99;fill:#9d7963;stroke-width:0.2;stop-color:#000000"
       d="m 39.312329,140.71147 -2.470302,0.10136 0.471241,-21.9991 57.698468,-0.0402 0.01435,20.61743 -55.515726,0.0386 z"
       sodipodi:nodetypes="ccccccc" />
    <path
       id="rect1547-5"
       style="opacity:0.99;fill:#7e614f;stroke-width:0.2;stop-color:#000000"
       d="M 58.421237,110.10736 50.741551,99.874033 70.745315,88.556438 76.524586,99.648926 Z"
       sodipodi:nodetypes="ccccc" />
    <rect
       style="opacity:0.99;fill:#333333;fill-opacity:0.940171;stroke-width:0.2;stop-color:#000000"
       id="rect2673"
       width="1.5384861"
       height="13.643157"
       x="-118.84168"
       y="82.917557"
       transform="rotate(-93.728803)" />
    <path
       id="rect1471-6"
       style="opacity:0.99;fill:#8b6a57;stroke-width:0.2;stop-color:#000000"
       d="m 37.303656,118.81373 -0.01481,-21.28803 1.813285,-0.06376 0.03412,1.108108 55.5963,0.08493 0.06933,4.350368 -0.949817,0.58529 0.003,4.32095 1.039136,0.75084 0.117529,10.11114 z"
       sodipodi:nodetypes="ccccccccccc" />
    <path
       id="rect188-7"
       style="opacity:0.99;fill:#ffc49c;stroke-width:0.2;stop-color:#000000"
       d="m 5.9424193,118.83556 -0.014092,-20.242402 31.3612432,-0.02183 0.0019,2.691782 3.539936,1.92083 0.02766,5.13955 -3.559157,5.06524 0.0038,5.425 z"
       sodipodi:nodetypes="ccccccccc" />
    <rect
       style="opacity:0.99;fill:#784421;fill-opacity:0.472934;stroke-width:0.2;stop-color:#000000"
       id="rect1395"
       width="12.218546"
       height="1.000051"
       x="-111.92072"
       y="34.284801"
       transform="rotate(-90.039884)" />
    <g
       id="g2821"
       transform="rotate(-90.039884,60.099728,117.21389)">
      <rect
         style="opacity:0.99;fill:#d38d5f;fill-opacity:1;stroke-width:0.2;stop-color:#000000"
         id="rect1184"
         width="7.8754015"
         height="13.250676"
         x="68.503487"
         y="82.879227" />
      <rect
         style="opacity:0.99;fill:#d7976d;fill-opacity:1;stroke-width:0.2;stop-color:#000000"
         id="rect1184-1"
         width="2.437624"
         height="13.250676"
         x="68.503487"
         y="82.879227" />
    </g>
    <rect
       style="opacity:0.99;fill:#ffffff;fill-opacity:1;stroke-width:0.200003;stop-color:#000000"
       id="rect1292"
       width="2.5626299"
       height="0.14557187"
       x="-114.03991"
       y="23.773916"
       transform="matrix(-5.7899966e-5,-1,0.99996498,-0.00836872,0,0)" />
    <rect
       style="opacity:0.99;fill:#ffffff;fill-opacity:1;stroke-width:0.200003;stop-color:#000000"
       id="rect1292-0"
       width="2.5626299"
       height="0.14557187"
       x="-103.95842"
       y="23.773916"
       transform="matrix(-5.7899966e-5,-1,0.99996498,-0.00836872,0,0)" />
    <rect
       style="opacity:0.99;fill:#008000;fill-opacity:1;stroke-width:0.200003;stop-color:#000000"
       id="rect1292-8-5"
       width="2.5626299"
       height="0.14557187"
       x="-101.42288"
       y="23.773916"
       transform="matrix(-5.7899966e-5,-1,0.99996498,-0.00836872,0,0)" />
    <path
       id="rect1238"
       style="opacity:0.99;fill:#1a1a1a;stroke-width:0.2;stop-color:#000000"
       d="m 13.868625,114.01721 c -0.893584,-4.99306 -1.292876,-10.52274 -0.01062,-15.25909 l 1.375068,-9.56e-4 c -2.106643,3.944886 -0.937417,11.269636 0.01062,15.259086 z"
       sodipodi:nodetypes="ccccc" />
    <rect
       style="opacity:0.99;fill:#008000;fill-opacity:1;stroke-width:0.200003;stop-color:#000000"
       id="rect1292-8"
       width="2.5626299"
       height="0.14557187"
       x="-111.50437"
       y="23.773916"
       transform="matrix(-5.7899966e-5,-1,0.99996498,-0.00836872,0,0)" />
    <rect
       style="opacity:0.99;fill:#725848;fill-opacity:1;stroke-width:0.202079;stop-color:#000000"
       id="rect1547"
       width="8.4052181"
       height="21.216919"
       x="-149.16951"
       y="-42.051548"
       transform="matrix(-0.63139797,-0.77545897,0.88667604,-0.46239118,0,0)" />
    <rect
       style="opacity:0.99;fill:#483e37;fill-opacity:0.549858;stroke-width:0.2;stop-color:#000000"
       id="rect1891"
       width="4.0002041"
       height="53.008324"
       x="-107.78223"
       y="40.771587"
       transform="rotate(-90.039884)" />
    <path
       id="rect1601"
       style="opacity:0.99;fill:#725848;stroke-width:0.2;stop-color:#000000"
       d="m 70.404752,118.79069 -0.150026,-30.233908 5.431438,-0.04468 0.02562,36.796489 z"
       sodipodi:nodetypes="ccccc" />
    <path
       id="rect1774"
       style="opacity:0.99;fill:#7e614f;stroke-width:0.2;stop-color:#000000"
       d="m 63.646318,118.79539 -0.0141,-20.242403 6.756067,-3.419717 0.01646,23.65742 z"
       sodipodi:nodetypes="ccccc" />
    <path
       id="rect1829"
       style="opacity:0.99;fill:#7e614f;stroke-width:0.2;stop-color:#000000"
       d="m 51.592207,128.60121 -0.0046,-6.58342 12.05661,-6.1985 6.760513,2.9714 z"
       sodipodi:nodetypes="ccccc" />
    <path
       id="rect1833"
       style="opacity:0.99;fill:#483e37;fill-opacity:0.549858;stroke-width:0.2;stop-color:#000000"
       d="m 63.637551,106.19947 -6.75e-4,-0.9688 6.84701,-2.87991 5.211924,-0.004 9.52e-4,1.37507 -5.180666,0.004 z"
       sodipodi:nodetypes="ccccccc" />
    <g
       id="g2753"
       transform="matrix(-0.05324193,-0.81694553,0.99788305,-0.06503397,-57.213457,183.4092)"
       style="stroke-width:1.10521">
      <rect
         style="opacity:0.99;fill:#836f64;fill-opacity:1;stroke-width:0.221041;stop-color:#000000"
         id="rect2727-9"
         width="32.172161"
         height="9.98839"
         x="49.058743"
         y="165.20625" />
      <rect
         style="opacity:0.99;fill:#988478;fill-opacity:1;stroke-width:0.221041;stop-color:#000000"
         id="rect2727"
         width="29.017033"
         height="9.98839"
         x="41.118694"
         y="165.20625" />
    </g>
  </g>
</svg>
